<svg xmlns="http://www.w3.org/2000/svg" viewBox="0 0 252 28"><defs><style>.a{fill:#383c3c;}</style></defs><title>foot_logo</title><path class="a" d="M37.14537,3.98956A43.82922,43.82922,0,0,0,31.24,2.65271V5.86353a56.93263,56.93263,0,0,1,5.90537,1.75194Z"/><path class="a" d="M37.14537,10.7478A43.69824,43.69824,0,0,0,31.24,9.411v3.21081a57.37241,57.37241,0,0,1,5.90537,1.752Z"/><path class="a" d="M31.27487,23.34429v4.69585c3.89451-1.99866,5.92979-5.25221,6.36671-10.95791H34.10113c-.36888,3.53344-1.38391,5.32374-2.82626,6.26206"/><path class="a" d="M49.72181,14.40594h5.79553v-3.339H49.72181V8.55549h6.96053V5.30717H53.45845c.67409-1.138,1.45284-2.52975,1.95076-3.53085H51.39785c-.35142.545-1.23478,2.32835-1.96728,3.53085H45.90231c-.74647-1.2025-1.64988-2.98583-2.00653-3.53085H39.84956c.52671,1.0011,1.35511,2.39286,2.06756,3.53085H38.90686V8.55549H45.693v2.51145H40.07713v3.339H45.693v2.63441H38.368v3.33989H45.693v7.18118h4.02877V20.38024h7.50207V17.04035H49.72181Z"/><rect class="a" x="62.18664" y="2.86377" width="18.95446" height="3.68257"/><path class="a" d="M15.96985.97056H11.94457V3.278H.93776V6.3606H11.94457v1.588H3.10565v10.699H9.4645A18.97475,18.97475,0,0,1,1.052,23.65906v3.578A21.75237,21.75237,0,0,0,11.94457,20.6v6.94049h4.02528V20.49883c2.15043,2.726,6.27425,5.29847,10.97885,6.73818V23.70442a18.884,18.884,0,0,1-8.44994-5.05692h6.25505V7.94855h-8.784V6.3606H26.95134V3.278H15.96985ZM12.01431,12.39941H7.11263V10.61787h4.90168ZM7.11263,14.481h4.90168v1.6743H7.11263Zm8.78659,0h4.94007v1.6743H15.89922Zm4.94007-2.08154H15.89922V10.61787h4.94007Z"/><path class="a" d="M60.39724,13.39355H77.2527c-1.08392,6.73818-7.34339,9.35688-13.32028,9.642v3.87965C75.92983,26.27342,81.47073,20.63835,83.091,9.71268H60.39724Z"/><path class="a" d="M131.45032,3.28667h-19.36V7.29718h12.69324a26.33352,26.33352,0,0,1-14.00652,15.10008v4.211a29.11148,29.11148,0,0,0,12.63221-8.2564c1.88535,2.19928,3.85612,4.62616,6.28126,7.79947h5.22958a142.59327,142.59327,0,0,0-8.86419-11.2091,43.34363,43.34363,0,0,0,5.39437-11.65558"/><path class="a" d="M85.60326,12.12211v4.0122A56.96189,56.96189,0,0,0,95.731,13.52521V26.70334h4.38109V11.58146c4.45435-2.365,7.53-5.41883,9.10229-9.15109h-5.05259c-3.08437,5.05254-11.38957,8.43691-18.55856,9.69174"/><path class="a" d="M195.76262,18.37019h6.49312A49.43038,49.43038,0,0,1,199.501,23.939h-2.09551v2.87422h12.40205a18.45636,18.45636,0,0,0,7.4768-1.23305c.19444.43952.38282.87117.54761,1.27229h3.86049c-1.29671-2.58208-2.84283-5.31851-3.8788-7.04777H214.384c.49359.85023,1.13277,2.06586,1.765,3.353a19.58708,19.58708,0,0,1-6.34925.78134H203.3205a59.93556,59.93556,0,0,0,2.77479-5.56881h15.6146V15.54308H195.76262Z"/><path class="a" d="M200.33989,12.8058h16.7709V10.22372a33.83422,33.83422,0,0,0,4.41073,1.58706V8.61568A25.33543,25.33543,0,0,1,209.69766.838h-1.98125a23.75681,23.75681,0,0,1-11.80993,7.77764v3.23957a29.00717,29.00717,0,0,0,4.43341-1.57139ZM208.755,4.59039a25.90044,25.90044,0,0,0,7.88577,5.42228h-15.707A26.55357,26.55357,0,0,0,208.755,4.59039"/><polygon class="a" points="244.471 23.889 244.471 10.982 250.149 10.982 250.149 8.181 244.471 8.181 244.471 1.099 241.125 1.099 241.125 8.181 235.845 8.181 235.845 10.982 241.125 10.982 241.125 23.889 234.825 23.889 234.825 26.682 250.938 26.682 250.938 23.889 244.471 23.889"/><rect class="a" x="189.44476" y="0.9331" width="3.60233" height="2.39545"/><path class="a" d="M177.15258,15.30939h5.16506V12.50492H169.39937v2.80447h4.28514v7.46108c-1.77633.32526-3.52211.58427-5.11184.73076V26.6231a69.55869,69.55869,0,0,0,15.51518-3.6852V20.096a68.03079,68.03079,0,0,1-6.93527,1.95594Z"/><path class="a" d="M145.98011,10.29V8.777H147.998V6.01006h-1.96384V1.15982H142.996V6.01006h-3.9442V8.777H142.587a34.99064,34.99064,0,0,1-3.77673,7.92676v4.218a37.41981,37.41981,0,0,0,4.24067-6.78529V27.25358h2.92917V13.799a20.52645,20.52645,0,0,0,2.05015,2.14779V12.51626A23.9014,23.9014,0,0,1,145.98011,10.29"/><path class="a" d="M161.01912,15.43061h4.62526V12.83719H158.9158l.00786-.15087V8.61742h5.88273V5.92809h-5.88273v-4.77h-3.29105v4.77h-2.535a14.19789,14.19789,0,0,0,.99324-4.21106h-3.02946a8.95557,8.95557,0,0,1-1.88794,5.19644V11.06a11.17042,11.17042,0,0,0,2.41814-2.44255h4.041v4.164l.00263.05581H149.1508v2.59342h4.25637a17.25524,17.25524,0,0,1-4.77961,6.25072V25.35a23.813,23.813,0,0,0,7.067-8.54853V27.2588h3.1681v-10.576a27.11663,27.11663,0,0,0,6.99106,8.42034V21.30459a19.21785,19.21785,0,0,1-4.83457-5.874"/><path class="a" d="M235.59,18.47052v-3.1088a22.89179,22.89179,0,0,1-3.44629-2.1269,17.96867,17.96867,0,0,0,2.85939-7.70615h-3.41834V1.09879h-3.17246V5.52867h-3.60761V8.48834H231.481a16.35377,16.35377,0,0,1-7.15766,8.45785v2.90386a16.75469,16.75469,0,0,0,4.18138-2.55856v9.91065h3.23265V16.00264A24.39974,24.39974,0,0,0,235.59,18.47052"/><path class="a" d="M187.5882,8.44128h5.54435V5.53389H187.487l-.00871-.307c-.02442-1.397-.02442-2.821-.0096-4.33657h-3.37739c0,1.47718.02009,2.87944.0567,4.33657l.01045.307H168.56834V8.44128h15.69479c.43863,8.559,2.84109,17.53041,9.30371,18.70242V23.489c-3.61283-.83715-5.63159-8.8616-5.97864-15.04776"/></svg>