<svg xmlns="http://www.w3.org/2000/svg" viewBox="0 0 44 20"><defs><style>.a{fill:#fff;}</style></defs><title>icn_arrow__3</title><path class="a" d="M36.53274,9.8527,32.07522,2.16478c-.11013-.11537-.22026-.2255-.22026-.33562s.11013-.11013.11013-.2255L33.07685.82753c.11537-.11538.2255-.23075.33562-.23075s.2255.11537.33563.23075l8.57942,8.46929c.22025.22025.44575.33562.44575.55588a.59292.59292,0,0,1-.33563.44575L33.7481,18.87787c-.11013.11537-.2255.2255-.33563.2255s-.22025,0-.22025-.11013l-1.22713-.8915c-.11013,0-.12062-.11538-.12062-.2255a.43233.43233,0,0,1,.12062-.33563Z"/><path class="a" d="M20.99714,9.8527,16.53962,2.16478c-.11013-.11537-.22026-.2255-.22026-.33562s.11013-.11013.11013-.2255L17.54125.82753c.11537-.11538.22549-.23075.33562-.23075s.2255.11537.33563.23075l8.57942,8.46929c.22025.22025.44575.33562.44575.55588a.59292.59292,0,0,1-.33563.44575L18.2125,18.87787c-.11013.11537-.2255.2255-.33563.2255s-.22025,0-.22025-.11013l-1.22713-.8915c-.11013,0-.12062-.11538-.12062-.2255a.43233.43233,0,0,1,.12062-.33563Z"/><path class="a" d="M5.46154,9.8527,1.004,2.16478c-.11012-.11537-.22025-.2255-.22025-.33562s.11013-.11013.11013-.2255L2.00565.82753C2.121.71215,2.23114.59678,2.34127.59678s.2255.11537.33563.23075l8.57942,8.46929c.22025.22025.44575.33562.44575.55588a.59292.59292,0,0,1-.33563.44575L2.6769,18.87787c-.11013.11537-.2255.2255-.33563.2255s-.22025,0-.22025-.11013l-1.22713-.8915c-.11013,0-.12062-.11538-.12062-.2255a.43233.43233,0,0,1,.12062-.33563Z"/></svg>