<svg xmlns="http://www.w3.org/2000/svg" viewBox="0 0 66 44"><title>icn_foot_02</title><path d="M32.02408,1.06773a3.49205,3.49205,0,0,1-.6301.09695,3.42979,3.42979,0,0,0-.59091.08547c-.07056.02641-.133.01675-.13274-.02053a1.45181,1.45181,0,0,0-.64471-.04388c-.46922.0192-.67106.0593-.73993.14689-.077.0979-.11805.10124-.21906.01792-.09325-.07692-.14793-.0793-.21881-.00947-.12722.12529-.31753.10709-.26556-.02541a.06889.06889,0,0,0-.06971-.10219.12753.12753,0,0,0-.11051.1399c-.00143.191-.09422.18695-.21492-.00941a.30724.30724,0,0,0-.23343-.1503c-.12514.00622-.12549.00993-.00422.04336.1716.04728.2538.26342.09966.26227-.06256-.00047-.117-.03375-.11676-.07124.00071-.09493-.49133-.16246-.5936-.08145a1.64079,1.64079,0,0,1-.59063.04913,1.94545,1.94545,0,0,0-.59446.03855.40781.40781,0,0,1-.26986.01347,8.33437,8.33437,0,0,0-1.89307.13672c-.10981.0465-.13237.03653-.08571-.038.05065-.08093.01242-.09137-.19116-.05226a2.69546,2.69546,0,0,1-.42254.04767c-.14072-.001-.14908.01194-.05143.07985.10861.07551-.07861.05468-.47651-.053a5.57994,5.57994,0,0,0-.69555-.04381c-.44557-.00938-.59929.01555-.66924.10836-.06449.08555-.11337.09763-.1684.04174a15.00571,15.00571,0,0,0-2.52383-.20354c-.10832.01053-.64922.03828-1.21231.06222s-1.19129.06979-1.4081.10283a7.1939,7.1939,0,0,1-1.09476.02862,25.52715,25.52715,0,0,0-2.99406-.054A1.73555,1.73555,0,0,1,11.5592,1.63c-.0172-.01523-.71509-.04148-1.55936-.05857-1.43055-.029-1.52085-.02243-1.412.1028.07526.08659.08854.15151.03775.184-.04309.02751-.13427-.05967-.20192-.19307a.69257.69257,0,0,0-.70114-.3273,1.44883,1.44883,0,0,1-.309.01869.63229.63229,0,0,0-.33682.07961q-.10617.08517-.18377.00642c-.0934-.09481-.38271-.04979-.38353.0597a.07506.07506,0,0,1-.08261.06975c-.0469-.00036-.06088-.034-.03265-.07845.045-.07088-.28252-.12552-.47046-.07846a4.2697,4.2697,0,0,1-.43035.04046,3.79931,3.79931,0,0,0-.53209.06542,9.56436,9.56436,0,0,1-1.18941.13279c-.35963-.00269-1.9543-.12705-2.17223-.16936-.43967-.08542-.553.149-.3148.65116a.23149.23149,0,0,1-.01276.28523c-.07774.09256-.05568.12693.12362.19248l.21833.07983-.22287.00617c-.18766.00514-.2082.02473-.12992.12408a.15051.15051,0,0,1,.00617.22291c-.06733.0813-.0538.14812.0603.29753.13047.17086.13747.23949.06193.60641-.06912.33563-.06466.42716.02373.48488.07782.05088.0842.08781.0225.12938-.13363.08986-.21156.85647-.09282.913.07478.03566.07382.05378-.00462.09072a.19254.19254,0,0,0-.09892.15956c-.00047.06252.03437.09186.07771.06547.12081-.07368.0871.05692-.05478.21225-.1064.11646-.10953.14685-.01854.18226.13051.05085.105.58455-.02783.58356-.0421-.00032-.06087.09337-.04062.203.02747.14873-.00041.2132-.10342.23947-.188.04785-.20693.64946-.02054.65086.0626.00046.09524.0226.07.04745-.02616.02574-.01642.12887.0217.23079.04107.1098.03726.20364-.00953.23223-.08643.05269-.09813.66051-.01279.66172a15.134,15.134,0,0,1-.00827,2.46383,1.39956,1.39956,0,0,0-.00857.80523c.05286.102.04865.17733-.0133.23836-.04724.04654-.06066.08944-.028.08968.03573.00027.02365.04711-.02819.10929-.06923.083-.05384.24975.0651.70412a5.11243,5.11243,0,0,1,.15467.75172c-.00065.086.03578.15662.08092.157.04475.00034.02478.05882-.044.1287a.32738.32738,0,0,0-.08059.32.38415.38415,0,0,1-.05314.30839c-.08121.096-.07524.12986.03376.19181.07007.03987.11.11193.08485.15313a.1801.1801,0,0,0,.04549.188.18378.18378,0,0,1,.02579.21128,2.0031,2.0031,0,0,0-.09041.58963c-.01856.39078.00028.48868.0941.48939.06253.00046.117.041.11661.08683-.00037.05058-.05521.06469-.13318.03417-.12516-.04891-.12552-.04394-.0064.08988a.51965.51965,0,0,1-.04345.62514.63213.63213,0,0,0-.03644.37111c.02083.15652.00286.27758-.04121.27725s-.03381.05448.02325.12527c.13947.173.15817.36437.0429.439-.06809.04406-.05538.09138.04565.17029.16324.12753.17164.20576.0219.20464-.14071-.001-.23005.23909-.12762.34306a.51143.51143,0,0,1,.0759.30159.97384.97384,0,0,0,.08313.3876c.06862.13348.06251.15618-.03219.11945-.17174-.06671-.24131.43365-.10608.763a.56087.56087,0,0,1,.06774.29763,4.32033,4.32033,0,0,0,.00154,1.29005c.03463.10968.106.17142.18223.15769a.13258.13258,0,0,1,.1516.11453c.01959.10177-.00672.12368-.10227.08523-.10168-.04094-.11824-.01656-.07907.1167.02767.094.015.16821-.02862.16788-.04428-.00033-.06873.17927-.05636.41392.03295.62576.03295.62576.19746.58292.08617-.02243.15643-.0091.15614.02957-.00028.03791-.04745.07-.10215.06963-.05494-.00041-.17258.1316-.256.28734-.16481.30747-.16495.288.009,1.55592.05258.38351.04458.49109-.04062.547-.08246.05415-.08851.11664-.02707.28125A3.832,3.832,0,0,1,1.36372,28.836c-.15459.05025.07545.37184.23212.32447.12538-.03791.12536-.03505-.00036.04865a.19824.19824,0,0,0-.09141.2026c.02325.06271.01063.11345-.02825.11315-.03816-.00028-.07483.12454-.08017.27306s.0188.25591.05294.23495c.03446-.0212.11673.0712.18223.20462.11166.22759.11024.24558-.02166.27932-.32116.08224-.38925.71961-.1009.94484.10883.085.11014.10585.01049.16667-.08639.05272-.09141.097-.0209.18357a1.1268,1.1268,0,0,1,.1058.48947c.00962.28152.04791.38476.15326.41295.14823.03967.196.176.06126.175-.04174-.00031-.0786.05411-.07907.11667-.001.14072-.12848.15644-.1796.02213-.02136-.05618-.02812.121-.01508.3947a2.00921,2.00921,0,0,1-.05978.67585c-.06614.142-.04363.2655.10826.595.28213.612.30745.637.68362.67587a3.27144,3.27144,0,0,1,.43731.06749c.05038.01719.07581-.0151.05508-.07-.05059-.13384.39258-.19921.98639-.14554.23439.02121.61445.04734.83612.05755a1.36483,1.36483,0,0,1,.44909.06592.90642.90642,0,0,1,.06969.30541c.02948.28171.16341.41124.37486.36267.15663-.036.18827.07581.03809.13457-.05381.021-.0355.04059.04266.04564s.13652.04069.1362.08312c-.00032.04342-.106.05565-.25434.02939-.242-.04284-.24657-.03926-.09831.07743a.42691.42691,0,0,0,.33168.08068c.141-.03336.16668-.01675.12841.08306a.18174.18174,0,0,1-.14559.124c-.057-.00043-.10185.1165-.10766.28065-.00741.211.02618.29141.13446.32156a.48663.48663,0,0,1,.23683.21679.30308.30308,0,0,0,.22152.16972c.0803-.00423.13745.05969.15122.16925.01179.09392.05674.17632.09641.17662s.07381.05532.07335.11784.03564.11753.07731.11784a.59365.59365,0,0,1,.24875.19732.55738.55738,0,0,0,.27214.19753c.05473.00041.10142.0332.10113.07108-.00087.11729.4885.18252.55935.07458.051-.07781.08146-.07758.132.001a.16916.16916,0,0,0,.19506.05226c.07057-.0272.12911-.01077.12876.03616a.08489.08489,0,0,1-.08273.08538c-.04693-.00035-.06224.03305-.03579.07789a.203.203,0,0,0,.16754.07945c.08856.00066.11115-.0539.084-.20266-.04289-.23488.15565-.47968.28367-.3497a.34808.34808,0,0,0,.22221.0877.21662.21662,0,0,1,.18254.15772c.02515.08619.08092.157.12392.15729.04364.00033.05625-.07388.02862-.16791-.03921-.13319-.02429-.15844.07126-.12063.07016.02778.13426.00859.15281-.04579.01865-.05456.05623-.0722.09021-.04232.03177.028.01517.12914-.03658.22258-.12608.22775-.06483.26938.37314.25345a.61826.61826,0,0,0,.46626-.14554c.05229-.07.09839-.088.098-.03837-.00129.172.15954.095.24128-.11549.06657-.17149.09532-.18934.15512-.09656.063.09766.07359.09438.07447-.02288q.001-.13682-.18663-.13822c-.17978-.00135-.33785-.20775-.23228-.30333.03212-.02906.06786-.01065.08566.04421a.58519.58519,0,0,0,.31136.186c.2418.07926.2907.07476.35206-.03253.04012-.07006.10706-.10376.15307-.077.0473.0275.07112-.0151.05649-.10124-.02789-.16441.06286-.33572.1774-.33486.05372.0004.04754.04725-.01657.125-.08335.101-.08141.13768.01027.19553a.286.286,0,0,0,.21868.03294,1.077,1.077,0,0,1,.29346-.03694c.10162.00076.18784-.029.18811-.065.00028-.03766-.10122-.05538-.23422-.04085s-.23449-.00826-.23416-.05258.15682-.06168.35992-.04031c.29688.0313.3514.0174.31335-.07975-.03156-.08062-.00312-.10992.09059-.09315.07809.014.1286-.01911.11784-.07732-.01007-.05477.01716-.07982.05907-.05425.04358.02662.118-.03822.16919-.1473s.11531-.17942.14586-.15988c.0686.04394.1959-.19721.22773-.43153.00636-.04685.03561-.07414.07309-.06824.14839.0234.2503-.01458.25089-.09349.00048-.06371-.02688-.06391-.10555-.00079-.05507.0442-.13233.05864-.16049.03006-.03106-.03149-.08314-.00845-.12159.05383-.05436.08805-.10235.09073-.2503.01376-.17912-.09317-.17926-.09425-.00741-.05089q.17556.04434.22336-.07653c.02778-.07015.07721-.10237.11783-.07681.19689.12363.9072-.67782.81619-.92082-.03507-.0937-.00686-.13412.09478-.13611.13295-.00262.134-.01106.01251-.104-.13993-.10711-.19841-.25128-.06909-.17036a1.39481,1.39481,0,0,0,.49277-.03005,30.26994,30.26994,0,0,1,3.34753-.16712c1.19629-.01115,1.19629-.01115,1.13017-.1289-.03075-.05475.01644-.0363.10187.03986.14462.12889.22967.13561.92594.07335.55548-.04964.79175-.10278.85757-.19294.07948-.10887.10295-.10966.18767-.00639.07554.092.28449.11939.949.12436a2.972,2.972,0,0,0,.85261-.05615,3.42507,3.42507,0,0,1,.91913-.06352c.50818-.00049,1.041-.00352,1.19233-.00672.1533-.00321.44563.00584.66441.02061a4.08241,4.08241,0,0,0,.7234-.02192,1.10737,1.10737,0,0,1,.36368-.01688,9.48378,9.48378,0,0,0,1.87624.02233.392.392,0,0,1,.31652.01758.11432.11432,0,0,0,.16416.00512c.04746-.04679.223-.03381.48054.03547a7.84511,7.84511,0,0,0,2.42331.05022c.07759-.06277.12944-.05988.21494.01191a3.17292,3.17292,0,0,0,1.231.05782,26.19549,26.19549,0,0,0,3.5435-.2358,15.82332,15.82332,0,0,1,1.6967-.01986c1.40713.02838,1.54688.01894,1.61924-.10908.07044-.12457.09869-.12782.25431-.02936.12451.07877.18434.08483.207.02108.01667-.04681.06174-.07076.09421-.05013.03439.02187.0689-.14414.077-.37077s.01725-.49781.02017-.60579-.01636-.563-.04319-1.01671-.05884-1.01385-.07145-1.25147a5.23155,5.23155,0,0,0-.13542-1.24416.08316.08316,0,0,1,.02316-.1217,5.11288,5.11288,0,0,0-.06524-1.73156c-.05637-.06864-.0422-.10691.05188-.14037.1019-.03616.11045-.06929.04027-.156-.07-.08652-.0697-.12254.00125-.16812.06776-.04342.067-.0718-.00305-.11339-.07219-.04278-.06972-.13341.01078-.39863a1.72274,1.72274,0,0,0,.089-.39808c-.00815-.02925.03932-.03373.1017-.00965.12474.04826.16547-.09345.04815-.16745a.13878.13878,0,0,1-.03-.16989.15467.15467,0,0,0-.05726-.18808c-.07341-.04706-.1004-.21188-.08969-.548.01322-.41429-.00044-.46787-.09873-.38776-.09441.077-.114.07413-.11327-.01644a.32788.32788,0,0,1,.09534-.20262c.07229-.07118.06326-.09332-.03839-.09408-.07036-.00052-.1326-.03962-.13227-.08308.00035-.0469.03063-.06377.07065-.03932.12154.07413.22165-.369.20178-.89293-.01066-.28157-.02076-.54325-.02262-.58654s.02607-.49629.06231-1.012a3.8873,3.8873,0,0,0-.02235-1.19248c-.048-.14109-.056-.25844-.01763-.25816.03867.00029.07088-.06983.07153-.15582.00128-.172.30617-.48353.40968-.41861.034.02128.06256-.00007.06291-.047.00036-.048-.07369-.07617-.16761-.06378-.12791.01686-.17363-.02477-.19069-.17345-.03768-.32867-.10243-3.48416-.07592-3.69866.02939-.23763-.10313-4.67616-.16038-5.37242-.01587-.19286-.04888-.75876-.07306-1.25149a4.65926,4.65926,0,0,0-.1557-1.13484c-.07068-.14909-.08141-.24518-.0293-.26214a.0733.0733,0,0,0,.03211-.11312A6.90841,6.90841,0,0,1,40.581,7.38259a11.10859,11.10859,0,0,0-.09537-1.35722,6.14586,6.14586,0,0,1-.07074-.99735c.00427-.57074-.00623-.61578-.12877-.55134a2.16091,2.16091,0,0,1-.61141.21045c-.15658.0253-.15658.0253.00074-.09859a2.15961,2.15961,0,0,1,.40828-.2315.55038.55038,0,0,0,.293-.248c.06068-.20284.04634-.71892-.01994-.71942-.06-.00045-.03872-.5007.0286-.67219a.16239.16239,0,0,0-.08868-.17655c-.11746-.06881-.11665-.08658.00938-.20712.10539-.10088.13036-.22578.10621-.53088-.03464-.43811-.16836-.59976-.50812-.61429a2.35222,2.35222,0,0,1-.35934-.04611A16.87754,16.87754,0,0,0,36.70691,1.118a.81812.81812,0,0,1-.66479.03045A.24884.24884,0,0,0,35.78,1.178c-.08647.06868-.13665.07174-.17282.0104-.04708-.07973-.29923-.13316-.54173-.1148-.06571.005-.0927.05536-.0674.12591.02246.0627.00746.11732-.03218.117-.04156-.00031-.07393-.04358-.07352-.09828.00049-.06574-.14-.10263-.42917-.11263-.2345-.0082-.43015.017-.43043.05537a.08548.08548,0,0,0,.0894.071c.04693.00035.07122.01925.05086.03948-.06834.06789-.3022-.04919-.25364-.127.02411-.03874-.08921-.07279-.25338-.0762-.16241-.00336-.56276-.01877-.88324-.034a3.13222,3.13222,0,0,0-.75864.03339Zm.83543.15481a.07818.07818,0,1,1-.0776-.07878.07388.07388,0,0,1,.0776.07878Zm.82723.014c.08138.1335-.016.1581-.12039.03036-.05792-.07079-.06365-.11777-.01436-.1174a.1872.1872,0,0,1,.13475.087Zm5.54442.03365c.02646.04488.01111.07828-.03578.07793a.07834.07834,0,0,1-.08151-.07881c.00035-.04689.01464-.07809.03578-.07793s.05371.0317.08151.07881Zm-.58813.23015a.07818.07818,0,1,1-.07757-.07874.07385.07385,0,0,1,.07757.07874Zm.15521.15756a.07834.07834,0,0,1-.08271.07754c-.04689-.00035-.0617-.034-.03457-.07842.0285-.04668.06157-.07773.08267-.07758s.035.03157.03461.07846Zm.97665.08547c.02646.04488-.02405.078-.11787.07731s-.14383-.03459-.11671-.07907a.12709.12709,0,0,1,.23458.00176Zm-1.4111.30219c-.04906.08366.17234.15958.602.20648a1.12291,1.12291,0,0,1,.363.07826,1.1631,1.1631,0,0,1,.02716.41069c-.01686.39862-.02287.58427-.02405.74255-.00039.05143-.02384.35167-.05187.66418a2.50979,2.50979,0,0,0,.00644.70368.54665.54665,0,0,1,.04121.2388.36688.36688,0,0,0,.10374.24313c.0992.11371.10482.18064.0323.38336a.64715.64715,0,0,0-.0263.38292.86974.86974,0,0,1,.06872.2155.52.52,0,0,0,.06514.17641c.03246.055.02009.09788-.02806.09752-.13127-.001-.09541.21177.04494.26669.23091.09041.06156.12906-.70491.16078a4.9967,4.9967,0,0,0-.9429.10391,3.7252,3.7252,0,0,1-1.07488-.0129C35.985,7.022,32.82467,6.9261,30.745,6.92177a5.25446,5.25446,0,0,0-1.56421.06928,1.89479,1.89479,0,0,1-.51974-.02213,1.96588,1.96588,0,0,0-.66465.01066,5.43824,5.43824,0,0,1-.94685.11021c-.42235.02281-.93711.05248-1.15371.06656-.76707.04968-3.4019.12014-5.60689.1499a2.47524,2.47524,0,0,0-.72835.07153,27.18112,27.18112,0,0,1-4.01054.05431,8.62636,8.62636,0,0,0-1.01656.0189,25.94382,25.94382,0,0,1-2.67468.10791c-.23446-.01263-.723-.03059-1.07472-.03959a2.31132,2.31132,0,0,1-.64456-.06349c.00026-.03523-2.51722-.03915-3.16638-.005-.04359.00233-.32041-.02378-.62507-.059a13.21139,13.21139,0,0,0-2.65153.03135,2.85815,2.85815,0,0,1-.67117-.04019c-.48433-.0605-.64989-.11214-.70592-.2203a.16966.16966,0,0,0-.19082-.09916c-.08777.03147-.11708-.02434-.11561-.21979.00107-.144-.00414-.82482-.01151-1.51295a8.37638,8.37638,0,0,1,.17574-2.67592.25008.25008,0,0,1,.20644.09484c.06984.07088.13855.09107.16387.04812A.08706.08706,0,0,0,2.5133,2.675c-.20184-.12707.00119-.15881,1.07237-.16772.63335-.00524,1.405-.02361,1.70473-.04065.30014-.017,1.02453-.047,1.60325-.06621S8.0024,2.36245,8.0667,2.359c.14866-.008,2.3053.16116,2.30511.1808-.00044.0597.4094.03436.45133-.02789.03993-.05923.05771-.0543.05787.01607a3.21353,3.21353,0,0,0,1.63305.00438q.09455-.09309.15008-.00668c.07065.11.29126.2005.34931.14334a1.83562,1.83562,0,0,1,.52035-.05867,1.747,1.747,0,0,0,.52431-.0625c.02844-.028.11349-.01693.19137.02489a.363.363,0,0,0,.26171.02933c.07056-.02673.12122-.00832.12083.0439a.04766.04766,0,0,0,.07783.04354.69569.69569,0,0,1,.35163.03c.17945.05013.28934.04963.32056-.00154.0285-.04668.07546-.04948.11735-.00692a3.00629,3.00629,0,0,0,1.16795-.12419,2.93323,2.93323,0,0,1,1.09853.03168c.02224.03047.15379.02276.29482-.01732a.99414.99414,0,0,1,.42632-.02811.9963.9963,0,0,0,.24992.03635c.1757-.01793.88362-.01732,1.21187.001.20317.01136.356-.0159.37342-.0666.03229-.09359.25336-.11247.25268-.02157a1.968,1.968,0,0,0,.6447.044c.35426-.00593,1.5052-.022,2.553-.03563s2.07015-.04829,2.2679-.07686a5.24249,5.24249,0,0,1,.63364-.05.51731.51731,0,0,0,.33291-.0835c.04235-.06114.07917-.05414.12885.02439a.11617.11617,0,0,0,.15594.05568,7.97624,7.97624,0,0,1,1.416-.11428c.06449.00048.258-.00158.43-.00458.17326-.003.53954-.009.821-.01343a2.07958,2.07958,0,0,0,.60646-.06972.28832.28832,0,0,1,.25393.02533.32554.32554,0,0,0,.29305.01782,1.60313,1.60313,0,0,1,.55156-.05057c.31264.01411.43267-.01182.48947-.1058.06874-.11384.08215-.11274.15626.01291.07072.11993.21005.13836,1.0935.145A4.19611,4.19611,0,0,0,34.416,2.188c.00026-.03441.07086-.062.15682-.06139s.15617.02932.15591.06373c-.00064.086.60219.0905.65588.00491.04688-.0747.25152-.06774.43852.015a7.51332,7.51332,0,0,0,1.20017-.00275c.89162-.04485,1.09656-.07783,1.15851-.18679.03987-.07007.11008-.11186.14919-.08878a.07909.07909,0,0,1,.03284.1136Zm1.7121,1.26375c.0265.04488-.02405.078-.11784.07732s-.14383-.03459-.1167-.07907a.127.127,0,0,1,.23454.00175Zm-.05251,1.79783a.0782.0782,0,1,1-.07761-.07878.07389.07389,0,0,1,.07761.07878Zm-.13459.58536c-.048.12474-.18377.16432-.18294.05336a.18089.18089,0,0,1,.16547-.17075c.03334.00025.04151.055.01747.11739Zm.3574.98c-.00035.04689-.01464.07805-.03578.07789s-.05368-.03166-.08148-.07877c-.02649-.04488-.01114-.07828.03575-.07793a.07834.07834,0,0,1,.08151.07881Zm-.25791.33425c-.05461.15985-.21477.14692-.21354-.01726.00082-.10942.03738-.14317.122-.11245.07017.02549.10854.0799.0915.12971Zm-.96349.94275c.37524.00653.3919.01617.41647.24157a.45374.45374,0,0,0,.11509.29011c.04992.03089.07836.16085.06431.29367a.99978.99978,0,0,0,.0825.4619c.09078.18833.09142.24575.004.36361a.4506.4506,0,0,0,.04335.62655l.163.149-.16851.06127c-.15539.0565-.1646.0965-.11722.51127.02856.25036.05509.64935.05973.89953s.03784.44987.07483.45014c.0362.00028.04291.059.01466.12911a.16424.16424,0,0,0,.04547.19186c.07109.04625.04211.11761-.10755.26505-.209.20595-.50218.24618-1.21309.16642-.14061-.01575-.258-.00221-.25821.02973a1.27285,1.27285,0,0,1-.532.04581,13.35589,13.35589,0,0,0-2.182.08749c-.10186.03551-.193.028-.22265-.01845a.15741.15741,0,0,0-.17965-.02867c-.07135.02748-1.14575.05063-2.3967.05161a13.38952,13.38952,0,0,0-3.52963.18944c-.02443.03766-.09192.03065-.14634-.01526a2.49516,2.49516,0,0,0-1.25068-.03054,1.82233,1.82233,0,0,1-.66489.04357c-.62277-.046-1.27406-.04652-3.08824-.00271-.7742.01871-1.54828.02948-1.72026.02386s-.73507.02251-1.25141.0624a6.81245,6.81245,0,0,1-1.89232.03714.40213.40213,0,0,0-.2816.01946,1.26319,1.26319,0,0,1-.34065.07565c-.0791.00159-.41064.02129-.73132.04354-.71188.0494-3.59458.10639-4.30077.085a6.87657,6.87657,0,0,0-1.173.02714c-.27969.02219-1.001.03379-1.603.02574-1.47751-.01974-1.57641-.01605-1.79871.06689-.12545.04682-.1958.045-.19542-.005.00092-.12348-.36613-.177-.64044-.0934a5.64225,5.64225,0,0,1-.96246.11267c-.39109.01882-.88133.05508-1.103.08164a.83188.83188,0,0,1-.4416-.01893,1.70585,1.70585,0,0,0-.63688-.04383c-.32845.01264-.5788.04925-.55962.08181s-.16045.026-.40254-.01475a4.41905,4.41905,0,0,0-.75792-.05926c-.79773.03575-1.03984-.00609-1.09359-.18911a16.25135,16.25135,0,0,1-.07733-1.62684c-.01342-.79756-.0344-1.98155-.04669-2.63906C2.02,8.36846,2.02982,8.263,2.15094,8.26388a.36072.36072,0,0,0,.21559-.08045A.54855.54855,0,0,1,2.676,8.09835c1.58288-.02511,3.76056.01351,6.12884.10857,1.14042.0458,3.56452.08555,5.394.08847s3.62141.01346,3.98721.02342a28.0364,28.0364,0,0,0,2.97147-.06319,12.48889,12.48889,0,0,1,2.39278-.04792.45939.45939,0,0,0,.2816-.02007c.1289-.03548,1.05213-.078,2.04521-.09416s1.9338-.04434,2.08407-.06246a35.88675,35.88675,0,0,1,4.61362-.1027c4.9094.07057,5.728.069,5.80914-.011a.14473.14473,0,0,1,.16435-.02613,1.58182,1.58182,0,0,0,.47651.05833Zm1.191,2.78831a.07819.07819,0,1,1-.0776-.07878.07382.07382,0,0,1,.0776.07878Zm-24.84713,3.176c.02692.0456-.00448.07813-.07484.0776s-.12094-.03367-.1206-.07906a.07209.07209,0,0,1,.07484-.07764.15216.15216,0,0,1,.1206.0791Zm24.35176.33855c.02908.12532.09329.18772.17853.17337.14871-.02515.18045.12648.03771.18043-.14894.05626-.17311,1.28842-.02528,1.28952.14855.00112.14645.28305-.00253.339-.16972.06362-.13971.91089.03227.91221.19545.00146.23719.09328.107.23532a1.09753,1.09753,0,0,0-.114,1.0703.13765.13765,0,0,1-.00438.20712.998.998,0,0,0-.05474.52733c.01778.23469.01493.38062-.00639.3283-.02628-.0644-.12868-.04177-.325.07191-.18844.10909-.29536.13637-.31214.07972-.02362-.07977-.14522-.07785-.80263.01256a.72389.72389,0,0,0-.1958.041c-.00016.02068-1.14188.05327-3.08892.08814-1.00868.0181-2.03155.03853-2.26766.04535a2.31864,2.31864,0,0,1-.50019-.02084,1.80179,1.80179,0,0,0-.82878.00264c-.30107.06843-2.3773.06377-5.19913-.01175-1.54776-.04142-1.80871-.03167-1.92779.07225-.07871.06863-.1761.09469-.22718.06083a3.00593,3.00593,0,0,0-.76194-.0473c-.96178.01713-1.19409.04121-1.25263.13-.07182.10892-.40739.20317-.40672.11425a3.28165,3.28165,0,0,0-1.25108.01825.11938.11938,0,0,1-.156-.04835c-.04934-.08479-.08531-.08663-.17972-.00914q-.118.09682-.14646.0106c-.03383-.10234-.61083-.15953-.7756-.07684a2.50368,2.50368,0,0,1-1.04988.06318c.07335-.11671-.3076-.15726-.39511-.04205-.04714.06225-.10654.09826-.12724.07725a27.69246,27.69246,0,0,0-2.80653-.04164,1.68093,1.68093,0,0,0-.64984.12524c-.11012.0881-.12573.08505-.12491-.0244.001-.13135-.17087-.15367-.42959-.05584a.23838.23838,0,0,1-.26931-.05492c-.08318-.0844-.20648-.09995-.47257-.05959-.54012.082-.73724.08374-.78864.00716-.02611-.03894-.11811-.03433-.20441.0102a1.92211,1.92211,0,0,1-.54035.11322,4.6489,4.6489,0,0,0-.59095.08547c-.1253.03212-.229.01739-.26164-.03712-.03858-.0645-.08548-.06485-.16415-.00123-.08652.07-.11078.06646-.11324-.01651q-.00312-.10557-.08235.03458a.17888.17888,0,0,1-.23912.08814.18992.18992,0,0,0-.231.053q-.07117.105-.12922.0264c-.07547-.10223-.87854-.13678-.87928-.03784-.00033.04464-.17639.06679-.41083.05166a1.429,1.429,0,0,0-.49668.02719,1.43979,1.43979,0,0,1-.759.08067.94576.94576,0,0,0-.70395.0367c-.08653.07179-.12547.07489-.146.01164-.04077-.12536-.73033-.20457-.801-.09195a.32442.32442,0,0,1-.24137.08415.31978.31978,0,0,0-.23513.07644.15489.15489,0,0,1-.12567.07725c-.0469-.00035-.05922-.0317-.03071-.07842.02679-.04387-.019-.07834-.10494-.079a.22938.22938,0,0,0-.20008.09626c-.03814.07791-.05688.07777-.09382-.0007-.02623-.05575-.19472-.09922-.39016-.10068-.21891-.00164-.34713.033-.35257.09512-.00657.07511-.01736.07414-.04686-.00425-.03006-.0801-.06191-.08284-.14843-.01284-.07079.05724-.10993.05838-.10952.00308.00068-.09107-.46066-.07731-.61778.01838-.06378.03891-.14863.015-.22624-.06379-.09784-.09932-.12634-.3215-.13449-1.04866-.01815-1.61856-.08114-3.71369-.125-4.16031l-.04228-.43032.2665-.09574a1.7869,1.7869,0,0,1,.52061-.09387,1.04756,1.04756,0,0,0,.40321-.07514c.09419-.0487.16482-.04957.19158-.00247a6.39779,6.39779,0,0,0,1.348.08685,12.94791,12.94791,0,0,0,2.97941-.07815.09351.09351,0,0,1,.125.01288.56439.56439,0,0,0,.33585.04411c1.03251-.065,1.58216-.10152,1.82259-.121a.93588.93588,0,0,1,.34388.01874,4.17678,4.17678,0,0,0,1.46187.02059c.11773-.06283.14968-.06348.11177-.00231-.04772.077.31723.13791.54431.09093.0853-.01768,3.66776-.12456,4.08212-.12181,1.40723.00927,6.158-.17489,6.35818-.24651a33.06432,33.06432,0,0,1,3.75331-.06618c.6645.00948,1.52969-.006,1.91577-.03418.82685-.06042,1.45479-.07493,4.96553-.11487,1.43868-.01639,2.65567-.054,2.70973-.08376a14.52268,14.52268,0,0,1,1.68124-.04211l1.58317.01184.04543.19576ZM26.7426,14.1553c-.00035.04689-.01464.07809-.03578.07793s-.05367-.0317-.08147-.07881c-.02649-.04488-.01118-.07828.03575-.07793a.07833.07833,0,0,1,.0815.07881Zm-11.80655.10322c-.00016.02111-.03167.05371-.07881.08151-.04487.02646-.07824.01115-.07789-.03578a.07831.07831,0,0,1,.07877-.08151c.04693.00035.07809.01468.07793.03578Zm-13.37311.49022a.07207.07207,0,0,1-.07484.07764.152.152,0,0,1-.12057-.0791c-.02695-.0456.00445-.07813.07484-.0776s.12091.03367.12057.07906Zm-.08082.35515c-.00052.07036-.03356.10127-.07875.07371a.15221.15221,0,0,1-.07728-.12178.07211.07211,0,0,1,.07875-.07371c.04539.00034.07781.05142.07728.12178Zm39.31,2.20568c-.00036.04693-.01468.07809-.03575.07793s-.05371-.03167-.08154-.07881c-.02643-.04484-.01112-.07821.03578-.07786a.07829.07829,0,0,1,.08151.07874Zm-24.37633,2.945c.02706.04581-.07094.07763-.23509.0764s-.26167-.03451-.234-.07991a.39081.39081,0,0,1,.469.00351Zm-5.43584.27985c-.00035.04693-.0317.05918-.07839.03071a.15488.15488,0,0,1-.07726-.12567c.00036-.04693.03171-.05918.07843-.03068a.15485.15485,0,0,1,.07722.12564Zm3.43986.03357c-.00094.12512-.02458.14837-.08667.08534a.15136.15136,0,0,1-.03212-.17223q.12084-.19456.11879.08689Zm24.92794.12787a.56366.56366,0,0,1,.49489.207c.13284.16519.13708.19609.02968.21632-.17083.03224-.15745.14556.02944.2493.179.09943.19161.20852.04148.36a.25031.25031,0,0,0-.07711.21835.18463.18463,0,0,1-.06391.18525c-.15077.12286-.10277,1.18954.05362,1.19071.06252.00047.10914.03766.10877.08681-.00034.04628-.0474.06761-.10193.04613-.07155-.02811-.102.03834-.10336.226-.00111.14855.02387.266.05667.26628.03227.00024.05285.07076.04576.1567s-.03579.15609-.06376.15588a.95291.95291,0,0,0-.03058.42982.85882.85882,0,0,1-.0622.47645c-.05047.02835-.06234.19495-.03058.42975l.0519.3835-.731-.00547a5.66863,5.66863,0,0,0-1.00518.06546,3.9616,3.9616,0,0,1-1.48589.05663c.00034-.04467-.05824-.05684-.13661-.02838a3.74353,3.74353,0,0,1-.64565.0812c-.28158.01735-.71783.0481-.97784.06895a2.22736,2.22736,0,0,1-.899-.011c-.15223-.03036-.51547-.07193-.82023-.09381-.43758-.03139-.52838-.02037-.45389.05527.14818.15042.11574.2077-.09505.1677-.10931-.0207-.195-.06449-.19471-.09951.00025-.03441-.07-.04548-.15621-.02463s-.15635.00273-.156-.04027c.00061-.081-.68738-.0867-.82091-.00682a.82093.82093,0,0,1-.33637.02553c-.16409-.01368-.28378.02381-.32912.1031-.06238.109-.07173.10989-.07436.00724-.00238-.09216-.12029-.1207-.55021-.13311a1.49092,1.49092,0,0,0-.54753.035,3.70845,3.70845,0,0,1-.8642.03653,3.55242,3.55242,0,0,0-.90339.048c-.02132.0335-.13308.02547-.24226-.01745a.65618.65618,0,0,0-.36725-.02621,6.41858,6.41858,0,0,1-1.05182.03123,4.079,4.079,0,0,0-.97372.04516.56747.56747,0,0,1-.56349.0728,6.293,6.293,0,0,0-1.25-.12615c-1.41473-.05458-1.68373-.04912-1.79069.03636a.69533.69533,0,0,1-.58674.0497.34882.34882,0,0,0-.29347.03765c-.14128.0736-.2068.0773-.247.01379-.0548-.08669-.39754-.08618-.97673.00145-.15657.02369-.28937.01147-.28909-.02656.00075-.0994-.37034-.01056-.47525.11374-.128.15161-.33837.1382-.27714-.01774.04387-.11178-.02146-.11985-.63158-.07748a13.84417,13.84417,0,0,1-2.57128.01446c-.02107-.03339-.12989-.02866-.23184.01a.54946.54946,0,0,1-.37917-.00126,17.37352,17.37352,0,0,0-2.70524.01313c-.19558.01607-.48413.03308-.64922.03839-.20331.0065-.28517.04173-.25918.11143.046.12347-.17395.10816-.25138-.01752a2.26745,2.26745,0,0,0-1.41407.07714c-.181.1608-.3843.09124-.2387-.08167.07612-.0904.04074-.10522-.20958-.0876a1.22886,1.22886,0,0,0-.40719.08685.11417.11417,0,0,1-.16779-.04032c-.05019-.08612-.08539-.08638-.18762-.0014-.0708.05885-.14629.08393-.17245.05737-.037-.03755-.2346.00605-.61866.13642-.12545.0426-.1332.03671-.03888-.0293.161-.11269.032-.10507-.40673.024a1.02256,1.02256,0,0,1-.62574.03149c-.36663-.10938-.45349-.09891-.40079.04844.0376.10523.01642.11906-.10044.06571a1.41311,1.41311,0,0,0-.4216-.07742,1.37008,1.37008,0,0,1-.4099-.07339.51825.51825,0,0,0-.34811.02129,8.27361,8.27361,0,0,1-1.8295.00266.84967.84967,0,0,1-.04015-.38066c.00368-.20412-.01054-1.36438-.03155-2.57642a13.1444,13.1444,0,0,1,.04031-2.25139,2.169,2.169,0,0,1,.54765-.05064c.39094-.00362.46932-.0271.47017-.14114a.20676.20676,0,0,1,.12644-.18428c.196-.07419.248.02865.077.15229-.23428.16945-.09549.22733.15591.065.11787-.07606.19239-.09686.16059-.04473-.04737.07767.30034.09207,1.72346.07153.97735-.01415,1.87114-.041,1.97848-.05946.10875-.01875.50857-.05225.89966-.0754s.94743-.074,1.25179-.11444c.60916-.081,5.02822-.13148,7.81907-.08935.99285.015,1.86805.02764,1.9544.02829.08756.00065.32834.00074.54727.00016s.47525-.00206.5825-.00341a.35365.35365,0,0,0,.239-.0764c.02848-.04436.09415-.0438.16418.0014.13225.08541.46056.09606.46117.015a5.77879,5.77879,0,0,1,1.1144-.03856c.60977.00882,1.46814-.01417,1.89632-.05078a22.82755,22.82755,0,0,1,3.38548-.01391,6.48732,6.48732,0,0,0,1.97061-.04921c.06311-.07769.14129-.075.39081.0134a4.3409,4.3409,0,0,0,1.90041-.07074c.09412-.03864.17174-.02358.21079.04089.04586.07579.15961.08673.44143.0424.20879-.03285.59078-.06866.84888-.07964a4.07608,4.07608,0,0,0,.64553-.06944c.094-.02641.17607-.02032.17582.013-.00052.06972.41382.07042,2.1891.0039A4.84276,4.84276,0,0,0,38.328,20.614a.78049.78049,0,0,1,.36347.01052,5.83742,5.83742,0,0,0,.6562.07137ZM9.33853,20.47135c-.00016.0211-.03167.05374-.07881.08151-.04484.02649-.07828.01111-.07793-.03579a.07834.07834,0,0,1,.07881-.08147c.04693.00035.07809.01465.07793.03575Zm.74237.04855c.02649.04488.01114.07825-.03575.0779a.07832.07832,0,0,1-.08154-.07878c.00035-.04689.01467-.07805.03578-.07789s.05371.03167.08151.07877Zm-1.76019.14319a.0782.0782,0,1,1-.07761-.07878.07389.07389,0,0,1,.07761.07878Zm-1.128.28085c-.07784.07665-.14239-.04013-.0781-.14131.04948-.07783.07134-.07856.09485-.00319a.158.158,0,0,1-.01675.1445Zm32.77184,1.43024c-.11761.041-.17279-.03653-.10394-.146.04355-.06918.07479-.06587.12057.01264.03659.06284.02985.11712-.01663.13334ZM1.66407,24.22539c-.05518.05431-.11713.06852-.14885.03408-.031-.03375-.00711-.08794.05571-.12646.14921-.09146.21422-.02695.09314.09238Zm27.33264,2.14347c-.00035.04689-.01464.07809-.03574.07793s-.05371-.0317-.08151-.07881c-.02646-.04488-.01115-.07828.03578-.07793a.0783.0783,0,0,1,.08147.07881Zm-8.39021.14831c-.07092.06984-.15518.1097-.1791.0847-.07436-.07783.04717-.21857.18789-.21752.11772.00088.11723.00867-.00879.13282Zm8.27179.00716c.02607.04416-.00838.0781-.07874.07757s-.10434-.035-.07761-.07874c.0285-.04668.06-.07771.07878-.07757s.04977.03164.07757.07874Zm4.57291.11238a.07833.07833,0,0,1-.08268.07757c-.04689-.00035-.06173-.034-.03457-.07845.0285-.04669.06157-.0777.08264-.07755s.035.03153.03461.07843Zm.3118.12746c-.00047.06256-.0372.09512-.07872.06977a.08185.08185,0,0,1-.03468-.11755c.06909-.11206.11445-.09294.1134.04778ZM8.51021,26.6847c-.00035.04693-.01464.07805-.03578.07789s-.05371-.03163-.08151-.07877c-.02645-.04491-.01114-.07828.03575-.07793a.07832.07832,0,0,1,.08154.07881Zm.74269.00555c.02646.04484.01115.07825-.03574.0779a.07835.07835,0,0,1-.08155-.07877c.00035-.0469.01468-.07809.03579-.07793s.05367.0317.0815.0788Zm30.52942.18538c-.00016.02114-.0317.05371-.07881.08154-.04488.02643-.07824.01112-.07789-.03578a.07829.07829,0,0,1,.07877-.08151c.04689.00036.07809.01465.07793.03575Zm-8.97714.21676a2.09445,2.09445,0,0,0,.98509.00422c.14888-.04256.268-.043.2932-.001.0248.04122.12088.04193.23064.00173s.2058-.03953.23061.00172a.92338.92338,0,0,0,.45293.07372c.22331.00167.63312.019.89884.038s.48858.00287.48887-.03544.03948-.04617.08616-.01717c.13228.08223.61689.09981.61747.02244.00026-.03574.0474-.06218.10992-.06171a.1662.1662,0,0,0,.14928-.09661c.02872-.0704.06959-.05815.14695.04409.14278.1887.836.25384.90367.08493a.12065.12065,0,0,1,.16462-.0613,3.93711,3.93711,0,0,0,.75023.04471c.344-.00172.7747.0015.94987.00711a.59662.59662,0,0,0,.41122-.09859c.07165-.08585.18442-.09316.5358-.03455.54662.09116.58137.11381.52105.33954-.02712.10146-.01078.20185.03762.231.0615.03691.06325.09426.00631.2033-.0651.12461-.05824.14383.03826.10706.16065-.06129.14.10068-.02492.19492-.1256.07182-.12563.07661-.00061.08123.14069.00517.26108.14612.186.21781-.02608.02488-.0977.00095-.15986-.05346-.0913-.07991-.11207-.0712-.1098.04612.00155.07917-.00728.31266-.0195.51586a.97088.97088,0,0,0,.10525.56369.34524.34524,0,0,1,.03488.41074c-.12577.29615-.13665.56972-.02269.57057.07386.00056.07431.05136.00211.23844-.07514.19493-.072.25.01729.30508.0934.05765.08862.0984-.03344.28514-.08134.12445-.10892.22981-.06436.24577a1.17877,1.17877,0,0,1,.22562.14632c.07773.06232.10709.09792.062.07522-.12463-.06281-.30546.15265-.18931.22556.07.044.0698.07407-.00091.12047-.07153.0469-.0541.11686.0721.28983.14751.20207.15722.267.08565.57138-.06794.28874-.05974.3591.05143.44209.11892.08889.10862.108-.10309.19079a2.56938,2.56938,0,0,1-.38007.11835,1.02652,1.02652,0,0,0-.26657.09574.47138.47138,0,0,1-.37494-.04191c-.14811-.0651-.26486-.0806-.28121-.03726a2.05076,2.05076,0,0,1-.72781.09618c-.45359.01435-.71117.05506-.73187.11568a.12722.12722,0,0,1-.11019.093c-.04167-.00031-.05736-.05513-.03364-.11748.0551-.14471-.15193-.15714-.61411-.03675a10.77547,10.77547,0,0,1-1.73669.13467.096.096,0,0,0-.10226.07915c-.00032.04264.05808.07863.12844.07916s.10753.02391.08167.05144c-.0265.02828-.18756-.00748-.36683-.08155-.36636-.1513-.78051-.17683-.78147-.04824-.00036.04744-.05133.06633-.11368.04215s-.13088-.016-.15281.01839a3.55623,3.55623,0,0,1-1.21128-.04591c-.10145-.02412-.161-.01365-.137.02412.02238.03512-.02823.11065-.10672.15946-.11785.07321-.14061.06974-.10812-.01647.05839-.155-.1563-.17617-1.25127-.12358a5.39829,5.39829,0,0,1-1.4459-.06705c-.64785-.14057-.6735-.14048-.55788.00212.08277.102.05664.11768-.19357.11581-.22671-.0017-.27938-.02745-.24364-.11908.06605-.16935-.15189-.1575-.25269.01374q-.08256.14013-.08561.03456c-.00168-.05825-.05408-.08669-.11679-.06344s-.131.014-.1523-.02067a2.539,2.539,0,0,0-.766-.03049,15.60131,15.60131,0,0,1-2.07944-.03076c-.17972-.018-.32838-.001-.32866.0375-.00073.09729-.26642.084-.36735-.01838-.06192-.06285-.195-.06385-.48468-.00363a3.36985,3.36985,0,0,1-.454.07455c-.21867-.03383-.41789.01981-.36822.09913.038.0607.01127.06168-.08992.00322-.11416-.06589-.18493-.04044-.341.12251-.17839.18632-.19983.19207-.22718.06086-.02065-.0991-.0772-.13282-.179-.1069-.07835.02-.1486.00469-.14832-.03234.00077-.10262-.26516-.088-.37544.02066-.05513.05428-.09424.0605-.0939.0149.00034-.04629-.19885-.07329-.48819-.06622-.26583.00652-.64918.01439-.84058.01721l-.35186.00517.18652.14734c.27831.21979.09185.26451-.50127.12024a1.75767,1.75767,0,0,0-.58968-.07889c-.04166.02591-.14856-.006-.24185-.07218a.26347.26347,0,0,0-.31631-.04142.21077.21077,0,0,1-.254-.00974c-.07626-.0631-.14038-.05188-.23487.04124-.10238.10086-.15387.1071-.24257.02945-.0939-.08215-.10436-.075-.06288.04253.04291.12166.01853.13267-.17649.07992-.44475-.12016-.80189-.121-.92258-.00211-.14177.13966-.24808.13887-.13081-.001.04559-.05439.05958-.12648.03036-.15617-.06845-.06948-.65182-.05961-.64176.01083q.03024.21136-.10978.11948c-.09408-.06166-.13242-.06842-.54655-.09617-.19443-.01308-.21082-.04153-.20842-.362.00187-.25021-.03565-.37015-.1336-.42711-.12263-.07132-.1206-.07946.02015-.08195.1464-.00259.14475-.01208-.02625-.14875-.15543-.12426-.168-.17268-.08468-.32509.11378-.208.0154-.34615-.25038-.35158a.2144.2144,0,0,1-.1986-.10136c-.01937-.05512.02026-.09757.09066-.09705.15935.00119.15688-.07455-.00635-.19811-.10885-.08234-.11478-.12127-.03352-.22047.08065-.09855.06746-.137-.07271-.21163-.13237-.07046-.18483-.0682-.2307.01-.04754.08095-.08274.08147-.17594.00258q-.11656-.09858-.168-.01689a.17078.17078,0,0,1-.12956.08113c-.04693-.00035-.06078-.02861-.03467-.07062.02531-.0407-.00689-.12125-.07673-.19214s-.11659-.1319-.11152-.14549c.02625-.07017-.10387-.29787-.17054-.29836-.04235-.00032-.14562-.08709-.22534-.18931a.74806.74806,0,0,0-.5376-.24642c-.24212-.03572-.39019-.09624-.38972-.15927.001-.13292-.21459-.211-.26446-.09577q-.04047.0935-.12157-.03611a.2308.2308,0,0,0-.21812-.10716.42786.42786,0,0,0-.13709.03414c0,.00636-.21129.028-.46163.04734-.40678.0314-.44985.02139-.36291-.08478.08271-.101.0791-.1206-.02256-.12136A1.14077,1.14077,0,0,0,9.699,30.29c-.14113.05414-.19972.04909-.19923-.01712.00038-.05115-.07206-.01617-.15937.077-.16731.17857-.312.22478-.31106.0993.00029-.03867-.07-.05328-.15615-.03243A.35616.35616,0,0,1,8.6,30.36c-.06219-.05051-.1168-.06186-.11708-.02434-.00066.0881-.54927.26111-.64262.20271-.03846-.02408-.04782.04621-.02074.15591.04254.17231.02628.19312-.11839.15154-.10145-.02912-.15212-.0882-.1282-.14948.07-.1793-.07376-.20023-.2264-.033a.45558.45558,0,0,1-.24723.15451.10188.10188,0,0,0-.10617.08516c-.00034.0459-.05522.06555-.11757.04216s-.11719-.01472-.11744.01869a2.11533,2.11533,0,0,1-.47206.39518,1.559,1.559,0,0,0-.47234.43041.17941.17941,0,0,1-.1183.13984.23858.23858,0,0,0-.119.2219.3665.3665,0,0,1-.16235.28027c-.0864.05391-.14689.144-.13049.19449a.36891.36891,0,0,1-.04214.23424,2.31435,2.31435,0,0,0-.17005.92128c-.01964.4455-.14353.60937-.41823.553a.2615.2615,0,0,0-.2623.05563c-.04527.0741-.09834.07653-.22293.01006a1.122,1.122,0,0,0-.4607-.07792c-.64909.02029-.72213-.004-.83074-.27576a6.82525,6.82525,0,0,1-.15391-1.34982c-.02791-.60221-.06279-1.21371-.07786-1.36489a31.28279,31.28279,0,0,1-.08361-3.54236A1.90037,1.90037,0,0,1,3.0921,27.727l.48483-.01594-.04476-.28572c-.04418-.28179-.04147-.28517.19732-.24872.13274.02031.24186.07053.24156.11127s-.07076.05263-.15659.0262c-.09362-.02882-.15627-.01212-.15668.04186-.00038.05068.06563.10741.15145.13012.09365.02474.13532.08218.10838.14938-.03116.07767.02261.10959.1868.11082a.55218.55218,0,0,0,.28184-.05259,1.66676,1.66676,0,0,1,.54383-.06028c.55516-.00665.694-.05677.63165-.228-.05577-.15309-.00336-.14859.34715.03a1.99,1.99,0,0,0,1.07018.1253c.43011-.01184.95262-.02027,1.16115-.01871.31274.00234.36357-.01645.29009-.10726-.06358-.07867-.06438-.12557-.00267-.16421.05-.03132.10239.00856.12439.09476.033.1296.10057.14577.52291.12511.26892-.01319.86807-.03307,1.3451-.04471s.8707-.03.88373-.04132a1.13857,1.13857,0,0,1,.48472.0086.66318.66318,0,0,0,.31244.0414.66294.66294,0,0,0,.313-.03672,3.401,3.401,0,0,1,.7236-.04935,1.90873,1.90873,0,0,0,.74919-.08819c.03451-.10373.33512-.10746.59236-.00741.14813.05766.18567.05136.15645-.02609-.04434-.11763.185-.32636.26408-.24041.03119.03389.01089.07917-.044.09811-.198.06824-.08737.18393.1319.13785a.88652.88652,0,0,1,.42583.0376c.14031.05682.20677.05732.20718.00155.00034-.0451.07061-.03227.15611.02853a.977.977,0,0,0,.60927.076,4.8512,4.8512,0,0,1,.95393-.01014,2.61612,2.61612,0,0,0,1.11455-.10048c.04335-.06224.07508-.062.11629.00087a17.98457,17.98457,0,0,0,3.49974.04282,8.19726,8.19726,0,0,1,1.2233.03162.38582.38582,0,0,0,.254.01124,8.66441,8.66441,0,0,1,1.78314-.07452c.14065.01.26406-.02313.282-.07576.04176-.12225.251-.10759.25009.01754a10.31358,10.31358,0,0,0,2.93152.05055c.56306-.0203,1.17885-.03719,1.38018-.03786.32839-.00109.36908-.022.41993-.21579.03892-.14826.06937-.17823.09846-.097a.39026.39026,0,0,0,.11213.16357Zm1.62735-.15055a.07818.07818,0,1,1-.07761-.07874.0739.0739,0,0,1,.07761.07874Zm-21.57836-.04808a.20289.20289,0,0,1-.07939.15966c-.04215.0249-.078-.02791-.07734-.11394s.03743-.16.07939-.15966c.0431.00032.07781.05141.07734.11394Zm8.1694.10415c.026.04416-.00841.0781-.07877.07757s-.1043-.035-.07758-.07874c.02851-.04668.06-.07775.07875-.07761s.0498.03167.0776.07878Zm-1.37651.06361c.06227.04028.091.10084.0616.12981-.07147.07043-.2891-.0256-.28834-.12725.00073-.09733.07893-.09822.22674-.00256Zm-11.66592.12026a.16069.16069,0,0,1-.14861.00669c-.064-.02516-.04658-.04231.04729-.04654.07818-.00353.12619.01532.10132.03985Zm2.91584.05308a.07829.07829,0,0,1-.08265.07758c-.04689-.00035-.06177-.03394-.03461-.07845.0285-.04672.06157-.07771.08268-.07755s.03493.03149.03458.07842Zm-1.09508.07a.07818.07818,0,1,1-.0776-.07878.07388.07388,0,0,1,.0776.07878Zm-3.48014.13032c.026.04416-.00842.0781-.07878.07757s-.1043-.035-.07761-.07874c.02851-.04672.06-.07771.07878-.07757s.04981.0316.07761.07874ZM7.38409,30.9006a.50069.50069,0,0,1-.23508.07011c-.07621-.00311-.06232-.028.03959-.0711.21962-.09283.34213-.0922.19549.001Zm32.83426.39179c-.00028.03756-.05537.09048-.11811.11344-.11762.04312-.15656-.04456-.0615-.13822.07666-.07555.18025-.06121.17961.02478Zm.27362.00984c.026.0442-.00842.07814-.07878.07761s-.10434-.035-.07761-.07878c.0285-.04668.06-.07771.07878-.07757s.04977.03164.07761.07874ZM6.83422,31.242c-.00015.02114-.03163.05371-.07877.08155-.04487.02642-.07828.01111-.07793-.03579a.07831.07831,0,0,1,.07881-.0815c.04693.00035.07805.01468.07789.03574Zm1.60235.055c.02649.04491.01118.07828-.03575.07793a.07831.07831,0,0,1-.0815-.07881c.00035-.04689.01468-.07805.03578-.07789s.05367.03166.08147.07877Zm31.74546.67536a.81851.81851,0,0,0-.0481.156c-.00012.01706-.03933.031-.08622.03065-.06371-.00048-.0635-.02784.00079-.10556.045-.05439.06246-.12956.03637-.15608-.02826-.02869-.00746-.05089.04727-.05048.055.00041.07678.05531.04989.12547ZM7.84669,31.76556c-.00035.04693.105.07283.24584.0605.15646-.01374.259.01561.28089.08027.02624.07775-.05547.0938-.34456.06782-.21095-.019-.37007-.05657-.359-.08479a.40492.40492,0,0,0,.02049-.12887.07385.07385,0,0,1,.07878-.07757.07829.07829,0,0,1,.07754.08264Zm2.44644.10043a.16779.16779,0,0,1-.18785.026c-.07455-.04377-.062-.07354.04777-.11314.18814-.06785.25515-.02618.14008.08718Zm-8.23226-.06942a.07208.07208,0,0,1-.07485.07764.15221.15221,0,0,1-.1206-.0791c-.02688-.0456.00448-.07817.07484-.07764s.12095.03371.12061.0791Zm6.64466.12791A.07818.07818,0,1,1,8.628,31.8457a.07384.07384,0,0,1,.07757.07878Zm31.78165.23778a.24259.24259,0,0,1-.18208.0768c-.11726-.00088-.119-.00983-.01507-.07624.15711-.10034.26042-.10061.19715-.00056Zm-27.09847.81364c-.00035.0469-.01464.07809-.03578.07793s-.05371-.0317-.08151-.07881c-.02645-.04487-.01111-.07828.03579-.07792a.07833.07833,0,0,1,.0815.0788Zm.33467.65144c-.05738.09111-.26072-.088-.25967-.2287.00063-.0842.03579-.0785.15231.02461.08543.07558.1322.16457.10736.20409Zm-7.16465-.0458c-.13388.13192-.44686.16249-.446.04356.00031-.0415.09048-.07752.19214-.07676a.33844.33844,0,0,0,.243-.08024c.02936-.04672.06806-.06485.09025-.04233.02062.021-.01637.09371-.07937.15577Zm1.91549-.0013c-.05514.05431-.09425.06053-.09391.01493.00076-.10163.09784-.19623.14965-.1458.02259.022-.00057.07655-.05574.13087ZM5.62848,33.559c.14279.1449.116.18248-.1343.18787-.20329.00438-.2172-.01043-.13451-.143.102-.16339.145-.17062.26881-.04488Zm4.7818.411c-.00034.0454-.05141.07778-.12177.07725s-.10127-.03352-.07368-.07871a.15213.15213,0,0,1,.12178-.07728.07206.07206,0,0,1,.07367.07874ZM5.362,34.17069a.08581.08581,0,1,1-.03039-.11749.081.081,0,0,1,.03039.11749Zm19.35389.07054c-.00034.04585.05424.06633.11694.04387.07055-.02526.11723.00324.11672.07124q-.00084.11337-.23535.1116c-.21891-.00164-.3094-.13757-.17783-.26719.07759-.07647.18023-.05335.17952.04048ZM5.85731,34.233c.01791.05373-.03908.09354-.13291.09284-.16418-.00123-.21249-.08555-.108-.18847.0738-.07274.20184-.022.24092.09563Zm14.2449.12225a.07818.07818,0,1,1-.07761-.07878.07387.07387,0,0,1,.07761.07878Zm-1.98039.31353c-.02519.064-.04234.04658-.04657-.04724-.00353-.07823.01532-.12623.03985-.10137a.16078.16078,0,0,1,.00672.14861Zm5.028-.10311c-.00064.086-.14842.12055-.19422.04545-.02778-.04561.00291-.07818.07327-.07765s.12109.014.121.0322Zm-19.70334.134a.07818.07818,0,1,1-.07758-.07878.07385.07385,0,0,1,.07758.07878Zm2.76606.71657c.024.03974-.06689.08549-.20776.10451-.28958.03918-.33566.02134-.25935-.10021a.3993.3993,0,0,1,.46711-.0043ZM8.92927,35.46c-.07089.06987-.11778.06951-.18762-.00141-.07373-.07477-.054-.09419.09449-.09308s.168.02082.09313.09449Zm4.90484.68567c-.00135.17978-.16574.22147-.29941.07592-.07228-.0787-.08857-.11882-.03667-.09017a.10322.10322,0,0,0,.14246-.02634c.07414-.11756.19458-.09237.19362.04059Zm-1.13567.26515a.15491.15491,0,0,1-.12567.07723c-.04689-.00036-.05918-.03171-.03068-.0784a.155.155,0,0,1,.12568-.07725c.04689.00035.05921.03171.03067.07842Zm.70305.08343c.02649.04487.01111.07828-.03579.07793a.07834.07834,0,0,1-.0815-.07881c.00035-.04693.01468-.078.03578-.0779s.05371.03164.08151.07878Zm-3.55744.00464c-.00012.01667-.05508.05093-.11781.07342s-.11732.00742-.117-.03217.05528-.07385.11781-.07339.11714.01548.117.03214Zm-.02907.53926c.02993.04909-.0223.059-.13932.02633a1.53931,1.53931,0,0,0-.24979-.05271c-.03753-.00028-.04479-.02845-.01822-.07049.05166-.08168.34018-.01313.40733.09687Zm-3.4161.14647c-.00175.23451-.08928.243-.22563.02174-.08231-.13354-.08227-.17679.00041-.22711.14493-.0882.22686-.01354.22522.20537Zm5.54816.38549c-.00033.04364.07359.08912.16732.10288s.179.05936.19308.10311c.03744.11665-.54332.09756-.61742-.02029a.22717.22717,0,0,0-.17361-.10292c-.239-.00179-.10071-.12846.15743-.14424.1486-.00908.27352.019.2732.06146Z"/><path d="M42.46253,8.09609a.13383.13383,0,0,1-.14369.08989c-.05805-.01116-.09662.0391-.08989.11726s-.03184.13682-.08993.13682c-.15013,0-.20743.1251-.24707.5395-.01867.19545-.0451.46667-.05784.59415a1.43694,1.43694,0,0,0,.043.4652c.04507.15636.035.25079-.03127.29315-.07415.04746-.07036.08048.0156.13686.1.06553.09776.08023-.01953.12509q-.13285.0508-.129.29707c.00368.23455.0093.239.11729.09383.0988-.13292.11336-.13539.11336-.01953a.67019.67019,0,0,1-.09773.28928.37067.37067,0,0,0-.01563.37133,3.155,3.155,0,0,1,.06253.84044,1.973,1.973,0,0,0,.09383.8561c.07683.15639.08817.25584.0352.30881-.10167.10166-.108.516-.00784.516.04167,0,.05806.05473.03516.11729s-.00286.11726.043.11726c.04814,0,.086.086.086.19545,0,.11729-.04539.19549-.11336.19549-.07422,0-.11067.07426-.10556.215a1.31592,1.31592,0,0,1-.043.37137.795.795,0,0,0,.01563.39087c.04875.172.11024.22936.23065.215.16161-.01925.16211-.01563.03126.23455a1.28559,1.28559,0,0,1-.21112.31271q-.07818.0587.0274.12512c.08346.05252.08671.10163.0156.23452-.06689.12509-.06689.16812,0,.16812.06228,0,.06424.03126.0064.10159a.94736.94736,0,0,0,.07594,1.00076.35119.35119,0,0,1,.10531.301,2.62168,2.62168,0,0,0-.06646.57462c-.01159.33618.0157.47164.10556.5238.103.05981.09773.071-.0352.07429-.11726.00294-.13.02054-.05083.07036.0626.03939.07369.0861.0274.11465-.09941.06131-.04693.45425.07033.52694.067.04153.04693.08313-.07033.14555-.172.09158-.25029.55366-.09383.55366.10835,0,.10163.2157-.00779.25254-.06085.02047-.05742.12273.01169.34949.06675.21891.13121.30813.20325.28144.05477-.02025.1056.00229.1056.0469a.07886.07886,0,0,1-.06646.086c-.03685,0-.09083.17592-.12119.3948-.04229.305-.02626.42274.07036.51746.13288.13021.15635.26049.04689.26049-.11711,0-.04689.70912.0782.7896.09382.06031.09382.08045,0,.14076-.07036.04521-.09408.14856-.06647.28928a1.63992,1.63992,0,0,1-.05079.58242.9437.9437,0,0,0-.0206.55119,4.12305,4.12305,0,0,1,.12755,1.08672,4.52388,4.52388,0,0,0,.11977,1.7429c.04407.03119.01173.0553-.07426.0553-.1486,0-.1486.003,0,.11726.13292.10223.13739.12731.03519.19545-.10427.0695-.10166.09021.02343.18644.16419.1263.17017.20446.01564.20446-.06253,0-.11726.03284-.11726.07037s.08206.05394.17592.03519c.15632-.03126.162-.02361.05079.06908-.19545.16286-.23261.36017-.086.45693.12212.08063.12119.08392-.01173.04082-.12627-.04092-.13718-.01957-.086.16809a1.77142,1.77142,0,0,1,.05472.41043.32924.32924,0,0,0,.086.25408c.05473.03574.05931.08231.01173.11908-.06528.05044-.07963.18193-.04718.43211.0044.03441.07844.02386.16444-.02346.10946-.06017.15635-.06135.15635-.0039a.08486.08486,0,0,1-.086.08209c-.13318,0-.30019.25018-.30277.45347-.00125.10166.04583.172.11515.172.06253,0,.11726.03287.11726.07039a.31047.31047,0,0,1-.11726.16416c-.08023.06413-.11726.23844-.11726.55119,0,.36747.03381.48884.172.61762a.65958.65958,0,0,0,.23455.16025c.03574,0,.06257.0352.06257.08213,0,.0475-.06257.06224-.14856.035-.1571-.04982-.15811.03145-.01145.93838l.05051.31271.44177.0039a1.248,1.248,0,0,1,.55116.09772,1.62425,1.62425,0,0,0,.70758.086c.46907-.00612.61408-.03559.67232-.13679.068-.11794.07866-.11729.12512.0078.044.11836.129.13153.62935.09776.516-.03491.57971-.02393.58922.10162.0303.39874.06053.5038.18444.641.127.14076.1278.15639.00815.15639-.10635,0-.11572.03127-.04689.15636a.31141.31141,0,0,0,.23844.15635c.12706,0,.14395.03914.10163.23459-.04908.22671-.044.232.15245.15954.25019-.09229.35524.02461.17986.2001-.16859.16855-.15639.28856.02343.2304.18765-.06074.35127.137.2945.356-.0973.37528.19706.53163.35324.18762.10291-.22675.2201-.26.2201-.06253,0,.26582.16365.72708.258.72708a1.04584,1.04584,0,0,1,.3127.11336.54727.54727,0,0,0,.33232.07036.12589.12589,0,0,1,.16046.08213c.056.14852.23806.16859.28385.03123.02038-.06117.09511-.05444.2593.02346a2.61687,2.61687,0,0,0,.91473.10556c.57856-.00332.71123-.02926.86-.16808.13289-.12409.21892-.148.35181-.09773.10942.04132.17592.03838.17592-.00783,0-.04053.11729-.0743.258-.0743a.71584.71584,0,0,0,.41043-.13679,2.74941,2.74941,0,0,1,.45343-.29317,2.44425,2.44425,0,0,0,.59809-.5082c.164-.19413.48638-.55509.71928-.80527a1.89487,1.89487,0,0,0,.52054-.82874c.12294-.46907.29117-.72214.44112-.66352.07033.02755.11726.00369.11726-.05963,0-.07769.10946-.10126.41433-.08928a8.371,8.371,0,0,1,1.82947.12445c.02471.02468.11729.00987.19548-.0313a1.524,1.524,0,0,1,.64889-.02626c.516.05348.55216.03552.51377-.25519-.00719-.05469.02086-.10162.06085-.10162a.14638.14638,0,0,1,.11339.09772c.02233.05588.04243.0391.0469-.03909.00494-.08675.06643-.13683.16809-.13683.12509,0,.15-.03434.11335-.15632-.02579-.086-.01-.15639.0352-.15639a.53277.53277,0,0,1,.23845.15639c.16419.16416.205.31271.086.31271-.03333,0-.099.0821-.14072.17589l-.07819.17592,1.20011.02346,1.20007.02343.19156-.41043a1.06048,1.06048,0,0,0,.14462-.48083c-.02733-.041-.0078-.09479.04693-.129.07036-.044.06349-.08989-.02736-.18372-.07577-.0782-.09186-.14269-.043-.172.04471-.02682.07816-.01177.07816.03517a.07836.07836,0,0,0,.07819.08209c.04236,0,.0782-.10556.0782-.23061,0-.16423-.04511-.24478-.15639-.2797-.209-.06546-.19545-.18089.03126-.26749.24239-.09258.33707-.23813.11729-.18018-.14072.0371-.15249.022-.08209-.10527a1.87875,1.87875,0,0,0,.129-.301c.03849-.12509.05888-.1335.11336-.0469.04478.07108.08309-.01957.11729-.27758a3.36406,3.36406,0,0,1,.13293-.59809.80607.80607,0,0,0,.03906-.3948.6766.6766,0,0,1,.07429-.40264,3.14628,3.14628,0,0,0,.19156-.77791c.04077-.30491.09536-.652.12119-.77007.03577-.16419.02007-.20486-.0665-.172-.068.02579-.13056-.01953-.15635-.11336-.02361-.086.00275-.17353.05862-.19449.0934-.035.17771-.3606.227-.8766a1.05463,1.05463,0,0,1,.07794-.33227c.03327-.0547-.01567-.119-.12513-.16419-.17642-.07287-.17592-.07433.02737-.07816.19642-.00369.2104-.03126.26971-.53166a3.98612,3.98612,0,0,0,.043-.59416.25872.25872,0,0,1,.07036-.172c.04661-.05469.06922-.13754.0469-.172a.19517.19517,0,0,1,.02347-.172.37149.37149,0,0,0,0-.28538c-.03756-.10166-.03588-.19982.00386-.22582a7.06158,7.06158,0,0,0,.17864-1.82253,2.47138,2.47138,0,0,1,.05984-.64108.6505.6505,0,0,0,.14073-.26975.47534.47534,0,0,0,.00783-.43783.6828.6828,0,0,1-.043-.39481c.02747-.13289.013-.22671-.0352-.22671a.08207.08207,0,0,1-.069-.10166c.02014-.15636-.0949-.44564-.17721-.44564q-.07824,0-.00093-.09379a2.87742,2.87742,0,0,0-.24146-1.2822.61429.61429,0,0,1-.05473-.30491.60292.60292,0,0,0-.05862-.30881.78332.78332,0,0,1-.06257-.35574.83088.83088,0,0,0-.11725-.43387.83619.83619,0,0,1-.129-.39877,1.387,1.387,0,0,0-.13293-.47686,7.14253,7.14253,0,0,1-.32444-1.075c-.1149-.47694-.22807-.89485-.25412-.93817a.63838.63838,0,0,1-.06642-.15639c-.06818-.27257-.35871-1.18054-.5254-1.64181-.11021-.30491-.23588-.70307-.28377-.89906-.04736-.19352-.16963-.63329-.27175-.9773-.3228-1.08671-.39463-1.49958-.28438-1.634.08381-.1022.07261-.17588-.06153-.40264a1.17385,1.17385,0,0,1-.16419-.387c0-.15024-.42216-.43-.64892-.43a2.534,2.534,0,0,0-.53162.10034c-.42217.12316-.66881.09136-.53614-.06907.07677-.09279.03578-.10946-.26914-.10946-.20325,0-.35964.03566-.35964.08209,0,.04754-.06252.06235-.14852.03517a.19592.19592,0,0,0-.19938.0313c-.03.04618-.12119.0514-.22282.01273a3.29991,3.29991,0,0,0-1.44893.06546c-.01581.04729-.099.086-.18505.086-.12509,0-.1385-.02192-.067-.10949.11651-.14276.02794-.18415-.3708-.1732-.21108.00579-.32834-.02447-.32834-.08474,0-.05506-.12119-.09548-.29321-.09773-.16419-.00222-.34473-.00565-.41044-.00783-.06453-.00219-.32834.01566-.58635.03963a8.86892,8.86892,0,0,1-2.7051-.09873,1.64468,1.64468,0,0,0-.8991-.08041,3.6364,3.6364,0,0,1-1.03979.04994.5635.5635,0,0,0-.19155.0544c-.09383.04053-.16662.0268-.20719-.03913-.0431-.07-.28144-.10406-.76617-.10942a1.90161,1.90161,0,0,0-.66978.04689c.03878.06253-.28405.02011-.75315-.09905a1.37373,1.37373,0,0,0-.80527-.0182c-.11261.11257-.46127.14755-1.11019.11128-.17148-.00959-.84043-.01574-1.48152-.01359A6.33616,6.33616,0,0,1,42.80837,8.143c-.08947-.13289-.30166-.16172-.34584-.0469Zm7.221,1.08046c1.82947.07319,2.47617.11282,3.1273.19162.36444.04415,1.21181.07866,1.87636.07655s1.74143.01728,2.38452.043c.649.026,1.63369.06264,2.20474.0821a6.57967,6.57967,0,0,1,1.17271.10552A.75779.75779,0,0,0,60.801,9.724c.22675-.0234.42327.14043.3356.27973-.03871.06141-.08539.06027-.16358-.00394-.089-.073-.10943-.06643-.10943.0352,0,.07036-.03766.12513-.086.12513-.04747,0-.06672-.05083-.043-.1134.03581-.09443.01173-.09919-.14466-.02833-.25408.11515-.24235.17689.06257.32934.21891.10946.22821.12506.07426.12506-.1569,0-.1736.0313-.15475.28928.02275.31128.07269.337.43233.22346.17195-.05434.18293-.04361.13135.12841-.08213.27362-.18676.35567-.279.21889-.0601-.08914-.07348-.07036-.05566.07816.01316.10945.06646.18686.12119.176s.09772.01481.09772.0586a.07386.07386,0,0,1-.07819.07819.07382.07382,0,0,0-.07813.07816c0,.043.07033.07819.15632.07819s.15636.0528.15636.11726c0,.0626-.0401.11729-.086.11729-.05165,0-.06618.0782-.03638.19546.06174.24306.01291.24435-.26853.007-.22868-.19284-.61766-.26152-1.55582-.27461a.80089.80089,0,0,1-.48866-.10374.352.352,0,0,0-.23845-.11951c-.33618-.04078-2.75468-.07268-2.85362-.03766-.06453.02285-.08735.12591-.06253.28226.02168.13686.06167.40264.08989.59809a1.48742,1.48742,0,0,0,.10943.43,2.53777,2.53777,0,0,1,.1517.54722,29.1828,29.1828,0,0,0,.7822,2.85366,10.173,10.173,0,0,1,.32094,1.17271,3.80963,3.80963,0,0,0,.16419.64892,1.50993,1.50993,0,0,1,.10162.27361c.01739.07386.0695.28931.11729.48476s.1051.40393.129.46907a2.42048,2.42048,0,0,1,.07037.44173,2.46727,2.46727,0,0,0,.20718.70361c.17982.37921.17982.37921.64888.43a7.33642,7.33642,0,0,0,1.25095-.03541,9.80339,9.80339,0,0,1,3.38524.13031.33912.33912,0,0,1,.09383.257.21893.21893,0,0,0,.16415.24231c.12316.03227.15539.09.129.23069-.02494.13289-.0044.17617.07036.14852.06127-.02271.10556.01173.10556.0821a.19571.19571,0,0,1-.15639.16025.201.201,0,0,0-.15636.172.38289.38289,0,0,1-.09383.22672c-.07032.07036-.07329.11436-.01173.17588.05749.05748.03728.17592-.06732.39484a2.49714,2.49714,0,0,0-.0773,1.68717c.10163.07891.11085.11793.0391.16576q-.09385.06251-.01918.17978c.09458.14856.093.22672-.00429.22672-.04464,0-.08156-.05859-.086-.13679-.00433-.07623-.04074,0-.08209.172a1.02751,1.02751,0,0,0-.0352.41047c.0211.05469.00661.10162-.03123.10162-.13293,0-.14552.30931-.01567.3844.12155.07029.12119.07723-.00393.0808-.07813.00218-.13679.03738-.13679.08206,0,.04171.05473.0782.11726.0782a.12023.12023,0,0,1,.11729.11729c0,.06253-.03649.11726-.07816.11726-.04468,0-.0782.04689-.0782.10945,0,.05892-.09382.13289-.20325.16029-.19548.04883-.19774.055-.05866.16026.13289.10058.13385.11779.0117.21226a3.01747,3.01747,0,0,0-.31,1.53117,1.141,1.141,0,0,1-.06529.48473,1.79451,1.79451,0,0,0-.10173.602c-.06353.813-.08148.90886-.18751,1.00169-.09354.08177-.15589.4525-.21033,1.24994a2.89465,2.89465,0,0,1-.05158.46906,1.92255,1.92255,0,0,0-.03581.38311c-.01685.39873-.12073.52822-.39809.49639-.18766-.02154-.57852.166-.57852.27762,0,.0373-.09.04832-.19156.02343s-.21423-.01024-.23981.03126c-.08914.14455-.28734.086-.23826-.07033.0416-.13263-.02229-.14072-1.109-.14072-.96946,0-1.16813.01989-1.247.12506-.08528.11375-.09411.11339-.09769-.0039-.00218-.07222-.09-.14448-.19939-.16419-.16419-.02955-.18858-.012-.15245.10946.02321.07819.00526.14462-.0391.14462a.07505.07505,0,0,1-.08206-.07033c0-.03866-.08993-.08628-.19939-.10556-.15635-.02761-.19008-.0099-.15635.08206.03538.09662-.01563.10764-.28928.06257a.663.663,0,0,1-.35967-.13289c-.03535-.10095-.40257-.09383-.40261.00779,0,.0469-.03555.06471-.07819.0391a.42313.42313,0,0,1-.07816-.28928,3.58934,3.58934,0,0,0-.53113-1.56361,3.92219,3.92219,0,0,0-1.11848-1.00076.35939.35939,0,0,1-.23011-.11726,2.33317,2.33317,0,0,0-.91137-.43,1.46336,1.46336,0,0,1-.41831-.16029,1.39486,1.39486,0,0,0-.73487-.14466c-.23455.00862-.4085.04375-.387.07819s-.03126.09995-.11725.14559c-.21109.11218-.27519.09819-.16584-.03616.07-.086.07251-.11726.00948-.11726a1.07019,1.07019,0,0,0-.50472.27365c-.042.04972-.079.04693-.10188-.00784-.07043-.169-1.27759.01567-1.27759.19549a.79958.79958,0,0,1-.34791.15636c-.25018.07308-.33474.13346-.301.215.029.07018-.01567.12974-.1173.15639-.09382.02454-.1541.08152-.14072.13289.0122.04693.00669.06-.01159.02736-.06807-.12133-.25422-.04689-.25422.10163a.14037.14037,0,0,1-.15639.15639c-.086,0-.15636.05272-.15636.11725a.14066.14066,0,0,0,.14856.1173.22212.22212,0,0,1,.19209.11725c.05326.14334.03463.14577-.22335.02926-.15639-.07064-.22493-.06925-.29712.00594-.07175.07473-.06252.09147.0391.07111.12566-.02511.14072-.00468.14072.19077q0,.09384-.07819-.02347c-.06035-.0905-.07816-.06642-.07816.10556,0,.16419.02983.21152.11336.17982a.13815.13815,0,0,1,.16029.03127.08577.08577,0,0,0,.12115.0313c.04-.02318.05623.0039.03516.05863a.5861.5861,0,0,1-.26577.20328c-.16419.07358-.216.14369-.18766.25408.024.09383,0,.15242-.06252.15242a.72729.72729,0,0,0-.31271.20332.65683.65683,0,0,1-.51213.20325.92594.92594,0,0,0-.37917.05952c-.15632.119-.52172.14126-.56293.03431-.02661-.06932-.09379-.08084-.211-.03631a6.50583,6.50583,0,0,1-1.67311-.11557c-.17982-.04178-.18211-.0498-.05473-.19213.10513-.11747.11987-.21892.07036-.48473a1.92173,1.92173,0,0,1-.04689-.3948c.00894-.03352-.01957-.05863-.06646-.05863-.04815,0-.03288-.09383.03695-.22675.12638-.24074.04514-.3987-.205-.3987a.237.237,0,0,1-.17982-.0782c-.02873-.0479.04693-.05895.19545-.02847.258.0529.29329-.02243.11847-.253-.13045-.172-.15692-.29962-.04811-.23166.12456.07788.16-.19838.09787-.76127a1.2249,1.2249,0,0,1,.01159-.57573,1.491,1.491,0,0,0-.06256-.793c-.02025-.02.00232-.08932.04689-.14408.06883-.08442.043-.10553-.129-.10553-.21108,0-.21244-.00282-.0743-.15639.12667-.14072.12785-.15635.01174-.15635-.11762,0-.11934-.02343-.01957-.26581.08052-.19545.08667-.2886.02347-.35181-.0645-.06453-.0547-.086.03909-.086.09952,0,.1227-.07032.1134-.344-.00909-.26585-.03488-.325-.1134-.26016-.13253.10935-.17839.04908-.12316-.162.02451-.09382.09118-.172.14663-.172.07226,0,.1028-.13682.10552-.473a3.289,3.289,0,0,1,.05083-.62155c.03545-.11211-.0039-.16194-.16025-.20325-.14856-.03928-.17846-.07244-.10556-.11729a.19377.19377,0,0,1,.20329.01953c.08148.06589.10162-.06643.10162-.66842s-.02168-.75058-.10946-.75058c-.11468,0-.12809-.27361-.02182-.44563a.08309.08309,0,0,0-.04464-.12506c-.07677-.03072-.07426-.05587.01173-.11729.10338-.07383.10177-.11729-.02876-.78181-.01842-.09379,0-.19155.04049-.215a.08308.08308,0,0,0,.02869-.12116,2.42864,2.42864,0,0,1-.13074-.65672c-.01152-.09382-.07075-.147-.14813-.13292a.187.187,0,0,1-.17982-.05863c-.02675-.04325.01953-.08209.09773-.08209.20325,0,.26735-.08346.162-.21109-.04518-.05476-.05323-.10166-.01742-.10166a3.70618,3.70618,0,0,0,.08993-.97332l.02346-.9734-.215-.10946c-.21109-.10745-.21209-.111-.05473-.19541.11736-.063.15714-.16033.14855-.36358-.00658-.15635.0156-.27758.0508-.27758.11518,0,.07039-.21856-.05473-.26714-.09966-.0387-.10259-.069-.01953-.20192a.2487.2487,0,0,0-.00784-.32444c-.07851-.1251-.08152-.18208-.01169-.22282.06449-.03763.05473-.06972-.0313-.10273-.15636-.06-.1619-.21-.0078-.21.16344,0,.1527-.09383-.03853-.33621-.185-.23455-.20672-.35113-.03963-.21373.10345.08513.11726-.02862.11726-.96682,0-.91469-.017-1.06325-.1212-1.06325-.09157,0-.10781-.043-.06646-.17592a.54732.54732,0,0,1,.10946-.21294,5.84091,5.84091,0,0,0-.04428-1.597c-.04225-.10949-.03062-.13206.04428-.086.07036.04328.08481.03488.0469-.02736A.20549.20549,0,0,0,42.999,12.271c-.06567,0-.09228-.04693-.06646-.11726.02293-.06256.07584-.09719.11336-.07429.03867.0236.07036-.11726.07036-.31271,0-.26582-.02962-.35574-.11726-.35574-.16121,0-.14072-.21681.02343-.24822.11472-.02193.12921-.09966.10556-.56875-.01967-.39094-.06356-.5708-.15639-.64113-.11725-.08881-.11761-.09794-.00389-.10008.16529-.00311.24234-.19309.17982-.44324-.04629-.18529-.03907-.18772.57075-.19209.946-.00683,2.71569-.08438,2.752-.12065.0323-.0323,1.032-.00751,3.21326.07973Zm-7.27085.20171c0,.086-.03169.15636-.0704.15636s-.05276-.07036-.03126-.15636.05319-.15635.07036-.15635.0313.07032.0313.15635Zm.09772,1.42679c.0782.029.13679.081.13679.1212,0,.09035-.23451.06835-.42216-.0396a.1697.1697,0,0,1-.09383-.23012c.04732-.12509.06743-.12824.14855-.02343a.59647.59647,0,0,0,.23065.17195Zm-.17592.44961a.07818.07818,0,1,1-.07819-.0782.07385.07385,0,0,1,.07819.0782Zm.362.11722c-.02776.0704-.08524.10288-.13139.07429-.05866-.0363-.05566-.08209.01038-.16028.11625-.13762.18887-.086.121.086Zm-.44023.62155c0,.02111-.03126.054-.07816.0821-.04468.02679-.0782.01173-.0782-.0352a.07831.07831,0,0,1,.0782-.08206c.0469,0,.07816.01409.07816.03516Zm.43.043c.02679.04471.01173.07819-.03516.07819a.07833.07833,0,0,1-.08213-.07819c0-.0469.01406-.07816.0352-.07816s.05394.03126.08209.07816Zm16.46507.66845c.19051.02819.57072.07973.85217.11568a4.28144,4.28144,0,0,1,1.143.25569,2.4429,2.4429,0,0,1,.13135.37527c.09476.32055.12137.34559.39094.36748.16415.0133.28924-.01206.28924-.05863,0-.04378.05473-.0821.11726-.0821s.11725.03646.11725.07816a.083.083,0,0,1-.086.07816.85659.85659,0,0,0-.32051.23455c-.21891.21892-.22306.23455-.06256.23455.12509,0,.15918.032.12509.11729l-.09382.23455c-.03549.08875-.01174.10395.09776.06253.12505-.04732.13035-.03727.03906.0743-.08954.10942-.08657.14791.01953.25408a.41466.41466,0,0,1,.12513.23845c0,.06252.035.11335.07819.11335.10706,0,.09379.36823-.01567.43516q-.09378.05741.05863.11214c.12874.04621.15307.13679.15636.58242.003.40657.03444.55019.13682.62549a.32351.32351,0,0,1,.11951.24628c-.04089.45343.15389.89127.39652.89127a.083.083,0,0,1,.086.07812c0,.043-.07033.0782-.15632.0782s-.15639.03519-.15639.07819c0,.04171.05473.0782.11726.0782.13292,0,.15724.12069.03913.19391-.11347.07036-.09383.43154.02346.43154.07673,0,.094.129.07033.52773a3.37871,3.37871,0,0,1-.05863.55505c-.0152.01524-.08989.00133-.16809-.03123a2.57661,2.57661,0,0,0-.57076-.08213,4.87284,4.87284,0,0,1-.62541-.06968,2.58845,2.58845,0,0,0-.8991-.13042.86421.86421,0,0,1-.35574.02418,1.08229,1.08229,0,0,0-.4769.0704c-.10166.05437-.18665.06056-.215.01563a.67534.67534,0,0,0-.39874-.05473,2.11787,2.11787,0,0,1-.49253-.01953c-.19145-.05319-.39727-.48473-.37663-.78964a.824.824,0,0,0-.112-.44563.44121.44121,0,0,1-.08213-.32444.30688.30688,0,0,0-.07819-.26972c-.06947-.07819-.10245-.17549-.07426-.21891a.43567.43567,0,0,0,0-.27369c-.03452-.13289-.09208-.18168-.17979-.15242q-.129.043-.0352-.02625c.12184-.09-.03126-.88762-.19545-1.01811a.25916.25916,0,0,1-.07419-.25737,1.45517,1.45517,0,0,0-.19058-.81311,3.62492,3.62492,0,0,1-.29812-1.04762c0-.09383-.03559-.172-.07819-.172-.04364,0-.07491-.14855-.07069-.33617a4.26057,4.26057,0,0,0-.11321-1.11019c-.04894-.15109-.01549-.15585.99307-.14072.57072.00855,1.19964.03867,1.38773.06643Zm2.96311.473c0,.06256-.03652.0954-.07819.07036a.08178.08178,0,0,1-.03556-.11726c.06825-.11257.11375-.09383.11375.0469Zm-.23458.0313a.07211.07211,0,0,1-.07426.07819.15221.15221,0,0,1-.1212-.07819c-.02722-.0454.00394-.0782.0743-.0782s.12116.0328.12116.0782Zm-18.84176.15635c0,.0469-.01409.0782-.0352.0782s-.05394-.0313-.08209-.0782c-.02676-.04468-.01173-.07816.0352-.07816a.07831.07831,0,0,1,.08209.07816Zm18.48991.0782c.02683.04467.01177.07819-.03512.07819a.07835.07835,0,0,1-.08213-.07819c0-.04694.01409-.0782.0352-.0782s.05394.03126.08205.0782Zm.11733.28144c0,.01663-.05473.03126-.11733.03126s-.11725-.03466-.11725-.07426.05473-.05422.11725-.0313.11733.05763.11733.0743ZM42.36667,15.75788c.02758.07037.0147.09852-.0322.07037a.14941.14941,0,0,1-.07819-.11726c0-.11075.05827-.086.11039.04689Zm.64015,1.892c-.02607.02607-.1077-.01564-.18372-.0938-.12806-.13178-.12509-.13474.04693-.04693.10159.05191.16276.11479.13679.14073Zm-.086.64112a.20305.20305,0,0,1-.16029.07812c-.06253,0-.11336-.035-.11336-.07812,0-.042.0743-.0782.16026-.0782s.13854.0362.11339.0782ZM42.784,20.21815c-.07816.0201-.13683.067-.13683.10946,0,.03931-.06252.07426-.13289.07426-.11586,0-.11339-.01452.01953-.11332a.52837.52837,0,0,1,.26972-.1095c.08045.00269.07429.015-.01953.0391Zm.25687,1.70827c.12183.148-.01059.14952-.206.00236-.12513-.09415-.12821-.11242-.01953-.11571a.32926.32926,0,0,1,.22557.11335Zm20.62936,1.99716c-.18765.11819-.27822.07809-.10946-.04847.07816-.05866.167-.091.18766-.06843.02082.02293-.01567.07745-.0782.1169Zm.47694.37956c0,.09383-.15353.19048-.21112.13293-.05541-.05545.04693-.20332.14072-.20332a.06654.06654,0,0,1,.0704.07039Zm-1.0164,1.49326c0,.04689-.01406.07819-.0352.07819s-.0539-.0313-.082-.07819c-.02683-.04468-.01174-.07816.03516-.07816a.07831.07831,0,0,1,.08209.07816Zm-20.17085.31274a.07834.07834,0,0,1-.0821.0782c-.04693,0-.062-.03352-.0352-.0782.02819-.04693.061-.07819.0821-.07819s.0352.03126.0352.07819Zm.23455.0782c0,.04689-.0141.07816-.0352.07816s-.05394-.03127-.08206-.07816c-.02683-.04468-.01177-.0782.03513-.0782a.07835.07835,0,0,1,.08213.0782Zm20.64.85564c.16143.10312.0782.15549-.172.10824-.11726-.02214-.1986-.074-.17521-.11171.05759-.09286.19867-.0914.34723.00347ZM42.569,27.0825c0,.02111-.03123.054-.07813.08206-.04471.02683-.07819.01177-.07819-.03516a.07828.07828,0,0,1,.07819-.08206c.0469,0,.07813.01406.07813.03516Zm.35824,2.537a.18706.18706,0,0,1-.13539.086c-.04929,0-.04321-.04693.01524-.11729.10531-.12692.20257-.10163.12015.03129Zm19.94164.27755c-.07079.10942-.16423.19932-.20715.19932-.10681,0-.10034-.0469.0441-.32051.09076-.172.15171-.21856.21-.16029.058.05795.04414.14072-.04693.28148Zm.30219-.0352a.17556.17556,0,0,1-.1419.07816c-.05634,0-.0469-.03048.02343-.07619.14859-.09655.177-.097.11847-.002Zm-.43118.57073c0,.05591-.07036.10162-.15636.10162-.15639,0-.19552-.05569-.10445-.14856.09129-.093.26081-.06252.26081.04694Zm-.15636.21112c.03488,0,.04354.07422.01954.16805-.034.13292-.01517.15757.08989.11768.17735-.06728.15639.01495-.0469.184-.23455.195-.35352.19481-.4163-.00064a.22909.22909,0,0,1,.09186-.27365c.086-.06507.105-.111.0469-.11336a.096.096,0,0,1-.09773-.08989c0-.0484.05473-.06549.12513-.0391a.71512.71512,0,0,0,.18761.04694Zm.56683.44559a.29918.29918,0,0,1-.19549,0c-.05473-.02189-.0117-.03909.09773-.03909s.15249.0172.09776.03909Zm-14.01405.21892c0,.06453-.0704.11726-.15639.11726-.15636,0-.20661-.08263-.10946-.17979.09494-.09493.26585-.05476.26585.06253Zm13.25961.88347c-.07094.07086-.20254-.15639-.14488-.25022.02469-.04017.075-.0117.11748.0665s.05419.15693.0274.18372Zm.38307,0c-.05212.05212-.19546-.06256-.19546-.15639,0-.0469.0469-.0391.1173.01956.06252.05212.099.116.07816.13683Zm-19.31869.06253c.0293.07819.0117.11325-.0469.0935-.11725-.03949-.18132-.21859-.07819-.21859.044,0,.09869.05472.12509.12509Zm-.42217.33617a.32448.32448,0,0,1-.11729.16809c-.12827.10688-.14344.08209-.0694-.11332.05037-.133.18669-.17289.18669-.05477Zm0,.55513c0,.04689-.01409.07816-.0352.07816s-.05394-.03127-.08209-.07816c-.02676-.04472-.01173-.0782.0352-.0782a.07832.07832,0,0,1,.08209.0782Zm19.561.4065c-.05473.05473-.09383.06127-.09383.01567,0-.10167.09633-.197.14856-.14695.02275.02189,0,.07658-.05473.13128Zm-16.04287.92256a.07832.07832,0,0,1-.08213.07816c-.04689,0-.06195-.03348-.03513-.07816.02816-.04693.061-.07816.08206-.07816s.0352.03123.0352.07816Zm10.55451.07816a.07832.07832,0,0,1-.08209.0782c-.0469,0-.062-.03352-.0352-.0782.02819-.04689.061-.07816.08213-.07816s.03516.03127.03516.07816Zm-9.89.15639c.02676.04464.0117.07816-.0352.07816a.07828.07828,0,0,1-.08205-.07816c0-.04689.014-.07819.03512-.07819s.05394.0313.08213.07819Zm8.8736.07816c0,.04693-.01409.0782-.0352.0782s-.05394-.03127-.08209-.0782c-.02679-.04468-.0117-.07816.0352-.07816a.07831.07831,0,0,1,.08209.07816Zm4.418.0782c.02608.04421-.032.07819-.13364.07819-.14856,0-.1594-.01359-.06253-.07819.14072-.09383.14072-.09383.19617,0Zm.54654,0c.0264.044-.0078.07819-.07816.07819s-.10456-.03419-.07819-.07819c.02815-.0469.05945-.0782.07819-.0782s.05.0313.07816.0782ZM52.92808,35.1c.025.04167-.0078.07819-.07036.07819A.21434.21434,0,0,1,52.69353,35.1c-.025-.04171.00783-.0782.07036-.0782a.21422.21422,0,0,1,.16419.0782Zm-5.66818.31274c0,.043-.07036.07816-.15631.07816s-.15639-.03516-.15639-.07816.07032-.07819.15639-.07819.15631.03519.15631.07819Zm2.89276.15636a.0782.0782,0,1,1-.0782-.0782.0739.0739,0,0,1,.0782.0782Zm1.40726,1.09455a.07834.07834,0,0,1-.0821.07819c-.04689,0-.062-.03351-.0352-.07819.02816-.04693.061-.0782.0821-.0782s.0352.03127.0352.0782Zm-3.6003.82087c-.05208.0626-.11594.099-.13683.07819-.05208-.05212.06257-.19545.15639-.19545.04694,0,.0391.0469-.01956.11726Z"/><path d="M19.30493,34.35954a.16079.16079,0,0,0,.14865-.00672c.02483-.02449-.02314-.04338-.10137-.03982-.09386.00424-.1113.02138-.04728.04654Z"/><path d="M59.95662,25.94749c-.28169.12831-.34569.20855-.52776.662a2.5683,2.5683,0,0,0-.20715.97729.91244.91244,0,0,0,.25662.774c.34651.42217,1.1364.77891,1.26393.57073a.1808.1808,0,0,1,.18382-.0352.48849.48849,0,0,0,.33224-.12509c.17982-.15045.18343-.16662.05863-.26449-.16415-.12878-.17313-.20851-.02343-.20851.06256,0,.11726-.03466.11726-.07426a.7643.7643,0,0,1,.20722-.28144.825.825,0,0,0,.23455-.66062c.0245-.40657.01037-.45794-.13683-.4965-.09382-.02454-.14358-.07648-.11611-.12116.06156-.1-.48591-.63328-.6501-.63328a.59538.59538,0,0,1-.28144-.11289c-.202-.1535-.32055-.1486-.71145.02943Z"/></svg>