<svg xmlns="http://www.w3.org/2000/svg" viewBox="0 0 43 44"><title>icn_foot_05_1</title><path d="M24.3614,3.50464a.2836.2836,0,0,0-.12325.14445c-.00721.04336-.12322.07435-.2677.07155-.28046-.0054-.68612.36836-.5496.5064.14895.15052.08217.22114-.15579.16479l-.22948-.05436.21247.17553c.28252.23342.17.324-.17846.14368-.221-.11432-.28552-.11919-.34421-.026-.05139.08162-.07225.0595-.07225-.07648,0-.102-.03766-.19124-.08072-.19124a.48381.48381,0,0,1-.22948-.14873.59756.59756,0,0,0-.238-.16149c-.05-.00712-.136-.01645-.19547-.02123a.141.141,0,0,1-.10626-.14874c0-.1163-.068-.13077-.39942-.085a1.23234,1.23234,0,0,0-.54818.19547.39275.39275,0,0,1-.3102.09772.51173.51173,0,0,0-.31021.03822c-.13289.07217-.12748.09208.051.187.11051.05876.18836.15558.17424.21674a.39329.39329,0,0,0,.119.26769c.1387.15091.13174.15721-.17422.15721-.238,0-.30741.03017-.27408.119.04567.12178-.10412.221-.33357.221-.09107,0-.11172-.051-.07225-.17848s.02245-.16756-.0595-.14022a.19347.19347,0,0,0-.12324.136c-.00442.051-.01369.13839-.01933.18272-.0196.1534-.18464.085-.18464-.07649a.24382.24382,0,0,0-.12749-.20986c-.179-.06785-.153-.1945.051-.24816.191-.05024.1445-.23032-.05947-.23036-.068,0-.119-.03826-.119-.08928a.41123.41123,0,0,0-.119-.21246.89833.89833,0,0,1-.16149-.22946c-.03268-.0817-.06112-.08076-.12322.00424-.06562.08978-.10626.08543-.21675-.02341-.153-.1506-.27246-.17883-.18888-.04456.02975.04779-.00657.085-.08306.085a.10632.10632,0,0,1-.11049-.14026.16039.16039,0,0,0-.08074-.17844c-.05948-.02147-.10622-.00086-.10622.04674,0,.13843-.50995.20753-.89239.121-.40794-.09235-.7224.01407-.7224.24443,0,.085-.04829.16261-.102.1639-.17848.00424-.67584.50146-.60968.60948.03554.058.01052.07575-.066.04674a.20714.20714,0,0,0-.22524.11471c-.059.09352-.06618.16149-.017.16149.116,0-.28046.587-.39944.59147-.05236.00191-.11034.14368-.13173.32216-.02961.24646.00026.34954.13173.45468.14447.11561.15085.14711.0425.21033-.18031.10519-.21.29109-.0831.52059.13135.23755.02358.29879-.30785.17491-.221-.08256-.2895-.07513-.42495.046-.085.076-.18764.11832-.21671.0892-.02945-.02944-.11473-.00521-.18274.05195-.14531.12217-.32743.03733-.26649-.12416.04705-.12463-.25194-.08022-.4389.06517q-.102.07932-.102-.01843a.05184.05184,0,0,0-.085-.04674.106.106,0,0,0-.02976.14449c.03013.051.01662.06957-.02975.04091-.102-.06307-.50731.33562-.42491.418.02755.02757-.02127.11545-.10626.1912a1.01558,1.01558,0,0,0-.21672.50574c-.05255.3229-.03873.37088.119.41249.26511.06983.22094.1994-.068.1994-.26347,0-.426-.12972-.24645-.19676.05918-.02213,0-.06883-.12749-.10071a.57611.57611,0,0,1-.32721-.2337c-.05225-.102-.11213-.13726-.14448-.085a.57893.57893,0,0,1-.35269.10491c-.45044.02368-.50991.00894-.50991-.12614a.1252.1252,0,0,0-.13174-.12747c-.07649,0-.11215.03383-.085.08069.0246.0425-.02974.105-.11471.13174-.19549.06179-.48.365-.408.435a1.19882,1.19882,0,0,0,.33148.11747l.28045.068-.29323.00851c-.22946.00665-.271.03068-.19121.11048.15672.1567.119.238-.11047.238-.119,0-.21249-.03367-.21249-.07652,0-.04149-.136-.07645-.29743-.07645s-.29749.04075-.29749.08924a.297.297,0,0,1-.13172.187c-.09408.06975-.11473.16568-.07225.33565.05129.20516.0935.23269.30595.19975.153-.02376.23358-.0028.21248.05526-.01862.05117-.17422.105-.34419.11894a.463.463,0,0,0-.41219.21247,1.81026,1.81026,0,0,0-.01361,1.01983c.03933.13338.01361.15068-.14786.09912-.31447-.10036-.6984-.06237-.80173.07936-.05576.07649-.1214.1137-.15.085-.0719-.0721-.91554.48442-.86314.56943.02618.04246-.02087.07835-.10585.08072-.11068.003-.22812.18272-.42493.65016l-.272.64591.16637.32294c.20142.39095.21063.47276.03762.33266-.102-.08251-.12751-.08279-.12751-.00121,0,.059-.068.08407-.16147.0595a.31745.31745,0,0,0-.29745.119.56017.56017,0,0,1-.39094.16144q-.255,0-.255.12751c0,.068-.03768.12746-.08073.12746-.04613,0-.05891-.06373-.02974-.14873.03851-.11234.00943-.102-.119.04254a.58256.58256,0,0,1-.26772.19119.09432.09432,0,0,0-.09772.08077c0,.04332-.08074.10631-.17424.136-.136.04312-.15276.08131-.07649.1742.05584.068.13052.09893.17424.07225s.07649-.00852.07649.04246a.08716.08716,0,0,1-.08926.08924c-.051,0-.06739.03648-.03822.085a.09031.09031,0,0,1-.05952.127c-.18645.07085-.11679.41693.17123.85038.32757.4929.33688.59964.05825.66928-.119.02971-.21248.10919-.21248.18062,0,.08648-.07649.12159-.23794.10931a2.05646,2.05646,0,0,0-1.38286.8c-.88146,1.02835-1.57631,2.39161-1.13279,2.22235.11047-.04219.13248-.02213.09349.085q-.051.14034.08075.14026c.102,0,.10993.02687.03531.119a1.07934,1.07934,0,0,0-.00171,1.03687,1.88032,1.88032,0,0,1,.16611.49718c0,.07649.03564.1317.085.1317.044,0,.085.05526.085.11475a.82771.82771,0,0,0,.17.33569c.09154.119.13466.24218.09348.26683-.08347.05012-.02629.37057.09194.51511.03846.047.14359.1742.23526.28464.1199.14449.14457.24089.08924.34848-.04371.085-.05646.16876-.02975.19544a.34209.34209,0,0,1,.06375.16576.78562.78562,0,0,0,.204.306.62758.62758,0,0,1,.187.33569.84482.84482,0,0,0,.23372.4037c.13244.1445.22349.266.21013.28044-.07833.08457.01509.27083.15959.31823.11047.03624.15322.10037.12217.18323a.51671.51671,0,0,0,.27725.61348c.17848.08108.19728.11592.09774.18117-.085.05564-.0916.08107-.02125.08189.136.00159.45769.32033.357.35374s.221.6839.43343.87638a.50246.50246,0,0,1,.17.256c0,.14434.28044.38247.45043.38247a.141.141,0,0,1,.14449.12747c0,.068.03966.12746.085.12746s.085.05949.085.1275c0,.19544.2475.6374.35694.6374a3.10831,3.10831,0,0,1,.9179.98585c0,.068.03641.119.085.119s.085.051.085.119c0,.06384.08075.14064.17423.16572a.3547.3547,0,0,1,.221.221.82119.82119,0,0,0,.33569.35268c.16147.0997.28893.21223.28893.255,0,.04223.11052.07648.2465.07648.29745,0,.7161.31139.65122.48443-.03109.08287.01168.14236.12218.17.09346.02337.16994.075.16994.11471,0,.04.12323.10444.27622.14445a.62725.62725,0,0,1,.36118.238.24315.24315,0,0,0,.23374.14026c.085-.01459.14871.02547.14871.09344,0,.177.72241.66061,1.07087.71684a1.29272,1.29272,0,0,1,.55666.29027.864.864,0,0,0,.42493.24222c.0935,0,.14352.03705.11473.085-.03058.051-.017.085.034.085a.41421.41421,0,0,1,.21669.1317,1.21794,1.21794,0,0,0,.49294.204c.19548.03908.293.07614.21247.08073-.13386.00762-.13172.02551.02125.17848a.58461.58461,0,0,0,.25495.17c.14185,0,.66291.50993.92921.9094a2.08133,2.08133,0,0,1,.31162.79461c.04939.39094.06253.40661.41644.49714a4.94211,4.94211,0,0,1,.90512.39095c.29747.164.635.34137.75213.39522.11747.054.4462.206.73516.34a7.12022,7.12022,0,0,0,.97735.3612c.25009.06541.68416.18673.96461.26951a12.432,12.432,0,0,0,3.86694.01155c.34845-.07466.83-.15445,1.06234-.17607.39094-.03628,1.10831-.30649.8159-.30734-.18766-.00051-.0085-.13711.26344-.2008.153-.0359.238-.0224.238.03767,0,.05234.04674.07665.10623.05526a.13474.13474,0,0,0,.08074-.15725c-.01821-.085.00121-.09231.068-.02547.06867.06867.14871.06867.30168,0,.11049-.04962.20823-.11942.20823-.14873,0-.03061.12323-.08368.27622-.119a1.55807,1.55807,0,0,0,.53966-.28472,3.67159,3.67159,0,0,1,.53543-.36544,1.19113,1.19113,0,0,0,.41789-.42493,7.74358,7.74358,0,0,1,1.60482-1.59778.48331.48331,0,0,0,.255-.19547,1.98447,1.98447,0,0,1,.39944-.35692c.136-.08913.20072-.17674.14448-.19552-.079-.02628-.077-.06369.00849-.16569s.0865-.14037.00424-.17c-.05947-.02139-.08566-.07-.05947-.11047a.15814.15814,0,0,1,.17422-.02333c.136.05218.71389-.18692.71389-.29537a.2598.2598,0,0,0-.085-.153q-.085-.08493.221-.09368c.39094-.01108,1.05867-.62021.67988-.62021a.22.22,0,0,1-.17115-.14454c-.05831-.16145-.05831-.16145.17115-.22977.12919-.03849.19775.00035.28553.1618.1442.26516.15641.26419.48787-.03927.204-.18672.25388-.292.221-.46638-.02407-.12747-.00931-.21877.034-.21041.22949.04441.45046-.01707.45046-.12529a.385.385,0,0,1,.17-.24649c.153-.10709.1564-.13046.034-.2337-.11656-.09834-.15179-.09347-.24647.034-.07575.102-.12893.11934-.16915.05525-.0644-.10261.10116-.34.23714-.34a.69921.69921,0,0,1,.29321.187l.19971.187.04676-.18276a.35794.35794,0,0,1,.20823-.23448c.16994-.05443.22547-.29669.068-.29669-.05236,0-.07666-.04674-.05526-.10623a.16683.16683,0,0,1,.19126-.07649q.153.02976.102-.09775c-.03663-.09154-.00426-.11549.11471-.085.12749.03267.154.01113.11475-.09351-.03186-.085-.00954-.136.0595-.136.064,0,.0425-.04833-.051-.11474-.15416-.10954-.153-.11744.02549-.17421a.42249.42249,0,0,1,.272-.00851c.0453.02718.085-.00852.085-.07649a.25078.25078,0,0,0-.0935-.187c-.06472-.04114-.05949-.081.017-.1296.187-.11875.27506-.089.15727.05312-.23243.28043.08919.10584.46314-.25143.42493-.406.46011-.471.255-.471-.119,0-.12216-.017-.02549-.13594.091-.112.085-.155-.034-.24365-.195-.14535-.17848-.21527.051-.21527a.71.71,0,0,0,.36118-.119c.15745-.113.15805-.12751.01192-.289-.20762-.22949-.10446-.43061.11131-.21705.374.37011.38712.37232.5928.09807.10837-.14446.15536-.23736.10411-.2057-.18021.11128-.102-.051.102-.21162.14448-.11377.19034-.21394.15723-.34331-.03478-.136-.01631-.16751.07225-.12323.0649.03243.034-.004-.068-.08018-.22948-.1714-.25316-.36547-.04252-.34817.11035.0091.13847-.04332.119-.2218-.023-.21037,0-.23374.22948-.23374.18857,0,.3202-.08072.50566-.31018.13736-.17.23152-.3621.20823-.42493a.138.138,0,0,1,.09772-.16573c.132-.048.13174-.05724-.00426-.15725-.102-.075-.11572-.12373-.04674-.16573.051-.031.07944-.092.05951-.12746-.02131-.03788.11047-.117.29743-.17848.323-.10631.33019-.11666.19029-.272-.16079-.17849-.084-.30739.09443-.15865.09315.07757.14947.05665.25922-.09632.13414-.187.13285-.19664-.02974-.22219-.17-.02671-.25-.18575-.09348-.18575a.55207.55207,0,0,0,.25071-.16573c.153-.153.1546-.16868.02123-.204-.136-.036-.136-.03877,0-.04674a.218.218,0,0,0,.17-.19543.28512.28512,0,0,1,.238-.238.273.273,0,0,0,.23488-.255c.04855-.44192.11012-.58432.27505-.63607.18694-.05868.23553-.34495.068-.40079-.0955-.03185.34845-.69425.56943-.84963a.45369.45369,0,0,0,.085-.29771c0-.17844.04887-.24485.19547-.2655.204-.02874.25186-.14772.085-.211-.07732-.02928-.05949-.08263.05948-.17786.14451-.1156.15087-.14873.04252-.221-.11407-.076-.11049-.09807.034-.2094.23253-.17914.24879-.598.04667-1.20138-.17932-.53541-.41314-.83272-.667-.84808-.41644-.02524-.447-.0369-.40441-.15476.05024-.13913-.063-.27624-.51347-.62177-.204-.15639-.31613-.19742-.35694-.13038-.038.06233-.11646-.00852-.21673-.19547s-.22189-.29323-.33569-.29323a1.33843,1.33843,0,0,1-.55242-.33076,1.76981,1.76981,0,0,0-1.25782-.47311c-.34845-.01023-.38784-.06155-.27012-.352a2.33417,2.33417,0,0,0,.14889-.86686c.00607-.11051.044-.17525.08722-.14889.119.07252.33876-.04456.29481-.157a.56346.56346,0,0,1,.03666-.306.66081.66081,0,0,0-.0425-.4929.78932.78932,0,0,1-.07648-.40794c.02428-.068.017-.11378-.017-.10686-.12748.026-.357-.12381-.357-.23311,0-.1445-.09943-.15554-.22946-.02551-.066.066-.081.02979-.051-.12319.0343-.1749-.00423-.238-.19973-.32725a.87059.87059,0,0,1-.3102-.21671.3611.3611,0,0,0-.29743-.08924,1.59058,1.59058,0,0,1-.53968-.09771c-.272-.1006-.3013-.13886-.238-.31023.05656-.153.02975-.22872-.12322-.34844a.84013.84013,0,0,1-.24222-.28044c-.02805-.07649-.05014-.085-.05523-.02127a.1339.1339,0,0,1-.136.10623c-.09751,0-.11648-.068-.08075-.28895.04241-.26209.01276-.31306-.3187-.54816-.204-.14469-.40487-.28926-.45468-.32722-.05035-.03834-.16149-.11062-.255-.16572a.29316.29316,0,0,1-.14871-.255c.00918-.085-.00527-.10643-.03144-.0467a.14585.14585,0,0,1-.283-.068c0-.09348-.04208-.16993-.09348-.16993-.05345,0-.07348-.051-.04676-.119.02551-.06494-.04983-.22526-.16573-.35273-.16225-.17848-.23657-.20963-.31446-.1317-.08012.08006-.07649.11759.017.17482.16732.10243.05948.22768-.24647.28624-.14446.02764-.255.09857-.255.16358a1.5395,1.5395,0,0,1-.16149.42921,2.74042,2.74042,0,0,0-.21668.62037c-.05067.28044-.04073.30136.119.25073.136-.04308.163-.02628.12322.07649-.02961.07649-.08484.13174-.13172.13174-.044,0-.05564.0425-.02549.09348.03513.05949.08613.06257.14022.00852.09313-.09313.32805.10195.49123.40794a.20752.20752,0,0,0,.28217.12338,2.50211,2.50211,0,0,0,.93658-.90532c.03432-.136.022-.146-.07822-.06346-.13205.10876-.15777.01248-.04433-.166.126-.1982.36058-.0425.33284.22094-.0211.20038.01322.242.21719.26349.17.01788.227.0635.1912.153a.4329.4329,0,0,0,.04252.30167c.07294.136.06081.20967-.05526.33573-.07827.085-.10444.16145-.05525.16145.1211,0,.0255.27219-.12747.36287a.20762.20762,0,0,0-.068.23635c.03661.11894.01264.16568-.085.16568a.20542.20542,0,0,0-.18272.12747.20543.20543,0,0,1-.17.1275c-.06913,0-.19228.153-.28047.34845l-.15721.34845.3017.26772a.814.814,0,0,0,.45892.24221c.102-.01653.1576.02823.15824.1275.00348.51838.46273.45892.85378-.11051.36771-.5354.74773-.88389.96395-.88389a.49639.49639,0,0,0,.29745-.10623c.08841-.085.09858-.06369.05086.10623-.07635.272-.07635.272-.00313.45048a.29327.29327,0,0,1-.06106.29743c-.21856.255-.23314.32772-.06315.31524.17848-.01306.3464-.12828.18695-.12828-.05945,0-.102-.03363-.102-.08072,0-.04387.15723-.07878.34421-.07649.27194.00338.33884.03371.3187.14446a.18448.18448,0,0,1-.17.14025.42.42,0,0,0-.255.11895c-.09373.101-.08924.11125.02975.068.10787-.03927.13044-.01279.09774.11471a.23264.23264,0,0,1-.24645.16573c-.17135,0-.19583.034-.153.21247s.02244.21246-.12748.21246c-.102,0-.17848.03644-.17848.085a.08031.08031,0,0,1-.085.085c-.04534,0-.085-.08928-.085-.19124,0-.153-.0167-.16576-.08342-.06377-.12241.187-.104.33993.04094.33993.068,0,.12749.04367.12749.09356,0,.05428-.05526.072-.13175.04246s-.11035-.01536-.08074.034a.22076.22076,0,0,0,.17422.085c.07042,0,.12323.07645.12323.17844,0,.136.03947.16841.16573.136q.16574-.04246.12322.068c-.02337.06082.034.1641.12749.22954.17.11895.17.11895-.017.23793a.8906.8906,0,0,1-.272.12529c-.33143.02477-.4784.15694-.46529.41864.02039.40794.003.43823-.13666.238-.16594-.238-.35016-.16149-.42986.17848-.09559.4079-.08622.518.05446.63861.102.08745.1054.11863.017.156-.06659.02816.01276.11257.19972.21251a2.05306,2.05306,0,0,1,.49294.37815l.18272.21251.3272-.17.32721-.17.119.29323c.06552.16145.17625.29319.24645.29319a.13071.13071,0,0,1,.12749.12747c0,.11929-.051.13916-.41644.162-.07365.00459-.17454.16946-.23893.39044-.17339.5949-.43967,1.10484-.57695,1.10484-.10836,0-.11158.02551-.02145.17.11666.187.02152.33153-.123.187-.06857-.06859-.12748-.05953-.221.034a.27939.27939,0,0,1-.255.07862,3.27573,3.27573,0,0,0-1.29179.56729c0,.0315.068.03352.14447.00428.12749-.04872.13-.03927.02124.08072-.06932.07649-.13565.1025-.15164.0595-.05416-.14582-.15972-.07649-.31045.204-.18727.34841-.80848.72722-.80848.4929,0-.03807.0935-.11658.21247-.17844s.21249-.14041.21249-.17848c0-.03663-.102-.015-.221.04674a.56455.56455,0,0,1-.33993.07221.44.44,0,0,0-.31446.085,1.2408,1.2408,0,0,1-.40368.15721c-.1445.02069-.20823.087-.20823.21674,0,.238-.08354.31641-.26346.24758-.11049-.04234-.1166-.076-.03263-.17961.12128-.14959.0836-.16-.18834-.05206-.10813.04293-.374.14022-.59491.21779-.323.11339-.40973.18739-.45311.38671-.08141.374-.23632.42828-.19388.068.03507-.29743.03507-.29743-.21989-.21445-.374.12175-.47593.21873-.47593.45243,0,.11051-.03506.204-.07649.204-.0417,0-.07071-.06374-.06375-.14022.00976-.1074-.08073-.14823-.38667-.17428-.374-.03181-.403-.01984-.45562.187-.06478.255-.20729.27834-.20729.034,0-.15161-.034-.16379-.31444-.11215a7.2488,7.2488,0,0,1-.8159.10919.15975.15975,0,0,0-.14448.14741c0,.11048-.0239.11627-.12748.03076a2.93915,2.93915,0,0,0-1.48179.07972c-.0258.04114-.1797.06073-.3327.0425-.22948-.02742-.33254.01715-.53118.22946s-.26949.24454-.36544.16572a1.24176,1.24176,0,0,0-.6799-.051,1.278,1.278,0,0,1-.56092-.017c0-.03472-.14873-.06754-.32719-.0722-.29747-.00774-.32376.00964-.289.19123.03319.17335.0085.19971-.187.19971a.55583.55583,0,0,1-.35269-.12746.46178.46178,0,0,0-.41218-.08077c-.16149.02649-.30824.01-.339-.03822-.0818-.12809-.4556-.11129-.88905.0399-.36544.12746-.90535.09542-.81629-.04841.0637-.10293-.22055-.15018-.44153-.07342-.102.03542-.21016.02819-.238-.01583a.4833.4833,0,0,0-.323-.08072c-.21244,0-.24406.01948-.14445.0892.09686.06786.07648.07295-.085.02127a6.13241,6.13241,0,0,0-1.10483-.05945c-.67988.00645-.9136-.02088-.98161-.11479q-.08921-.12319-.67564-.14388c-.62893-.02224-.83218.01284-.76034.13112.027.04441-.0088.07653-.08529.07653s-.13172-.0357-.13172-.085c0-.04721-.068-.085-.153-.085a.3757.3757,0,0,1-.23371-.08073.89782.89782,0,0,0-.39947-.11471,1.00047,1.00047,0,0,1-.37819-.09216.81426.81426,0,0,0-.6884.04962c-.05949.05949-.102.06657-.102.017,0-.13-.41644-.3033-.59492-.24754A6.51846,6.51846,0,0,1,10.177,24.4258a10.33036,10.33036,0,0,0-1.78476-.34569,1.59842,1.59842,0,0,1-.5014-.16429,15.23157,15.23157,0,0,0-1.96324-.68208.67764.67764,0,0,1-.47427-.32643,1.18677,1.18677,0,0,1-.14174-.93487c.068-.2295.05271-.29121-.09787-.39523-.16149-.11144-.16513-.13617-.03827-.25917a.76874.76874,0,0,0,.14026-.51.78073.78073,0,0,1,.07649-.421c.119-.07334.16921-.47129.05947-.47129-.102,0-.33929-.33876-.27979-.39942a.92474.92474,0,0,1,.36054.15721c.17848.10429.301.14873.26957.09772-.0733-.119.015-.38407.10864-.32594A.66673.66673,0,0,0,6.22927,19.41c.16149-.045.29127-.04016.34421.01276.05409.05409.10579.051.14218-.00848.07283-.119-.02745-.28149-.13368-.21666-.043.02624-.07649-.07229-.07649-.2253a.64651.64651,0,0,0-.272-.51418.92417.92417,0,0,0-.41646-.24221c-.24645,0-.67138-.18288-.67138-.28895a.61537.61537,0,0,0-.17-.28472.60844.60844,0,0,1-.17-.30594.17182.17182,0,0,0-.102-.15722c-.0738-.02461-.05693-.14449.06091-.43348.39869-.9773,1.88712-1.5949,2.27364-.94335a.25543.25543,0,0,0,.1938.119c.068,0,.12325.03425.12325.07648,0,.12747.37395.178.43994.05946a.26948.26948,0,0,1,.2782-.07225c.17.03.21672.00346.21672-.12319q0-.16145-.38245-.357a1.32149,1.32149,0,0,1-.51417-.442c-.07268-.136-.187-.24646-.25495-.24646-.08626,0-.1143-.07644-.0935-.255a.73447.73447,0,0,1,.08924-.31443c.10482-.10483.0595-.2169-.068-.16813-.16149.06178-.26677-.1006-.14451-.22285.08014-.08011.11747-.07645.17424.017.05524.091.10722.051.221-.17a1.10175,1.10175,0,0,1,.26349-.35692.28893.28893,0,0,0,.11471-.23374c0-.11933.05949-.16572.21246-.16572.136,0,.21249-.04589.21249-.12747,0-.14449.1372-.18276.18295-.051.01785.05149.157.0565.35247.01276a1.37593,1.37593,0,0,1,.55242-.00848c.14448.04013.26094.02909.31444-.02978.09272-.102.11359-.56088.02549-.56088a.97188.97188,0,0,1-.04248-.46747c.00926-.25493-.012-.4674-.04674-.4674-.034,0-.06375-.05949-.06375-.1275,0-.17782.11453-.16145.29774.0425a.502.502,0,0,0,.24618.17.808.808,0,0,1,.30171.16148.47221.47221,0,0,0,.3017.12475c.1102-.04328.09459-.50718-.02193-.65167a1.04742,1.04742,0,0,1-.02447-.78186,2.91923,2.91923,0,0,0,.12289-.38247.5969.5969,0,0,1,.36544-.35759c.33147-.153.52327-.12653.37427.05164-.06224.07443-.00029.13991.22916.24222a1.13282,1.13282,0,0,1,.4701.42069c.1934.34845.93406.964.98167.81588a.50926.50926,0,0,1,.1715-.20823c.11938-.08581.11681-.11894-.02125-.272a.37649.37649,0,0,1-.11049-.3017c.0279-.076-.051-.20462-.19547-.3187l-.24222-.19124.204-.15935c.255-.19921.25709-.29953.0085-.40141-.1798-.07368-.17846-.07676.034-.08a.37535.37535,0,0,0,.36624-.38757c.00432-.04759.10122-.08869.22021-.09348a4.618,4.618,0,0,0,.72236-.14916c.61193-.1688.81341-.10911,1.31732.39021.289.28635.375.32792.57369.27737a.59111.59111,0,0,0,.28631-.1445A1.77963,1.77963,0,0,0,15.87111,7.934c-.06025-.00086-.00426-.09426.12323-.20555.187-.16316.2142-.22771.136-.3229-.0768-.09348-.054-.17.10623-.357.10927-.12747.18227-.29323.15723-.357q-.04674-.119.13174-.119c.102,0,.17847-.03823.17847-.0892a.721.721,0,0,1,.22522-.29747c.21246-.19645.21727-.22.085-.41642a.9286.9286,0,0,1-.14026-.27624c0-.03628.03966-.00847.085.0595q.085.1275.085.02123c0-.0607.06373-.10989.14873-.11471.08073-.00463.01274-.06-.14873-.12105-.28046-.10616-.29485-.13034-.0935-.1576a.25817.25817,0,0,0,.136-.0698c.11274-.11277.20926-.07652.15828.05949-.02551.068-.00418.12747.04569.12747a.09223.09223,0,0,0,.09346-.08924c0-.06245.051-.06191.17.00183.238.12742.27653.10915.17362-.08256-.09124-.17.01651-.25617.11687-.09351.07866.1275.48779.17486.44027.051a.33043.33043,0,0,1,.06387-.255c.09443-.12843.118-.11894.21247.085.0905.19547.08671.22253-.02551.18272-.07649-.02718-.13172-.01645-.13172.0255a.77907.77907,0,0,1-.051.20823c-.03187.085-.00478.13594.07225.13594.08053,0,.15268.14878.20823.42921.07236.36541.06478.44053-.051.50566-.085.04783-.09616.07812-.02975.08077a.12176.12176,0,0,1,.10624.11895c0,.06217.09348.16339.204.221a.52442.52442,0,0,0,.50991-.00424c.238-.08594.32862-.08784.40794-.00852.14924.14924.28268.12747.1563-.0255-.088-.10663-.06706-.124.12842-.10624.14445.01315.24832.078.272.17.02185.085.07466.14873.12322.14873.10729,0-.00849-.44811-.136-.52631-.11951-.07329.02551-.23653.238-.26791.26346-.03889.42748-.48062.1785-.48062a.22352.22352,0,0,1-.1785-.09775c-.04048-.0665.00426-.08139.14024-.04671.16306.04161.27437-.0255.60617-.36547.43133-.44193.72242-.53588.92183-.29743a.3343.3343,0,0,1,.04.29743.34236.34236,0,0,0,.04765.30594c.18573.221.18748.459.00333.459a.29389.29389,0,0,0-.22946.09776c-.042.069-.017.08146.085.04246.114-.04363.13372-.02123.09348.10627a.20777.20777,0,0,0,.03826.21667.11134.11134,0,0,1,.02973.15725c-.0315.054.00849.046.085-.017s.16849-.095.19547-.068c.07954.07952-.051.23312-.204.24-.07843.00346-.00849.05806.153.1193.39944.15153.43879.15044.40907-.01085a.16771.16771,0,0,1,.07961-.18276c.05948-.02142.10624.00475.10624.0595,0,.051.04674.06929.09775.03826a1.21582,1.21582,0,0,1,.39093-.08073.94775.94775,0,0,0,.33424-.06377c.04631-.048-.13451-.423-.23652-.49045-.03817-.02524-.01208-.15119.05949-.28717.08948-.17.09961-.26.034-.3017-.05518-.03512.01275-.103.16572-.16577.14448-.05918.25921-.14757.25921-.19971q0-.09349-.102.00851c-.12748.12751-.32295.13268-.32295.00852,0-.04814.11049-.10654.255-.13474.24646-.0481.36636-.27612.153-.291-.06025-.0042.03824-.07727.21672-.16071s.27892-.16845.221-.187c-.08208-.02629-.08305-.07649-.00425-.221.06492-.119.06954-.187.01277-.187-.04759,0-.08926-.05949-.08926-.1275a.123.123,0,0,1,.11049-.12751c.16149,0,.30789.17386.25769.306-.02584.068.00031.11894.061.11894.0727,0,.0606.051-.03824.16149-.13855.1548-.13174.16145.16573.16145.22947,0,.32074-.03982.35068-.153.045-.17.435-.46782.51194-.391.02706.02707.00711.14874-.04249.25921-.06487.14449-.06748.22514-.00851.26348.051.03313.102.03826.12748.01276.07429-.07427.61005.56091.63079.74791.04816.43341-.00264.73025-.12087.706-.068-.014-.13019.00556-.1333.0418-.01658.19365.02283.2295.25229.2295.14449,0,.255.03686.255.085a.10219.10219,0,0,1-.11049.085c-.204,0-.50832.32162-.45044.47591.03846.10258.11473.12346.3102.085.17849-.03508.24142-.02186.20209.0425-.07559.12365.14212.251.3291.19236.12486-.03912.1436-.00964.102.16036-.03747.153-.01266.223.09348.264.187.07213.279-.01917.119-.11817-.068-.04207-.10077-.08535-.07648-.10106.28895-.187.40448-.21974.44287-.12552.032.07843.04348.07648.04989-.00852.01373-.18167.22906-.11047.46258.153.17325.19551.2079.28872.1485.3995a2.06338,2.06338,0,0,0-.19015.75635,1.489,1.489,0,0,1-.36979.46043c-.43343.42548-.47313.55271-.19546.62648.16147.04288.17331.066.068.13267-.10926.06921-.10623.102.02125.22946.085.085.14874.11051.14874.05949,0-.05.09348-.0724.21246-.051a.50112.50112,0,0,0,.357-.07649c.102-.081.12573-.08353.08072-.00852a.10541.10541,0,0,0,.068.15725c.11483.04445.11047.06949-.034.19544-.16573.14453-.16573.14453.00426.24983.19829.123.35369.03912.69924-.3773.18336-.221.19966-.28265.10106-.38243-.1847-.187-.25516-.58642-.10341-.58642a.20441.20441,0,0,1,.17.16569c.03037.11836.0935.15235.221.119.102-.02671.17846-.08134.17846-.1275a.98063.98063,0,0,1,.272-.33141l.272-.25077.10621.19123c.09914.17848.10993.18105.16149.03827.05234-.14493.06373-.14516.21671-.00424.102.0939.18966.12054.23795.07221.12819-.12817.8768-.051.82444.085-.02353.06113.0467.194.15719.29747l.19971.187.17848-.17845c.221-.221.221-.221.04546-.425a.3056.3056,0,0,0-.31316-.11471c-.141.0378-.16534.01272-.12748-.13174.03338-.12747.01273-.16514-.07225-.13174-.07516.02955-.119-.01276-.119-.11475,0-.17689-.39942-.41059-.83285-.48727-.204-.03612-.272-.01625-.272.07933,0,.09177-.0595.11323-.21247.07652-.17846-.04289-.21247-.02317-.21247.12319,0,.119-.05389.17012-.17.16137-.204-.01551-.2357-.23358-.034-.23358.1105,0,.11652-.02391.03222-.1275-.13559-.16655-.25265-.16145-.39023.017-.09826.1275-.13.13388-.19016.03826-.03745-.05949-.09679-.11132-.12323-.10759-.21247.02967-.31446-.00576-.31446-.10911q0-.1275-.14022-.07653t-.09776-.068c.02536-.071-.05521-.16013-.19971-.22094-.136-.05728-.24221-.16165-.24221-.238,0-.17.13728-.17.20266,0,.02942.07649.0895.113.13729.08353.25872-.15959-.52691-.61049-.90089-.51694-.119.02971-.20395.0156-.20395-.034,0-.051.02549-.07991.06375-.07225a.45359.45359,0,0,0,.19972-.04674c.11218-.04907.07648-.11825-.204-.39519-.33315-.329-.34845-.33464-.76489-.28047-.306.03978-.40827.02788-.36546-.04246a.21249.21249,0,0,1,.14448-.09776c.119,0,.33328-.22767.272-.289-.02662-.02664-.00426-.051.04674-.051.05211,0,.09772.05945.09772.12746a.12524.12524,0,0,0,.13174.12751c.085,0,.10911-.03624.068-.102a.969.969,0,0,1-.08582-.323c-.05523-.55239-.10217-.621-.38583-.56429-.21247.0425-.24966.032-.17-.0476.19781-.1978.119-.40794-.153-.40794-.187,0-.25495-.04075-.25495-.153,0-.14916-.28046-.37637-.50991-.41307a.2142.2142,0,0,1-.15724-.10962.12205.12205,0,0,0-.102-.08924c-.03852,0-.04971.05949-.024.1275.06322.16717-.0913.16145-.23183-.00851a.31047.31047,0,0,0-.3391-.07649c-.17.0371-.25806.00929-.32294-.102-.04959-.085-.09114-.12276-.0935-.085s-.07224.03026-.15723-.017a.29273.29273,0,0,0-.26344-.017Zm-3.08081.52265a.12664.12664,0,0,1-.11049.08924.13468.13468,0,0,1-.11473-.08924c-.018-.04725.034-.08924.11047-.08924s.13052.042.11475.08924Zm3.32726.16572a.08513.08513,0,0,1-.08922.085c-.051,0-.06739-.03644-.03826-.085.0306-.051.0663-.085.08926-.085s.03822.034.03822.085ZM21.29333,4.703a.0851.0851,0,0,1-.08922.085c-.051,0-.06739-.03639-.03827-.085.03063-.051.0663-.085.08926-.085s.03823.034.03823.085Zm2.66279.05949c-.0927.26345-.12116.28134-.24913.15667-.15706-.153-.153-.19158.02549-.24081.26346-.07268.277-.06762.22364.08414Zm-.92054.45041c.02915.04852.01276.085-.03824.085a.08518.08518,0,0,1-.08924-.085c0-.051.0153-.085.03826-.085s.05864.034.08922.085Zm-4.29187.085a.085.085,0,1,1-.085-.085.08028.08028,0,0,1,.085.085ZM15.50143,5.727a.12662.12662,0,0,1-.11049.08928.13471.13471,0,0,1-.11475-.08928c-.018-.04721.034-.0892.11051-.0892s.13048.042.11473.0892Zm1.28756.29323c0,.068-.03966.12747-.085.12747s-.085-.0595-.085-.12747.03965-.12746.085-.12746.085.05945.085.12746Zm-1.78474.04246a.08519.08519,0,0,1-.08926.085c-.051,0-.06735-.03648-.03822-.085.03058-.051.06628-.085.08922-.085s.03826.034.03826.085Zm7.73388.085a.07836.07836,0,0,1-.08074.085.16532.16532,0,0,1-.13174-.085c-.0296-.04935.00425-.085.08074-.085s.13174.03566.13174.085Zm4.71681.17c.0287.04783-.00848.085-.085.085s-.11366-.03717-.085-.085c.03059-.051.06457-.085.085-.085s.0544.034.085.085Zm-11.85577.12323c0,.023-.034.05864-.085.08928-.04857.02916-.085.01271-.085-.03827a.08514.08514,0,0,1,.085-.08924c.051,0,.085.01528.085.03823Zm11.78778.5737c-.02683.06976-.04561.051-.051-.051-.00447-.085.01567-.13731.0425-.11051a.17483.17483,0,0,1,.0085.16152Zm.28046.153a.085.085,0,1,1-.085-.085.08031.08031,0,0,1,.085.085ZM14.49434,7.89c0,.11043-.15222.26438-.20166.20395a1.4501,1.4501,0,0,1-.08732-.27192c-.05523-.221-.047-.23133.11473-.14454a.32116.32116,0,0,1,.17425.21251Zm.42065-.09348c.08147.09908.07227.11471-.05521.09348-.085-.01419-.18321-.02843-.221-.03208-.08826-.00856.017-.18043.11051-.18043a.3033.3033,0,0,1,.16569.119Zm-1.4405.2232c.11247.073.11047.08275-.017.08275a.26343.26343,0,0,1-.1973-.085c-.06793-.1093.04433-.1081.21432.00226Zm17.93239.59268a.085.085,0,1,1-.085-.085.08032.08032,0,0,1,.085.085ZM29.79211,9.169c0,.07648-.03564.11035-.085.08076a.16538.16538,0,0,1-.085-.13174.07838.07838,0,0,1,.085-.08076c.04934,0,.085.05525.085.13174Zm2.80459-.04674a.085.085,0,1,1-.085-.085.08031.08031,0,0,1,.085.085Zm0,.255a.085.085,0,1,1-.085-.085.08031.08031,0,0,1,.085.085Zm.34.84726c-.17.10981-.42493.1114-.42493.0026,0-.047.12322-.085.27619-.085.21249,0,.24679.019.14874.0824Zm-.46746.59754c.03063.051.017.085-.034.085a.16843.16843,0,0,1-.136-.085c-.0306-.051-.017-.085.034-.085a.16827.16827,0,0,1,.13594.085ZM9.05511,11.077a.085.085,0,1,1-.085-.085.08028.08028,0,0,1,.085.085Zm23.45661,0c0,.04938-.05524.085-.13173.085s-.11035-.03562-.08074-.085a.16531.16531,0,0,1,.13172-.085.07839.07839,0,0,1,.08075.085Zm1.10483.085a.085.085,0,1,1-.085-.085.0803.0803,0,0,1,.085.085Zm-24.332.442c-.02685.06975-.04563.051-.051-.051-.00447-.085.01567-.1373.0425-.11047a.17483.17483,0,0,1,.0085.16149Zm25.70875.64587c-.05949.01983-.08249.06587-.05525.11051.02714.04441-.00848.07645-.085.07645-.10808,0-.11341-.02975-.02973-.16569.05753-.09352.139-.14162.187-.11047.04958.0322.0425.06937-.017.0892Zm.46744.1445c0,.068-.03371.12746-.07223.12746-.03943,0-.07225.06373-.07225.14022s-.01932.12093-.0425.09776c-.06078-.06074.051-.49291.12749-.49291.03173,0,.05949.05946.05949.12747Zm-.72666.48866c-.08261.08263-.09395.07225-.051-.0467.0307-.085.07791-.13224.10623-.10627.02856.02617.00426.09348-.05525.153ZM7.0749,13.55862c-.02683.06983-.04563.05105-.051-.051-.00449-.085.01565-.1373.0425-.11047a.17476.17476,0,0,1,.00848.16145Zm27.6465-.102c0,.0469-.05525.085-.12324.085a.22066.22066,0,0,1-.17424-.085c-.02736-.04557.02974-.085.12324-.085s.17424.03939.17424.085Zm-.59491.255a.08513.08513,0,0,1-.08927.08492c-.051,0-.06736-.03639-.03822-.08492.03056-.051.0663-.085.08922-.085s.03827.034.03827.085Zm.40757.57787c.01932.05739-.02514.102-.10163.102a.13426.13426,0,0,1-.136-.136c0-.15363.18323-.12746.23763.034Zm3.31487.23743c-.07791.077-.24593-.05891-.18834-.15243.03331-.05413.08636-.051.14586.00847.051.051.0703.11639.04248.144Zm-1.10909,1.34335a.34023.34023,0,0,0-.14872.20819c0,.05214-.05951.09776-.12748.09776a.123.123,0,0,1-.12749-.11048.36724.36724,0,0,1,.38246-.30855c.16146.00245.16251.00809.02123.11308Zm.4037-.034a.16847.16847,0,0,1-.136.085c-.051,0-.06459-.034-.034-.085a.16845.16845,0,0,1,.136-.085c.051,0,.06457.034.034.085ZM36.08121,17.621a.085.085,0,1,1-.085-.085.08031.08031,0,0,1,.085.085Zm2.32284.85838c.05366.21675.0398.229-.24918.221-.238-.00661-.32319-.05386-.38356-.21243-.08725-.2295.05176-.4751.23059-.40736a.14523.14523,0,0,0,.16725-.0516c.06268-.1032.12979.02551.2349.4504Zm1.84154-.26344a.08516.08516,0,0,1-.08926.085c-.051,0-.06736-.03643-.03822-.085.03058-.051.0663-.085.08922-.085s.03826.034.03826.085Zm-1.5298.29747c0,.068-.03568.1275-.07649.1275-.11047,0-.18875-.13423-.119-.204.09774-.09775.19546-.05949.19546.07649Zm1.64877.41315c.23473.18929.24082.21149.12749.46646-.06422.1445-.18354.26772-.25923.26772a.20448.20448,0,0,0-.18184.11048c-.04484.119-.51717.13808-.62976.0255-.03263-.03262.01149-.17848.09771-.323.14709-.24646.14847-.27.02126-.36408-.19952-.14765-.17849-.21383.068-.21383.119,0,.21246-.03741.21246-.085,0-.15134.289-.08986.54392.11572Zm-35.869.02454c.02946.02943-.00227.14445-.068.24645a1.27339,1.27339,0,0,0-.15686.39518,1.371,1.371,0,0,1-.30631.69927.23026.23026,0,0,0-.0935.18886.97579.97579,0,0,1-.18274.391c-.14977.21247-.16509.28755-.085.41646.09019.14512.07648.15429-.17849.119-.153-.02116-.3236-.04017-.38245-.04247a.09988.09988,0,0,1-.10623-.085c0-.043.05949-.05844.12748-.03293.1674.0628.16147-.179-.00849-.34682-.115-.11358-.11374-.14718.01273-.34265s.1269-.21671.00426-.21671c-.16888,0-.16783-.07648.00354-.26348.10837-.11821.11389-.17844.03046-.33145-.05564-.102-.07882-.20819-.051-.2337.02976-.0273.051-.00428.051.05525,0,.16017.14446.11273.44195-.14507A2.99531,2.99531,0,0,1,4.3893,18.9a.1532.1532,0,0,1,.10623.0511Zm34.39026.02974c0,.04534-.05949.085-.12748.085s-.12749-.03963-.12749-.085.05948-.085.12749-.085.12748.0397.12748.085Zm-36.45973.26345c0,.051-.034.06462-.085.034a.16853.16853,0,0,1-.085-.136c0-.051.034-.06455.085-.034a.16847.16847,0,0,1,.085.136Zm36.67856,0c.02819.04506-.01072.18272-.08285.29323-.13057.19987-.1275.20819.07649.20819.119,0,.21245.0374.21245.085a.0803.0803,0,0,1-.085.085.08029.08029,0,0,0-.085.085c0,.04632.1912.085.42068.085.34844,0,.4119.02337.36969.136-.03725.09935-.11049.12112-.272.08072a7.44224,7.44224,0,0,0-.79463-.10623,1.71754,1.71754,0,0,1-.57178-.102c.00356-.09639.20208-.30283.43154-.44884.16149-.10278.21636-.19637.18527-.316-.04639-.17848.09745-.24116.195-.085Zm-.84775.221c-.084.084-.15511-.0425-.08605-.153.05311-.085.07691-.086.103-.00428a.17191.17191,0,0,1-.017.15725Zm-33.62112.02551a.085.085,0,1,1-.085-.085.08027.08027,0,0,1,.085.085Zm33.40016.085a.085.085,0,1,1-.085-.085.08032.08032,0,0,1,.085.085Zm.2002.44193c-.02528.041-.15772.0528-.28519.02551-.136-.02917-.26311-.011-.29663.0425-.06274.1-.2133.034-.2133-.09352,0-.051.034-.06455.085-.034a.48576.48576,0,0,0,.323-.07442c.238-.12548.49294-.03725.38718.13392Zm-33.68534.017c0,.09348-.16036.13228-.21078.051-.03058-.04935.00257-.085.07906-.085s.13172.01424.13172.034Zm-1.76774.4929c-.03984.25493-.04709.25975-.1158.07649-.0733-.19547-.03368-.34845.09031-.34845.03824,0,.0494.119.02549.272Zm36.50405.0595c-.02442.09348-.00612.18272.04064.19831.09468.03161.00849.4051-.0935.4051a.75593.75593,0,0,1-.24643-.17366c-.204-.18937-.20823-.37874-.00852-.37874a.2463.2463,0,0,0,.18929-.11051c.102-.1602.1673-.12746.11852.0595Zm.508.78c.221.08068.227.09507.085.20161q-.153.11473-.06374.17c.0581.036.02549.10709-.09349.20395-.1578.12848-.16917.17424-.08339.33573.09933.187.06416.35693-.07385.35693-.04172,0-.05331-.06374-.02548-.14018q.051-.14028-.051-.07738c-.14329.08826-.11049.38756.0425.38756.20708,0,.0935.20329-.14448.25859a.63018.63018,0,0,0-.34.31932,2.53126,2.53126,0,0,1-.25073.40794,2.54988,2.54988,0,0,0-.204.28471c-.04794.07991-.17574.28044-.2762.43341s-.1673.30439-.14447.32726a1.04641,1.04641,0,0,0,.38669.02123c.255-.01575.33429.00739.306.0892-.02072.05984-.13172.09927-.24221.08605-.35694-.04285-.61042.05938-.56659.22841.02465.09508-.06807.272-.245.46744a1.11082,1.11082,0,0,0-.28472.48018c0,.09352-.05557.16573-.12748.16573-.14119,0-.14679.017-.07262.221.05135.1412.06052.14022.11938-.01275.05556-.1445.07088-.14831.11945-.02975.08014.19548-.3716.65276-.4785.48443-.03777-.05949-.07015-.06933-.07015-.02123a.32267.32267,0,0,0,.0935.18272c.13245.13244.0085.2965-.17848.23626-.11239-.03624-.16652.00591-.204.15889a1.42408,1.42408,0,0,1-.26346.46319c-.12041.1445-.172.26866-.119.28658.1291.04363.00852.30817-.16147.35421-.09249.02508-.068.04312.068.05012.61193.03157.84124.307.272.32663-.204.007-.27264-.01454-.19547-.0614.09313-.05654.07648-.08558-.07649-.13349-.24361-.07637-.35418.07824-.31728.44368.02232.22094-.00231.28047-.11615.28047-.17846,0-.32091-.18766-.17846-.23513.11047-.03683.14759-.275.04248-.27255-.239.00552-.40759.43971-.26968.69468.0709.13112.02749.17661-.304.31866a1.17234,1.17234,0,0,0-.38669.21674c0,.03061.034.03014.085-.00124.1513-.093.09348.09406-.07649.24738-.153.138-.15725.166-.0425.28079.153.153.153.28044,0,.28044a.352.352,0,0,0-.221.1275c-.0544.068-.13371.10795-.17.08567-.136-.08353-.17074.11751-.04248.24579.07651.07648.097.136.04674.136a.57906.57906,0,0,1-.25921-.17l-.17-.17-.09774.21246c-.07038.153-.14057.19941-.25073.16573-.12659-.03869-.15-.00424-.136.19971.0117.17.05391.23331.136.20395.068-.02426.103.00486.08164.068a.36123.36123,0,0,1-.53206.12747c-.10818-.10818-.14807-.10624-.26347.01275a.29575.29575,0,0,0-.09347.25493c.022.05949-.00253.11475-.051.11475-.051,0-.06838.02508-.03826.05525.03159.03154.01337.10624-.04249.17421-.07911.09632-.06375.12785.08075.16534.37741.098-.034.39067-.56941.4051-.31446.00848-.33081.21993-.017.21993.204,0,.26346.03651.26346.16153,0,.3145-.45451.3145-.554,0-.06515-.20586-.13487-.204-.31874.00848-.08092.09348-.10693.17-.05786.17.051,0,.06739.03644.03824.085a.25831.25831,0,0,1-.204.085c-.17,0-.32945.27771-.187.32554a.16728.16728,0,0,1,.09348.15468c0,.068-.03808.10037-.085.07221-.04637-.0278-.085-.00851-.085.0425,0,.05192-.068.07272-.153.04674-.10785-.03293-.3022.10624-.65866.47168a4.47233,4.47233,0,0,1-1.33429.93487c-.8074.40572-.82865.42407-.82865.71388a1.22234,1.22234,0,0,1-.10315.48443c-.14068.255-.678.75234-.7892.73061a1.59357,1.59357,0,0,0-.493.27635,2.42941,2.42941,0,0,1-1.19833.47568,1.50214,1.50214,0,0,0-.42493.15764,2.85139,2.85139,0,0,1-.61615.21674c-.306.07423-.4249.14076-.39523.221.02207.05949.0016.11474-.04246.11474a.12315.12315,0,0,1-.11465-.085c-.031-.08885-.68424.03492-.9562.18121a2.82894,2.82894,0,0,1-.72238.12637,14.34891,14.34891,0,0,1-1.66579.04425c-.37393-.00186-.75638-.00214-.84984-.00058a1.789,1.789,0,0,1-.96862-.16425,1.83619,1.83619,0,0,0-.69715-.24225,2.51015,2.51015,0,0,1-.77764-.26349.659.659,0,0,0-.29321-.15153c-.272-.03741-.53542-.14061-.53542-.20967,0-.0369-.136-.0925-.29747-.12171-.28894-.05222-.35774-.12579-.23582-.2522a2.11465,2.11465,0,0,0,.0786-.60766l.02126-.5482-.33572-.21246a2.39009,2.39009,0,0,0-.37819-.21247,11.85939,11.85939,0,0,1-1.29181-.83917,3.04682,3.04682,0,0,0-.60344-.35063,17.67805,17.67805,0,0,1-1.71672-.85461c-.11755-.06793-.65865-.4455-1.21109-.84516s-1.17706-.84543-1.398-.99774a5.85287,5.85287,0,0,1-1.66386-1.5094,2.86992,2.86992,0,0,0-.45234-.55309,14.50728,14.50728,0,0,1-1.6098-2.13249,4.54421,4.54421,0,0,0-.34916-.55247,1.39461,1.39461,0,0,1-.19972-.31442,2.39458,2.39458,0,0,0-.24221-.41646,5.83788,5.83788,0,0,1-.42921-.82012,8.83863,8.83863,0,0,0-.50525-.98161,15.71118,15.71118,0,0,1-1.458-3.88393c0-.136.03618-.24645.08073-.24645.04306,0,.05823-.0595.03251-.12747-.06323-.16712.09207-.16149.233.00848a5.83567,5.83567,0,0,0,.71187.54816,9.444,9.444,0,0,1,.85414.65229,3.02581,3.02581,0,0,0,1.46178.94914,5.24132,5.24132,0,0,1,1.04536.36812,7.88438,7.88438,0,0,0,1.74225.61948c.28046.07415.62465.175.76489.22417.54392.19061,1.00157.244,1.13884.13283.102-.08251.11387-.08108.05949.00731-.06148.09986-.02551.11362.37394.14345a.72055.72055,0,0,1,.25071.08173,1.13464,1.13464,0,0,0,.3442.10017,8.80818,8.80818,0,0,1,1.68274.27243,10.773,10.773,0,0,0,2.31167.30411.94426.94426,0,0,1,.42919.0712,1.37484,1.37484,0,0,0,.50994.09772,3.52342,3.52342,0,0,1,.59066.08072c.07038.02582.80312.06961,1.636.09776s1.5942.072,1.69977.09776a1.74015,1.74015,0,0,0,.3187.04674c.0705,0,.45042-.00191.84987-.00428s.82877-.00366.96035-.003a4.6625,4.6625,0,0,0,1.4193-.10324c0-.04262.26348-.052.59494-.02108a4.02242,4.02242,0,0,0,1.86972-.24237c0-.04853.051-.06676.119-.0425a.21622.21622,0,0,0,.21245-.051c.07192-.0719.0935-.068.0935.017,0,.08838.02549.09.12748.00847.105-.084.153-.0817.272.0128.1387.11008.13869.10619-.00072-.09776-.1742-.255-.17533-.30812-.00779-.372.136-.0518.50964.10032.43345.17653-.02429.02431-.119.00063-.221-.05525s-.17848-.07586-.17848-.0467c0,.0892.238.29743.34.29743.051,0,.07029.03865.04248.085-.02961.04939.00424.085.08075.085s.13172-.02671.13172-.06373c0-.03527.21247-.07326.47591-.085a2.23849,2.23849,0,0,0,.7224-.1445c.136-.068.2239-.08512.19612-.03822-.05232.08827.21182.0495.67926-.09982a1.71187,1.71187,0,0,1,.41645-.07866.52.52,0,0,0,.32718-.18272c.08776-.102.15725-.15461.15725-.119,0,.03519.05524.01995.12321-.034a.23506.23506,0,0,1,.29749-.00427c.119.06385.17422.06517.17422.00427,0-.04961.068-.08927.153-.08927a.63386.63386,0,0,0,.3187-.12323.8144.8144,0,0,1,.39945-.12747c.12746-.00229.23371-.04673.23371-.09771,0-.05343.051-.07532.119-.051a.23988.23988,0,0,0,.22522-.05522c.08174-.07524.11516-.07224.14491.01272.05033.14383.24441.12746.30326-.02551.02844-.074.15951-.12746.31248-.12746a1.02045,1.02045,0,0,0,.47593-.14022.94211.94211,0,0,1,.35694-.14975,3.49221,3.49221,0,0,0,1.42791-.7044c-.031-.08037.0084-.09771.14436-.06373a.489.489,0,0,0,.357-.08072c.16237-.12179.15722-.12766-.11473-.13174-.187-.0028-.273-.03924-.25071-.10624.02168-.06509.17847-.09278.43343-.07648.22946.01462.39943-.01249.39943-.06378,0-.04821.1445-.11086.31446-.13629a4.544,4.544,0,0,0,1.65725-.824l.238-.2253-.2337-.0425a.36146.36146,0,0,0-.306.05526c-.04674.06323-.05575.04674-.02549-.04674.02475-.07649.00074-.15849-.051-.1742-.057-.01735-.07118-.07229-.034-.13175.04958-.07936.11473-.076.29319.01525a.91885.91885,0,0,0,.96038-.12576c.17848-.17848.17848-.17848.47591-.06987Zm-3.034.75829a.085.085,0,1,1-.085-.085.0803.0803,0,0,1,.085.085Zm4.24939.33993a.085.085,0,1,1-.085-.085.0803.0803,0,0,1,.085.085Zm-.17.42493a.085.085,0,1,1-.085-.085.0803.0803,0,0,1,.085.085Zm-1.40232.425c.0287.04779-.0085.085-.085.085s-.11366-.03721-.085-.085c.03059-.051.06459-.085.085-.085s.05442.034.085.085Zm.7224.085a.085.085,0,1,1-.085-.085.08027.08027,0,0,1,.085.085Zm-.6799.33989a.07836.07836,0,0,1-.08072.085.16527.16527,0,0,1-.13175-.085c-.02961-.0493.00426-.08492.08075-.08492s.13172.03562.13172.08492Zm-.255.38247c-.0863.10787-.068.12747.119.12747.136,0,.22094.04576.22094.119,0,.08924-.085.10733-.33993.07225-.28045-.03849-.34-.02216-.34.09348,0,.08415-.068.14026-.17.14026-.20395,0-.22577-.13054-.034-.20333.11045-.04192.11685-.07551.034-.1791-.084-.105-.06371-.12751.11475-.12751a.36591.36591,0,0,0,.26772-.085.17941.17941,0,0,1,.14022-.085c.05354,0,.04843.051-.01274.1275Zm.42494-.08924c0,.02294-.034.0586-.085.08924-.04856.02917-.085.01276-.085-.03826a.08514.08514,0,0,1,.085-.08924c.051,0,.085.01532.085.03826Zm-9.57514.85415c-.05121.13594-.19847.18011-.19847.05945a.19669.19669,0,0,1,.17849-.187c.03628,0,.04557.0595.02.12751ZM27.37,25.27a.22065.22065,0,0,1-.17423.085c-.068,0-.12324-.03811-.12324-.085,0-.04561.08074-.085.17424-.085s.15058.03939.12323.085Zm1.9122.085c0,.04686-.05522.085-.12321.085a.22071.22071,0,0,1-.17422-.085c-.02736-.04561.02974-.085.12322-.085s.17421.03939.17421.085Zm-13.00447.21247c.11024.119.17477.2349.14669.26344-.07038.07159-.47618-.238-.47913-.36544-.00385-.16541.11984-.1275.33244.102Zm8.7381.00847c-.07649.07653-.17687.11083-.22948.07843-.13825-.085-.02549-.21441.187-.21441.16149,0,.16551.013.04248.136Zm13.99749-.051c.0291.04856.01273.085-.03827.085a.08514.08514,0,0,1-.08922-.085c0-.051.01528-.085.03823-.085s.05863.034.08926.085Zm-17.80493.153c0,.11051-.09846.18575-.17847.13641-.091-.05615-.017-.20438.102-.20438a.06856.06856,0,0,1,.07649.068Zm.29746.187c.02913.04856-.0255.085-.12748.085s-.15663-.0364-.12748-.085a.13809.13809,0,0,1,.255,0Zm16.80206.20818a.14124.14124,0,0,1-.09348.11475c-.0495.018-.0935-.034-.0935-.11051s.044-.13046.0935-.11471a.133.133,0,0,1,.09348.11047Zm-.385.09776c.01544.04674-.04839.085-.14187.085s-.17-.04588-.17-.102c0-.11681.27255-.102.31188.017Zm-1.20422,2.07509c-.1955.07376-.25116.04857-.17211-.07789a.17113.17113,0,0,1,.19334-.034c.12548.04561.12324.05743-.02123.11191Zm-1.31732,2.0383c0,.04857-.06374.085-.14874.085-.12746,0-.1305-.012-.02123-.08372.16147-.10612.17-.10616.17-.00125Zm-.88386,1.95047c.09208-.07567.119-.068.119.034a.22732.22732,0,0,1-.17.18268c-.0935.028-.17.10075-.17.16149,0,.14753-.16147.12385-.42491-.06229-.16149-.11417-.18595-.16651-.102-.21815a.56488.56488,0,0,1,.31868-.02978c.136.025.21117-.00156.21673-.07649.0069-.09344.01635-.0943.051-.00424.03339.08683.068.08959.16149.01276Zm-.8584.68413c.0287.04783-.00848.085-.085.085s-.11368-.03718-.085-.085c.03056-.051.06456-.085.085-.085s.0544.034.085.085Zm-.97735.93487a.08515.08515,0,0,1-.08924.085c-.051,0-.06737-.03644-.03824-.085.0306-.051.0663-.085.08924-.085s.03824.034.03824.085Zm-1.61475,1.69978c0,.051-.01532.085-.03824.085s-.05866-.034-.08924-.085c-.02917-.04857-.01278-.085.03824-.085a.08515.08515,0,0,1,.08924.085Zm-1.14735,1.2748c.0306.051.017.085-.034.085a.16851.16851,0,0,1-.136-.085c-.03058-.051-.017-.085.034-.085a.16844.16844,0,0,1,.136.085Z"/><path d="M20.15132,4.52447c-.02551.04075.01168.09826.07967.12322s.12749.011.12749-.02974c0-.11047-.1533-.17969-.20716-.09348Z"/><path d="M19.7678,4.66045c.05665.068.12606.10763.14875.085.05664-.05669-.068-.21243-.17-.21243-.051,0-.04248.051.02125.12747Z"/><path d="M17.25642,5.63782c-.03058.051,0,.065.07649.035.1445-.05662.17138-.12.051-.12a.16253.16253,0,0,0-.12747.085Z"/><path d="M26.47759,7.21856c0,.119.363.35829.47593.31373.083-.03274.1438.01349.17422.13248.02609.102.09931.18272.16573.18272.18731,0,.14448-.12914-.102-.30754A4.2268,4.2268,0,0,1,26.86,7.27526c-.119-.11285-.38243-.15189-.38243-.0567Z"/><path d="M30.33829,9.21577c-.09228.15075.00624.17.1847.03612.1445-.10837.14627-.12155.017-.12536a.25684.25684,0,0,0-.20171.08924Z"/><path d="M29.70713,9.72146c0,.051.03641.06739.085.03823.051-.03061.085-.0663.085-.0892s-.034-.03827-.085-.03827a.08514.08514,0,0,0-.085.08924Z"/></svg>