<svg xmlns="http://www.w3.org/2000/svg" viewBox="0 0 66 30"><defs><style>.a{fill:#4c4948;}</style></defs><title>logo_sekinooai__en</title><path class="a" d="M6.12219,4.21913,5.44,5.0137,4.55774,4.28l-.95023-.192-.95022.18142-.33587.50315.27967.48218L3.74088,5.607l1.29652.35229.839.59326.27859.98641-.24576.825-.79337.54293L3.64023,9.1374,2.15414,8.93729,1.46143,8.454l-.44708-.72435.91631-.69392.58152.91511,1.07305.25152,1.04968-.20119.302-.53251-.302-.55347L3.48457,6.5736,2.21034,6.22131l-.84957-.64359L1.05881,4.541l.83782-1.07664,1.65469-.32174L5.172,3.40467Z"/><path class="a" d="M14.44808,6.45186l-1.677.05032L11.285,6.4624l-1.48729.06087.09011.54294.52544.79457,1.162.33119,1.19587-.21065.98306-.71381.41424.99576L13.3972,8.756l-.84956.2714-1.05076.10066-1.3411-.23175L9.19513,8.2024l-.43652-.915L8.59133,6.19088,8.75861,5.0137l.43652-.86478L10.24469,3.455l1.27436-.282,1.34109.20119.92794.69391.51369.94555Zm-1.33055-.94555L13.05079,5.064l-.54761-.65413-.92794-.261-.97239.261-.715.75478-.0562.4025,1.12925.05033Z"/><path class="a" d="M22.62874,8.82622l-1.43.241L20.31526,7.629l-.87174-1.48848-.88228.68349.06662,2.042-1.33043.24217.12282-2.6961.04566-2.76631-.06783-2.44445L18.70635,1l-.09011,2.46435L18.594,5.55663,19.94667,4.431l1.18424-1.2275,1.61023.16032L21.455,4.45088l-1.073.99575,1.09533,1.83023Z"/><path class="a" d="M26.60734,2.389l-1.49783-.06088.07836-1.16662,1.33055-.1112Zm-.06663,6.55761-1.39729.2212.11239-3.14772-.07836-2.65631,1.32923-.18022L26.42831,6.171Z"/><path class="a" d="M35.28072,8.866l-1.341.26206.08891-2.10283L33.93975,4.954l-.39088-.65413-.84957-.20131-.86119.35229-.75946.99575-.12294,1.74012L31.02246,8.887l-1.35272.23054.15673-2.90674L29.75985,3.414,30.978,3.18359l.01054.95478.73837-.7337,1.39718-.32173,1.39717.392.63664.94555.03391,2.81664Z"/><path class="a" d="M44.05476,6.19088l-.16739,1.09653-.43641.915-1.05088.69391-1.27315.192-1.34218-.192L38.73508,8.2024l-.43641-.915-.1674-1.09653.1674-1.16663.43641-.87533L39.78475,3.455l1.27436-.282,1.341.282,1.05088.69392.43641.87533Zm-1.22989-.03044-.14511-1.02619-.65881-.7337-.90576-.26218-.95011.26218-.6588.7337-.14511,1.02619.14511,1.00642.58032.74424.98413.2913,1.073-.2913.536-.74424Z"/><path class="a" d="M52.4589,8.887l-1.26261.21065-.30184-.62369-.64826.44228-1.65348.17207L47.206,8.73611l-.5137-1.04621.29022-1.238,1.27435-.8449,1.33055-.20119,1.162-.00946-.02229-.59326L50.3913,4.431l-.98306-.23175-.93848.11-1.3188.564-.10054-1.07652.949-.39208,1.38663-.22108,1.3188.17076.77109.49272.40261.5125.12283,3.60186ZM50.78325,6.27164l-1.73305.10065-.88228.42239-.24576.70338.34642.55348,1.073.08064.97119-.2714.43653-.4424Z"/><path class="a" d="M60.8187,6.19088l-.16727,1.09653-.43653.915L59.164,8.89631l-1.27315.192-1.34218-.192L55.499,8.2024l-.43641-.915-.1674-1.09653.1674-1.16663.43641-.87533L56.54869,3.455l1.27436-.282,1.341.282,1.05088.69392.43653.87533Zm-1.22989-.03044L59.4437,5.13425l-.65881-.7337-.90564-.26218-.95023.26218-.6588.7337-.14511,1.02619.14511,1.00642.58044.74424.98413.2913,1.073-.2913.53587-.74424Z"/><path class="a" d="M65.16588,2.389l-1.49783-.06088.07849-1.16662,1.33043-.1112Zm-.06662,6.55761-1.3973.2212.1124-3.14772L63.736,3.36381l1.32923-.18022L64.98686,6.171Z"/><path class="a" d="M23.93461,18.69187l-2.40695,2.2374-1.78457,1.9086,1.84892,3.4438,2.263,3.24262-2.31109.30077-1.6101-3.19937-1.53066-2.59651-2.056,1.76456-.07957,3.75859-1.86521.302.27032-7.8624-.07956-3.45795,1.94478-.316-.14271,5.63915,2.82119-2.72653L21.73472,18.376Z"/><path class="a" d="M37.99551,24.24439l-.57457,3.06947L35.87518,29.323l-3.22033.60261L29.658,29.323l-1.6101-2.00912-.57337-3.06947.70086-3.08457,1.72131-2.21044,2.83772-.75946,3.15719.75946,1.64174,2.21044Zm-1.8488-.08652-.31946-2.42468-1.3387-1.57848-1.75414-.45881-1.62532.47391-1.22762,1.54936-.6225,2.55338.43066,2.33912,1.1,1.4487,1.8488.37326,2.04076-.37326,1.05208-1.4487Z"/><path class="a" d="M51.99206,18.24732l-.06435,3.844-.15913,4.85033-1.196,2.28065-3.57023.80392-3.34783-.90445L42.778,26.5544l-.09587-7.949,1.94478-.316L44.51466,22.034l.06434,4.10381.66935,1.75066,1.81729.502,2.10391-.33.90924-1.836.096-4.3624-.20718-3.314Z"/></svg>