<svg xmlns="http://www.w3.org/2000/svg" viewBox="0 0 46 44"><title>icn_foot_04</title><path d="M25.72348,1.87265c0,.041-.1858.04908-.41532.0181a8.95041,8.95041,0,0,0-1.052-.04772c-.35052.0047-.7456.00514-.87747.001-.13594-.00432-.30934-.00753-.40008-.00739-.16026.00017-.16026.00017,0,.08645.1201.06462.13012.08745.04.09122-.33662.01411-.56134-.01737-.56134-.07876,0-.13622-.64344-.05907-1.13541.13643a1.30148,1.30148,0,0,1-.57009.1412.289.289,0,0,0-.2147-.00866,1.19692,1.19692,0,0,1-.422.00319c-.252-.03807-.26822-.02875-.14218.08145a.39008.39008,0,0,1,.14218.23516c0,.07123-.02183.07765-.06118.01793a.74843.74843,0,0,0-.924-.177.97592.97592,0,0,1-.45344.12608,1.1397,1.1397,0,0,0-.41351.07225.91266.91266,0,0,1-.38556.05919.49244.49244,0,0,0-.32873.08857.37637.37637,0,0,1-.251.096c-.07412-.00692-.12768.01984-.12768.06383,0,.04037-.05765.04993-.12363.02036a.12647.12647,0,0,0-.1732.06764c-.02784.06921-.08022.101-.11967.07267-.03764-.027-.14866.01818-.23955.09758s-.20021.13711-.23572.12441a1.70927,1.70927,0,0,0-.76529.31528.19417.19417,0,0,1-.2093.041c-.0729-.03331-.14693.0106-.18717.11111-.03714.09279-.09231.16141-.12486.15539-.15827-.02954-.15968-.00822-.00828.12267.15812.13675.15812.13675-.00835.1051-.21661-.04119-.7926.14669-.7926.25877,0,.04415-.07524.07362-.16723.06546s-.16735.02673-.16735.07754c0,.04819-.02406.06721-.05024.03974-.08307-.087-.36882.0559-.36882.18456,0,.05977-.09648.12684-.20563.1429a.25471.25471,0,0,0-.23107.20922c-.0157.11141-.07921.1698-.16817.15454a1.5246,1.5246,0,0,0-.6151.37029,2.22016,2.22016,0,0,1-.56189.38812c-.04739-.004-.06712.05089-.0423.11763s-.00085.12109-.055.11654a3.08752,3.08752,0,0,0-.71224.50679,3.40387,3.40387,0,0,1-.7019.5095c-.05113-.00415-.0895.02226-.0895.06166a2.03322,2.03322,0,0,1-.40754.44178c-.51464.4708-.83979.84111-.80056.91181.01466.02643-.02744.08-.0875.11113-.086.04475-.0772.06319.03432.0718.08576.00662.15.04643.15.09289,0,.04739-.08568.05439-.20579.01668-.18111-.05686-.24067-.01036-.49365.38552a1.59861,1.59861,0,0,0-.3363,1.01763q-.00384.14643-.12444.09291c-.19566-.08683-.428.46223-.31954.75557.07746.20949.06451.23832-.1204.26891-.11232.01858-.20737.06427-.20737.09965a10.001,10.001,0,0,1-.49737,1.03582c-.017.03064.03873.078.12535.10659.14021.04623.13851.05546-.01731.09227-.18194.043-.41716.401-.34234.52134a.24367.24367,0,0,0,.1734.08506c.06935.00458.12563.04491.12563.09,0,.04756-.09966.05467-.23835.017-.18219-.04945-.2078-.04148-.10842.03377.1148.0869.11274.09747-.01735.09-.22569-.013-.298.452-.09546.61406.0868.06941.11765.11812.06941.10966-.19094-.03359-.23282.00516-.13388.12394.08766.10528.08183.12793-.03107.1208-.13339-.00842-.17919.11969-.15164.42434.00672.07406-.02.13791-.05687.13564-.0391-.00242-.079.10977-.09125.25643a.73407.73407,0,0,1-.12614.37321c-.08777.09451-.06968.10673.113.07644.18631-.0309.18257-.02469-.02606.04347-.14794.04833-.2249.12422-.19582.1931.0284.06723.00709.0877-.05223.05018-.07133-.04512-.08512.02363-.04789.23891.02861.16559.02072.30039-.01746.29817a1.313,1.313,0,0,0-.17863.55541c-.08375.42993-.0847.60392-.00435.75.08368.15218.08108.20451-.01308.26173-.096.05824-.09836.07983-.01309.11654.15167.06526.13947.19771-.01743.18929-.0698-.00375-.126.02386-.12057.05917.02439.15717-.02068.184-.16738.09954-.19969-.11488-.48618.038-.66837.35706a11.64951,11.64951,0,0,0-.66975,1.83363l-.10762.41475-.44881-.04169a.938.938,0,0,0-.73245.143,1.2262,1.2262,0,0,1-.35391.18184c-.097-.00448-.42594.44357-.68748.93666a3.41475,3.41475,0,0,0-.31705,2.18939c.0595.37494.12032.79576.135.93261.01468.13719.07268.47461.12887.74977s.11814.6273.13769.7827a1.244,1.244,0,0,0,.20417.50718,1.57779,1.57779,0,0,1,.23014.48269c.06965.29146.26432.48714.40762.40985.053-.02864.08845-.018.08845.0266,0,.11561.67605.27911.7766.188.05287-.04787.10924-.04621.1409.00416q.0528.08394.3694.01179c.36-.082.51225.00178.5984.32913a3.49968,3.49968,0,0,0,.89041,1.207.36617.36617,0,0,1,.20937.12842.50017.50017,0,0,0,.318.13106,1.08824,1.08824,0,0,1,.39138.1,2.82061,2.82061,0,0,0,.746.14139c.44117.03641.58748.02015.66143-.07328a.81337.81337,0,0,1,.42682-.16453c.3099-.04161.32776-.03322.2755.1292-.03382.10508-.01851.17467.03869.17609.05163.00128.07311.03513.0473.07447-.02589.03953.04989.2089.16767.37456a1.20713,1.20713,0,0,1,.21472.42c0,.06515.03075.11383.06865.10873.18014-.02444.266.02519.22472.12973a.13661.13661,0,0,0,.04546.16766.09536.09536,0,0,1,.04281.131.18838.18838,0,0,0,.01714.1792.92336.92336,0,0,1,.09426.26611.51817.51817,0,0,0,.10274.23367.17913.17913,0,0,1,.02992.18341c-.02673.07056.00857.11388.09416.11553a.13308.13308,0,0,1,.13686.1285c0,.08122-.038.105-.10692.067-.05883-.03237-.03955.01549.04276.10637a.5794.5794,0,0,1,.14961.24633c0,.1218.30529.36445.37571.29874.03357-.03134.03677.00063.00728.07312-.07208.17727.11919.53306.211.39275.04585-.06995.07811-.05953.11841.0384.03355.08159.0218.11452-.02983.08359-.24027-.14392-.02555.13608.468.61061a2.384,2.384,0,0,1,.50664.57843c-.06461.09911.73908.8169.91645.81887a.23.23,0,0,1,.20674.17168q.04639.16992.19809.13115c.10981-.02806.17484.026.23581.1958a.87753.87753,0,0,0,.34059.38575c.14278.08428.23195.17412.20157.203-.03186.03021-.01262.05633.04616.06257a1.44142,1.44142,0,0,1,.71375.30937.27125.27125,0,0,0,.199.08986.35539.35539,0,0,1,.24636.1623.41258.41258,0,0,0,.30441.1625.27827.27827,0,0,1,.24571.12182.19406.19406,0,0,0,.17474.12128c.07484.00046.12887.02764.12887.06486,0,.07114.30733.20753.97024.43064.69382.23356.9328.34058.9328.41759,0,.038.06586.02137.14-.03531.12342-.0944.13166-.09385.07.00426-.0509.08089-.03294.09835.06579.064.08225-.02865.13565-.0096.13565.04832,0,.09457.23826.27927.49265.38194a.39628.39628,0,0,0,.27447-.02543c.09826-.04868.13425-.04716.10236.00429-.08627.1393.1882.27634.4497.22478.147-.029.22531-.0166.19593.03092-.027.04371.00409.05982.06937.03586a.14866.14866,0,0,1,.17119.04.09374.09374,0,0,0,.12629.03965c.1303-.07768.81291.06026.81291.164,0,.06059.069.08215.19056.0596a.82183.82183,0,0,1,.42512.07962.61892.61892,0,0,0,.33944.07937.24357.24357,0,0,1,.20178.0436,1.3456,1.3456,0,0,0,.55993.06751c.25729-.00638.46208.01471.46208.04757,0,.03305.17654.05911.401.05923.22419.00013.40018.03479.40018.07877,0,.04559.052.07854.12391.07856s.10316-.03291.0746-.07849c-.05415-.08636.53764-.10833.62363-.0233a.70147.70147,0,0,0,.31407.06671.88.88,0,0,1,.25826.03136,2.87409,2.87409,0,0,0,.464.05874c.372.03135.45051.01831.39971-.06641-.05061-.08431-.03953-.08748.05536-.0156.13433.10167.64152.1215.69893.02749a2.09437,2.09437,0,0,1,.71119-.08009,2.819,2.819,0,0,0,1.662-.34573c.07456-.08509.1314-.11989.1263-.07729-.02131.17815.01632.20215.1337.08537.07-.06964.155-.105.19432-.081.04.02434.0699.00785.0699-.03857,0-.04277.06988-.08118.14751-.081a.36079.36079,0,0,0,.23652-.1078c.06931-.084.05813-.11675-.05037-.147q-.13959-.039.06976-.04624c.15492-.00535.19795.02283.166.1086-.05033.13515-.00331.13945.37577.03438.20859-.05781.2732-.11259.23922-.20277-.05518-.14636.12373-.26766.30881-.20955.08476.02662.131-.001.131-.07833,0-.06937.03392-.11936.08087-.11919.04715.00018.05706.03874.02376.09257-.05857.09472.06475.03906.28015-.12644.19213-.14758.55507-.28418.49479-.18624-.08288.13456.29238.00123.40631-.14428.0779-.09949.09659-.10154.0997-.011.003.08661.0268.08074.10706-.02642.07455-.09944.11382-.10989.1414-.03772.02939.0769.04.07787.04584.004a.10884.10884,0,0,1,.11455-.09537c.06106.00031.10194-.057.0954-.13374-.00974-.11447.05342-.13226.42685-.12033.24352.00778.43733-.01663.43733-.05494,0-.03807.12911-.067.2885-.06455.42438.00644.5739-.02724.6734-.15133.07308-.09116.0921-.09258.09511-.007.00283.07987.08313.09674.31715.06683a.68951.68951,0,0,0,.36183-.1197.74692.74692,0,0,1,.38748-.11693,2.32418,2.32418,0,0,0,.89095-.1824c.02153-.03352.14734-.05121.2819-.03969s.24268-.00633.24268-.03993c0-.03444.097-.08294.22374-.11208s.2235-.08085.2235-.1195c0-.04092.02385-.06346.05956-.05634.10419.02075.53522-.17991.53522-.24907,0-.03667.04454-.06164.09647-.05411.22247.03227.34842-.00965.34842-.11578,0-.06044.02765-.107.05922-.09985.15544.0355.45855-.115.45855-.2274,0-.09815.01246-.10085.06647-.01445.056.08954.09965.08459.27672-.03109a.94546.94546,0,0,1,.24687-.132,10.62347,10.62347,0,0,0,1.11752-1.17287c.509-.616.56612-.70819.48875-.78888q-.07305-.07626.11319-.25337a.61081.61081,0,0,0,.186-.26317.3.3,0,0,1,.10939-.176c.14553-.11946.13844-.27644-.01458-.32191-.10625-.03159-.10207-.03989.02186-.04368.10619-.00325.20316-.11615.31683-.36875a.935.935,0,0,0,.12-.43949.13716.13716,0,0,1,.05818-.15908c.14535-.11884.22006-.4588.11628-.52895-.06381-.04311-.04723-.09926.06176-.209a.32565.32565,0,0,0,.10892-.30433c-.02142-.08281-.00628-.15352.03267-.15258.04009.001.0888-.17364.10884-.39009a8.46808,8.46808,0,0,1,.15227-.90088,2.01227,2.01227,0,0,0,.07973-.5734.07353.07353,0,0,1,.029-.10382,1.18843,1.18843,0,0,0,.058-.50651,6.15374,6.15374,0,0,1,.047-.82433c.04525-.29735.08689-.36757.24966-.42126a2.26035,2.26035,0,0,0,.32151-.13467,1.05127,1.05127,0,0,1,.41828-.06027.60023.60023,0,0,0,.52876-.22495c.28715-.28438.37367-.49.2441-.57991-.07-.04854-.06458-.0637.02152-.06055.14026.00513.22359-.16281.16315-.32861-.022-.06032-.00442-.11171.03762-.11012.04505.00169.07884-.04165.07884-.1011a.12984.12984,0,0,1,.07161-.12638,2.4009,2.4009,0,0,0,.16745-1.0679c-.02205-.06035-.00484-.1042.04013-.10234.12811.00531.0715-.51428-.05725-.52508-.07288-.00611-.05725-.03158.04293-.07.19306-.074.20043-.13073.03578-.27542-.093-.08176-.09975-.11557-.02863-.14371.07555-.02984.07555-.05977,0-.15966-.05232-.06918-.0617-.10213-.02147-.07525.03957.0264.10831-.0286.15378-.12309.063-.13079.05877-.19179-.01788-.2607a.14783.14783,0,0,1-.05364-.16953,3.66807,3.66807,0,0,0,.05364-.73267c.00519-.475-.0182-.65433-.0858-.65769-.119-.00591-.10733-.22454.0143-.26682.07837-.02724.0778-.09247-.00359-.41594a1.252,1.252,0,0,1-.06081-.43768c.01909-.0287-.01429-.07552-.07155-.10033a.19457.19457,0,0,1-.10739-.158c0-.13376-.25426-.31189-.35839-.2509-.04166.02441-.08982-.00732-.11483-.07563a.18237.18237,0,0,0-.14722-.1233.904.904,0,0,1-.29836-.12049,1.90792,1.90792,0,0,0-.45744-.17414,2.28314,2.28314,0,0,1-.45132-.1566c-.19528-.10123-.25174-.22477-.10123-.22156.05265.00116.01446-.04843-.0868-.11265-.16651-.1056-.16941-.115-.03619-.11781.08682-.00187.10707-.0201.05064-.04571-.06513-.02953-.07187-.069-.02194-.12825a.39236.39236,0,0,0-.188-.539c-.14492-.0462-.16377-.07768-.09419-.15735a.16511.16511,0,0,0,.04348-.17311c-.02319-.03923.00643-.123.06344-.17937.10947-.10828.08142-.34634-.04171-.35378a.07638.07638,0,0,1-.06521-.08248c0-.04279.03623-.0542.07971-.025.05691.03813.05587.00712-.00362-.10863a.87569.87569,0,0,0-.27911-.28257c-.10887-.067-.15563-.12477-.10523-.12993.05082-.0052.129-.0111.17776-.01337.13049-.006.15064-.18305.02175-.19111-.06527-.00409-.09859-.03564-.07614-.07212a.45822.45822,0,0,0-.03264-.27132c-.05106-.14539-.04892-.23613.00725-.30619.05984-.07472.05078-.11267-.03628-.152a.18987.18987,0,0,1-.11612-.14969.33229.33229,0,0,0-.10894-.19417c-.05815-.05172-.09017-.12723-.06862-.16171.08826-.1414-.0404-.4444-.19309-.45466-.11643-.0078-.14416-.04534-.11643-.15764.02-.081.00691-.13082-.02912-.11064-.03931.0221-.06553.00836-.06553-.03436a.13444.13444,0,0,1,.091-.10624c.065-.025.04732-.07758-.06187-.184a.62793.62793,0,0,1-.16224-.36725c-.02077-.48874-.05462-.64108-.1438-.64741-.07661-.00545-.12427-.20389-.09532-.39684.0042-.02808-.05426-.07537-.12723-.103-.0973-.03677-.12591-.10293-.10225-.23631.025-.14079.00306-.18745-.09134-.19438-.087-.00638-.11331-.05335-.08772-.1566a.20611.20611,0,0,0-.02924-.19361c-.03592-.02525-.06582-.00867-.06582.03642s-.03327.05964-.07318.03211a.22542.22542,0,0,1-.07318-.16322c0-.06009.03416-.08913.07318-.06216.04182.02886.07318.01673.07318-.02836,0-.04206-.05123-.08267-.10976-.087-.06151-.00461-.12917-.09237-.15377-.19942s-.0778-.17234-.12091-.14822c-.04663.02609-.05963-.00452-.033-.0777.024-.06581.01231-.12312-.02568-.126-.03716-.00284-.06967-.058-.06967-.11811a.42215.42215,0,0,0-.18344-.24732.42388.42388,0,0,1-.18362-.24c0-.06021-.02518-.10733-.05879-.10995-.09557-.00745-.5259-.47491-.47836-.51975.02341-.02208-.01475-.04642-.08108-.05168s-.10613-.04037-.08448-.07457c.061-.09648-.1663-.27209-.2992-.23108-.11082.03421-.11342.02467-.02215-.0813.08861-.10282.08493-.11444-.02586-.0813-.10346.031-.12933-.00664-.12933-.18784a.61131.61131,0,0,0-.18488-.41533.67855.67855,0,0,1-.18509-.26458c0-.10882-.15561-.24317-.33357-.2879-.21527-.05413-.34107-.2105-.28417-.35349.03251-.0818-.00168-.13387-.11316-.17234-.08922-.03078-.1599-.102-.1599-.16118,0-.05836-.067-.11179-.14887-.11876a.15021.15021,0,0,1-.149-.12637c0-.06427-.07454-.15234-.17146-.20253-.21641-.11212-.42558-.30249-.42558-.38749a3.53564,3.53564,0,0,0-.86138-.878c-.10511-.058-.18776-.15222-.18776-.21405,0-.07659-.05635-.10493-.18417-.09261-.13405.01293-.22746-.04319-.34249-.20593-.10935-.15471-.20957-.21914-.32423-.20842-.09057.00843-.12147-.00173-.06793-.02244.12718-.04913-.219-.35468-.42319-.37331a.23836.23836,0,0,1-.193-.13226.19789.19789,0,0,0-.15909-.12922c-.06822-.00627-.11751-.04449-.11751-.09113,0-.05042-.09861-.07091-.26558-.055-.24312.02315-.27375.00586-.35719-.20139-.08649-.21484-.09271-.21784-.11795-.05687-.01421.09063-.06215.16663-.10276.16288-.04354-.004-.05495-.03954-.02665-.08289.02676-.04105-.01525-.1312-.09143-.19627s-.10772-.11915-.06858-.11754c.04137.00164.0038-.05276-.08768-.127a.76875.76875,0,0,0-.47336-.12869c-.29068.00124-.31364-.01244-.31364-.18692,0-.16137-.02352-.18335-.16466-.15386-.13032.02721-.15517.0104-.11879-.08042.03619-.09039-.03068-.13438-.3146-.20675a2.51089,2.51089,0,0,0-.49589-.08566c-.077.00371-.13476-.03155-.13476-.08216,0-.0549-.06163-.07842-.16183-.06171a.39507.39507,0,0,1-.32407-.139A1.13815,1.13815,0,0,0,29.9309,2.859c-.16259-.04125-.27665-.10065-.25486-.13275.04071-.05988-.30314-.16867-.83937-.26541a.87449.87449,0,0,1-.38164-.147c-.1224-.13362-.34768-.14244-.39934-.01551-.0243.05972-.082.10851-.1237.10447-.1146-.0111-.10165-.2245.01561-.25777a1.86245,1.86245,0,0,0-.58312-.08488c-.47086-.04055-.66835-.03-.64379.03455.0232.061-.0472.07291-.20458.03463-.13386-.03258-.24022-.09639-.24022-.14419q0-.08577-.0946-.00145c-.12822.11435-.22088.09553-.22088-.04494a.13635.13635,0,0,0-.11842-.1286c-.06321-.00618-.11851.02306-.11851.06256Zm-1.86564.13556a.13859.13859,0,0,1-.12367.06645.08174.08174,0,0,1-.07581-.08577c0-.04559.05188-.07344.12369-.06648s.10359.04292.07579.0858Zm6.20844,1.0491c-.02381.02372-.08506-.00426-.13925-.06349-.07527-.08235-.06579-.09176.04256-.0423.07737.03531.12033.08236.09669.10579Zm-2.0249-.09073a20.53774,20.53774,0,0,1,3.71539,1.447A30.69293,30.69293,0,0,1,35.15568,6.5781a17.55378,17.55378,0,0,1,1.30745,1.17751A8.33193,8.33193,0,0,1,37.70159,9.296c.02929.04427.30709.38847.62095.76937a10.40555,10.40555,0,0,1,2.18739,3.67249,4.1394,4.1394,0,0,0,.20945.54111,1.32088,1.32088,0,0,1,.10624.34564,7.59718,7.59718,0,0,0,.37193,1.00922,8.94708,8.94708,0,0,1,.72179,3.338,5.29895,5.29895,0,0,0,.07473.55884l.05824.29549-.24765-.055a.70219.70219,0,0,0-.372.00555c-.09395.04588-.14193.02587-.19724-.08232a.21215.21215,0,0,0-.245-.11882c-.1328.01862-.19629-.02607-.27831-.196a1.097,1.097,0,0,0-.17963-.281c-.05136-.04245-.05136-.05935,0-.05641.04107.00236.0814-.11943.09167-.27676.01318-.20226-.00118-.25151-.05134-.17593-.06148.09263-.07529.08962-.11738-.0257a.41475.41475,0,0,1-.00734-.23742.1999.1999,0,0,0-.06605-.19953c-.05874-.05126-.0884-.12053-.0661-.15449a.4595.4595,0,0,0-.06243-.27846.58442.58442,0,0,1-.0698-.30915c.01852-.05156-.00411-.09436-.05144-.09728-.05918-.00366-.06139-.049-.00736-.15107.06174-.11658.05659-.13874-.02573-.11078-.06433.02189-.14709-.05809-.22068-.21341-.14725-.31077-.14587-.321.02945-.21458.347.21063,0-.28616-.5306-.75919-.28061-.25015-.3844-.49407-.26787-.62976.08583-.09992.07592-.1086-.07926-.06949q-.17747.04481-.12569-.0311c.02956-.04332-.01482-.14829-.10361-.24495s-.13642-.1987-.111-.238c.02422-.03749-.0111-.07251-.07776-.07708-.07411-.00508-.10623-.049-.0815-.11146.02386-.06031-.02226-.12462-.11121-.15509-.08158-.028-.13571-.07906-.11678-.11021.05731-.09434-.0827-.42279-.16148-.37872-.03744.02094-.08647-.04726-.11142-.155s-.10021-.19638-.171-.20142c-.11024-.00785-.10785-.02179.01859-.10848.13529-.09278.12266-.10127-.18969-.12723q-.33513-.02786-.23089-.08858a.24513.24513,0,0,1,.20484-.01559c.0521.02341.10046.00318.10046-.042,0-.04752-.07441-.08666-.16375-.08609-.27572.00163-.29916-.0188-.168-.1463.11656-.11331.10472-.13085-.21585-.31913-.20154-.11842-.32608-.23869-.30613-.29581.02017-.05772-.02614-.1059-.11587-.1205-.32925-.05359-.36218-.071-.32256-.17038q.03825-.096-.08534-.0558c-.09987.03241-.11427.00284-.07494-.15391.04122-.1641.01874-.20385-.14623-.2582-.105-.0346-.19509-.09764-.19509-.13657,0-.04334-.02553-.059-.06382-.03909-.03469.018-.2029-.08-.36838-.21477-.18067-.14712-.35411-.233-.42558-.21072-.10784.03362-.1571-.05144-.13008-.22484.00529-.03418-.08875-.08944-.21711-.12756s-.22675-.112-.22675-.17048a.1376.1376,0,0,0-.11346-.122c-.27261-.04554-.49248-.18123-.49248-.3041a.2253.2253,0,0,0-.08726-.15993c-.05951-.04126-.074-.0059-.04554.11112.02658.10923.01.158-.04554.13412a.17375.17375,0,0,1-.06456-.185c.01646-.10647-.05317-.18964-.25079-.29952a1.45517,1.45517,0,0,0-.38441-.16118c-.061-.00491-.11052-.04326-.11052-.0856,0-.04087-.05336-.081-.11438-.086s-.11445-.045-.11445-.086c0-.09-.37435-.29179-.51967-.28a.08884.08884,0,0,1-.09186-.09242c0-.07327-.02042-.07084-.07657.009q-.07661.109-.07661.013c0-.05339-.06129-.10116-.138-.10746a.36756.36756,0,0,1-.211-.09039.87286.87286,0,0,0-.361-.13371.97234.97234,0,0,1-.33863-.10892.41118.41118,0,0,0-.21576-.068.443.443,0,0,1-.23528-.083,3.89715,3.89715,0,0,0-1.23893-.38856c-.25648-.04655-.60676-.11393-.77822-.14979A22.55141,22.55141,0,0,0,25.328,7.19874c-1.66162-.13342-1.92149-.13114-2.12515.01914a3.21752,3.21752,0,0,1-.93025.06538,4.33728,4.33728,0,0,0-.983.05476,8.052,8.052,0,0,1-1.79266.22591c-.44042-.00052-.76726.09367-.76726.22139,0,.0424-.05723.07476-.1227.06943s-.12277.02712-.12277.06948c0,.0437-.0737.07347-.1638.06616s-.16391.01717-.16391.05436c0,.0366-.09026.06028-.1969.05167a1.94913,1.94913,0,0,0-.95437.4174,1.06549,1.06549,0,0,1-.392.24419,4.21976,4.21976,0,0,0-.65372.38019c-.14095.1077-.34529.24876-.44388.30641-.38237.22338-.66548.48761-.66548.62134,0,.0721-.0392.11068-.08335.08186-.05-.03263-.08339-.0223-.08339.0258,0,.04543-.1084.13467-.2503.20589s-.23431.17054-.213.229c.02107.05779.00819.09229-.02925.07851a4.69418,4.69418,0,0,0-1.4607,1.15278c-.03037.07844-.08163.12445-.10821.09713-.076-.07808-.38206.15856-.32488.25128.02441.0396.00037.07264-.05025.06912-.05633-.00393-.07579.04713-.04638.12178s.00818.12037-.05065.109c-.27025-.05218-.32687-.01657-.2376.14953.07277.13536.06027.15264-.08337.11537a1.07021,1.07021,0,0,1-.24532-.09353c-.0406-.02652-.13544.03112-.20322.12348a5.62739,5.62739,0,0,1-.43029.47632c-.34925.34908-.36975.42209-.138.49253.1613.04909.16239.05645.02124.14708-.085.05458-.16945.06294-.19712.01949-.07633-.11994-.32034-.021-.37816.15353-.0263.07932-.09231.148-.13939.145-.04774-.00308-.06767.05239-.04265.11885s.00911.12223-.03411.11946c-.04468-.00287-.081.04754-.081.1124a.25522.25522,0,0,1-.1493.19326c-.14518.07361-.1453.07914-.00427.19309q.29.23452-.01711.21532c-.09391-.00586-.17078.02407-.17078.06648,0,.044-.06409.09225-.14953.11248a.26656.26656,0,0,0-.16251.24987.359.359,0,0,1-.12837.27654c-.05994.03217-.08262.06408-.04707.06623.03734.00225-.01128.08059-.10707.17233a.34919.34919,0,0,0-.12855.3175q.04717.14916-.08145.14155c-.10989-.00647-.38478.33554-.39972.49742-.002.02212-.09743.259-.21.52138-.1775.41361-.18841.499-.07745.60747.15479.15131.15908.19733.01724.18416-.353-.03283-.4357.00217-.39038.16537.02531.091.01108.14346-.03159.11647s-.07759.02441-.07759.11407c0,.25786-.15527.26968-.58721.04449l-.40677-.2121.013-.551c.00717-.302-.0222-.553-.06493-.55543a.07662.07662,0,0,1-.078-.078c0-.042.065-.06462.15162-.05268.09676.01331.16248-.048.18184-.16945s-.00415-.173-.06491-.1426c-.05194.026-.09525.03091-.09525.01087a1.16365,1.16365,0,0,0-.052-.191c-.03933-.11673-.03089-.12521.03468-.03479a.1553.1553,0,0,0,.19047.06416c.07788-.04147.08-.07913.00863-.15066a.34656.34656,0,0,1-.09521-.22206c0-.09806.01628-.10174.072-.01622.13733.21065.37406-.45145.39461-1.10326a.55442.55442,0,0,1,.12131-.36385,1.03534,1.03534,0,0,0,.14241-.56211,2.83528,2.83528,0,0,1,.12507-.70974.47964.47964,0,0,0,.05172-.29829.07566.07566,0,0,1,.03017-.11213c.04105-.02242.05623-.13081.03451-.24636-.02327-.12392.00087-.2038.06028-.1998.05172.00349.07442.044.04742.08468-.02818.04256-.00863.08095.04308.08441.12444.00834.10329-.21471-.02586-.27235-.05908-.02634-.03874-.04521.04737-.044.11675.00161.15062-.07124.15062-.32377,0-.26889.03015-.32379.17206-.314.18907.0131.22495-.1458.06876-.30462-.08249-.084-.07737-.10315.0258-.0959.2175.01529.52935-.67837.40435-.89886-.04811-.08484-.06369-.17091-.03508-.19369.02938-.02339.05146.00785.05146.0729,0,.09109.01692.09068.08456-.002.11838-.16211.11367-.34025-.00738-.2794-.06005.03024-.0779.01464-.04286-.03734a.20306.20306,0,0,1,.15431-.08217c.11816.00871.24486-.1444.67107-.81088a1.47233,1.47233,0,0,1,.59772-.62743c.13623-.04662.25114-.12852.25114-.179a2.7393,2.7393,0,0,1,.53138-.59371c.6643-.62582.76153-.73167.68178-.74218-.03672-.00483.06768-.04217.2283-.08173s.29552-.128.29552-.19372c0-.06806.11809-.173.26987-.23987a.62135.62135,0,0,0,.32-.27564c.02776-.08629.08832-.15371.13461-.14983.05045.00422.06388-.02689.0336-.07773-.02881-.04844,0-.06152.06727-.03056.07971.03667.13523-.02488.17223-.19077.03873-.17372.09721-.23417.20146-.20818.10043.02506.14676-.01165.14676-.11618,0-.09933.0587-.15195.1676-.15037a2.953,2.953,0,0,0,1.0537-.61928A.3321.3321,0,0,1,15,4.94039a1.69826,1.69826,0,0,0,.7646-.34854c0-.02591.12024-.08885.26113-.1367a1.45775,1.45775,0,0,0,.39731-.20815,1.29961,1.29961,0,0,1,.42129-.19757c.15813-.04334.44927-.14449.655-.2276a4.68315,4.68315,0,0,1,.71855-.21692c.18849-.0365.34812-.10018.34812-.1389,0-.04293.02946-.0513.07364-.021a.74131.74131,0,0,0,.38822-.05155,6.13041,6.13041,0,0,1,.68073-.16689c.20394-.0362.61763-.1165.93382-.18121a21.17023,21.17023,0,0,1,2.33617-.36584c.17791-.006.54392-.01219.82336-.01392.279-.00173.6151-.00629.75643-.01019.14081-.00389.71407.01593,1.28354.04441.56783.0284,1.03534.04118,1.04927.02873a4.76686,4.76686,0,0,1,1.15012.238ZM24.69355,7.5247c0,.02113-.0318.05135-.07945.07557-.04542.023-.07949.00513-.07949-.04187a.07164.07164,0,0,1,.07949-.07554c.04765.004.07945.02072.07945.04184Zm2.255.37112c-.02419.02413-.08641-.0033-.14143-.06237-.07642-.082-.06683-.0916.04322-.0431.07857.03468.12222.08154.09821.10547Zm-2.24315-.0336c.09529.12963.09133.13232-.03573.02445-.1351-.11469-.17336-.17873-.1033-.17291a.508.508,0,0,1,.139.14846ZM11.15141,6.73a.58738.58738,0,0,1-.28852.2513c-.02805-.0023-.0032-.07309.05517-.1573.10082-.14538.23335-.19875.23335-.094ZM25.37193,7.96027c.03285.086.12223.10551.37525.08172.18955-.01783.34343-.00014.3592.04131.01494.03923.11433.05811.21681.04122a.421.421,0,0,1,.28737.05092,2.04624,2.04624,0,0,0,.66768.121,1.26018,1.26018,0,0,1,.56774.10875c0,.0388.15634.06367.35159.056a.75407.75407,0,0,1,.38994.04743.32482.32482,0,0,0,.21415.064,1.35241,1.35241,0,0,1,.43924.12661c.41893.19649.77375.19264.85972-.00884.04141-.097.07164-.11667.07392-.048a.60851.60851,0,0,0,.07341.23375c.059.09976.08886.10334.197.02373.09261-.06825.15152-.06765.216.0021.06533.07068.05012.09273-.05785.084-.26108-.02116-.06943.07647.2775.1414.21557.04035.35242.03011.39245-.02933.03927-.05826.06151-.02581.06151.08966,0,.13089.03294.1708.11908.1443a.43.43,0,0,1,.28781.06929.55506.55506,0,0,0,.26443.09423.07688.07688,0,0,1,.09572.06911c0,.04451.04975.08469.111.08957a.39268.39268,0,0,1,.21412.12452.90461.90461,0,0,0,.35127.189.4978.4978,0,0,1,.28975.18388.183.183,0,0,0,.1409.11832.33351.33351,0,0,1,.19023.126,1.9446,1.9446,0,0,0,.44446.314,3.84977,3.84977,0,0,1,.52674.34631.385.385,0,0,0,.28365.1172c.06044-.01858.10956.00058.10956.04269a.12368.12368,0,0,1-.09445.10349c-.0513.01476.02645.08874.17.16173a1.319,1.319,0,0,1,.3659.26784c.05548.07277.13254.11665.16951.09654.03814-.02071.08753.018.11293.08845.04012.11136.05728.11092.15422-.00376.09912-.11717.10528-.11009.06768.07741-.03458.17258-.00751.22319.16534.30916a.85905.85905,0,0,0,.26273.09544c.0307-.004.11249.11094.18.25272.17606.37.32687.53278.50526.54555.11957.00856.13379.02458.05981.06729-.13983.08064-.05234.33773.19419.57091a3.73723,3.73723,0,0,1,.643,1.07754c.04361.09385.12388.175.17663.17852.052.00348.076.04.052.07921a2.67306,2.67306,0,0,0,.33153.77106,10.65541,10.65541,0,0,1,1.2902,4.27607,18.93779,18.93779,0,0,1-.02282,4.80967,1.0749,1.0749,0,0,0-.03305.38323,10.34829,10.34829,0,0,1-.415,1.95338c-.215.82316-.52535,2.15025-.53456,2.28645a.57317.57317,0,0,1-.13738.26056.85028.85028,0,0,0-.16633.37339,11.57419,11.57419,0,0,1-1.69389,3.409,5.06589,5.06589,0,0,0-.44824.73665.77883.77883,0,0,1-.244.28109,2.17184,2.17184,0,0,0-.36844.40132,2.849,2.849,0,0,1-.28239.36146.58141.58141,0,0,0-.15834.24548c0,.04272-.05281.07934-.11317.07848s-.11324.02688-.11324.05942c0,.11369-.25527.40878-1.18433,1.36872l-.92607.95686-.82979.00473a9.44447,9.44447,0,0,1-1.2955-.07515,5.37757,5.37757,0,0,0-1.50978-.14508c0,.0351-.101.03087-.23329-.00974a1.83015,1.83015,0,0,0-.292-.07229,1.14391,1.14391,0,0,1-.10524-.48555,1.01711,1.01711,0,0,0-.13646-.51721.13669.13669,0,0,1-.08972-.12515.84039.84039,0,0,0-.22126-.32857c-.56824-.6048-1.0314-.76214-2.33139-.78942-.49065-.0103-.7143.01355-.73642.07862-.01718.05058-.119.09219-.22223.09076-.143-.002-.1907.04142-.1907.17354,0,.141-.01509.15327-.07552.06165-.06429-.0975-.09982-.08748-.2387.06739a.68876.68876,0,0,0-.16327.24868c0,.03554-.05578.066-.11955.06516-.13555-.00166-.15543.12123-.03188.19745.0516.03185-.02393.10535-.18348.17863q-.47924.22011-.28751.3374c.07145.04364.07145.10932,0,.25777-.05267.10941-.0671.19955-.032.19988.0349.00033.06214.09871.06.21647-.00234.12558.03442.20962.08785.20091q.09189-.015.05715.26732c-.03469.28226.08538.53113.21825.45249.03744-.02217.07178.00066.07178.0477,0,.06559.03586.06154.1315-.01482.11685-.09329.12084-.08541.03587.07078-.051.09373-.06586.176-.03188.1762s.008.03663-.05577.07808c-.0988.06416-.08771.0779.06375.07874.11949.00066.16381.03224.12745.09081q-.05574.08985.11146.04759c.10345-.02608.161-.0094.15118.0439-.0085.04589.06758.12484.16295.16914s.17871.11223.17871.14563c0,.03752-.03175.04365-.07939.0153s-.07945-.02226-.07945.01528c0,.10963.31489.27083.41277.21143.04756-.02887.06377-.01568.03568.029-.03.04769.07926.115.26146.16114.2453.06209.321.05561.352-.03006a.15559.15559,0,0,1,.13037-.10884c.0666.00024.06555.03145-.00394.117s-.0706.11692-.004.11712a.16517.16517,0,0,0,.13425-.12057c.0336-.09353.06926-.09957.15783-.02674.08676.07126.13622.07239.205.00459a.43335.43335,0,0,1,.26382-.08871.38764.38764,0,0,0,.26739-.11583.32169.32169,0,0,1,.20033-.11592,2.1667,2.1667,0,0,0,.56452-.44443l.45755-.4439,1.048.01449a6.41889,6.41889,0,0,1,1.23575.09667,1.00863,1.00863,0,0,0,.43978.05355c.37726-.04377.38289.1042.0077.20312-.18418.04855-.48612.13121-.67935.186-.194.055-.58854.15578-.89123.22766a5.97921,5.97921,0,0,0-.93425.30924,6.77824,6.77824,0,0,1-1.40949.45372,20.222,20.222,0,0,1-2.96839.15825c-.37167-.02455-1.09537-.06636-1.601-.09243a8.04619,8.04619,0,0,1-2.26272-.38426c-.20324-.06834-.52887-.16406-.73264-.21532a5.06947,5.06947,0,0,1-1.30892-.56147,2.62011,2.62011,0,0,0-.5506-.23854.41794.41794,0,0,1-.22638-.12887.58848.58848,0,0,0-.27205-.1532,1.44591,1.44591,0,0,1-.18565-.04106.82921.82921,0,0,0-.2148-.00542.22487.22487,0,0,1-.22325-.11326.13168.13168,0,0,0-.16966-.08108c-.06788.02439-.17775-.03723-.25271-.1417s-.15069-.17553-.17415-.16334a1.63043,1.63043,0,0,1-.6306-.32323,2.325,2.325,0,0,0-.80144-.39213c-.05654-.00054-.12213-.06941-.15043-.158a.36316.36316,0,0,0-.22585-.21108,1.56751,1.56751,0,0,1-.42308-.26977,1.35931,1.35931,0,0,0-.32316-.22886c-.04535-.00778-.10081-.01968-.13863-.02977a.3926.3926,0,0,0-.13031-.00957c-.03588.00386-.05553-.07719-.042-.17366.019-.13623-.06313-.23874-.33255-.4151a1.12743,1.12743,0,0,1-.35839-.30718c0-.03876-.05909-.07346-.12662-.0744s-.12672-.04127-.12672-.08648c0-.04842.03619-.0635.08446-.03512.09955.05849.10712.0257.0353-.15285-.02933-.07306-.08914-.13044-.13669-.13115-.11885-.00176-.31838-.25519-.32173-.40872-.00319-.14547-.33845-.38317-.33845-.23985,0,.06526-.03392.06253-.1272-.01014-.06785-.05289-.10551-.1328-.08061-.17121.02613-.04035,0-.07281-.05941-.07381-.05985-.001-.03394-.05174.05941-.11629.15269-.10564.15366-.11494.01276-.12115-.10738-.00473-.13892-.051-.10611-.15557a.30715.30715,0,0,0-.12313-.2976.52578.52578,0,0,1-.17-.33925c0-.10522-.03989-.19107-.08927-.19205-.051-.001-.06928-.03432-.04255-.07778a.10337.10337,0,0,0-.04679-.13458c-.06481-.04061-.05957-.07787.017-.12118.07778-.044.04252-.0795-.11917-.1199-.18737-.04686-.22051-.09333-.17885-.251.03623-.13706.01134-.20852-.08523-.24506-.07672-.02907-.11773-.08145-.09375-.11969.02557-.04079.00854-.08822-.04263-.11854a.38236.38236,0,0,1-.08532-.28182c0-.16223-.05219-.24453-.175-.2759-.094-.02405-.16821-.09351-.16017-.15.031-.21846-.00775-.31685-.1261-.31981-.07371-.00184-.10332-.06346-.077-.16027a.23449.23449,0,0,0-.13263-.2634c-.11985-.07247-.14822-.13636-.08935-.2014.13055-.14426-.00057-.49658-.20618-.55383a.23738.23738,0,0,0-.24439.04157c-.03362.0479-.09112.06575-.12022.03737-.03045-.0297.05149-.14575.18028-.25533l.23575-.20064-.24863-.01123c-.24037-.01076-.24245-.0144-.0601-.10338.12869-.06285.16554-.129.11586-.20813a.26134.26134,0,0,1-.03381-.21245c.07177-.17679-.3385-.21781-.46756-.04659-.12608.16728-.27633.20268-.27633.065,0-.04563.04734-.08007.10762-.07826a.32413.32413,0,0,0,.215-.15228.22249.22249,0,0,1,.23628-.10675c.0687.02593.12873.00692.12873-.04083,0-.05032-.06-.09134-.13734-.09374-.1015-.00314-.1307-.07321-.11164-.268a.74722.74722,0,0,0-.043-.37173.49343.49343,0,0,1-.01289-.31792c.04509-.16949.02941-.20052-.08164-.16153-.086.0302-.115.014-.07738-.04329.03253-.04954-.01291-.14464-.099-.207-.15531-.11261-.15492-.11532.01721-.10939a.438.438,0,0,0,.2279-.041c.07639-.06976-.21495-.36587-.36989-.37575-.09546-.00611-.07749-.04682.06888-.156l.19785-.14765-.23231.00789c-.12913.0044-.25168-.04352-.27562-.1078-.02768-.07439-.00765-.094.056-.055a.10172.10172,0,0,0,.15074-.06381c.03-.07224.08413-.10439.1291-.07671.04649.02858.07743.01507.07743-.03382a.18586.18586,0,0,0-.09031-.13774c-.055-.03426-.0584-.0918-.00862-.147a.85323.85323,0,0,0,.06882-.4332c-.01166-.31-.03134-.33907-.20656-.30545-.14643.02811-.19382.00334-.19382-.10137,0-.106.02839-.11541.1206-.04006.09887.08073.12755.05394.15933-.1485.02158-.13762.00634-.24824-.03446-.2499a.07691.07691,0,0,1-.07316-.08445c0-.04351.06028-.079.12913-.07622.09114.00374.12905-.07617.12905-.27163,0-.15477.04746-.2947.10753-.3172.07917-.02964.06443-.07419-.0559-.1693-.15694-.124-.15784-.13711-.02267-.32676.14921-.20933.12581-.23666-.20106-.23506q-.12912.00057-.02155-.03946a.21232.21232,0,0,0,.11622-.17407c.00523-.08125.02555-.09316.05165-.03031a.09019.09019,0,0,0,.1247.05852c.05105-.02827.03976-.096-.0301-.18049-.09082-.11-.09-.12141.00429-.06091.09192.05894.10262.03316.05157-.12386a.61748.61748,0,0,0-.15908-.26382c-.0602-.04165-.02583-.07976.09464-.10474.19766-.04094.24278-.11027.1396-.2142-.09833-.099-.07945-.46785.0237-.4629a.3.3,0,0,0,.20187-.10425c.07638-.08446.06865-.12068-.03437-.16034-.07729-.02971-.13314-.08877-.13314-.14076,0-.04887.03907-.06542.08591-.0365.04625.02859.08785.0043.09012-.05254a2.12984,2.12984,0,0,1,.043-.28262c.02108-.09658.00349-.19923-.03865-.22588-.12666-.08,0-.46933.16305-.50125s.29707-.49545.14575-.50343c-.04842-.00255-.00557-.08158.09855-.18173.12812-.1232.15547-.20583.08994-.27156-.06621-.06634-.04708-.12455.06425-.19559a1.03788,1.03788,0,0,0,.2652-.278c.095-.15714.0855-.17884-.0855-.19557-.10266-.01-.14263-.035-.08557-.05347a.35822.35822,0,0,1,.16679-.01752c.11115.03185.35991-.41885.26492-.47974-.0568-.03647-.02135-.093.08966-.14318a.30459.30459,0,0,0,.18347-.24092c0-.0892.04274-.15567.098-.15245.05115.003.07357-.019.04688-.04591-.02841-.0287.03967-.20848.15314-.40442.22673-.39162.21357-.49162-.06791-.51713-.12646-.01146-.06819-.05468.17884-.13258.28072-.08859.37657-.16556.41243-.33113a.34164.34164,0,0,1,.16559-.24868.423.423,0,0,0,.19942-.23425c.05054-.12624.12633-.18168.20345-.14891.07786.03314.14294-.00712.17784-.10994.02953-.087.09228-.15976.13538-.157.04689.003.08037-.03521.08037-.09178a.52339.52339,0,0,1,.16486-.25178.72965.72965,0,0,0,.19-.27412.435.435,0,0,1,.17723-.21831.75907.75907,0,0,0,.23184-.287c.04337-.10188.13792-.18422.20633-.17962.15148.01017.54648-.31239.54648-.44607,0-.05607.05452-.07258.13008-.0394.099.04358.117.01607.0755-.11545-.04506-.14262-.021-.16547.13834-.1312.14014.03012.22354-.0167.30572-.17169.06164-.11623.16429-.20945.22585-.20513.06077.00426.13793-.08667.16717-.197.03549-.134.09619-.1866.17535-.15208.078.034.121.00858.121-.07164,0-.07219.049-.10293.11674-.07336.14377.06285.29994-.0693.29994-.25357a.11564.11564,0,0,1,.14567-.11367c.08316.01286.13663-.021.12472-.0791-.01206-.059.03327-.09767.10807-.09223a.176.176,0,0,0,.17445-.10732.18246.18246,0,0,1,.166-.10788c.06815.005.16517-.09179.22388-.2234s.1287-.20773.16153-.17585c.03249.03148.058.01228.058-.04366,0-.05619.058-.07442.13243-.0417.15711.06905.61134-.11675.61134-.24988,0-.05875.10722-.156.24732-.22449s.247-.15344.247-.19631c0-.04326.06172-.07269.144-.06864a1.187,1.187,0,0,0,.46823-.20278,1.2135,1.2135,0,0,1,.43031-.20122c.05731.00446.10643-.02836.10643-.07114,0-.04544.0491-.07562.11453-.07051a.15109.15109,0,0,0,.1439-.05225,1.90216,1.90216,0,0,1,.89228-.34212,2.63139,2.63139,0,0,0,.60138-.07887c.22709-.05275.44632-.09785.49845-.10253a.54357.54357,0,0,0,.21844-.097.41156.41156,0,0,1,.27878-.05259.38542.38542,0,0,0,.26633-.04692,1.43521,1.43521,0,0,1,.70042-.12113c.05626.00095.09644-.0295.09644-.07307,0-.03883-.05222-.06011-.1085-.04426a.21438.21438,0,0,1-.193-.07873c-.06873-.0889.1166-.09211.99118-.01747.97446.08321,1.07007.07872,1.07007-.04969,0-.07838.0354-.13818.0796-.13454.04624.00381.0796.05749.0796.128,0,.08836.03582.10516.13129.0617a.43288.43288,0,0,1,.26626-.01338q.135.04631.17832-.11444c.04957-.18366.432-.19976.50006-.02133ZM20.764,8.224c0,.02133-.0324.0519-.081.07643-.0463.02335-.081.00532-.081-.04213a.07287.07287,0,0,1,.081-.07644c.0486.00393.081.02081.081.04214ZM33.24666,9.50666a.06586.06586,0,0,1-.07614.0705.07935.07935,0,0,1-.07616-.08272.06585.06585,0,0,1,.07616-.07054.07935.07935,0,0,1,.07614.08276Zm-22.945-.78852c0,.04861-.01533.07986-.0383.07808s-.05877-.037-.08945-.088c-.0292-.0486-.01277-.082.03836-.078a.09174.09174,0,0,1,.08939.088Zm-.51152.27669c0,.04012-.07683.04881-.17078.01926s-.17089-.06836-.17089-.08623.07689-.02653.17089-.01928.17078.04608.17078.08625ZM7.90383,11.05815c0,.04344-.0905.075-.19393.06759-.15521-.01112-.16812-.02783-.06461-.08343.16378-.08808.25854-.08227.25854.01584Zm-.12062.37448c-.08518.07454-.15733-.05194-.08731-.153.05387-.07766.078-.07691.10454.00335a.15357.15357,0,0,1-.01723.14961Zm.29275-.16252c0,.022-.03438.05376-.08605.07939-.04917.02446-.08608.0061-.08608-.04278a.07711.07711,0,0,1,.08608-.07943c.05167.00369.08605.02079.08605.04282Zm33.6429,2.936c.01558.04782-.0673.07775-.19133.0691-.22638-.01578-.29707-.1021-.13142-.16056.13142-.04636.29274-.00064.32275.09146ZM7.98991,12.44955c0,.04888-.01548.0804-.03876.07881s-.05942-.03665-.0904-.08766c-.02956-.04864-.01293-.08241.03874-.07886a.09154.09154,0,0,1,.09042.08771Zm3.20393,1.43254c.029.04812.01271.08171-.03818.07838a.09009.09009,0,0,1-.089-.08673c0-.04856.01524-.0799.03816-.07839s.05852.03619.08907.08674ZM6.90239,13.6698c.02474.04131-.00863.06888-.07789.06436s-.10265-.03647-.07792-.07456c.026-.03995.05716-.06569.07792-.06432s.05191.03118.07789.07452ZM42.3941,16.16972c0,.11974-.0218.1408-.07994.07716a.15271.15271,0,0,1-.0311-.16678q.11107-.17988.111.08962ZM11.10477,14.52734a.08731.08731,0,0,1-.12728.0242.085.085,0,0,1-.03393-.12353.08736.08736,0,0,1,.12727-.0242.08509.08509,0,0,1,.03394.12353Zm28.65586,1.83289a.06918.06918,0,0,1-.07734.0704c-.04421-.00283-.05841-.036-.03317-.07749.02655-.04351.05748-.0717.07738-.07042s.03313.0323.03313.07751ZM6.478,15.28974c.02971.04859.013.08258-.039.07939a.09127.09127,0,0,1-.09108-.08741c0-.04906.0156-.08081.03905-.07936s.05984.0364.09107.08738Zm-.21688.6412a.07451.07451,0,0,1-.08682.07663.08568.08568,0,0,1-.08687-.08706.07448.07448,0,0,1,.08687-.07659.08561.08561,0,0,1,.08682.087Zm33.83067,2.333c.02521.04452.011.076-.03309.07336a.08.08,0,0,1-.07721-.0799c0-.04518.01324-.07455.0331-.07337s.05074.03317.0772.07991ZM8.5917,17.328c0,.022-.03437.05419-.08588.08056-.04908.0251-.08591.00729-.08591-.04154a.07826.07826,0,0,1,.08591-.08056c.05151.00295.08588.01954.08588.04154Zm32.49013,2.56445c0,.03684-.0549.08506-.12076.106-.10249.03263-.10669.02216-.02786-.06916.10526-.12188.14862-.13263.14862-.03686Zm4.21858,1.604c-.02488.03958-.0845.00675-.1416-.078-.14027-.208-.1132-.27522.04852-.12054.07161.0685.11569.16247.09308.19849ZM7.38644,19.442c0,.10764-.19784.03056-.24149-.09416-.02187-.06241.01692-.07876.10331-.04361.07773.03161.13818.09189.13818.13777Zm-.12091.30391c0,.08974-.04665.16087-.10366.158-.18162-.00923-.21985-.15913-.06055-.23721.08641-.0424.15749-.078.1599-.08018a1.42329,1.42329,0,0,1,.00431.15942ZM41.66613,22.216c0,.02025-.02915.05031-.07291.07513-.04171.02369-.073.00771-.073-.03733a.07006.07006,0,0,1,.073-.07517c.04376.00216.07291.01712.07291.03737Zm3.75592.28943c0,.03486-.0465.06086-.10375.05806s-.08776-.03258-.068-.0665a.11691.11691,0,0,1,.10379-.058.06575.06575,0,0,1,.068.06646Zm-.50138,4.46c0,.02658-.06456.02916-.14349.00575-.11486-.034-.12709-.06353-.061-.14735.06831-.0867.09307-.08767.14353-.00573a.41619.41619,0,0,1,.061.14733ZM1.34438,25.89815c0,.04968-.016.0822-.04.08134s-.0613-.03531-.0933-.08616c-.0305-.04842-.01334-.08325.04-.08131a.09025.09025,0,0,1,.09332.08613Zm6.26485.23485c.09089.14188-.01634.16446-.13259.02783-.06449-.07572-.0712-.125-.01682-.123a.218.218,0,0,1,.14941.09514Zm34.04142,3.36105c-.00768.10474-.03455.18646-.06108.18566s-.03621.16394-.0219.37442-.00336.37495-.04014.37391c-.05433-.00154-.14979.30351-.25144.80372a.23658.23658,0,0,0,.036.21114c.03829.02581.02192.08425-.03654.13044a.534.534,0,0,0-.1462.2704c-.02214.10272-.07974.32107-.128.48515a2.71323,2.71323,0,0,0-.09515.57266c-.004.15016-.03216.25831-.06227.2391-.02914-.01853-.05493.05145-.05493.14919s-.02407.196-.05129.2094c-.05716.02818-.12767.16662-.52932,1.03938a2.65843,2.65843,0,0,1-.33731.58548.31.31,0,0,0-.11044.15273,6.79559,6.79559,0,0,1-1.10783,1.1304,7.071,7.071,0,0,1-1.74828.87558,3.56807,3.56807,0,0,0-.48633.19378,5.14218,5.14218,0,0,1-1.75317.32329c-.04922-.0502-.0189-.0619.08688-.03357.1133.03035.16236.00657.16236-.07861,0-.06866.03468-.12173.07927-.1213.04525.00045.0598-.03207.03393-.07595-.02546-.04315.00754-.09667.07542-.12228.18259-.06892.12815-.19663-.06032-.14147-.13584.03978-.1489.03078-.07168-.04959.07444-.07748.12446-.07947.23753-.00962.16172.09991.23353.0528.23353-.15292,0-.099.03568-.13113.1129-.10155.0677.0259.11281.00052.11281-.06348,0-.06091.04511-.08863.10525-.06475.12021.04783.21761-.251.10519-.32259-.0503-.03209-.06206-.0182-.03005.03553.02746.046.01667.08772-.02254.08724-.11421-.00141-.16565-.12385-.11244-.26787.028-.07579.07581-.09633.12748-.05487.20276.16289.35568.16814.49719.01734a.31194.31194,0,0,0,.10668-.26462c-.02353-.06112-.00588-.10649.04118-.10583.04531.00063.08237-.06723.08237-.1508s.05051-.1512.11225-.15029c.05954.00089.13325-.08536.157-.1837.03112-.12857.08031-.17081.16067-.138.07465.03058.09718.0161.06348-.04074a.20973.20973,0,0,0-.16061-.08981c-.05979-.001-.1084-.03408-.1084-.07386s.06728-.06592.14949-.05833.14936.04114.14936.07454c0,.1387.19128.05614.2712-.11695.066-.143.06626-.19667.00111-.22372-.049-.0203-.01863-.03765.07081-.04049.18624-.00579.36242-.19012.2923-.30557-.02481-.04086.00558-.09632.0651-.11884a.65829.65829,0,0,0,.22713-.5648c-.0222-.03711.00335-.05933.05537-.04812a.06037.06037,0,0,0,.078-.07411.07944.07944,0,0,1,.0891-.09279c.06941.0014.09311-.03972.06678-.11591a.295.295,0,0,1,.07791-.25177.29668.29668,0,0,0,.07415-.25933c-.03421-.09669,0-.12475.14821-.12147.18965.00419.191.00046.08889-.2512l-.1037-.25559.28133-.0916c.25876-.08426.27975-.113.26615-.36355a1.10236,1.10236,0,0,0-.0776-.37944q-.06285-.10732.05912-.17208a.2347.2347,0,0,0,.12189-.178c0-.1283.08957-.13243.20664-.00961.07023.07367.08848.04382.08848-.14473a.43044.43044,0,0,0-.08479-.29264c-.05166-.03356-.06466-.02063-.03319.033q.05163.08813-.059.04076c-.14764-.06327-.14764-.158,0-.213a.24388.24388,0,0,1,.22864.08029c.15307.15771.191.09813.09749-.15318-.11054-.29717-.09307-.36594.07934-.31254.11779.03651.14407.02072.11043-.06636-.0265-.06859-.00737-.1057.04783-.09277a3.56863,3.56863,0,0,0,.5658-.02473.85858.85858,0,0,0,.76469-.36782c.30483-.33578.41551-.35128.39389-.05548ZM7.96411,28.54972a.18518.18518,0,0,1-.16367.00318c-.07074-.02793-.05173-.04537.05168-.04736.08614-.00165.13917.01925.112.04418Zm-4.4987.14287a.08279.08279,0,0,1-.09236.07963c-.05282-.00157-.06977-.03739-.03957-.08357.03164-.04846.06859-.08033.09234-.07962s.03959.03416.03959.08356ZM8.63459,29.9858a.27624.27624,0,0,1-.219.07547c-.09452-.00254-.16761-.04-.16761-.086,0-.04471.09888-.07874.21914-.07546s.1957.042.16743.086Zm-.864.22927a.22157.22157,0,0,1-.18134.06862c-.11219-.00295-.11653-.02281-.027-.12311.10883-.1219.29317-.07368.20838.05449Zm.13327.15839a.077.077,0,0,1-.08616.07928.08174.08174,0,0,1-.08615-.08378.07686.07686,0,0,1,.08615-.07924.08175.08175,0,0,1,.08616.08374Zm29.61582,3.95845c-.051.08249-.10448.11224-.11882.06609a.14853.14853,0,0,1,.07079-.14687c.14419-.09378.14994-.08411.048.08078ZM10.81193,33.93a.08166.08166,0,0,1-.08922.07937c-.051-.0009-.06739-.0359-.03822-.08165.03056-.04805.06626-.07978.08919-.07937s.03825.03306.03825.08165Zm26.44722.5262a.28123.28123,0,0,1-.18659-.00332c-.05225-.02218-.01117-.03814.09333-.03628s.14547.01929.09326.0396Zm-26.53218-.297c0,.038-.05526.06791-.12325.06674s-.10427-.03266-.0808-.07028a.14656.14656,0,0,1,.1233-.06662.07273.07273,0,0,1,.08075.07016Zm.65329.76714c-.02674.06594-.04547.04778-.05084-.04932-.00442-.08092.01565-.13035.04239-.1044a.16011.16011,0,0,1,.00845.15372Zm12.59718,2.37537a.07383.07383,0,0,1-.07972.07759A.07561.07561,0,0,1,23.818,37.3a.07387.07387,0,0,1,.07977-.07762.07563.07563,0,0,1,.07972.07924Zm1.58792,2.5934c0,.04685-.01424.07806-.03559.078s-.05458-.03147-.08309-.07843c-.0271-.04472-.01184-.07815.03562-.078a.07917.07917,0,0,1,.08306.07841Zm-5.85669.56385c0,.01693-.057.05188-.12212.075s-.12219.00821-.12219-.032.057-.07516.12219-.075.12212.01506.12212.032Z"/><path d="M32.25465,3.89669a.086.086,0,0,0,.08029.08433c.04588.00431.06064-.02722.03441-.07353-.02751-.04869-.05965-.08243-.08028-.08438s-.03442.02747-.03442.07358Z"/><path d="M43.05419,18.63391c.00457.08992.02057.1074.04343.04737a.15975.15975,0,0,0-.00722-.14237c-.02288-.02494-.04.02007-.03621.095Z"/><path d="M28.86062,19.49939a1.60417,1.60417,0,0,0-.49767.33419,1.07082,1.07082,0,0,0-.38935.72714c-.04751.329-.03105.4293.0713.43458.0855.00441.09564.03.0285.07169-.21652.13435-.19435.35547.07688.76679.25161.38157.31617.4256.56825.38765.25571-.03845.27134-.02731.15632.11166-.11441.13823-.109.14793.05207.09237.12242-.04228.25073.00768.402.15653.20783.20448.23315.209.39664.07113a.6058.6058,0,0,1,.24992-.14352.81121.81121,0,0,0,.29678-.22589.5239.5239,0,0,1,.381-.18987c.39352.09716.91745-.76624.80582-1.32677a.56768.56768,0,0,0-.26589-.38086c-.13134-.06554-.19507-.16492-.16864-.26306.08492-.31528-1.47364-.76557-2.164-.62376Zm1.67984.871c.03177.05471-.00939.09373-.094.08925s-.12588-.04789-.09412-.09924c.03389-.05473.07152-.09045.09412-.08924s.06022.04093.094.09923Zm-.32937.59058c0,.0254-.03769.06309-.09421.09407-.05385.02958-.09423.00933-.09423-.04728a.08885.08885,0,0,1,.09423-.09413c.05652.00294.09421.02185.09421.04734Zm-.09421.75881c0,.07541-.04223.1346-.09423.132-.05057-.00253-.09426-.09431-.09426-.19806s.04369-.16493.09426-.132a.259.259,0,0,1,.09423.198Zm.79951-.01153c.03218.05541.01407.09486-.04226.092a.10009.10009,0,0,1-.09864-.09914c0-.05648.01691-.09332.04227-.092s.06481.041.09863.09914Zm-.7053.34153a.089.089,0,0,1-.09891.08935c-.05657-.0028-.07474-.04408-.0424-.09637.0339-.05487.0735-.09065.09892-.08938s.04239.03986.04239.0964Z"/><path d="M18.43071,19.54968c-.36779.04358-.85921.24714-.85921.35619a.74075.74075,0,0,1-.201.272c-.1139.1135-.17983.25347-.15191.32248a.14853.14853,0,0,1-.06164.18c-.09136.04787-.09065.083.00411.19921a.94941.94941,0,0,0,.2833.21694c.16083.07257.15993.07569-.02052.07171-.18061-.004-.27721.22809-.09848.23676a.08966.08966,0,0,1,.08069.09936c-.00228.159-.14366.338-.21211.26836-.03837-.039-.02464-.08971.03288-.12181.07577-.04228.072-.092-.01646-.21569-.06488-.0907-.14011-.13855-.17258-.10971-.09164.08143.0216.42489.21118.64082.09475.10793.1542.15811.12973.10957-.06877-.13659.17639-.19841.365-.09214.18248.10287.13922.24234-.07375.23759-.12393-.00279-.123.0069.00817.08721a.37129.37129,0,0,0,.26213.0529c.16227-.05285.15544.09117-.00821.173-.12455.06222-.12282.07823.01637.15212a1.70213,1.70213,0,0,0,.5028.11015c.26114.02078.3699-.00858.44044-.11879.09368-.14632.09368-.14632.22395.01815a.29873.29873,0,0,0,.35376.119c.12184-.02468.22332-.09739.22332-.16,0-.06327.02909-.09574.0649-.07242.12024.07836.32957-.22962.28131-.41372-.03986-.152-.023-.16778.124-.11519.23126.08273.22662-.05026-.00808-.232l-.17824-.138.20253.06052c.33979.1016.36405.09727.36405-.06485a.33085.33085,0,0,1,.12119-.24279c.106-.07426.09692-.10673-.07272-.26011-.10508-.09505-.22554-.15712-.26278-.13545-.04.02325-.06881-.0113-.06881-.08244s.04245-.1203.10115-.11735q.10116.00509-.02022-.08c-.06471-.04542-.08171-.08315-.03639-.08085.04674.00236.0904-.06651.09708-.153s-.02064-.13928-.06069-.11719c-.13756.07581-.17566-.14258-.04044-.2321.12194-.08077.089-.11667-.29152-.31729a2.81563,2.81563,0,0,0-1.57818-.31112Zm-.17565,1.28109c-.01993.02908-.12673.00921-.23308-.04346s-.17957-.12372-.1596-.155.1269-.0113.23323.04353.17937.12577.15945.15493Zm.95-.1149c0,.04038-.031.06579-.07731.06346a.15156.15156,0,0,1-.11807-.0733c-.02247-.0383.01223-.06675.07735-.06346s.118.03616.118.0733Zm-1.38772.9593c0,.04771-.03277.05884-.08193.02786a.1666.1666,0,0,1-.082-.13109c0-.04773.03281-.05888.082-.02788a.16663.16663,0,0,1,.08193.13111Zm.30283.05423a.17184.17184,0,0,1-.15546.00052c-.06723-.02837-.0491-.045.04911-.04534.08179-.00026.13215.02094.10635.04482Zm1.81578.11839a.07165.07165,0,0,1-.0811.07523.08006.08006,0,0,1-.08113-.083.07165.07165,0,0,1,.08113-.07519.08006.08006,0,0,1,.0811.08293Zm-.487.49134c0,.06653-.04874.09119-.12194.06165-.06506-.02625-.10064-.08149-.07624-.11837.07049-.10654.19818-.06994.19818.05672Zm-1.03051.10685q.04492.11715-.0776.06612c-.13074-.05451-.16091-.19221-.04084-.18665.04058.00189.09369.05592.11844.12053Z"/><path d="M23.504,24.0368a.61253.61253,0,0,0-.31492.16666.43651.43651,0,0,1-.21153.14406.36453.36453,0,0,0-.28486.36507.26042.26042,0,0,1-.07488.24042.21286.21286,0,0,0-.068.22116.20551.20551,0,0,1-.09608.22014c-.13314.09184-.13215.09953.02.15424.43193.15514.59964.23955.59964.3017a.07292.07292,0,0,1-.08385.06742c-.04573-.00174-.11292.07421-.1478.16711l-.06395.17033-.1-.18437c-.06523-.12032-.0694-.16554-.012-.13.048.02967.088.01868.088-.02415,0-.11781-.27328-.25352-.38416-.1907-.07154.04055-.05515.09927.06406.22961.10427.11392.12941.19237.07208.22495-.12362.07013.208.28748.35992.236.0719-.0244.12783-.00043.12783.05476,0,.05494.02107.07988.0479.0567a.48883.48883,0,0,1,.28326.04564c.19923.07373.25209.06546.34654-.05391a.6205.6205,0,0,0,.11538-.313.2902.2902,0,0,1,.07557-.21248.7995.7995,0,0,0,.12323-.37115c.03889-.249.09974-.351.24623-.41291.15869-.06709.19437-.06064.19437.03514,0,.09955.01985.10212.13082.017.11883-.09117.1257-.08489.07528.06945-.04954.15158-.03172.169.16629.16286.14243-.00448.21446.02765.20176.0899-.01107.05423.01675.09826.06325.10007.04566.00178.06166.0727.03557.15756-.04666.15179-.04349.15227.19355.027.13421-.07094.241-.15485.2414-.18959.00106-.09559.22377-.05366.26127.04915.02885.079.06115.08121.13986.00932.08314-.0759.07871-.09432-.02361-.09832-.14961-.00584-.27121-.26681-.14175-.30436.12857-.03723-.70233-.86106-1.02672-1.01748a2.11616,2.11616,0,0,0-1.239-.28078Zm1.47636,1.02736c0,.03749-.05535.0681-.11868.06555-.12662-.00509-.16227-.09642-.07123-.18261.065-.06148.18991.01555.18991.11706Zm-1.157.5407c.02809.07157.015.09923-.03274.06921a.15726.15726,0,0,1-.07958-.12062c0-.111.05932-.08387.11232.05141Z"/><path d="M25.26064,26.1603a.075.075,0,0,0,.024.11016c.03578.02216.0671-.01309.0671-.07553,0-.13262-.02377-.14163-.09109-.03463Z"/><path d="M27.52667,28.91551c-.09372.06361-.18415.09218-.211.06666-.05482-.05226-.16425.032-.88535.68167a7.70735,7.70735,0,0,1-.93659.73283c-.19731.116-.35529.24358-.35529.287,0,.04258-.0988.11092-.21743.15044a3.96627,3.96627,0,0,0-.3999.16153c-.14819.07248-.23.06359-.43644-.0474a9.57336,9.57336,0,0,0-1.44291-.64508.15853.15853,0,0,1-.14-.07058,2.524,2.524,0,0,0-.56117-.32626,2.70289,2.70289,0,0,1-.5909-.34762.19689.19689,0,0,0-.2054-.04539c-.104.02994-.17718-.0091-.24192-.12937-.07085-.13157-.14528-.16364-.31491-.13555a.42347.42347,0,0,1-.31539-.05677c-.04857-.04888-.12325-.06432-.15612-.03233-.05824.05663.44322.53433.56442.53781.03543.001.70956.32572,1.48888.717a11.68727,11.68727,0,0,0,2.58955,1.14786,1.54758,1.54758,0,0,0,1.05675-.32257.44523.44523,0,0,1,.22967-.14218.72673.72673,0,0,0,.30659-.18677,2.15056,2.15056,0,0,1,.38454-.27378,7.86763,7.86763,0,0,0,.78251-.57663c.48364-.38994.5835-.50463.48754-.55985a.22357.22357,0,0,0-.19879-.02531c-.04529.02573-.05837-.00557-.03117-.0746s.07621-.11789.117-.11666c.03741.00113.07014-.05215.07014-.11419a.12215.12215,0,0,0-.113-.11975.14893.14893,0,0,1-.1365-.12445c-.02119-.10944-.039-.11036-.18735-.00969Z"/></svg>