<svg xmlns="http://www.w3.org/2000/svg" viewBox="0 0 190 48"><defs><style>.a{fill:#cead00;}.b{fill:#fff;stroke:#fff;stroke-linecap:round;stroke-linejoin:round;stroke-width:0.43333px;}.c{fill:#6a523f;}</style></defs><title>icn_logo</title><path class="a" d="M182.7935,11.26092c-6.04721-3.74142-3.76689-7.97882-8.78134-9.30225-3.43335-.60539-13.54378,4.10053-17.58188,16.94994-1.607-6.65269-4.119-9.25651-10.23286-10.52757-6.9622-1.44747-6.26873-6.20927-11.43341-5.73787-3.73227.65813-12.74079,9.90728-10.37312,25.57657,1.40236,9.27964,8.17074,17.13622,13.85167,17.30743a9.08259,9.08259,0,0,0,4.77372.4244,7.611,7.611,0,0,0,2.60894-.94351c.70745-.12476,1.2489-.11077,1.90694-.22682a7.3118,7.3118,0,0,0,2.00955-.69589,13.60062,13.60062,0,0,0,7.0222-8.00788c1.36057,3.60573,3.51953,6.3604,6.04981,7.36867a9.08208,9.08208,0,0,0,4.34071,2.03152,7.61318,7.61318,0,0,0,2.77423.00565c.70746.12476,1.21151.32315,1.86955.43911a7.31138,7.31138,0,0,0,2.12641.03337c8.76842-.94352,12.99057-8.89076,14.60056-18.02153C189.93,18.83309,188.89515,15.03588,182.7935,11.26092Z"/><path class="b" d="M152.03774,29.98846a20.9445,20.9445,0,0,1-10.26046-3.6229v3.574h4.98437v.46257h-4.98437V35.289h-1.06975v-4.8869h-5.057v-.46257h5.057V25.539a11.50373,11.50373,0,0,1-2.62581-3.47686,17.5868,17.5868,0,0,1-7.17243,8.50979l-.146-.19423a19.03311,19.03311,0,0,0,7.00229-11.25719H131.274v-.48632h9.43351V13.62568h1.06975v5.00847h9.65256v.48632h-9.65256v6.10268a23.69387,23.69387,0,0,0,10.309,4.54661Zm-11.33021-10.868h-1.79922a17.51123,17.51123,0,0,1-.48632,1.94526,12.08993,12.08993,0,0,0,2.28554,3.18479Z"/><path class="b" d="M171.05186,19.29025a10.90246,10.90246,0,0,1-4.66819-4.133,13.12688,13.12688,0,0,1-5.20307,5.5919l-.12158-.16978a15.52782,15.52782,0,0,0,4.81424-6.51633h.89961a13.38531,13.38531,0,0,0,4.352,4.984Zm-8.82561,6.34583v-.43739h3.79269v-3.161H163.0773v-.4374h2.94164V19.16867h.97263v2.43157H169.958v.4374h-2.96645v3.161h3.89016v.43739Zm.97263,8.14506V28.16478H169.958v5.61636Zm5.71349-5.17825h-4.6682v4.74086h4.6682Zm10.86835,5.20271a4.508,4.508,0,0,0,1.02119-3.16033V28.38348H177.3736v6.15159h-.87551V28.38348h-3.42795v5.1063h-.89961V21.06573h4.32756V18.391h-5.25163v-.4374h5.25163V13.65014h.87551V17.9536h1.19133a6.54121,6.54121,0,0,1,3.47686-3.81786v1.02155a6.07723,6.07723,0,0,0-3.18514,2.79631h3.647v.4374h-5.13v2.67473h4.352v9.57954a3.99749,3.99749,0,0,1-1.79922,3.30637Zm-3.28263-12.30248h-3.42795v3.08767h3.42795Zm0,3.52507h-3.42795v2.91789h3.42795Zm4.30382-3.52507H177.3736v3.08767h3.42831Zm0,3.52507H177.3736v2.91789h3.42831Z"/><path class="c" d="M46.8015,19.66378a3.1576,3.1576,0,0,0-2.57541-1.5445,32.05265,32.05265,0,0,1-8.79042-2.582c-2.39158-1.10549-3.94883-2.14791-7.91125-4.96159a6.34891,6.34891,0,0,1,.76626-1.05065c.77739-.763,1.36519-1.39774,1.36519-2.04489a1.07429,1.07429,0,0,0-.02473-.23126c-.16943-.756-1.09975-1.20856-2.86926-1.82768-2.20608-.80973-3.29262-.92082-3.86847-.39384-.535.49114-.39651,1.33818-.16651,2.18277a8.67549,8.67549,0,0,1-.73207,2.65413L21.379,11.64865c-2.51437,8.187-11.17416,17.51-18.641,23.1179C1.17655,35.938.79321,36.431,1.095,36.87289c.16486.24113.47156.69205,3.45047-1.15129A107.11209,107.11209,0,0,0,18.23729,24.11549a5.78293,5.78293,0,0,0,4.56546.17639c.05276.59936.07585,1.20856.07585,1.84169,0,.20733,0,.41757-.00249.63106v.36358c-1.479.66154-3.26,1.36972-4.83421,1.9175-1.57873.51279-2.30336.8446-2.30336,1.40931,0,.01443,0,.03254.00165.04824.03709.51934.58205.7782,2.24566,1.06674.26917.04162,1.06387.1517,4.84657-.98224-.00494.974-.03546,7.52374-.03874,8.06042-3.03376.99216-8.46648,2.54573-9.65279,2.7848l-.49051.0973c-1.48224.29347-2.09558.41465-2.22.94842a.70493.70493,0,0,0-.01815.15293c0,.46083.51274.87591,1.48717,1.62283,1.49795,1.16239,1.79965,1.171,4.04777.115,3.29835-1.51478,11.032-5.065,19.599-5.68538.756-.05483,2.2588.00122,3.06714.03052l.44146.01646c1.805.02845,2.74272-.28976,2.9587-1.00453.2457-.81779-.61333-1.84-2.62648-3.12935-1.9299-1.29842-2.99335-.92415-5.03165-.02266a55.04524,55.04524,0,0,1-7.27977,2.66193c.01157-.2844.04533-1.00739.08573-1.9134a4.50382,4.50382,0,0,0,1.91673-.73781c2.30249-1.24322,4.78887-2.404,5.55758-2.68878l.00455-.00122c.7024-.26794,1.43691-.6352,1.55645-1.32109.108-.63229-.33307-1.33139-1.43113-2.26623-1.23988-1.054-2.0453-1.41589-2.69616-1.20691a1.7462,1.7462,0,0,0-.98722,1.37013c-.07336.32151-.51524,1.573-3.34124,4.64545-.19661.20978-.366.39815-.50616.56758.0956-2.14631.19867-4.4818.21142-4.75384,1.62077-.64836,3.17928-1.36764,4.23323-1.86064a3.18515,3.18515,0,0,0,1.974-2.24976V24.756a1.11127,1.11127,0,0,0-.533-.95957c-.83265-.608-2.75015-.24692-4.03907.44433.01481-.00739-.0664.03216-.0664.03216-.39528.19374-.85691.42293-1.326.66737a1.76593,1.76593,0,0,1,.19868-.53753,1.90853,1.90853,0,0,0,.36852-.98844,1.2285,1.2285,0,0,0-.38291-.82274,24.26666,24.26666,0,0,0,2.68873-1.253,3.93332,3.93332,0,0,0,1.84292-1.49546c.406.31.88744.67517.88744.67517a14.12616,14.12616,0,0,1,1.82932,1.4868c1.77,1.82354,3.27037.92948,4.72167.06471,1.22258-.72629,2.48432-1.48018,4.218-1.08489,1.21349.27617,2.124.15951,2.55847-.32936a.94146.94146,0,0,0,.24608-.63562A1.068,1.068,0,0,0,46.8015,19.66378ZM17.8935,23.8624l.00371-.00371c.03174.02638.068.05027.09687.075A.41491.41491,0,0,1,17.8935,23.8624Zm10.81926-5.67922c-1.96409.92332-5.49329,2.32558-8.07241,3.34947l-.26587.10514a60.82831,60.82831,0,0,0,5.34906-8.039c1.25555,1.3289,2.791,2.7897,4.26084,4.14874A9.87833,9.87833,0,0,0,28.71276,18.18318ZM18.39308,38.2117a2.13519,2.13519,0,0,0,2.43937.29677,2.80071,2.80071,0,0,0,.96619-2.99542c-.38789-2.162-1.41918-2.88247-3.67595-2.56878.014-.00126-.77989.07416-.77989.07416-.89693.08-1.34747.12-1.56716.51322-.2275.40765-.00452.85489.48641,1.83177l.02144.04288A6.11568,6.11568,0,0,0,18.39308,38.2117Z"/><path class="c" d="M103.7832,16.52367c.38249.45674,1.211.27743,2.46-.53171l2.67434-1.75676a29.99317,29.99317,0,0,1,3.94384-2.39361c.859-.38626,1.9909-.99959,1.9909-1.92662V9.87171c-.03216-.81986-.93733-1.52184-2.84993-2.20731-1.88618-.67023-3.18295-.69-3.8507-.05976a1.85443,1.85443,0,0,0-.32808,2.01192c.05111.21062-.02309,1.2473-3.3182,4.91334C103.67354,15.43135,103.427,16.10242,103.7832,16.52367ZM93.499,19.61267a2.18091,2.18091,0,0,0,2.22089.17145,2.894,2.894,0,0,0,1.16649-2.63762c0-2.58938-1.197-3.05393-4.79669-3.13556-1.42167-.02144-2.17513-.007-2.46122.521a.74436.74436,0,0,0-.09151.36354,3.859,3.859,0,0,0,.85451,1.74524A8.95117,8.95117,0,0,0,93.499,19.61267Zm27.26085,12.37241c-5.0601-.6731-8.72614-3.25593-13.36415-6.52419-1.58283-1.115-3.22171-2.26872-5.08813-3.47686v-.08986a69.353,69.353,0,0,1,8.05181-1.71722c2.68337-.17394,3.95292-.62819,4.13181-1.47316a.86117.86117,0,0,0,.02228-.19459c0-.65537-.6991-1.33012-2.17311-2.1038-1.58612-.8446-2.291-.67517-9.41367,2.279-.19125.0845-.41386.16694-.65909.25266.00123-.847.00574-1.493.04-1.92784l.188-2.40471c.21763-2.85938.33472-4.43562.77-5.30947a4.79613,4.79613,0,0,0,.62406-1.90889,1.33469,1.33469,0,0,0-.16487-.66487c-.36354-.64794-1.26706-.97565-3.21921-1.16588-2.88247-.29513-4.46078.007-4.82432.9231a1.03738,1.03738,0,0,0-.07421.38828c0,.60388.5066,1.29593,1.51027,2.06717.77575.58159.94062,3.17924.94062,6.19652,0,.75432-.00987,1.53543-.02389,2.31734,0,.00743-.03052,2.45917-.0379,2.85361-3.73036,1.13849-8.17054,2.41176-9.668,2.70646-.00456.00126-.78112.16119-.78112.16119-1.5548.31657-2.02386.41052-2.11621.89364a.62178.62178,0,0,0-.01153.12119c0,.38663.399.64836,1.25305,1.20484l.37634.24688c1.98059,1.30378,2.556,1.15415,3.69617.39284a8.44472,8.44472,0,0,1,1.50284-.83882,11.27461,11.27461,0,0,1,1.14672-.36151,20.00928,20.00928,0,0,0,2.63475-.892c-3.65865,5.36017-8.55549,11.86418-15.79858,15.75076-1.65867.89157-2.05644,1.40432-2.05644,1.76213a.52885.52885,0,0,0,.06474.24687c.1249.24773.38744.76588,3.08774-.521,4.18912-2.09933,13.15846-7.12271,16.43913-12.96886-.08864,1.48924-.13562,3.06177-.17478,4.44879a28.64014,28.64014,0,0,1-.27,4.30288,7.88692,7.88692,0,0,0-.72338,2.84457,5.463,5.463,0,0,0,.73,2.49048c.9843,1.93155,2.103,2.09393,2.68088,2.01892,1.06678-.13848,1.92412-1.22873,2.28973-2.91793a11.75952,11.75952,0,0,0,.34995-3.21921c0-.52267-.01566-1.12283-.04778-1.82932-.01485-.33223-.02021-.7292-.02021-1.176,0-.54529.00785-1.16732.01772-1.8392.00988-.79264.01938-1.629.01938-2.46739a40.83314,40.83314,0,0,0-.23042-4.89439c2.35938,3.54856,5.28351,7.72988,6.35519,8.66472,3.94225,3.63433,5.05022,3.1158,6.81522,1.79594a7.95151,7.95151,0,0,1,5.075-1.84579c1.21759-.047,2.67679-.28774,2.72293-1.16445V33.38C123.355,32.70887,122.45889,32.22829,120.75982,31.98508Z"/><path class="c" d="M50.13531,17.65144c1.96781,1.13765,2.4979.97979,4.6776.04411l.12612-.05441,1.53914-.69906c.54242-.25312,1.0989-.50866,1.65454-.74857.01486.09851.03216.20775.03216.20775a3.42509,3.42509,0,0,0,1.72874,2.10094,1.19851,1.19851,0,0,0,1.01854-.01566,2.37518,2.37518,0,0,0,1.1867-2.23v.00249c0-.00456-.00659-.11789-.00659-.11789s-.04824-1.03707-.06513-1.42741c.61992-.25929,1.15124-.512,1.84579-.85781.92331-.45176,1.38993-.9093,1.38993-1.35815a.66441.66441,0,0,0-.02967-.19416c-.14427-.479-.72793-.65828-1.73453-.53048a11.0303,11.0303,0,0,0-1.43445.28854,6.38128,6.38128,0,0,1,.15127-.89984,4.70773,4.70773,0,0,0,.25186-1.29222,1.31539,1.31539,0,0,0-.26131-.84c-.49009-.6249-1.54408-.79432-4.178-.66529-2.10216.0845-3.04033.39321-3.23817,1.06923a.84007.84007,0,0,0-.0338.23535c0,.64221.73329,1.24731,1.474,1.763a4.35339,4.35339,0,0,1,1.13106,1.97646c-2.34127.60181-4.46572.98473-6.1858,1.28973l-.71763.127c-1.16323.16449-2.00741.32935-2.13311.93361a.69185.69185,0,0,0-.01443.13933C48.31012,16.42515,48.94367,16.91735,50.13531,17.65144Z"/><path class="c" d="M80.52517,20.03024c-1.77492-.95468-2.70815-.88626-5.873.44226.007-.00329-1.93691.688-1.93691.688l-.47236.16406a2.46617,2.46617,0,0,1,.12532-.60016,4.14814,4.14814,0,0,0,.31656-1.2902,1.03189,1.03189,0,0,0-.1587-.577,1.22526,1.22526,0,0,0-.64841-.47447,23.95433,23.95433,0,0,1,2.39652-.44061c1.81-.2292,2.9414-.88,3.02467-1.742.00249-.03131.00494-.06512.00494-.10054,0-.40313-.23987-1.05483-1.59848-1.50824-1.46823-.53955-2.79012-.19825-5.11658.88706a11.90546,11.90546,0,0,0,1.93734-2.55645,25.85126,25.85126,0,0,1,6.50646-1.22954h.00207c2.22216-.08286,2.70359-.87925,2.79219-1.34709a1.01391,1.01391,0,0,0,.01979-.1999c0-.49874-.34129-1.291-2.10178-2.06633-1.24524-.57336-2.075-.338-4.71179.89981-.155.08078-.33429.162-.533.24527.15-.19.29681-.38169.47155-.56678A2.11915,2.11915,0,0,0,75.566,7.2798a1.57923,1.57923,0,0,0-.094-.53255c-.23333-.63228-.98435-1.45586-3.24808-1.792-2.22174-.278-3.09888-.1801-3.4872.38478a.95523.95523,0,0,0-.16157.55525,3.1888,3.1888,0,0,0,.47611,1.38989,7.46914,7.46914,0,0,1,.3516,2.48347,6.56964,6.56964,0,0,1-.14841,1.41547c-2.737.89491-3.09064,1.5-3.09064,1.8376a.70813.70813,0,0,0,.02228.16073c.09852.45425.57953.72092,2.39442.56471-.18424.56635-.42783,1.30129-.42783,1.30129A3.43681,3.43681,0,0,0,67.898,16.1597a1.0735,1.0735,0,0,0,.08779.44767,56.03659,56.03659,0,0,1-7.19771,2.16606c-1.34705.26836-2.05274.43323-2.136.99959-.073.48721.38786.8318,1.26334,1.29842,1.44721.78069,1.82317.67888,4.326-.35038.71928-.29309,1.64462-.59729,2.62112-.90807a7.93678,7.93678,0,0,1,.68838,3.068c-.15212.04655-.41508.12818-.70446.21556L66.844,23.08l-4.30414,1.33346c-.03791.01114-.07666.02186-.113.03423-.7411.22214-1.47316.4369-2.16813.63355a9.6441,9.6441,0,0,1,.826-1.197,2.06429,2.06429,0,0,0,.46168-1.12443,1.0579,1.0579,0,0,0-.07091-.38c-.22341-.57792-.93319-.96413-2.37423-1.29555-1.68793-.40314-2.58773-.36806-3.00324.122a1.42635,1.42635,0,0,0-.02144,1.44805c.78648,1.74356,1.16323,2.64049-.09644,3.60011-1.45671.38334-2.657.67762-3.14421.7679l-.49178.08944c-1.48675.26629-2.10178.37675-2.23655.90846a.62872.62872,0,0,0-.01979.15212c-.00866.46206.49671.88621,1.4567,1.65,1.47646,1.18754,1.77944,1.20113,4.04486.18673,1.57295-.68716,4.1516-1.81324,7.33624-2.859-1.98845,3.307-9.227,11.36459-17.01908,15.59783-1.5754.857-1.95506,1.36026-1.95506,1.71392a.56368.56368,0,0,0,.0631.2506c.14672.29883.53706.60839,2.22955-.14056,6.84118-3.03045,16.75565-10.11151,21.52063-16.301a62.54555,62.54555,0,0,1-.38291,7.20021c-.15457,1.36355-2.664,1.21844-5.56918,1.05479-1.57211-.04161-2.29012.52926-2.30992,1.11254-.01692.47814.41344,1.00862,1.67185,1.06345,3.64628.15828,4.23078,1.732,4.70065,2.99664l.27908.678a1.58472,1.58472,0,0,0,1.12942.98887c.68712.11008,1.49-.35489,2.68625-1.55522a6.48043,6.48043,0,0,0,2.305-5.24844c0-.07749,0-.15621-.00249-.237-.05563-1.46532-.1113-5.90052-.1113-9.07567,0-1.11456.00658-2.05353.02309-2.67472,2.3866-.4897,4.73446-.87756,5.68744-.97443,2.36437-.07872,3.79055-.662,4.01932-1.64179a1.16516,1.16516,0,0,0,.02845-.25266C81.91961,21.27548,81.67477,20.639,80.52517,20.03024Z"/><path class="c" d="M122.56081,8.95147a3.13683,3.13683,0,0,0-.21842-.63621,2.19177,2.19177,0,0,0-.23169-.44868.51057.51057,0,0,0-.2135-.18179.592.592,0,0,0-.21931-.039H121.02v.8584a2.67013,2.67013,0,0,0,.03052.44724h-.41221a2.88152,2.88152,0,0,0,.02972-.44724V6.46593a3.29539,3.29539,0,0,0-.02972-.44889c.122.0087.2663.01258.43365.01115h.85654a.939.939,0,0,1,.67023.21661.70021.70021,0,0,1,.19949.5336.72814.72814,0,0,1-.21514.55872.68739.68739,0,0,1-.25642.15372c-.042.01385-.09316.02786-.1533.04268a.41772.41772,0,0,1,.1533.0837,1.14078,1.14078,0,0,1,.23.33344q.136.265.29677.641.115.25566.1748.35983ZM121.02,7.33813h.85988a.56171.56171,0,0,0,.41217-.156.49714.49714,0,0,0,.136-.36912.46629.46629,0,0,0-.12118-.34336.54811.54811,0,0,0-.404-.13419H121.02Z"/><path class="c" d="M119.25916,7.42964a2.49542,2.49542,0,1,0,2.49622-2.49542A2.49836,2.49836,0,0,0,119.25916,7.42964Zm.28521,0a2.21019,2.21019,0,1,1,2.211,2.21021A2.21289,2.21289,0,0,1,119.54437,7.42964Z"/></svg>