<svg xmlns="http://www.w3.org/2000/svg" viewBox="0 0 190 54"><defs><style>.a{fill:#cead00;}.b{fill:#fff;stroke:#fff;stroke-linecap:round;stroke-linejoin:round;stroke-width:0.43333px;}.c{fill:#6a523f;}</style></defs><title>icn_logo</title><path class="a" d="M182.7935,16.92747c-6.04721-3.81042-3.76689-8.126-8.78134-9.4738-3.43335-.61656-13.54378,4.17615-17.58188,17.26253-1.607-6.77538-4.119-9.42722-10.23286-10.72172-6.9622-1.47417-6.26873-6.32378-11.43341-5.84369-3.73227.67027-12.74079,10.09-10.37312,26.04825,1.40236,9.45078,8.17074,17.45224,13.85167,17.62662a8.92808,8.92808,0,0,0,4.77372.43223,7.5238,7.5238,0,0,0,2.60894-.96092c.70745-.12706,1.2489-.11281,1.90694-.231a7.22143,7.22143,0,0,0,2.00955-.70872,13.77738,13.77738,0,0,0,7.0222-8.15555c1.36057,3.67222,3.51953,6.47769,6.04981,7.50456a9.01121,9.01121,0,0,0,4.34071,2.069,7.47759,7.47759,0,0,0,2.77423.00576c.70746.12706,1.21151.3291,1.86955.44721a7.18067,7.18067,0,0,0,2.12641.034c8.76842-.96092,12.99057-9.05473,14.60056-18.35388C189.93,24.63929,188.89515,20.77205,182.7935,16.92747Z"/><path class="b" d="M152.03774,36.00038a20.70843,20.70843,0,0,1-10.26046-3.68972v3.6399h4.98437v.47111h-4.98437v4.977h-1.06975v-4.977h-5.057v-.47111h5.057V31.46883a11.69761,11.69761,0,0,1-2.62581-3.541,17.83009,17.83009,0,0,1-7.17243,8.66673l-.146-.19782A19.43791,19.43791,0,0,0,137.76554,24.932H131.274v-.49528h9.43351V19.33584h1.06975v5.10084h9.65256V24.932h-9.65256v6.21523a23.4857,23.4857,0,0,0,10.309,4.63046ZM140.70753,24.932h-1.79922a18.10449,18.10449,0,0,1-.48632,1.98114,12.31005,12.31005,0,0,0,2.28554,3.24352Z"/><path class="b" d="M171.05186,25.10487a10.97058,10.97058,0,0,1-4.66819-4.20918,13.27857,13.27857,0,0,1-5.20307,5.695l-.12158-.17291a15.80146,15.80146,0,0,0,4.81424-6.6365h.89961a13.55905,13.55905,0,0,0,4.352,5.07592Zm-8.82561,6.46287v-.44546h3.79269V27.90293H163.0773v-.44546h2.94164V24.98105h.97263v2.47642H169.958v.44546h-2.96645v3.21935h3.89016v.44546Zm.97263,8.29527V34.14307H169.958V39.863Zm5.71349-5.27375h-4.6682v4.82829h4.6682Zm10.86835,5.29866a4.64725,4.64725,0,0,0,1.02119-3.21861V34.3658H177.3736v6.265h-.87551v-6.265h-3.42795v5.20048h-.89961V26.9131h4.32756V24.189h-5.25163v-.44546h5.25163V19.36075h.87551v4.38283h1.19133a6.61663,6.61663,0,0,1,3.47686-3.88827v1.04038a6.10961,6.10961,0,0,0-3.18514,2.84789h3.647V24.189h-5.13V26.9131h4.352v9.75621a4.09207,4.09207,0,0,1-1.79922,3.36734Zm-3.28263-12.52936h-3.42795v3.14461h3.42795Zm0,3.59007h-3.42795v2.97171h3.42795Zm4.30382-3.59007H177.3736v3.14461h3.42831Zm0,3.59007H177.3736v2.97171h3.42831Z"/><path class="c" d="M46.8015,25.48529a3.15312,3.15312,0,0,0-2.57541-1.573,31.62482,31.62482,0,0,1-8.79042-2.6296c-2.39158-1.12588-3.94883-2.18753-7.91125-5.05309a6.45844,6.45844,0,0,1,.76626-1.07c.77739-.777,1.36519-1.42351,1.36519-2.08259a1.11352,1.11352,0,0,0-.02473-.23553c-.16943-.7699-1.09975-1.23085-2.86926-1.86138-2.20608-.82466-3.29262-.93781-3.86847-.40111-.535.50019-.39651,1.36286-.16651,2.223a8.96491,8.96491,0,0,1-.73207,2.70307L21.379,17.32235c-2.51437,8.338-11.17416,17.83293-18.641,23.54424C1.17655,42.05965.79321,42.56174,1.095,43.01177c.16486.24559.47156.70482,3.45047-1.17252A107.63024,107.63024,0,0,0,18.23729,30.0191a5.68807,5.68807,0,0,0,4.56546.17964c.05276.61042.07585,1.23085.07585,1.87566,0,.21115,0,.42527-.00249.6427v.37029c-1.479.67373-3.26,1.395-4.83421,1.95286-1.57873.52225-2.30336.86017-2.30336,1.43529,0,.0147,0,.03315.00165.04914.03709.52891.58205.79255,2.24566,1.08641.26917.04238,1.06387.15449,4.84657-1.00035-.00494.992-.03546,7.66249-.03874,8.20907-3.03376,1.01045-8.46648,2.59268-9.65279,2.83615l-.49051.09909c-1.48224.29889-2.09558.42231-2.22.96592a.73047.73047,0,0,0-.01815.15574c0,.46933.51274.89207,1.48717,1.65277,1.49795,1.18382,1.79965,1.19263,4.04777.1171,3.29835-1.54272,11.032-5.15845,19.599-5.79023.756-.05584,2.2588.00124,3.06714.03108l.44146.01676c1.805.029,2.74272-.29511,2.9587-1.023.2457-.83287-.61333-1.87393-2.62648-3.18706-1.9299-1.32237-2.99335-.9412-5.03165-.02309a54.42094,54.42094,0,0,1-7.27977,2.711c.01157-.28965.04533-1.026.08573-1.94869a4.4524,4.4524,0,0,0,1.91673-.75142,61.682,61.682,0,0,1,5.55758-2.73836l.00455-.00125c.7024-.27288,1.43691-.64691,1.55645-1.34545.108-.64394-.33307-1.35594-1.43113-2.308-1.23988-1.07343-2.0453-1.442-2.69616-1.22917a1.777,1.777,0,0,0-.98722,1.3954c-.07336.32744-.51524,1.602-3.34124,4.73112-.19661.21364-.366.4055-.50616.578.0956-2.1859.19867-4.56446.21142-4.84151,1.62077-.66032,3.17928-1.39287,4.23323-1.895a3.22938,3.22938,0,0,0,1.974-2.29125v-.06508a1.13668,1.13668,0,0,0-.533-.97727c-.83265-.61919-2.75015-.25148-4.03907.45252.01481-.00752-.0664.03276-.0664.03276-.39528.19731-.85691.43073-1.326.67967a1.81943,1.81943,0,0,1,.19868-.54744,1.96607,1.96607,0,0,0,.36852-1.00667,1.26156,1.26156,0,0,0-.38291-.83791,24.06673,24.06673,0,0,0,2.68873-1.27615,3.953,3.953,0,0,0,1.84292-1.523c.406.3157.88744.68762.88744.68762a14.18,14.18,0,0,1,1.82932,1.51422c1.77,1.85718,3.27037.94662,4.72167.0659,1.22258-.73967,2.48432-1.50747,4.218-1.10489,1.21349.28126,2.124.16245,2.55847-.33543a.96885.96885,0,0,0,.24608-.64734A1.10567,1.10567,0,0,0,46.8015,25.48529Zm-28.908,4.27606.00371-.00378c.03174.02686.068.05119.09687.07638A.41522.41522,0,0,1,17.8935,29.76135Zm10.81926-5.784c-1.96409.94035-5.49329,2.36846-8.07241,3.41124l-.26587.10708a62.05049,62.05049,0,0,0,5.34906-8.18727c1.25555,1.3534,2.791,2.84114,4.26084,4.22524A9.75665,9.75665,0,0,0,28.71276,23.97739ZM18.39308,44.37528a2.10487,2.10487,0,0,0,2.43937.30224,2.88127,2.88127,0,0,0,.96619-3.05066c-.38789-2.20185-1.41918-2.93563-3.67595-2.61615.014-.00129-.77989.07552-.77989.07552-.89693.08146-1.34747.12217-1.56716.52268-.2275.41517-.00452.87066.48641,1.86556l.02144.04367A6.21767,6.21767,0,0,0,18.39308,44.37528Z"/><path class="c" d="M103.7832,22.28727c.38249.46516,1.211.28256,2.46-.54151l2.67434-1.78916a29.88881,29.88881,0,0,1,3.94384-2.43776c.859-.39337,1.9909-1.018,1.9909-1.96214v-.04406c-.03216-.835-.93733-1.5499-2.84993-2.248-1.88618-.68259-3.18295-.70275-3.8507-.06087a1.91383,1.91383,0,0,0-.32808,2.049c.05111.21451-.02309,1.27031-3.3182,5.004C103.67354,21.17481,103.427,21.85826,103.7832,22.28727ZM93.499,25.43324a2.14743,2.14743,0,0,0,2.22089.17461,2.96833,2.96833,0,0,0,1.16649-2.68626c0-2.63713-1.197-3.11025-4.79669-3.19338-1.42167-.02184-2.17513-.00714-2.46122.53063a.76927.76927,0,0,0-.09151.37025,3.96234,3.96234,0,0,0,.85451,1.77743A9.02259,9.02259,0,0,0,93.499,25.43324Zm27.26085,12.60058c-5.0601-.68551-8.72614-3.316-13.36415-6.64451-1.58283-1.13555-3.22171-2.31055-5.08813-3.541v-.09152a68.256,68.256,0,0,1,8.05181-1.74889c2.68337-.17715,3.95292-.63978,4.13181-1.50033a.89245.89245,0,0,0,.02228-.19817c0-.66746-.6991-1.35466-2.17311-2.14261-1.58612-.86017-2.291-.68762-9.41367,2.321-.19125.08606-.41386.17-.65909.25732.00123-.86267.00574-1.5205.04-1.9634l.188-2.44906c.21763-2.91211.33472-4.51742.77-5.40738a4.94824,4.94824,0,0,0,.62406-1.94409,1.37931,1.37931,0,0,0-.16487-.67714c-.36354-.65989-1.26706-.99364-3.21921-1.18738-2.88247-.30057-4.46078.00713-4.82432.94012a1.07364,1.07364,0,0,0-.07421.39544c0,.615.5066,1.31983,1.51027,2.10529.77575.59232.94062,3.23788.94062,6.31081,0,.76822-.00987,1.56374-.02389,2.36007,0,.00757-.03052,2.50452-.0379,2.90623-3.73036,1.15949-8.17054,2.45624-9.668,2.75637-.00456.00129-.78112.16417-.78112.16417-1.5548.32241-2.02386.41809-2.11621.91012a.64454.64454,0,0,0-.01153.12342c0,.39376.399.66033,1.25305,1.22707l.37634.25143c1.98059,1.32783,2.556,1.17544,3.69617.40008a8.40373,8.40373,0,0,1,1.50284-.85428,11.12748,11.12748,0,0,1,1.14672-.36819,19.75983,19.75983,0,0,0,2.63475-.9084c-3.65865,5.459-8.55549,12.083-15.79858,16.04123-1.65867.908-2.05644,1.43022-2.05644,1.79462a.54637.54637,0,0,0,.06474.25143c.1249.2523.38744.78,3.08774-.53059,4.18912-2.138,13.15846-7.25406,16.43913-13.208-.08864,1.51671-.13562,3.11824-.17478,4.53084a29.69708,29.69708,0,0,1-.27,4.38223,8.15321,8.15321,0,0,0-.72338,2.897,5.64091,5.64091,0,0,0,.73,2.5364c.9843,1.96718,2.103,2.13255,2.68088,2.05616,1.06678-.141,1.92412-1.25139,2.28973-2.97174a12.18659,12.18659,0,0,0,.34995-3.27858c0-.53231-.01566-1.14354-.04778-1.86306-.01485-.33835-.02021-.74264-.02021-1.1977,0-.55535.00785-1.18885.01772-1.87312.00988-.80726.01938-1.65905.01938-2.5129a42.34649,42.34649,0,0,0-.23042-4.98465c2.35938,3.614,5.28351,7.87244,6.35519,8.82452,3.94225,3.70135,5.05022,3.17326,6.81522,1.829a7.871,7.871,0,0,1,5.075-1.87982c1.21759-.04789,2.67679-.29305,2.72293-1.18593v-.03946C123.355,38.771,122.45889,38.28152,120.75982,38.03382Z"/><path class="c" d="M50.13531,23.43584c1.96781,1.15863,2.4979.99786,4.6776.04492l.12612-.05541,1.53914-.712c.54242-.25779,1.0989-.518,1.65454-.76237.01486.10033.03216.21158.03216.21158a3.47241,3.47241,0,0,0,1.72874,2.13968,1.17887,1.17887,0,0,0,1.01854-.016,2.42866,2.42866,0,0,0,1.1867-2.27109v.00254c0-.00465-.00659-.12007-.00659-.12007s-.04824-1.05619-.06513-1.45373c.61992-.26407,1.15124-.52139,1.84579-.87363.92331-.46009,1.38993-.92607,1.38993-1.3832a.68812.68812,0,0,0-.02967-.19774c-.14427-.48781-.72793-.67042-1.73453-.54026a10.8535,10.8535,0,0,0-1.43445.29386,6.60846,6.60846,0,0,1,.15127-.91644,4.87271,4.87271,0,0,0,.25186-1.31605A1.35669,1.35669,0,0,0,62.206,14.655c-.49009-.63642-1.54408-.809-4.178-.67756-2.10216.08606-3.04033.40047-3.23817,1.089a.87022.87022,0,0,0-.0338.23969c0,.654.73329,1.27032,1.474,1.79549a4.451,4.451,0,0,1,1.13106,2.01291c-2.34127.61291-4.46572,1.00289-6.1858,1.31351l-.71763.12931c-1.16323.16752-2.00741.33543-2.13311.95083a.71711.71711,0,0,0-.01443.1419C48.31012,22.18694,48.94367,22.68821,50.13531,23.43584Z"/><path class="c" d="M80.52517,25.85851c-1.77492-.97228-2.70815-.9026-5.873.45042.007-.00336-1.93691.70064-1.93691.70064l-.47236.16709a2.552,2.552,0,0,1,.12532-.61123,4.289,4.289,0,0,0,.31656-1.314,1.06553,1.06553,0,0,0-.1587-.58767,1.22737,1.22737,0,0,0-.64841-.48322,23.5643,23.5643,0,0,1,2.39652-.44874c1.81-.23342,2.9414-.89628,3.02467-1.77408.00249-.03189.00494-.06633.00494-.10239,0-.41057-.23987-1.07429-1.59848-1.53606-1.46823-.5495-2.79012-.20191-5.11658.90342a12.10744,12.10744,0,0,0,1.93734-2.6036,25.433,25.433,0,0,1,6.50646-1.25222h.00207c2.22216-.08438,2.70359-.89546,2.79219-1.37193a1.05093,1.05093,0,0,0,.01979-.20358c0-.50794-.34129-1.31481-2.10178-2.10444-1.24524-.58393-2.075-.34424-4.71179.9164-.155.08228-.33429.165-.533.2498.15-.19353.29681-.38873.47155-.57723a2.17845,2.17845,0,0,0,.59439-1.403,1.635,1.635,0,0,0-.094-.54237c-.23333-.64394-.98435-1.48271-3.24808-1.82506-2.22174-.28315-3.09888-.18342-3.4872.39187a.986.986,0,0,0-.16157.5655,3.28812,3.28812,0,0,0,.47611,1.41552,7.73534,7.73534,0,0,1,.3516,2.52927,6.80942,6.80942,0,0,1-.14841,1.44157c-2.737.91142-3.09064,1.52768-3.09064,1.87149a.73351.73351,0,0,0,.02228.16369c.09852.46263.57953.73422,2.39442.57513-.18424.5768-.42783,1.32529-.42783,1.32529a3.55378,3.55378,0,0,0-.25477,1.13176,1.11069,1.11069,0,0,0,.08779.45592,55.27545,55.27545,0,0,1-7.19771,2.206c-1.34705.27331-2.05274.44121-2.136,1.018-.073.49619.38786.84714,1.26334,1.32236,1.44721.79509,1.82317.69141,4.326-.35683.71928-.2985,1.64462-.60831,2.62112-.92483a8.20655,8.20655,0,0,1,.68838,3.12456c-.15212.04742-.41508.13055-.70446.21954l-.00245-.01681-4.30414,1.35805c-.03791.01135-.07666.02226-.113.03486-.7411.22624-1.47316.445-2.16813.64524a9.82973,9.82973,0,0,1,.826-1.21912,2.1235,2.1235,0,0,0,.46168-1.14517,1.095,1.095,0,0,0-.07091-.38706c-.22341-.58858-.93319-.98191-2.37423-1.31944-1.68793-.41057-2.58773-.37485-3.00324.12427a1.47576,1.47576,0,0,0-.02144,1.47476c.78648,1.77571,1.16323,2.68918-.09644,3.6665-1.45671.3904-2.657.69011-3.14421.78206l-.49178.09109c-1.48675.2712-2.10178.3837-2.23655.92521a.65154.65154,0,0,0-.01979.15493c-.00866.47057.49671.90255,1.4567,1.68045,1.47646,1.20944,1.77944,1.22328,4.04486.19017,1.57295-.69983,4.1516-1.84668,7.33624-2.91173-1.98845,3.368-9.227,11.57419-17.01908,15.88549-1.5754.87276-1.95506,1.38534-1.95506,1.74553a.58256.58256,0,0,0,.0631.25522c.14672.30434.53706.61961,2.22955-.14315,6.84118-3.08634,16.75565-10.298,21.52063-16.60165a64.86125,64.86125,0,0,1-.38291,7.333c-.15457,1.3887-2.664,1.24091-5.56918,1.07425-1.57211-.04239-2.29012.539-2.30992,1.133-.01692.487.41344,1.02722,1.67185,1.08306,3.64628.1612,4.23078,1.764,4.70065,3.05191l.27908.69055a1.593,1.593,0,0,0,1.12942,1.0071c.68712.11211,1.49-.36144,2.68625-1.58391a6.65554,6.65554,0,0,0,2.305-5.34522c0-.07893,0-.1591-.00249-.24142-.05563-1.49234-.1113-6.00933-.1113-9.243,0-1.13511.00658-2.0914.02309-2.724,2.3866-.49874,4.73446-.89375,5.68744-.9924,2.36437-.08018,3.79055-.67421,4.01932-1.67207a1.20757,1.20757,0,0,0,.02845-.25732C81.91961,27.12671,81.67477,26.47851,80.52517,25.85851Z"/><path class="c" d="M122.56081,14.57543a3.23592,3.23592,0,0,0-.21842-.64794,2.24645,2.24645,0,0,0-.23169-.457.51291.51291,0,0,0-.2135-.18515.5825.5825,0,0,0-.21931-.03968H121.02v.87423a2.76861,2.76861,0,0,0,.03052.45549h-.41221a2.98785,2.98785,0,0,0,.02972-.45549V12.04405a3.417,3.417,0,0,0-.02972-.45716c.122.00885.2663.01281.43365.01134h.85654a.9282.9282,0,0,1,.67023.22061.72044.72044,0,0,1,.19949.54345.74891.74891,0,0,1-.21514.569.685.685,0,0,1-.25642.15655c-.042.0141-.09316.02838-.1533.04346a.41574.41574,0,0,1,.1533.08525,1.16212,1.16212,0,0,1,.23.3396q.136.26985.29677.6528.115.26037.1748.36646ZM121.02,12.93234h.85988a.55613.55613,0,0,0,.41217-.15888.51163.51163,0,0,0,.136-.37592.48009.48009,0,0,0-.12118-.3497.542.542,0,0,0-.404-.13666H121.02Z"/><path class="c" d="M119.25916,13.02553a2.49584,2.49584,0,1,0,2.49622-2.54144A2.5217,2.5217,0,0,0,119.25916,13.02553Zm.28521,0a2.21056,2.21056,0,1,1,2.211,2.251A2.23355,2.23355,0,0,1,119.54437,13.02553Z"/><path class="c" d="M24.14813,7.27256a3.1214,3.1214,0,0,1-1.03948-.20489,1.87627,1.87627,0,0,1-.73929-.46117.78049.78049,0,0,1-.27833-.53441.49146.49146,0,0,1,.24173-.43932,2.08846,2.08846,0,0,1,.50506-.18308c-.256.14644-.38067.29993-.38067.45392,0,.21238.20513.36612.62215.46866a3.82236,3.82236,0,0,0,.84939.095c.16849.0073.29993.0148.40247.02185a.72062.72062,0,0,1,.37343.12464.47065.47065,0,0,1,.12459.30718Q24.82918,7.28357,24.14813,7.27256ZM25.4,5.62548a.70245.70245,0,0,1-.29268-.1171,4.37322,4.37322,0,0,0-.87869-.29292c.38067-.0584.57851-.12459.57851-.20509a2.1929,2.1929,0,0,0-.19784-.27813,4.02036,4.02036,0,0,1-.24878-.322,3.00182,3.00182,0,0,1-.41.20509,1.21086,1.21086,0,0,1-.49776.10234,1.11609,1.11609,0,0,1-.32928-.05869c-.16124-.04365-.23448-.10984-.23448-.183a4.09,4.09,0,0,0,1.18591-.51236,8.76718,8.76718,0,0,1-.47571-.84909,2.24442,2.24442,0,0,1-.62946.17554,1.04126,1.04126,0,0,1-.35157-.05845c-.161-.0439-.24148-.11709-.24148-.20489a5.01046,5.01046,0,0,0,1.01012-.32222c-.07324-.13919-.15374-.31473-.24128-.51961a1.27712,1.27712,0,0,0-.24173-.27108.40261.40261,0,0,1-.17579-.27808c0-.13169.16854-.20489.51231-.20489.25633,0,.39572.102.42457.30013a3.12144,3.12144,0,0,0,.08075.388c.05114.21944.08779.32928.11714.32928a1.82133,1.82133,0,0,1,.53436-.26333c.21968,0,.32952.073.322.21968-.0073.08025-.13895.19759-.40253.35132-.07319.04365-.15373.09505-.23423.13894a4.24163,4.24163,0,0,0,.46872.7759,1.60318,1.60318,0,0,1,.54166-.256.21864.21864,0,0,1,.24878.21238c0,.08025-.16854.24148-.50531.47572a6.66208,6.66208,0,0,0,.52736.66605c.23423.26383.35862.43207.35862.50531C25.72221,5.50838,25.61237,5.62548,25.4,5.62548Z"/><path class="c" d="M45.1106,6.06459a1.671,1.671,0,0,1-1.47854,1.05423.89008.89008,0,0,1-.80524-.38793,1.54722,1.54722,0,0,1-.22693-.90053c0-.35882-.08075-.54141-.24174-.54141a.70171.70171,0,0,0-.39522.19758,5.34433,5.34433,0,0,0-.70294.71,5.68051,5.68051,0,0,0-.55622.76135q-.19783.32914-.26377.32952c-.1026,0-.20489-.08074-.29268-.22718a.72952.72952,0,0,1-.1244-.41727.57751.57751,0,0,1,.17554-.28543,5.5064,5.5064,0,0,0,.60036-.96643q.30732-.54888.92233-1.69073a4.86634,4.86634,0,0,0,.62245-1.47179.31831.31831,0,0,0-.02934-.10254.13678.13678,0,0,1-.02935-.073c0-.0878.03685-.13919.11709-.13919a.76965.76965,0,0,1,.39547.21968.60158.60158,0,0,1,.26358.42457c0,.05864-.04414.10984-.11734.15369a9.46956,9.46956,0,0,0-.75384,1.17111c-.30743.52011-.65881,1.11317-1.03948,1.77172a6.96527,6.96527,0,0,1,.62946-.50506,1.37578,1.37578,0,0,1,.73929-.27108.47043.47043,0,0,1,.46842.24173,1.52291,1.52291,0,0,1,.08074.57126A1.052,1.052,0,0,0,43.2,6.29908a.63981.63981,0,0,0,.54916.20488,1.24828,1.24828,0,0,0,.70995-.33682,5.53283,5.53283,0,0,0,1.16412-1.63253A6.02157,6.02157,0,0,1,45.1106,6.06459Z"/><path class="c" d="M63.17444,6.6429a3.06346,3.06346,0,0,1-1.142.25628,3.90248,3.90248,0,0,0,.988-.549A2.37719,2.37719,0,0,0,64.163,4.46141a1.17479,1.17479,0,0,0-.26378-.7393.942.942,0,0,0-.72475-.29287c-.09529,0-.22718.01479-.40272.02934A5.96943,5.96943,0,0,1,61.95193,5.047a1.47452,1.47452,0,0,0,.27808.242c.13919.11684.21243.20464.21243.26333q-.01131.26331-.24173.26353a.87809.87809,0,0,1-.57831-.38067c-.42481.44662-.754.6663-.98827.6663-.16854,0-.32928-.12439-.49052-.38817a1.22859,1.22859,0,0,1-.21968-.63671,1.26871,1.26871,0,0,1,.35862-.76134,3.439,3.439,0,0,1,.65175-.6079,3.40007,3.40007,0,0,1-.04389-.344,1.22217,1.22217,0,0,0-.16854-.6222.30645.30645,0,0,1-.08774-.16824c0-.07325.04389-.11739.14644-.11739a.72318.72318,0,0,1,.33677.14669c.16829.11689.25628.23423.25628.34382a.72117.72117,0,0,1-.0218.11739.63051.63051,0,0,0-.02229.10959,1.50716,1.50716,0,0,0,.01475.29288,5.22436,5.22436,0,0,1,.99557-.38817,3.64631,3.64631,0,0,0,.16124-.87094.38556.38556,0,0,0-.06619-.16828.33013.33013,0,0,1-.0657-.16854c0-.11709.02185-.18279.08025-.18279a1.21087,1.21087,0,0,1,.45416.24873c.17554.139.27083.27088.27083.38822a.22864.22864,0,0,1-.0657.12415,1.62512,1.62512,0,0,0-.19058.52711.58132.58132,0,0,0,.10229-.0075h.0953a1.717,1.717,0,0,1,1.25186.45412,1.71729,1.71729,0,0,1,.45367,1.25185C64.82128,5.55228,64.27256,6.20378,63.17444,6.6429ZM61.02205,4.16148a2.09972,2.09972,0,0,0-.45387.43182.91442.91442,0,0,0-.25633.549.51562.51562,0,0,0,.10259.30743.30742.30742,0,0,0,.25628.18308.73351.73351,0,0,0,.37343-.21943,2.33143,2.33143,0,0,0,.322-.33678A2.815,2.815,0,0,1,61.02205,4.16148Zm.39547-.24173a3.25477,3.25477,0,0,0,.24878.732,4.90673,4.90673,0,0,0,.49052-1.03948A6.7405,6.7405,0,0,0,61.41752,3.91975Z"/><path class="c" d="M82.53324,7.31645a11.1718,11.1718,0,0,1-1.12747-.67355,1.11787,1.11787,0,0,1-1.06877.60056,1.87838,1.87838,0,0,1-.75385-.16824q-.46113-.20879-.46116-.54946a.67286.67286,0,0,1,.40247-.59281,1.40646,1.40646,0,0,1,.732-.19763,2.57892,2.57892,0,0,1,.637.10259,9.737,9.737,0,0,1-.02935-1.01768,2.24989,2.24989,0,0,1-.51961.09505.71759.71759,0,0,1-.56376-.21239.4421.4421,0,0,1-.15369-.30742c0-.0364.00725-.05845.02935-.05845a1.14033,1.14033,0,0,0,.16824.05845,1.23593,1.23593,0,0,0,.37317.05114,2.36732,2.36732,0,0,0,.6663-.13894V3.2464a.61545.61545,0,0,1-.12439.00705,1.74392,1.74392,0,0,1-.78339-.16079c-.161-.07344-.24153-.16849-.24153-.27108a.07006.07006,0,0,1,.08049-.08049c.02935,0,.10984.01479.24178.0291a2.13051,2.13051,0,0,0,.35858.02934,2.485,2.485,0,0,0,.46846-.05114V2.57285c0-.50531-.05844-.80549-.161-.90078a.54719.54719,0,0,1-.11739-.10985c0-.10209.0587-.16074.18334-.16074a1.39162,1.39162,0,0,1,.483.10255c.21994.08779.337.17553.337.26333a.62169.62169,0,0,1-.0732.16848,1.87143,1.87143,0,0,0-.07324.7027,3.12822,3.12822,0,0,1,.63695-.12439q.46084,0,.46117.28538,0,.15381-.59306.28563-.19783.044-.50506.08779v.93714a3.22618,3.22618,0,0,1,.7468-.20489c.26333,0,.40252.0875.40252.26328q0,.10987-1.14227.48327a6.73148,6.73148,0,0,0,.05865.68085c.02934.29288.05119.51961.05119.68085v.04389a.12752.12752,0,0,0-.0073.0366,2.55346,2.55346,0,0,0,.7398.32953.71285.71285,0,0,1,.35837.24123.68728.68728,0,0,1,.18279.403C82.81887,7.21411,82.71633,7.3019,82.53324,7.31645ZM80.176,6.13784a.87166.87166,0,0,0-.38817.095.34513.34513,0,0,0-.21213.30793c0,.10209.08074.17554.24148.21943a1.01521,1.01521,0,0,0,.35882.0439.80753.80753,0,0,0,.43912-.13194.5748.5748,0,0,0,.26383-.33678A1.71954,1.71954,0,0,0,80.176,6.13784Z"/><path class="c" d="M99.16183,5.73532a.63009.63009,0,0,0,.0582.25628.77632.77632,0,0,1,.0587.22673q-.011.29638-.35158.28563a1.1951,1.1951,0,0,1-.76084-.38067,2.054,2.054,0,0,1-.57126-.94418,6.13125,6.13125,0,0,1-.18333-1.09087,3.938,3.938,0,0,0-.14594-.51986,3.225,3.225,0,0,1-.1319-.43182.14791.14791,0,0,1,.16824-.16874,1.12266,1.12266,0,0,1,.41027.16124c.19009.10984.29243.20488.29243.29288a.173.173,0,0,1-.01455.05119.11825.11825,0,0,0-.02184.0584,2.90572,2.90572,0,0,0-.00726.32952,2.69966,2.69966,0,0,0,.322,1.50814c.11734.18309.21238.27083.28563.27083a5.2244,5.2244,0,0,0,.76134-.93713A4.41932,4.41932,0,0,0,99.16183,5.73532Zm2.74525-.57126c-.11739,0-.19788-.14619-.242-.44637a2.78038,2.78038,0,0,0-.22648-.81249,3.40826,3.40826,0,0,0-.62995-.798,4.329,4.329,0,0,1,.79824.29268,1.53651,1.53651,0,0,1,.58531.60035,1.512,1.512,0,0,1,.176.68085A.41179.41179,0,0,1,101.90708,5.16406Z"/></svg>