<svg xmlns="http://www.w3.org/2000/svg" viewBox="0 0 50 44"><title>icn_foot_03</title><path d="M25.90574,2.15a3.39892,3.39892,0,0,1-.68417.02691.23339.23339,0,0,0-.20368.04613c-.05381.04519-.11476.05026-.13861.01152a2.07154,2.07154,0,0,0-1.0337.04783.41443.41443,0,0,1-.28444.01368.1995.1995,0,0,0-.25682.09224c-.09683.13706-.28131.11531-.19542-.02306.05248-.08457.05248-.08457-.255.0024-.28443.08043-.372.03081-.23484-.13309.08332-.09958.07344-.10323-.07263-.02691-.123.06429-.18279.06535-.21912.00385q-.05-.08457-.21138.06032c-.20755.18627-.43817.27587-.43817.1703,0-.10393-.71069,0-.78856.1153-.0363.05383-.078.05661-.11469.00768a.85008.85008,0,0,0-.442-.07687c-.29207,0-.38433.0277-.38433.11531a.152.152,0,0,1-.13457.13837c-.07685.01319-.13453-.01152-.13453-.05765,0-.043-.05378-.08072-.11529-.08072a.11452.11452,0,0,0-.1153.10763c0,.17952-.2921.2235-.79179.11927a1.2547,1.2547,0,0,0-.87251.04217,1.13873,1.13873,0,0,0-.41126.19216c0,.03139-.03844.056-.09226.059a6.59511,6.59511,0,0,0-1.19152.33823.41717.41717,0,0,1-.29213.03714c-.07682-.03123-.10281-.01681-.06919.03844.03658.06006-.0115.07606-.14987.05s-.20375-.00638-.20375.06148c0,.13068-.28644.28372-.39969.21357q-.30747-.19049-.88405.12479c-.22295.12192-.40743.188-.40743.146,0-.04488-.03844-.05256-.09225-.01852a3.99707,3.99707,0,0,1-1.03775.33188.35683.35683,0,0,0-.24986.10942.98081.98081,0,0,1-.33438.20372,1.60019,1.60019,0,0,0-.36132.19218c-.06363.053-.615.35038-1.23.66336A11.224,11.224,0,0,0,8.22506,6.90226a2.85866,2.85866,0,0,1-.78412.51348.192.192,0,0,0-.13837.15375c0,.0615-.033.10763-.07689.10763-.04305,0-.06841.04227-.05764.09607.01069.05341-.04228.08587-.11913.073q-.13839-.02306-.12521.11531c.02782.29212-.00289.33681-.1977.28724-.146-.03718-.19215-.01849-.19215.07792,0,.06918-.03144.10763-.06918.08457-.0364-.02226-.08737.02689-.10763.10377a.51291.51291,0,0,1-.25753.25368c-.13069.06421-.21444.1619-.20758.24214.00732.08457-.02842.12024-.09609.09609-.07337-.02622-.10759.01537-.10759.13068a1.85209,1.85209,0,0,1-.5535.88572.22292.22292,0,0,0-.09992.252c.03154.09992.01093.14605-.06535.14605-.06314,0-.14639.09992-.19218.23062s-.12733.23061-.18835.23061c-.09862,0-.31229.26906-.54938.69186a1.084,1.084,0,0,1-.28469.27288c-.11529.07761-.19566.16672-.17677.196a1.63356,1.63356,0,0,1-.21142.52657c-.168.32286-.28014.45938-.35362.43049q-.10757-.04229-.06535.073c.02258.06152.0064.11531-.03461.11531-.04333,0-.05669.06534-.0307.14991a.30461.30461,0,0,1-.10766.30365c-.269.26905-.61583.98306-.52269,1.07621.06106.06108.04611.08455-.05385.08455q-.13833,0-.09222.123c.13837.369.13643.504-.00767.54a.41956.41956,0,0,0-.22707.24408,3.37679,3.37679,0,0,0-.29664,1.13,1.26656,1.26656,0,0,1-.10284.48044.30194.30194,0,0,0-.01537.32287c.06211.11532.05589.173-.02691.24985a.22024.22024,0,0,0-.04611.26136.22769.22769,0,0,1-.08455.28714c-.17685.15219-.19577.29608-.03078.23332.06152-.02339.11533-.00438.11533.04071a.07877.07877,0,0,1-.06918.08455c-.0402,0-.08856.05-.11533.11916-.02976.07687-.012.1.05.06534.05058-.02832.04006.01538-.02216.09225-.19288.23831-.308.55929-.22.61363.04048.025.055.11665.03074.19353-.02669.08457-.0121.146.03461.146.0452,0,.08072.08457.08072.1922s.04228.19218.09609.19218c.06148,0,.06841.01985.0192.05518a1.70419,1.70419,0,0,0-.03126.86729c.01667.0615-.01537.10541-.06862.0941-.11537-.02446-.11811.05966-.01112.33639.0446.11531.04952.22837.01112.25436-.08463.05723-.08463.62764,0,.57541.03566-.02207.04213.012.01533.08116a.24248.24248,0,0,0,.02307.21526.87846.87846,0,0,1,.08522.34976c.0204.32286.3634,1.13741.46825,1.11205.04541-.011.08455.05258.08455.13712s-.03559.13622-.07685.11148c-.09757-.05857-.09757.05381,0,.30749.04731.123.11086.17918.16527.14607.06243-.038.07369-.01539.03845.07685a.2546.2546,0,0,0,.06918.25367.2484.2484,0,0,1,.08072.22294.09409.09409,0,0,0,.04614.12685c.04735.01507.09427.11148.10661.21908a1.3419,1.3419,0,0,0,.33923.761c.1153.11531.13837.19.08072.26136-.06127.07583-.02972.15375.13067.32288.11663.123.2028.247.19218.27673s.05.09187.13453.13838.15377.11568.15377.15374a3.792,3.792,0,0,0,.98394,1.22229,3.32089,3.32089,0,0,1,.57274.63419c-.01158.03922.0115.06533.05761.06533.041,0,.07688.05381.07688.11531a.11828.11828,0,0,0,.11533.11533c.06148,0,.11529.04124.11529.08839,0,.04613.02206.06633.04615.04228.02515-.02514.21036.12683.4074.33441a2.043,2.043,0,0,0,.42663.38051,3.51832,3.51832,0,0,1,.57271.43432,4.36276,4.36276,0,0,0,.76105.542.63464.63464,0,0,1,.296.21909c.02332.0615.0733.0925.11146.06918.03608-.02205.06918,0,.06918.04613,0,.04876.05.06945.11146.04611a.14885.14885,0,0,1,.173.05766,1.60476,1.60476,0,0,0,.44587.293c.98394.49411,1.389.70632,1.42154.74482a2.16714,2.16714,0,0,0,.34652.19986,3.69857,3.69857,0,0,1,.52656.32671.83373.83373,0,0,0,.43817.173.36723.36723,0,0,1,.26523.07685.536.536,0,0,0,.33821.07687c.23063,0,.31265.03884.3896.18451a.66651.66651,0,0,0,.7097.22826c.059-.03591.07175-.00149.04228.11382-.0236.09224-.01337.1483.02307.12683a1.04332,1.04332,0,0,1,.4343.12685c.19989.08953.43948.1952.52276.2306a1.91821,1.91821,0,0,0,.46892.09106c.26906.02195.73558.19373.54579.201-.14339.00546.16915.2223.392.272a.59674.59674,0,0,1,.2883.124c.02413.03955.11146.03294.20372-.01535q.16144-.0846.20755-.00771a.76.76,0,0,0,.31518.15759c.14948.04483.4228.13708.615.20757a4.2131,4.2131,0,0,0,.96089.16142,3.89677,3.89677,0,0,1,.90712.14767c.36129.13986.40237.13907.28257-.00545-.14121-.17022.02491-.14271.26323.04359.10763.08415.19985.11725.19985.07172,0-.1061.15373-.0962.38436.02472a2.46655,2.46655,0,0,0,1.03781.05215c0-.00846.65726-.02228,1.46442-.03074a11.87064,11.87064,0,0,0,1.55281-.073c.05173-.03375.12985.00769.18834.09994a.34334.34334,0,0,0,.23446.15759c.10165,0,.12514.04226.09612.173-.02933.13179.053.26905.34592.57654a2.12757,2.12757,0,0,1,.38432.48045c0,.06918.16144.112.32288.08566.02874-.00468.03412.045.01154.10653s-.00461.11531.03844.11531.1058-.08072.1345-.173c.05385-.173.05385-.173.123.02688.05321.15376.11.192.246.16565.23829-.04613.32358.16887.123.31023-.15374.10837-.15374.10837-.00767.23905.11529.10317.15412.10963.18448.03074.02416-.06282.04125-.05.04611.03459a.13029.13029,0,0,0,.11916.13453,1.07546,1.07546,0,0,1,.39589.26136c.23063.21191.30987.24538.41894.17681a.19031.19031,0,0,0,.09609-.20371c-.02853-.08851-.01569-.08456.05.01538.0505.07686.12465.1131.173.08456s.06806-.00385.04611.05766a.15033.15033,0,0,1-.16527.08456c-.06918-.0126-.12683.01537-.12683.06149s.035.06359.07685.03843c.04463-.02678.0962.00385.123.073a.28066.28066,0,0,0,.25366.11915.482.482,0,0,1,.28444.07688c.13555.13552.44584.13079.83793-.01278.46121-.16891.46691-.16934.34718-.02566-.13453.16144.04077.39069.19859.25975a.17555.17555,0,0,1,.18064-.033c.04611.02852.08072.00383.08072-.05766,0-.10765.2321-.36133.33058-.36131.03014,0,.05378.08456.05378.19218,0,.123-.04151.1922-.1153.1922-.06148,0-.11533.03227-.11533.06918,0,.092.369.182.47665.11616a1.17577,1.17577,0,0,1,.3959-.04314c.23825.00287.35211-.03895.44967-.16527.0713-.09226.15515-.14291.18448-.11148.02972.03183.0108.10762-.04228.16914-.08367.09707-.06531.10284.14224.04462.31517-.08841.39206-.14161.39206-.27141,0-.0615.03408-.11531.073-.11531s.05244.05381.02887.11531c-.05968.15581.07492.14306.367-.03477l.246-.14972-.35745-.08839a1.034,1.034,0,0,1-.4036-.16146c-.02638-.04173-.09225-.03513-.15373.01539-.08864.07281-.10763.06535-.10763-.04228,0-.09737-.04994-.12187-.196-.09609-.13837.02441-.18473.00634-.15757-.06151.02043-.05123-.03155-.17679-.1115-.269-.13323-.15373-.16485-.161-.2844-.06533-.123.09838-.12577.09641-.03221-.02307.10787-.13772.00527-.26722-.14076-.17778-.04661.02854-.05719-.00287-.02694-.07975.03953-.10028.0154-.11639-.1153-.07687s-.15542.02422-.11811-.073c.055-.1435-.16249-.34167-.37771-.34422-.09992-.00117-.13267-.03813-.10379-.117.02258-.0615.0172-.11173-.0115-.10763a.98038.98038,0,0,1-.16914-.00385c-.09222-.00921-.08456-.03536.03844-.13066.151-.117.1499-.11827-.05765-.06919l-.21138.05.04611-.54964c.03352-.39974.01987-.5664-.05-.61114a.109.109,0,0,1-.03461-.15376c.03591-.05379.08216-.06019.111-.01535a5.16023,5.16023,0,0,0,1.79545-.2542,1.10182,1.10182,0,0,1,.40743-.11481.30279.30279,0,0,0,.24983-.13068c.05117-.09162.18448-.13527.44587-.14607a4.40281,4.40281,0,0,0,.60345-.06533c.12862-.02787.40739-.08736.63035-.13453s.38443-.11.36515-.1422c-.01906-.03174.08456-.0801.23059-.10763a2.3577,2.3577,0,0,0,.59581-.2383,1.48843,1.48843,0,0,1,.45351-.18949,3.6122,3.6122,0,0,0,1.03332-.54464.24975.24975,0,0,1,.19281-.06918.75678.75678,0,0,0,.28443-.06535c.07274-.03533.26524-.12893.41894-.20372a.51453.51453,0,0,0,.33058-.35362c.04115-.19218.06215-.20533.196-.123.08455.052.11642.104.073.11913a.10683.10683,0,0,0-.07685.09611c0,.1266.23357-.02307.24-.15375.00373-.07687.02044-.087.04443-.02689a.14259.14259,0,0,0,.10766.09607c.11529,0,.37374-.25266.33026-.32286-.02082-.03354.07713-.05276.2155-.04228.17685.01338.24789-.01108.23449-.08072-.01034-.05381.01446-.0804.05382-.05765.04241.02457.10045-.0077.13836-.07688a.34367.34367,0,0,1,.24983-.13281.59437.59437,0,0,0,.45727-.40145c.00218-.04258.11543-.13176.2538-.19987.17681-.087.24311-.169.22679-.28058-.01822-.12428.03457-.16814.24982-.20755.15374-.02816.2729-.08186.2729-.123a.08015.08015,0,0,1,.08456-.073,2.15267,2.15267,0,0,0,.50352-.41895,5.188,5.188,0,0,1,.68416-.58422c.146-.091.2652-.21191.2652-.269,0-.06227.04614-.08687.11533-.0615.06151.02255.11529.00461.11529-.03844,0-.04613.06918-.10225.16144-.13093.22295-.06936.53043-.34328.53043-.47253,0-.06148.03292-.08728.07685-.06013.09718.06.45618-.19355.459-.32423a.11427.11427,0,0,1,.1175-.09993.123.123,0,0,0,.11533-.13451c0-.11531.011-.11807.07689-.01924.06493.09737.084.08842.123-.05765.02458-.09225.08019-.173.11916-.173a.39587.39587,0,0,0,.18834-.1153c.06148-.06151.09018-.11531.06148-.11531a2.39391,2.39391,0,0,1,.42281-.46507,1.8253,1.8253,0,0,0,.43817-.52275c-.02086-.03123.04611-.12108.14607-.196.11529-.08649.1672-.18307.13836-.25753-.0268-.06918-.01227-.09818.03458-.06918a.122.122,0,0,0,.15588-.04228,13.54579,13.54579,0,0,0,.93955-1.92183c0-.07685.03077-.13836.06918-.13836.09968,0,.2609-.515.19492-.62267q-.0565-.09225.07031-.04613c.09511.03459.12683,0,.12683-.13836a1.10221,1.10221,0,0,1,.15377-.44586,1.10309,1.10309,0,0,0,.1537-.44588c0-.30749.02733-.52615.06152-.492.04664.04665.246-.11531.246-.19987,0-.03392-.05-.07183-.11146-.08455-.08174-.01692-.092-.05381-.03844-.13836.06327-.1.08315-.1.14913,0,.09767.148.09795.06148.0006-.1922-.059-.15376-.05009-.20971.03861-.24251a.14045.14045,0,0,0-.01537-.27726c-.10249-.025-.08458-.04889.06919-.09231.23832-.06728.27409-.17081.07688-.22241-.12011-.03139-.11916-.03479.01151-.04184.09225-.005.12735-.04685.09995-.11916-.02332-.0615-.013-.1218.023-.13453a.69086.69086,0,0,0,.09613-.369,1.78232,1.78232,0,0,1,.07365-.42279,6.005,6.005,0,0,0,.0032-1.4702c-.02965.018-.10031-.01729-.15761-.07878-.08958-.09629-.08068-.11776.06535-.15761.15585-.0425.16492-.07687.11529-.43817-.02922-.21323-.066-.59191-.08068-.83023a2.073,2.073,0,0,0-.11146-.5996.4607.4607,0,0,1-.03848-.31134c.026-.08455.016-.14988-.023-.14988-.03826,0-.0537-.08072-.03457-.18067.02529-.132-.0192-.22334-.16527-.33918-.21525-.17069-.261-.29192-.08459-.22406.123.04729.16052-.03346.06151-.13246a.49441.49441,0,0,1-.06918-.26521,2.84614,2.84614,0,0,0-.09225-.51119c-.04654-.16914-.10359-.41128-.12687-.53811-.02392-.1307-.07555-.24227-.11913-.25753-.04614-.01616-.06151-.05-.03844-.08455a1.02523,1.02523,0,0,0-.1499-.42666,1.02725,1.02725,0,0,1-.14991-.43432c.022-.03733-.0077-.06535-.06918-.06535-.06552,0-.102-.06918-.09327-.17679.01621-.19988-.178-.53319-.27572-.47308-.0377.02323-.0919-.01507-.11916-.08425a.1529.1529,0,0,1,.03844-.18066c.06162-.03748.03131-.15757-.09992-.3959-.10158-.18449-.23259-.43947-.28444-.55346-.05244-.11531-.138-.21142-.18834-.21142-.08118,0-.09623-.04611-.12518-.38436-.00724-.08457-.03914-.15375-.07083-.15375s-.0784-.06919-.10376-.15374-.079-.13471-.11916-.11146c-.04242.02457-.07306-.00769-.07306-.07687s-.03545-.11916-.08455-.11916c-.04664,0-.06559-.05-.04228-.11148.026-.06857-.01537-.1292-.10762-.15757-.08455-.026-.14987-.08967-.14987-.14605a3.94215,3.94215,0,0,0-.87638-.95159c-.11533-.103-.17709-.21747-.146-.27069.0408-.07.02687-.07092-.05768-.00385-.08526.0676-.1422.06614-.24216-.00622-.18321-.13269-.17681-.19312.0154-.1443.12894.03275.11779.00062-.06918-.19926a.75942.75942,0,0,0-.33828-.23829.19391.19391,0,0,1-.15371-.14607.92426.92426,0,0,0-.35361-.34724c-.36129-.23062-.39949-.23829-.33713-.06786.03095.08455.01136.111-.06264.08455a.19178.19178,0,0,1-.08838-.20371c.01076-.09224-.02666-.16528-.08456-.16528a.67168.67168,0,0,1-.29214-.173,1.85554,1.85554,0,0,0-.39589-.269c-.11529-.05339-.20755-.14049-.20755-.196,0-.11211-.46125-.3613-.66879-.3613a.34637.34637,0,0,1-.23063-.13452c-.06148-.07687-.08617-.09171-.05764-.03459.08029.16061-.0727.10763-.17755-.0615a.31357.31357,0,0,0-.21065-.15375c-.06151,0-.11532-.03588-.11532-.07687s-.05382-.07687-.1153-.07687-.11533-.02872-.11533-.0615c0-.06005-.21525-.15618-.984-.43936-.25925-.09553-.6957-.28428-.957-.41393a4.278,4.278,0,0,0-.59578-.25751.39143.39143,0,0,1-.19222-.10762.58573.58573,0,0,0-.269-.13142,2.69235,2.69235,0,0,1-1.03166-.36442,3.07948,3.07948,0,0,0-1.27452-.41643c-.04611.02847-.07685.0167-.07685-.02943,0-.059-.26907-.17-.46892-.19353a.21846.21846,0,0,1-.11149-.064c-.03292-.03294-.10045,0-.15761.07686-.09436.12706-.1.12685-.10245-.00383-.00257-.13837-.15887-.19132-.15887-.05381a.077.077,0,0,1-.08072.07687c-.04675,0-.06131-.0615-.03461-.14606.0377-.11951.01537-.13838-.123-.10379-.11529.02884-.152.01416-.11529-.04611q.05376-.08843-.073-.03844a.15711.15711,0,0,1-.18448-.04228.15719.15719,0,0,0-.18451-.04228c-.06915.02728-.10935.07967-.08839.11532a.07972.07972,0,0,1-.03844.11146c-.0446.02678-.07689-.00384-.07689-.073s-.03387-.11916-.08068-.11916c-.04615,0-.061-.03294-.03461-.07689.026-.04323-.00767-.07687-.07689-.07687s-.10281.03364-.07685.07687c.02634.044-.04614.07358-.16914.06918-.13066-.00467-.16088-.022-.07685-.04423.19935-.05265.1614-.17867-.05381-.17867a.24734.24734,0,0,0-.22292.10761c-.0247.069-.1115.09248-.24216.06535s-.19-.07949-.16531-.14607c.02624-.07066-.0192-.10377-.1422-.10377-.1,0-.19327.03777-.20885.08455a2.73738,2.73738,0,0,1-1.171.0813,4.05143,4.05143,0,0,0-1.17618-.09451,1.48917,1.48917,0,0,1-.59575-.06366c-.025-.04094-.15377-.03936-.31521.00383a1.94942,1.94942,0,0,1-.7264.00386,1.04524,1.04524,0,0,0-.52276,0c-.04017.04018-.10946.01922-.16528-.05s-.117-.1143-.14607-.10762c-.02732.00631-.3113.03939-.62651.073Zm3.52078,1.02349c.09756.02063.83793.0744,1.65276.12007a15.74084,15.74084,0,0,1,2.76743.27885,15.83124,15.83124,0,0,1,2.629.87441c.29981.138.67428.30724.84561.38219.17033.07451.75334.342,1.30681.59961s1.13654.52166,1.30685.59191c.16914.06977.37669.16489.46124.2114.0861.04736.32284.16876.5381.27591a11.4951,11.4951,0,0,1,2.32926,1.63308,3.05984,3.05984,0,0,1,.47658.54325c0,.03727.04614.06918.1.06918a4.20733,4.20733,0,0,1,.949,1.03779c.08748.12774.27456.45356.41932.73029a4.73628,4.73628,0,0,0,.30751.53693,12.40317,12.40317,0,0,1,.78982,1.57706,21.39105,21.39105,0,0,1,.97831,3.3824c.03774.25216.08825.7226.11139,1.0378a2.18283,2.18283,0,0,0,.10762.64188.33043.33043,0,0,1,.00384.269,7.33988,7.33988,0,0,0-.1097.99553,14.41319,14.41319,0,0,1-.72891,3.367c-.13506.37669-.31383.87419-.39768,1.107a28.49216,28.49216,0,0,1-1.64341,3.25942,4.89153,4.89153,0,0,0-.33741.515,10.49823,10.49823,0,0,1-.8699,1.03778,16.11362,16.11362,0,0,1-2.71619,2.60888,4.01577,4.01577,0,0,0-1.21417.93494c.00819.03818-.18493.145-.43093.23832a2.33771,2.33771,0,0,0-.60727.32286.522.522,0,0,1-.27674.15374.21489.21489,0,0,0-.16144.073.873.873,0,0,1-.34978.1576.69923.69923,0,0,0-.37669.22294.21529.21529,0,0,1-.25753.10377.36558.36558,0,0,0-.30747.08839.4103.4103,0,0,1-.23833.123c-.16144,0-.6478.221-.50735.2305.06517.00441.03847.03956-.06148.08084-.1153.04764-.15673.10645-.11917.16912.03732.06219.01157.05811-.073-.01153-.11206-.09224-.12356-.08841-.08072.0269.04245.11435.02687.12252-.1038.05445-.22059-.11491-.17677-.13005-1.75268.60538a2.82218,2.82218,0,0,1-.49969.18127,5.49031,5.49031,0,0,0-1.51436.52913c-.15374.1354-.17681.13865-.17681.025,0-.12654-.16914-.12481-.5381.00541a2.18034,2.18034,0,0,1-.34595.07144c-.12813.01709-.53809.08369-.92249.1499a10.73146,10.73146,0,0,1-1.07619.13453c-.51506.02061-.57654.07555-.57654.515a3.41718,3.41718,0,0,0,.53043,1.4583.49642.49642,0,0,1,.10872.23291,2.72133,2.72133,0,0,0,.82911,1.15309.23339.23339,0,0,1,.18447.07687c.02768.04613.02156.073-.01537.06716-.14607-.023-.17653.02-.08325.11733.302.31518.35868.41873.26776.48942a.70838.70838,0,0,1-.34208.07175c-.20755,0-.2424-.02342-.206-.13836.05117-.16143-.15937-.20331-.23189-.04613-.02381.05149-.02392.01922-.00032-.073.02754-.10762-.002-.18136-.08459-.2114-.09222-.03353-.11424-.01361-.08068.073.0319.08249-.01541.14162-.15377.19218-.16911.06181-.18508.09137-.10376.19219.05578.06919.06711.14628.02691.18385-.09993.09345-.42087.1779-.39685.10442.0109-.03329-.05786-.14605-.15011-.246-.17745-.19216-.18916-.369-.02192-.32936.05994.01422.07478-.03192.04239-.13186-.0598-.1845.07038-.21014.23435-.04611a.46615.46615,0,0,0,.28443.11529c.15747,0,.15374-.01243-.05381-.18066a.59593.59593,0,0,0-.48045-.15372c-.17677.01847-.25151-.00324-.23832-.06918.01027-.05127-.03458-.082-.09609-.06592-.3997.10471-.50036.10673-.40842.00825.0727-.0779.05177-.1499-.09507-.32671a.9314.9314,0,0,1-.18834-.29979c0-.04614-.05378-.044-.14607.00579-.19985.10785-.27649.10393-.1874-.00964.12064-.15375.08863-.354-.05089-.31811-.08459.02179-.1307-.00839-.1307-.08547,0-.06918.03063-.11916.073-.11916.03961,0-.00875-.08455-.10551-.1845-.16366-.16912-.35559-.1853-.4559-.03844-.02272.03326-.08258-.00383-.13042-.0807-.07446-.11976-.06535-.13613.05765-.1036.197.05209.19218-.0698-.00767-.19557-.08459-.0532-.13126-.13132-.10379-.17359.02729-.04195-.01991-.15376-.10376-.246a2.29145,2.29145,0,0,1-.27673-.41128,1.43723,1.43723,0,0,0-.31134-.392c-.17878-.14227-.33442-.15057-3.05574-.16315a39.78837,39.78837,0,0,1-4.36635-.12667c-.10477-.02015-.38435-.07337-.61494-.11712a6.69839,6.69839,0,0,1-1.58116-.3887.30122.30122,0,0,0-.22154-.06919,3.72442,3.72442,0,0,1-.81867-.26906,5.56492,5.56492,0,0,0-.7188-.269,1.4728,1.4728,0,0,1-.37283-.15761.65487.65487,0,0,0-.35741-.11531c-.03658.02369-.14994-.02534-.25753-.11144a.67635.67635,0,0,0-.29981-.15376c-.14607,0-.52276-.18278-.52276-.25367,0-.02872-.05378-.05383-.11529-.05383a2.84209,2.84209,0,0,1-.62268-.269,2.41168,2.41168,0,0,0-.69184-.269.62894.62894,0,0,1-.34208-.13453.80569.80569,0,0,0-.21138-.14222,2.3346,2.3346,0,0,1-.28444-.09992c-.1307-.05229-.2373-.09226-.246-.09226a3.30427,3.30427,0,0,1-.269-.23831,4.51969,4.51969,0,0,0-.90712-.54579,6.60023,6.60023,0,0,1-.69078-.3536,1.70832,1.70832,0,0,0-.56222-.33074c-.03078.00888-.05382-.03057-.05382-.09207,0-.06028-.08455-.12894-.19218-.15605-.18451-.04648-.59011-.39156-.53042-.45124.05792-.05793-.48432-.43383-.5458-.37835-.03443.03106-.03785.01321-.0077-.0406a.0957.0957,0,0,0-.06148-.14222.35082.35082,0,0,1-.16144-.1922c-.02427-.07685-.08255-.146-.123-.146a.9968.9968,0,0,1-.45354-.45356c0-.04393-.05765-.10983-.13453-.15375S4.8322,28.9,4.86955,28.89781c.0363-.00212-.09183-.18834-.28827-.419a3.1412,3.1412,0,0,1-.35361-.46123,1.31306,1.31306,0,0,0-.23063-.28827.992.992,0,0,1-.23062-.319,3.04359,3.04359,0,0,0-.23059-.53041,1.34748,1.34748,0,0,1-.18834-.52659c.02536-.04381.01308-.073-.03078-.073-.04045,0-.097-.11146-.12683-.24982a1.393,1.393,0,0,0-.10393-.32671c-.05751-.08818-.06679-.13069-.07893-.36131-.0077-.14607-.02272-.15674-.0862-.0615-.06148.09226-.07436.08457-.06419-.03842.026-.31518-.0128-.49969-.10492-.49969-.05328,0-.10355-.08072-.10763-.173a5.32088,5.32088,0,0,0-.17677-.74949,2.44735,2.44735,0,0,1-.123-1.07623,2.00732,2.00732,0,0,0-.03461-.71875q-.08067-.21909-.0038-.3152c.04305-.05379.05487-.11638.02687-.1422a1.05756,1.05756,0,0,1-.04227-.41126.71109.71109,0,0,0-.07685-.419.11144.11144,0,0,1-.01924-.15374,2.20472,2.20472,0,0,0,.07688-.64188A7.86909,7.86909,0,0,1,2.47881,18.593c.1083-.44588.22011-.962.24983-1.1531a1.25417,1.25417,0,0,1,.13457-.442c.04519-.05381.0587-.11807.0307-.14607a.11087.11087,0,0,1,.01541-.13451,2.07008,2.07008,0,0,0,.16527-.46893,3.62759,3.62759,0,0,1,.24212-.65343,1.43751,1.43751,0,0,0,.14224-.33821,5.88447,5.88447,0,0,1,.42062-.96862c.05543-.1043.1671-.31517.2443-.46122a1.70328,1.70328,0,0,1,.19218-.30749c.0274-.021.24631-.419.48432-.8802a5.73714,5.73714,0,0,1,.565-.94553c.08455-.06714.09-.08407.01537-.048-.10928.05292-.0453-.025.576-.70152a4.11515,4.11515,0,0,0,.70362-.92247,1.44944,1.44944,0,0,1,.23477-.33056c.09932-.10761.16678-.2442.14607-.296-.02385-.05963.00383-.08.073-.05379.06152.02333.11185.01125.11227-.02691A7.20938,7.20938,0,0,1,8.90922,7.76543c.10253-.05761.30748-.172.46125-.25744a5.14225,5.14225,0,0,0,.54576-.36253,11.1413,11.1413,0,0,1,2.76743-1.43259c.23252-.07391.63035-.22776.884-.34194s.80716-.3165,1.23-.44969.87254-.28013.99934-.32648a9.08813,9.08813,0,0,1,1.23-.33855c.2525-.05464.79179-.18685,1.19155-.29205a10.67513,10.67513,0,0,1,1.09543-.23446,1.884,1.884,0,0,0,.442-.08925,21.97523,21.97523,0,0,1,3.07494-.49281c.76871-.05965,6.29366-.038,6.59565.02582Zm-14.625.87527c-.02367.02581-.08455.00385-.13836-.05-.07478-.07474-.06535-.085.04228-.04611.07685.02775.11958.07045.09608.09609ZM2.61334,14.28815a.077.077,0,0,1-.08072.07687c-.04611,0-.061-.03294-.0346-.07687.02768-.04611.06-.07685.08072-.07685s.0346.03074.0346.07685Zm45.85838,1.97948c-.02666.02662-.08388-.00383-.12264-.06535-.11142-.17681-.08026-.24175.05163-.10761.0681.06918.09912.14486.071.173Zm-.84781,7.93711c.06151.09881-.04007.09776-.1938-.002-.10175-.06605-.1-.07486.01537-.07486a.23828.23828,0,0,1,.17843.07689Zm-.70119,1.44519c.02026.03238-.03074.0615-.10759.0615s-.12789-.02912-.10763-.0615a.12492.12492,0,0,1,.21522,0Zm-.4151.93786c0,.04613-.01382.07687-.03458.07687s-.053-.03074-.08071-.07687c-.02638-.04393-.01154-.07688.0346-.07688a.077.077,0,0,1,.08069.07688ZM42.5218,30.68126c-.07474.07474-.085.06533-.04615-.0423.02772-.07686.07045-.11956.09609-.09607.02582.02367.00383.08456-.04994.13837Zm-4.77765,2.21008a.07687.07687,0,1,1-.07689-.07687.07265.07265,0,0,1,.07689.07687Zm-1.21459.70724c-.05382.05381-.09226.06019-.09226.01537,0-.09995.09472-.19364.14607-.14446.0224.02149,0,.07527-.05381.12909Zm.40743.67646c.02638.04394.0115.07688-.03461.07688a.077.077,0,0,1-.08072-.07688c0-.04611.01386-.07687.03457-.07687s.05308.03076.08076.07687Zm-6.08066,1.16848a.194.194,0,0,1-.14987.0615c-.06148,0-.11146-.02758-.11146-.0615,0-.03468.06535-.0615.14987-.0615s.13319.02682.11146.0615Zm2.54834.3536c-.02367.02583-.08455.00385-.13836-.05-.07471-.07474-.06532-.085.04227-.04611.07689.02775.11959.07046.09609.09607ZM24.9064,37.16547c0,.06148-.03588.09378-.07685.06918a.08044.08044,0,0,1-.035-.11531c.06707-.11067.11181-.09224.11181.04613Zm.76871.06148c0,.01786-.05.0501-.11916.07688s-.09911.01388-.07147-.03074c.04288-.0692.19063-.10492.19063-.04614Zm-.38432.19988a.077.077,0,0,1-.08075.07688c-.04611,0-.061-.03295-.03458-.07688.02768-.04613.06-.07687.08072-.07687s.03461.03074.03461.07687Zm4.37405.07838c-.123.07752-.18127.04111-.11308-.07068a.10038.10038,0,0,1,.13229-.03844c.04966.02836.04227.07034-.01921.10912Zm-3.836.10611a.32363.32363,0,0,0,.11533.20147c.146.11891.14849.20123.00763.25621q-.10763.042-.06919-.09637t-.123-.18065q-.16143-.04228-.11473-.16529c.05835-.15375.18392-.16423.18392-.01537Zm3.9205.19987a.077.077,0,0,1-.08071.07688c-.04611,0-.061-.03295-.03461-.07688.02768-.04613.06-.07687.08075-.07687s.03457.03074.03457.07687Zm.64984.99167c.07562.123-.08881.16379-.18581.04611-.07974-.09671-.07583-.11531.02409-.11531a.19775.19775,0,0,1,.16172.0692Z"/><path d="M23.138,8.014a1.96007,1.96007,0,0,0-.45912.20416,2.15835,2.15835,0,0,1-.59395.22488,1.07669,1.07669,0,0,0-.50288.23871.65131.65131,0,0,1-.28787.18338,1.3145,1.3145,0,0,0-.40811.30793,1.4981,1.4981,0,0,1-.532.35291.3813.3813,0,0,0-.28788.211c-.03755.08995-.10264.16607-.14213.16607-.0389,0-.07287.04843-.07287.10381a.10932.10932,0,0,1-.1166.10379c-.08163,0-.10536.0415-.07911.1384a.30609.30609,0,0,1-.29257.346c-.06833,0-.09293.04152-.0656.11071.0328.08305.0155.10033-.06924.06921-.0656-.02413-.09617-.01542-.07287.02074s-.00573.10726-.06923.16955a.34149.34149,0,0,0-.10931.16607.71186.71186,0,0,1-.12756.22836.805.805,0,0,0-.13844.26292.81909.81909,0,0,1-.0656.20762.48591.48591,0,0,0-.04008.23526.097.097,0,0,1-.10569.1211c-.07287,0-.10445.03953-.08014.10033a.19422.19422,0,0,1-.051.19028.72763.72763,0,0,0-.067.47055,3.04772,3.04772,0,0,0,.104.86495,1.2444,1.2444,0,0,1,.05409.346.43811.43811,0,0,0,.1239.33214.148.148,0,0,1,.06557.19028c-.02463.07612-.01035.13493.0328.13493.04373,0,.07651.04152.07651.0969a.16229.16229,0,0,0,.113.13838c.06557.02412.09461.06909.06921.10727-.02346.03527.0255.101.1057.14185s.1494.12261.1494.17643c0,.0552.06557.10033.14574.10033s.14577.03117.14577.06922.06557.06919.14574.06919.14577.028.14577.06226a2.53488,2.53488,0,0,0,1.10044.35293,1.30792,1.30792,0,0,0,.50287-.13493c.13847-.07325.36-.18237.48465-.23874a.6007.6007,0,0,0,.26964-.21105.2063.2063,0,0,1,.17854-.10726c.15307,0,.40923-.22735.33527-.29754-.02661-.02528-.011-.04843.0328-.04843.04867,0,.08381-.045.08381-.10726a.16114.16114,0,0,1,.1093-.14531.8834.8834,0,0,0,.26235-.37367.89264.89264,0,0,1,.2551-.37021.1623.1623,0,0,0,.102-.13838.5629.5629,0,0,1,.164-.26988c.09062-.09179.26181-.28371.38261-.429a1.40329,1.40329,0,0,1,.45551-.35636c.13117-.05175.23684-.12429.23684-.16262,0-.03774.0911-.08964.20044-.11416a.99776.99776,0,0,0,.29514-.11437,3.60306,3.60306,0,0,1,.962-.21893.4288.4288,0,0,1,.25508.03228.83363.83363,0,0,0,.29151.08831,2.46925,2.46925,0,0,1,1.52548,1.0742c.06839.12455.15187.22143.19083.22143.03837,0,.06921.211.06921.474a1.05616,1.05616,0,0,1-.16395.70926,4.77058,4.77058,0,0,0-.27142.44288,3.55863,3.55863,0,0,1-.91288,1.0584c-.20406.15905-.42053.33121-.49194.39126a.49821.49821,0,0,1-.1822.11071,1.35585,1.35585,0,0,0-.30608.20759,1.185,1.185,0,0,1-.30974.20415,2.10859,2.10859,0,0,0-.71419.33214c0,.03018-.164.09625-.36075.14531a1.20547,1.20547,0,0,0-.44457.18683.28082.28082,0,0,1-.18581.09688c-.11868,0-.32232.28371-.33779.47055a.21236.21236,0,0,1-.09222.17645,1.60186,1.60186,0,0,0-.0984.71271,6.3156,6.3156,0,0,1-.05464.79923.38772.38772,0,0,0,.03644.24912c.0384.06919.04872.15441.02186.1799a1.311,1.311,0,0,0-.06921.44288c-.00992.2145-.02786.52067-.0393.67119a.932.932,0,0,0,.16682.65738c.09839.18683.09269.21236-.03644.1633-.08-.03036-.095.0166-.06924.21727a.57723.57723,0,0,1-.0436.346,1.32112,1.32112,0,0,0,.032.775c.04695.22143.2174.44184.314.406.051-.0189.09657-.005.10933.03334.0121.03638.09837.07964.19314.09688a1.17053,1.17053,0,0,1,.34248.1384.69109.69109,0,0,0,.277.10726.29454.29454,0,0,1,.19677.10724c.074.08715.11294.08975.20771.01383a.81541.81541,0,0,1,.43-.083c.23321.00773.332-.02235.38624-.11764a.26987.26987,0,0,1,.215-.128c.0802,0,.14213-.0422.14213-.09685,0-.05407.06924-.11369.15668-.135.102-.02476.14144-.07425.113-.14183a.17136.17136,0,0,1,.062-.18338.3.3,0,0,0,.10567-.20759,1.0036,1.0036,0,0,1,.14574-.37367c.08211-.1384.12669-.24564.102-.24564-.02354,0-.00974-.04152.03-.09.102-.12457.16843-.53283.08664-.53283-.044,0-.04254-.07264.00364-.18336.04333-.10381.05912-.19839.03646-.218-.02081-.01794-.00149-.07957.04007-.128.05528-.06445.05753-.15572.00727-.2941-.04018-.11073-.05488-.21928-.03277-.24218.02242-.02326,0-.04155-.051-.04155-.07287,0-.07356-.02074-.00364-.10376q.08745-.10383.01091-.10381c-.05026,0-.04007-.083.02977-.24219.12449-.28372.13359-.58817.01762-.58817-.05039,0-.03956-.045.02914-.12109a.94558.94558,0,0,0,.16034-.38059c.0286-.14531.07345-.26182.10206-.26477.47368-.04881.88909-.24032.88909-.4099,0-.12724.17491-.18355.45185-.14543.02845.00393.072-.05871.09837-.14173.03747-.11767.06109-.12851.113-.05191.05247.07751.0656.07612.0656-.00693s.01239-.08582.06194-.01383c.04721.06853.1166.04629.29151-.09343.12387-.09895.22957-.22954.22957-.28369a.16853.16853,0,0,1,.10931-.1384.1873.1873,0,0,0,.10933-.16607.27676.27676,0,0,1,.1494-.20412c.08017-.04087.12913-.10661.10567-.14188-.02539-.03817.00364-.06574.06924-.06574s.113-.0319.113-.07609c0-.09424.14574-.233.30607-.29133a.33823.33823,0,0,0,.17857-.16884,1.11162,1.11162,0,0,1,.21864-.28716c.107-.10381.1562-.2115.13115-.28717-.02606-.07871.01093-.13684.10569-.16609a.34669.34669,0,0,0,.19678-.19722.55458.55458,0,0,1,.1676-.23526c.07287-.05188.08381-.08395.02917-.08546-.16188-.00454-.102-.13259.07287-.156a.202.202,0,0,0,.18218-.17715c.01167-.08305.05418-.15572.0911-.15572.03776,0,.06923-.05188.06923-.11416,0-.10089-.0182-.09892-.15667.01728-.15323.12855-.15445.128-.05467-.02421.05443-.083.14457-.15569.19314-.15569.05,0,.0911-.0796.0911-.17645,0-.11072-.02853-.1597-.07653-.13148-.04374.02573-.07088.00345-.06329-.0519.04052-.29755-.01354-.47771-.13712-.45687-.0924.01562-.13038-.031-.14943-.1832-.0216-.173-.00823-.19094.08746-.11762.09607.0735.12462.06571.19059-.0519.08147-.14534-.00894-.25968-.14319-.18109a.14839.14839,0,0,1-.14577.00035c-.09359-.0544-.01457-.24136.102-.24136.10389,0,.12615-.20759.03412-.31833a.57752.57752,0,0,1-.02322-.33214,1.24972,1.24972,0,0,0-.0437-.49821,2.54574,2.54574,0,0,1-.10472-.41517c-.02508-.20759-.07138-.255-.27789-.28426-.19678-.02792-.26829-.09621-.14575-.13922a.14469.14469,0,0,0,.09474-.13011c0-.07751-.02919-.07962-.14577-.01066-.1895.11208-.28853-.00456-.10933-.12868.0729-.05049.0988-.09592.05469-.09592a.18035.18035,0,0,0-.12894.06919c-.09092.13946-.18754.06228-.15588-.12455a.44392.44392,0,0,0-.38932-.49821c-.13118,0-.145-.01761-.07593-.09688.12056-.13841-.27388-.40478-.45609-.308a.25219.25219,0,0,1-.19677.024.14845.14845,0,0,1,.01457-.26333c.0729-.02613.07457-.0539.0073-.12044-.06637-.06561-.113-.06644-.19314-.00345-.08731.06858-.1101.05533-.13117-.07612-.01664-.10381-.06733-.15315-.14574-.14188A.15489.15489,0,0,1,29.227,9.5917c-.02139-.05535-.00608-.10378.03277-.10378.164,0,.03647-.13546-.35708-.37929a1.46664,1.46664,0,0,0-.63405-.25388.81465.81465,0,0,1-.38624-.10033c-.09474-.05868-.19455-.08725-.22958-.06574-.03335.02049-.1494-.045-.25144-.14185a.388.388,0,0,0-.33158-.14531.41823.41823,0,0,1-.29517-.06919c-.1166-.07909-.17647-.08486-.25141-.02424-.07677.06211-.12159.04845-.204-.06226-.05674-.07612-.12934-.11943-.15673-.09343-.02914.02769-.07913.00693-.1166-.04843-.05621-.08305-.102-.08055-.32065.01729-.24051.10766-.257.10746-.28787-.00343-.02506-.09-.0345-.09245-.04008-.01041-.00549.08046-.08746.10381-.328.09341a1.33775,1.33775,0,0,1-.40811-.06574,1.29786,1.29786,0,0,0-.38991-.07264c-.168-.01154-.44821-.03462-.63039-.05191A2.24524,2.24524,0,0,0,23.138,8.014Zm3.92087,1.15559q.1749.09.08747.14188a.17764.17764,0,0,1-.1895-.03115.30523.30523,0,0,0-.24051-.04152.22994.22994,0,0,1-.22957-.06229c-.07884-.08985-.05828-.10333.15306-.10033a1.15786,1.15786,0,0,1,.419.09341Zm3.2868,1.35628a.06537.06537,0,0,1-.06924.06919.14269.14269,0,0,1-.113-.06919c-.0254-.04019.00363-.06919.06923-.06919s.113.029.113.06919Zm.1822.41516c.0254.04021-.00363.06921-.06923.06921s-.113-.029-.113-.06921a.0654.0654,0,0,1,.06923-.06919.14271.14271,0,0,1,.113.06919Zm-4.15408.16262c.12823.0865.1239.09343-.05827.09343-.11663,0-.19678-.03805-.19678-.09343,0-.04843.02805-.09341.05831-.09341a.58074.58074,0,0,1,.19674.09341Zm-2.49605.37021a.40829.40829,0,0,1-.21866,0c-.07226-.0196-.03277-.03459.0911-.03459s.17921.015.12756.03459Zm7.70686.44633c0,.03135-.051.05881-.10933.05881s-.10931-.02746-.10931-.05881.051-.05883.10931-.05883.10933.02746.10933.05883Zm-6.77766.54319c0,.03953-.05467.06919-.12757.06919-.1093,0-.11188-.00975-.0182-.06821.13847-.0864.14577-.08642.14577-.001Zm7.03274.20757c.025.03956.01093.06921-.0328.06921a.07139.07139,0,0,1-.07651-.06921c0-.0415.01314-.06916.03277-.06916s.05029.02766.07654.06916Zm-3.06089.20759c.02333.03692-.00727.06922-.0656.06922a.20362.20362,0,0,1-.153-.06922c-.02336-.03688.00727-.06919.06557-.06919a.20386.20386,0,0,1,.153.06919Zm3.09732.47058a.10887.10887,0,0,1-.153.111c-.078-.04569-.01459-.16643.08744-.16643.03936,0,.0656.02215.0656.05539Zm-.25141.27675c-.02245.02326-.08017.00346-.1312-.045-.07085-.06727-.06194-.07652.0401-.04155.07287.025.11334.06342.0911.0865Zm-1.77825.72312c-.07085.06728-.08054.05881-.0437-.03807.02627-.06917.06679-.10762.0911-.08648.02447.02129.00363.0761-.0474.12455Zm-9.41223.98259c0,.0187-.02914.04777-.07287.07267-.04166.02371-.07287.01038-.07287-.03115a.071.071,0,0,1,.07287-.07264c.04373,0,.07287.01242.07287.03112ZM29.574,18.525c.02572.06229.01372.08716-.03.06229a.1321.1321,0,0,1-.07287-.10384c0-.098.05432-.07609.10288.04155Zm-.28445.09686c.02437.03913-.0298.06919-.12453.06919-.13845,0-.14861-.012-.05831-.06919.1312-.083.1312-.083.18284,0ZM28.961,18.871c0,.01477-.051.02772-.10933.02772s-.10931-.03072-.10931-.06576.051-.048.10931-.02767.10933.051.10933.06571Z"/><path d="M24.47671,27.20924a.19907.19907,0,0,1-.20182.04019,1.12457,1.12457,0,0,0-.85173.47188,1.70634,1.70634,0,0,1-.21214.30447,1.79254,1.79254,0,0,0,.05982,1.14176c.04227.0484.06334.10432.0457.12107a.99085.99085,0,0,0,.07494.37021c.15179.47748.44977.86447.70121.91056.10933.02005.20407.06637.20407.0997,0,.08532.328.06922.42268-.02074a.19686.19686,0,0,1,.21134-.02177c.20389.08446.33318.04251.53005-.172a.80993.80993,0,0,1,.29348-.22143.30473.30473,0,0,0,.16036-.08995.47117.47117,0,0,1,.27691-.07982c.26965-.01267.48465-.16237.23324-.16237-.1968,0-.23215-.27648-.03646-.28494.08016-.00346.09715-.01857.04373-.03891-.10931-.0415-.12555-.16053-.02187-.16053.23321,0,.5071-.52743.29878-.57538-.12416-.0286-.08744-.05042.24781-.14725.0583-.01688.1093-.06713.1093-.10772,0-.04442-.03641-.05465-.08744-.02459-.153.0902-.3052.093-.21134.00381.11424-.10848.102-.18684-.02916-.18684-.15264,0-.13847-.1383.01459-.14208.08306-.002.051-.03747-.08746-.09663-.12388-.053-.19022-.09643-.15307-.10033.0375-.004.01566-.05881-.051-.128s-.11085-.14777-.10318-.18335c.01592-.0738-.58188-.38916-.69848-.36845a.05766.05766,0,0,1-.06886-.07443c.02415-.11686-.12791-.10656-.27365.01854s-.58305.06451-.58305-.0808c0-.11072-.1887-.12087-.2573-.01386Z"/></svg>