<svg xmlns="http://www.w3.org/2000/svg" viewBox="0 0 38 44"><title>icn_foot_09</title><path d="M19.762,2.19645a2.479,2.479,0,0,1-.49884.01962.17016.17016,0,0,0-.1485.03363c-.03924.033-.08368.03664-.10107.0084a1.51032,1.51032,0,0,0-.75368.03487.30213.30213,0,0,1-.20739.01.14547.14547,0,0,0-.18726.06725c-.07059.09994-.2051.08408-.14248-.01681.03827-.06166.03827-.06166-.18592.00174-.20738.05865-.27121.02247-.17122-.097.06075-.0726.05354-.07527-.053-.01962-.0897.04688-.13327.04765-.15976.00281q-.03644-.06166-.15413.044c-.15132.13581-.31947.20114-.31947.12417,0-.07578-.51817,0-.575.08406-.02647.03925-.05688.04127-.08363.0056a.61977.61977,0,0,0-.32229-.056c-.213,0-.28022.02019-.28022.08407a.11084.11084,0,0,1-.09812.10089c-.056.00961-.09809-.0084-.09809-.042,0-.03137-.03921-.05885-.08406-.05885a.08349.08349,0,0,0-.08406.07847c0,.13089-.213.163-.57731.087a.91486.91486,0,0,0-.63615.03075.83038.83038,0,0,0-.29986.14011c0,.02289-.028.0408-.06727.043a4.8097,4.8097,0,0,0-.86875.24661.30417.30417,0,0,1-.213.02708c-.056-.02277-.075-.01226-.05045.028.02667.04379-.00838.05546-.10927.03644s-.14856-.00465-.14856.04483c0,.09528-.20884.20686-.29142.15571q-.22417-.13888-.64457.091c-.16256.0889-.29706.13709-.29706.10643,0-.03272-.028-.03833-.06727-.0135a2.91437,2.91437,0,0,1-.75663.242.26013.26013,0,0,0-.18218.07978.71517.71517,0,0,1-.2438.14853,1.16693,1.16693,0,0,0-.26345.14012c-.04639.03866-.44839.25547-.89678.48366a8.18392,8.18392,0,0,0-1.56936.93832,2.08419,2.08419,0,0,1-.57171.37438.14.14,0,0,0-.10089.1121c0,.04484-.024.07848-.056.07848-.03139,0-.04988.03082-.042.07.0078.03894-.03082.06261-.08685.05325q-.1009-.0168-.0913.08408c.02029.213-.0021.24557-.14414.20942-.10648-.0271-.1401-.01347-.1401.05682,0,.05044-.02292.07847-.05044.06166-.02654-.01623-.0637.01961-.07847.07566a.374.374,0,0,1-.18777.185c-.0953.04682-.15635.11805-.15135.17655.00533.06166-.02072.08767-.07006.07006-.0535-.01911-.07845.01121-.07845.09528a1.35034,1.35034,0,0,1-.40357.64579.16256.16256,0,0,0-.07285.18375c.023.07285.008.10648-.04765.10648-.046,0-.10673.07286-.14012.16815s-.09283.16814-.13732.16814c-.07191,0-.2277.19618-.40057.50445a.79028.79028,0,0,1-.20756.199c-.08407.05659-.14266.12156-.12889.14293a1.19123,1.19123,0,0,1-.15415.38394c-.1225.2354-.20426.33494-.25783.31387q-.07844-.03083-.04765.05325c.01647.04485.00467.08407-.02523.08407-.03159,0-.04134.04764-.02239.1093a.22207.22207,0,0,1-.0785.2214c-.19615.19617-.449.71676-.3811.78468.04452.04453.03362.06165-.03926.06165q-.10086,0-.06724.08968c.10089.269.09948.36748-.00559.39374a.30587.30587,0,0,0-.16556.178,2.462,2.462,0,0,0-.21628.82393.92331.92331,0,0,1-.075.35029.22014.22014,0,0,0-.0112.23541c.04529.08408.04075.12612-.01962.18217a.16058.16058,0,0,0-.03362.19056.166.166,0,0,1-.06165.20936c-.12894.111-.14274.21587-.02244.17011.04485-.01705.08409-.00319.08409.02968a.05743.05743,0,0,1-.05044.06165c-.02931,0-.06457.03644-.08409.08689-.0217.056-.00877.07294.03644.04763.03688-.02064.02921.01122-.01616.06727-.14063.17375-.22454.40778-.1604.4474.02952.01822.04013.085.02241.14111-.01946.06166-.00882.10649.02524.10649.033,0,.05885.06166.05885.14013s.03082.14012.07006.14012c.04483,0,.04988.01448.014.04024a1.24259,1.24259,0,0,0-.0228.63235c.01216.04484-.0112.07685-.05.06861-.08411-.01784-.08611.04349-.0081.24526.03252.08408.03611.16651.0081.18546-.0617.04172-.0617.45762,0,.41954.026-.01609.03072.00873.01118.05918a.17678.17678,0,0,0,.01683.15694.64066.64066,0,0,1,.06213.255c.01488.2354.265.8293.34141.81081.0331-.008.06164.03834.06164.1s-.02595.09933-.056.08128c-.07114-.04269-.07114.03924,0,.2242.03449.08968.08083.13065.1205.1065.04552-.02769.05373-.01122.028.056a.18566.18566,0,0,0,.05045.185.18113.18113,0,0,1,.05885.16255.0686.0686,0,0,0,.03365.09249c.03451.011.06872.08128.07772.15974a.97839.97839,0,0,0,.24734.55488c.08407.08407.10089.13853.05886.19056-.04468.05529-.02167.1121.09527.23541.085.08968.14786.18013.14012.20177s.03644.067.09809.1009.11211.08435.11211.11209a2.76479,2.76479,0,0,0,.7174.89119,2.42129,2.42129,0,0,1,.4176.4624c-.00844.02859.00838.04763.042.04763.02993,0,.05606.03924.05606.08408a.08623.08623,0,0,0,.08409.08408c.04482,0,.08406.03007.08406.06445,0,.03363.01608.04836.03365.03082.01833-.01832.15337.09248.297.24383a1.48957,1.48957,0,0,0,.31107.27743,2.56608,2.56608,0,0,1,.41757.31667,3.18094,3.18094,0,0,0,.55489.39516.46278.46278,0,0,1,.2158.15974c.017.04483.05344.06744.08126.05044.02631-.01608.05045,0,.05045.03363,0,.03556.03644.05063.08126.03362a.10853.10853,0,0,1,.12612.042,1.17014,1.17014,0,0,0,.32509.21361c.71741.36026,1.01273.515,1.03647.54306a1.5804,1.5804,0,0,0,.25265.14572,2.69607,2.69607,0,0,1,.38392.23821.60792.60792,0,0,0,.31948.12612.26776.26776,0,0,1,.19338.056.39084.39084,0,0,0,.2466.056c.16815,0,.22795.02832.28406.13453a.486.486,0,0,0,.51745.16643c.043-.02618.05232-.00109.03083.083-.01721.06726-.00975.10813.01682.09248a.76063.76063,0,0,1,.31666.09248c.14573.06528.32042.14233.38115.16814a1.39858,1.39858,0,0,0,.34189.06639c.19618.016.53632.14125.39795.14654-.10455.004.12332.16208.28583.1983a.43525.43525,0,0,1,.21021.09041c.01759.02884.08126.024.14853-.01119q.1177-.06168.15133-.00562a.554.554,0,0,0,.22979.1149c.109.03269.30828.09995.4484.15134a3.07141,3.07141,0,0,0,.7006.1177,2.84041,2.84041,0,0,1,.66139.10767c.26342.102.29337.10139.206-.004-.103-.1241.01816-.10405.19192.03179.07847.06135.14571.08548.14571.05229,0-.07736.11209-.07014.28024.018a1.79837,1.79837,0,0,0,.75669.038c0-.00617.47922-.01624,1.06773-.02241a8.656,8.656,0,0,0,1.13217-.05325c.03773-.02461.09468.0056.13733.07287a.25033.25033,0,0,0,.17094.1149c.07412,0,.09125.03081.07009.1261-.02139.09609.03867.19617.25221.42036a1.55123,1.55123,0,0,1,.28022.35031c0,.05044.1177.08167.23541.06245.02095-.00341.02488.03284.00841.07768s-.00336.08407.028.08407.07714-.05885.09807-.1261c.03926-.12613.03926-.12613.0897.0196.0388.11211.08019.14.17936.12078.17374-.03364.23593.12313.08968.22619-.1121.079-.1121.079-.00559.17429.08406.07523.11237.07994.1345.02242.01762-.0458.03008-.03643.03362.02522a.095.095,0,0,0,.08688.09809.78416.78416,0,0,1,.28866.19056c.16815.15451.22592.17891.30545.12891a.13876.13876,0,0,0,.07006-.14853c-.0208-.06453-.01144-.06165.03644.01122.03682.056.09088.08246.12611.06165s.04963-.00281.03362.042a.10958.10958,0,0,1-.1205.06165c-.05044-.00918-.09247.01121-.09247.04484s.02549.04637.056.028c.03254-.01953.07014.00281.08971.05325a.2046.2046,0,0,0,.18494.08687.35137.35137,0,0,1,.20739.05606c.09883.09881.32507.09536.61095-.00932.33627-.12316.34043-.12347.25313-.01871-.09809.11771.02973.28486.14479.18938a.128.128,0,0,1,.13171-.024c.03362.0208.05886.0028.05886-.042,0-.07848.16922-.26344.241-.26343.022,0,.03921.06165.03921.14012,0,.08969-.03026.14013-.08407.14013-.04482,0-.08408.02353-.08408.05045,0,.06707.269.13265.34753.08469a.85718.85718,0,0,1,.28865-.03146c.17372.00209.25673-.0284.32786-.1205.052-.06726.11312-.10419.13451-.08128.02167.02321.00787.07847-.03083.12332-.061.07078-.04762.075.10371.03253.2298-.06445.28586-.10324.28586-.19788,0-.04484.02485-.08408.05324-.08408s.03823.03924.021.08408c-.04352.1136.05462.10431.2676-.02535l.17936-.10917-.26063-.06444a.75418.75418,0,0,1-.29427-.11772c-.01923-.03043-.06726-.02562-.11209.01122-.06462.05308-.07847.04764-.07847-.03083,0-.071-.03642-.08886-.14292-.07006-.10088.0178-.13468.00462-.11488-.04485.0149-.03735-.023-.1289-.0813-.19617-.09714-.11209-.12019-.1174-.20736-.04763-.0897.07173-.0917.07029-.02349-.01682.07866-.10041.00385-.19484-.10262-.12962-.034.02081-.0417-.00209-.01965-.05815.02883-.07311.01123-.08486-.08406-.056s-.11332.01766-.08611-.05323c.0401-.10463-.11848-.24913-.2754-.251-.07285-.00084-.09673-.02779-.07568-.08531.01647-.04484.01254-.08146-.00838-.07848a.71491.71491,0,0,1-.12332-.0028c-.06724-.00672-.06165-.02579.028-.09527.11007-.08531.1093-.08623-.042-.05045l-.15412.03643.03362-.40074c.02444-.29146.01449-.413-.03644-.4456a.07946.07946,0,0,1-.02523-.1121c.02618-.03923.0599-.04389.08093-.0112a3.76215,3.76215,0,0,0,1.30909-.18534.80347.80347,0,0,1,.29707-.0837.22074.22074,0,0,0,.18215-.09529c.03731-.0668.1345-.09862.32509-.1065a3.21176,3.21176,0,0,0,.44-.04763c.09378-.02032.297-.0637.4596-.09809s.28029-.08023.26624-.10368c-.0139-.02314.06165-.05841.16812-.07847a1.71873,1.71873,0,0,0,.43442-.17376,1.08539,1.08539,0,0,1,.33066-.13815,2.63368,2.63368,0,0,0,.7534-.39711.18213.18213,0,0,1,.14058-.05044.55171.55171,0,0,0,.20739-.04765l.30545-.14853a.37512.37512,0,0,0,.241-.25783c.03-.14012.04531-.14971.14292-.08966.06165.03793.08488.07579.05323.08685a.07791.07791,0,0,0-.056.07008c0,.0923.17031-.01682.175-.11211.00272-.056.0149-.0634.03239-.0196a.104.104,0,0,0,.0785.07005c.08406,0,.2725-.18422.2408-.23541-.01518-.02445.05624-.03846.15712-.03082.12894.00976.18074-.00808.171-.05885-.00754-.03924.01054-.05863.03924-.042.03093.01792.07324-.00561.10088-.056a.25057.25057,0,0,1,.18216-.09684.43337.43337,0,0,0,.3334-.2927c.00159-.031.08416-.09607.18505-.14573.12891-.06345.17725-.12326.16535-.20457-.01328-.09062.02521-.1226.18215-.15133.1121-.02053.199-.05969.199-.08969a.05844.05844,0,0,1,.06165-.05325,1.56939,1.56939,0,0,0,.36712-.30546,3.78263,3.78263,0,0,1,.49884-.426c.10647-.06636.19335-.15451.19335-.19617,0-.0454.03365-.06334.08409-.04484.04485.01644.08406.00336.08406-.028,0-.03363.05045-.07454.11771-.09546.16256-.05057.38674-.25029.38674-.34453,0-.04482.024-.06363.056-.04384.07085.04377.3326-.14112.33468-.2364a.08332.08332,0,0,1,.08568-.07286.0897.0897,0,0,0,.08409-.09807c0-.08408.008-.08609.05606-.014.04734.071.06126.06447.08967-.042.01793-.06727.05847-.12612.08689-.12612a.28856.28856,0,0,0,.13732-.08406c.04483-.04485.06575-.08408.04483-.08408a1.74524,1.74524,0,0,1,.30827-.33909,1.331,1.331,0,0,0,.31948-.38114c-.01521-.02277.03362-.08828.1065-.14292.08406-.06306.12191-.13348.10088-.18776-.01954-.05045-.009-.07159.02521-.05045a.089.089,0,0,0,.11366-.03082,9.877,9.877,0,0,0,.685-1.40123c0-.056.02244-.10089.05045-.10089.07267,0,.19023-.37552.14212-.454q-.04121-.06726.05126-.03364c.06934.02522.09247,0,.09247-.10088a.80375.80375,0,0,1,.11212-.32508.80435.80435,0,0,0,.11207-.3251c0-.22419.01992-.38362.04485-.35871.034.034.17933-.08407.17936-.14572,0-.02474-.03644-.05238-.08127-.06165-.0596-.01234-.06709-.03924-.028-.10089.04613-.07286.06062-.07286.10873,0,.07122.10789.07142.04483.00044-.14013-.043-.1121-.03652-.1529.02815-.17682a.1024.1024,0,0,0-.0112-.20215c-.07473-.01821-.06168-.03565.05044-.06731.17377-.049.19985-.12454.05606-.16216-.08758-.02288-.08688-.02536.00839-.0305.06726-.00366.09285-.03416.07288-.08688-.017-.04484-.00947-.08881.01679-.09809a.50364.50364,0,0,0,.07009-.269,1.30029,1.30029,0,0,1,.0537-.30826,4.37761,4.37761,0,0,0,.00233-1.07194c-.02162.01313-.07314-.01261-.11491-.05745-.06532-.0702-.05883-.08585.04765-.11491.11363-.031.12024-.056.08406-.31948-.02131-.15546-.04814-.43156-.05883-.60533a1.5108,1.5108,0,0,0-.08127-.43717.33594.33594,0,0,1-.02805-.227c.019-.06165.01167-.10928-.0168-.10928-.0279,0-.03916-.05885-.02521-.13172.01844-.09626-.014-.16284-.1205-.2473-.15694-.12446-.19031-.21285-.06167-.16337.08967.03448.117-.0244.04485-.09658a.36047.36047,0,0,1-.05044-.19337,2.07552,2.07552,0,0,0-.06727-.37271c-.03393-.12333-.07552-.29988-.0925-.39235-.01744-.09529-.05508-.17664-.08686-.18777-.03364-.01178-.04485-.03642-.028-.06165a.74731.74731,0,0,0-.10929-.31107.74906.74906,0,0,1-.1093-.31667c.016-.02723-.00561-.04765-.05044-.04765-.04778,0-.07439-.05044-.068-.1289.01182-.14574-.12978-.38876-.201-.34493-.0275.01694-.067-.011-.08689-.06143a.11148.11148,0,0,1,.028-.13172c.04493-.02733.02283-.11489-.07285-.28866-.07406-.13452-.16959-.32042-.20739-.40354-.03824-.08407-.10063-.15415-.13733-.15415-.05918,0-.07016-.03361-.09126-.28024-.00529-.06166-.02855-.1121-.05165-.1121s-.05716-.05044-.07565-.11209-.0576-.09822-.08689-.08127c-.03092.01791-.05326-.0056-.05326-.056s-.02585-.08689-.06165-.08689c-.034,0-.04782-.03643-.03082-.08128.019-.05-.01121-.0942-.07847-.11488-.06165-.019-.10927-.06538-.10927-.10649a2.87432,2.87432,0,0,0-.639-.69382c-.08409-.07508-.12912-.15856-.10648-.19736.02975-.051.01959-.05171-.04206-.00281-.06216.04929-.10368.04822-.17656-.00454-.13358-.09674-.12891-.1408.01123-.10521.094.02388.08589.00045-.05044-.14528a.55369.55369,0,0,0-.24665-.17374.14138.14138,0,0,1-.11206-.1065.674.674,0,0,0-.25783-.25318c-.26342-.16815-.29127-.17374-.2458-.04948.02257.06165.00828.08092-.04567.06165a.13983.13983,0,0,1-.06445-.14853c.00785-.06725-.01944-.1205-.06165-.1205a.48971.48971,0,0,1-.213-.12612,1.35272,1.35272,0,0,0-.28865-.19617c-.08406-.03893-.15133-.10244-.15133-.14293,0-.08174-.3363-.26343-.48763-.26343a.25256.25256,0,0,1-.16815-.09808c-.04482-.056-.06282-.06687-.042-.02522.05855.11711-.053.07847-.12945-.04484a.2286.2286,0,0,0-.15358-.1121c-.04486,0-.08409-.02616-.08409-.056s-.03924-.056-.08406-.056-.08409-.02094-.08409-.04484c0-.04379-.15694-.11388-.71743-.32035-.189-.06965-.50724-.20727-.69778-.3018a3.11762,3.11762,0,0,0-.43439-.18775.2855.2855,0,0,1-.14015-.07847.4269.4269,0,0,0-.19615-.09582,1.963,1.963,0,0,1-.7522-.26571,2.24527,2.24527,0,0,0-.92927-.30362c-.03362.02075-.056.01218-.056-.02146,0-.043-.19618-.124-.34189-.1411a.15929.15929,0,0,1-.08129-.04666c-.024-.024-.07324,0-.11491.056-.06881.09264-.07293.09249-.0747-.00279-.00188-.10089-.11584-.1395-.11584-.03924a.05615.05615,0,0,1-.05885.056c-.03408,0-.0447-.04484-.02524-.10649.02749-.08714.01121-.1009-.08968-.07568-.08406.021-.11083.01032-.08406-.03362q.03919-.06447-.05326-.028a.11455.11455,0,0,1-.13451-.03082.1146.1146,0,0,0-.13453-.03083c-.05041.01989-.07972.05809-.06444.08408a.05813.05813,0,0,1-.028.08127c-.03252.01952-.05606-.0028-.05606-.05324s-.02469-.08688-.05883-.08688c-.03364,0-.04444-.024-.02523-.05606.01893-.03152-.00559-.056-.05606-.056s-.075.02453-.056.056c.01921.032-.03365.05364-.12332.05044-.09527-.00341-.1173-.016-.056-.03225.14535-.03839.11768-.13027-.03923-.13027a.18034.18034,0,0,0-.16254.07846c-.018.05034-.08129.06743-.17656.04764s-.1385-.05795-.12053-.1065c.01913-.05152-.014-.07566-.10368-.07566-.07288,0-.14091.02754-.15227.06165a1.99609,1.99609,0,0,1-.85378.05928,2.95373,2.95373,0,0,0-.85757-.06891,1.08577,1.08577,0,0,1-.43437-.04642c-.01826-.02985-.11211-.02869-.22982.0028a1.42152,1.42152,0,0,1-.52963.00281.76214.76214,0,0,0-.38116,0c-.02928.02929-.0798.014-.1205-.03643s-.08534-.08335-.1065-.07847c-.01993.0046-.227.02872-.4568.05325Zm2.567.74623c.07113.01505.611.05426,1.20505.08755a11.47827,11.47827,0,0,1,2.01778.20331,11.54415,11.54415,0,0,1,1.91686.63755c.21859.10063.49163.224.61654.27866.1242.05433.54928.24938.95282.43719s.82867.38034.95284.43156c.12332.05087.27465.12023.3363.15414.06277.03453.23539.123.39233.20117a8.381,8.381,0,0,1,1.6983,1.1907,2.231,2.231,0,0,1,.34748.39609c0,.02717.03364.05044.07288.05044a3.06762,3.06762,0,0,1,.69193.75667c.06378.09314.20018.33069.30574.53246a3.45343,3.45343,0,0,0,.2242.39149A9.04223,9.04223,0,0,1,34.636,9.84151a15.5959,15.5959,0,0,1,.7133,2.46616c.02752.18385.06434.52686.08122.75667a1.59117,1.59117,0,0,0,.07847.468.24093.24093,0,0,1,.00279.19615,5.35341,5.35341,0,0,0-.08.72585,10.50885,10.50885,0,0,1-.53145,2.45494c-.09848.27465-.22883.63739-.29.8071a20.77469,20.77469,0,0,1-1.19824,2.37649,3.56519,3.56519,0,0,0-.246.37552,7.6545,7.6545,0,0,1-.63426.75666,11.74877,11.74877,0,0,1-1.98041,1.90217,2.928,2.928,0,0,0-.88527.68168c.006.02784-.13484.10572-.3142.17377a1.70451,1.70451,0,0,0-.44277.2354.38064.38064,0,0,1-.20177.11209.15669.15669,0,0,0-.11771.05324.63651.63651,0,0,1-.255.11491.50985.50985,0,0,0-.27465.16255.157.157,0,0,1-.18777.07566.26649.26649,0,0,0-.22418.06445.29917.29917,0,0,1-.17377.08967c-.11771,0-.47232.16112-.36992.16806.04752.00322.02805.02885-.04483.05895-.08406.03473-.11427.07761-.08688.12331.02721.04534.00844.04236-.05324-.00841-.0817-.06725-.09009-.06446-.05885.01962.031.08337.01959.08933-.07568.03969-.16084-.08378-.12889-.09482-1.27791.44139a2.05642,2.05642,0,0,1-.36433.13217,4.00279,4.00279,0,0,0-1.10414.3858c-.11209.09872-.12891.10109-.12891.01824,0-.09225-.12333-.091-.39234.004a1.59,1.59,0,0,1-.25223.05209c-.09343.01246-.39234.061-.6726.10929a7.82585,7.82585,0,0,1-.78467.09809c-.37554.015-.42036.05509-.42036.37553a2.49149,2.49149,0,0,0,.38674,1.06326.362.362,0,0,1,.07927.16982,1.98415,1.98415,0,0,0,.60451.84074.17021.17021,0,0,1,.13451.056c.02018.03363.01572.05323-.01121.049-.1065-.0168-.12871.01457-.0607.08555.22021.2298.26152.30529.19523.35684a.51655.51655,0,0,1-.24942.05231c-.15132,0-.17674-.01707-.15017-.10088.03731-.1177-.11619-.14824-.16907-.03363-.01736.03754-.01744.014-.00023-.05325.02008-.07848-.00147-.13224-.06168-.15414-.06724-.02445-.08329-.00992-.05883.05325.02326.06015-.01123.10326-.11211.14012-.1233.04507-.13494.06663-.07566.14014.04068.05044.04893.10665.01962.134-.07285.06814-.30686.12971-.28934.07614.008-.02428-.04219-.10649-.10945-.17937-.12938-.14011-.13792-.26908-.016-.24015.0437.01037.05452-.02327.0309-.09614-.04359-.13452.05132-.15321.17087-.03362a.33988.33988,0,0,0,.20739.08406c.11481,0,.11209-.00906-.03924-.13172a.43451.43451,0,0,0-.3503-.11208c-.12889.01347-.18338-.00236-.17377-.05044.00749-.03738-.02521-.0598-.07006-.04806-.29142.07635-.36481.07782-.29778.006.053-.05681.03775-.1093-.06932-.23821a.67921.67921,0,0,1-.13732-.21858c0-.03365-.03921-.03209-.1065.00421-.14571.07864-.20159.07578-.13664-.007.088-.11211.06463-.25814-.0371-.23194-.06168.01588-.0953-.00612-.0953-.06232,0-.05044.02234-.08688.05324-.08688.02888,0-.00639-.06165-.07693-.13452-.11933-.12331-.25927-.13511-.3324-.028-.01657.02425-.06022-.00279-.09509-.05884-.05429-.08732-.04765-.09926.042-.07553.14363.038.14012-.0509-.00559-.1426-.06168-.03879-.09571-.09574-.07568-.12657.0199-.03058-.01451-.1121-.07565-.17935a1.67023,1.67023,0,0,1-.20177-.29988,1.04815,1.04815,0,0,0-.227-.28584c-.13035-.10373-.24383-.10978-2.228-.119a29.012,29.012,0,0,1-3.18357-.09236c-.0764-.01469-.28024-.05349-.44837-.0854a4.8839,4.8839,0,0,1-1.15284-.2834.21959.21959,0,0,0-.16153-.05045,2.715,2.715,0,0,1-.5969-.19618,4.05952,4.05952,0,0,0-.52409-.19615,1.07394,1.07394,0,0,1-.27183-.11491.4776.4776,0,0,0-.2606-.08408c-.02667.01727-.10932-.01847-.18777-.08125a.49311.49311,0,0,0-.21859-.11211c-.1065,0-.38115-.13327-.38115-.185,0-.02093-.03921-.03924-.08407-.03924a2.07221,2.07221,0,0,1-.454-.19617,1.75836,1.75836,0,0,0-.50443-.19617.45847.45847,0,0,1-.24941-.09809.5873.5873,0,0,0-.15413-.10369,1.704,1.704,0,0,1-.20738-.07285c-.0953-.03813-.173-.06727-.17938-.06727a2.41028,2.41028,0,0,1-.19616-.17375,3.29415,3.29415,0,0,0-.66139-.398,4.81011,4.81011,0,0,1-.50366-.25782,1.24561,1.24561,0,0,0-.40992-.24114c-.02244.00647-.03924-.02229-.03924-.06713,0-.044-.06165-.094-.14012-.11378-.13453-.03389-.43026-.28549-.38674-.329.04224-.04223-.35312-.31631-.39795-.27585-.02511.02264-.02759.00963-.00562-.02961a.06976.06976,0,0,0-.04482-.10369.25584.25584,0,0,1-.11771-.14014c-.01769-.056-.06019-.10647-.08968-.10647a.72676.72676,0,0,1-.33068-.3307c0-.032-.042-.08007-.09809-.1121s-.07768-.05725-.05044-.05884c.02646-.00155-.067-.13733-.21018-.30548a2.28917,2.28917,0,0,1-.25783-.33629.95753.95753,0,0,0-.16815-.21018.72334.72334,0,0,1-.16815-.2326,2.21892,2.21892,0,0,0-.16813-.38673.98246.98246,0,0,1-.13732-.38395c.01849-.03194.00954-.05325-.02244-.05325-.02949,0-.07075-.08127-.09247-.18215a1.01622,1.01622,0,0,0-.07578-.23821c-.04193-.06429-.0487-.09528-.05755-.26343-.00562-.10651-.01657-.11429-.06285-.04484-.04483.06726-.05422.06166-.04681-.028.01893-.2298-.00933-.36433-.07649-.36433-.03885,0-.0755-.05885-.07847-.12611a3.88216,3.88216,0,0,0-.12889-.54646A1.78436,1.78436,0,0,1,2.583,17.212a1.46345,1.46345,0,0,0-.02523-.52406q-.05882-.15973-.00277-.22981c.03139-.03922.04-.08486.01959-.10368a.7712.7712,0,0,1-.03082-.29986.51837.51837,0,0,0-.056-.30548.08126.08126,0,0,1-.014-.11209,1.6078,1.6078,0,0,0,.05606-.468,5.73648,5.73648,0,0,1,.15132-.98365c.079-.32509.16049-.70144.18216-.84074a.91444.91444,0,0,1,.09811-.32228c.033-.03924.0428-.08609.02239-.1065a.08085.08085,0,0,1,.01123-.09808,1.50882,1.50882,0,0,0,.1205-.3419A2.64469,2.64469,0,0,1,3.292,11.9994a1.04822,1.04822,0,0,0,.1037-.2466,4.29033,4.29033,0,0,1,.30669-.70623c.04041-.076.12183-.2298.17812-.33629a1.24279,1.24279,0,0,1,.14012-.2242c.02-.01534.17959-.30547.35312-.64176a4.1825,4.1825,0,0,1,.412-.68939c.06165-.049.06563-.06131.01121-.035-.07968.03859-.033-.01826.42-.51149a3,3,0,0,0,.513-.67258,1.05735,1.05735,0,0,1,.17118-.241c.07242-.07846.12161-.178.1065-.21579-.01739-.04348.0028-.05836.05324-.03922.04485.017.08155.00821.08186-.01962a5.25608,5.25608,0,0,1,1.2269-1.12945c.07475-.042.22418-.12544.3363-.1877a3.752,3.752,0,0,0,.39792-.26433,8.12327,8.12327,0,0,1,2.01778-1.04452c.16953-.0539.45959-.16606.64454-.24932s.58851-.23076.89678-.32787.63619-.20425.72864-.238a6.62653,6.62653,0,0,1,.89678-.24684c.1841-.03984.5773-.13623.86878-.21293a7.78058,7.78058,0,0,1,.79869-.17095,1.37381,1.37381,0,0,0,.32227-.06507,16.02178,16.02178,0,0,1,2.242-.35932c.56048-.04349,4.5888-.02769,4.809.01882Zm-10.66331.63818c-.01725.01882-.06165.00281-.10088-.03644-.05452-.0545-.04765-.06195.03082-.03362.056.02023.08719.05136.07006.07006ZM2.77919,11.04657a.05614.05614,0,0,1-.05885.056c-.03362,0-.04447-.024-.02523-.056.02018-.03362.04372-.056.05885-.056s.02523.02242.02523.056Zm33.436,1.44326c-.01944.01941-.06116-.00279-.08942-.04765-.08124-.12891-.05852-.17626.03764-.07845.04965.05044.07227.10561.05178.1261ZM35.597,18.27689c.04485.072-.02921.07128-.1413-.00148-.07419-.04816-.07288-.05458.01121-.05458a.17373.17373,0,0,1,.13009.05606Zm-.51124,1.05371c.01477.02361-.02242.04484-.07845.04484s-.09324-.02123-.07847-.04484a.09108.09108,0,0,1,.15692,0Zm-.30266.68381c0,.03363-.01008.056-.02521.056s-.03867-.02241-.05885-.056c-.01923-.032-.00841-.05606.02523-.05606a.05614.05614,0,0,1,.05883.05606ZM31.877,22.999c-.05449.0545-.062.04764-.03364-.03083.0202-.056.05136-.08718.07006-.07005s.00279.06165-.03642.10088Zm-3.48345,1.6114a.056.056,0,1,1-.05606-.056.053.053,0,0,1,.05606.056Zm-.88558.51566c-.03923.03924-.06726.04389-.06726.01121,0-.07287.06906-.14119.1065-.10532.01634.01566,0,.05487-.03924.09411Zm.29707.49322c.01923.032.00838.05606-.02524.05606a.05614.05614,0,0,1-.05885-.05606c0-.03362.0101-.056.02521-.056s.0387.02243.05888.056Zm-4.4335.852a.14138.14138,0,0,1-.10927.04484c-.04483,0-.08127-.0201-.08127-.04484,0-.02528.04765-.04484.10927-.04484s.09712.01956.08127.04484Zm1.858.25782c-.01726.01884-.06165.00281-.10089-.03643-.05447-.05449-.04762-.062.03083-.03362.05606.02024.08719.05138.07006.07005Zm-6.19622.99768c0,.04483-.02615.06838-.056.05044a.05865.05865,0,0,1-.02549-.08407c.0489-.08069.08152-.06725.08152.03363Zm.56049.04483c0,.013-.03644.03653-.08689.056s-.07226.01012-.05211-.02241c.03127-.05045.139-.0765.139-.03364Zm-.28022.14573a.05617.05617,0,0,1-.05888.05606c-.03362,0-.04444-.024-.02521-.05606.02019-.03363.04373-.056.05886-.056s.02523.02241.02523.056Zm3.18918.05715c-.0897.05652-.13217.03-.08244-.05153a.07319.07319,0,0,1,.09645-.028c.03621.02068.03082.05129-.014.07956Zm-2.79685.07737a.236.236,0,0,0,.08409.14689c.10648.0867.10827.14673.00557.18681q-.07848.03063-.05045-.07027t-.08965-.13171q-.11771-.03083-.08365-.12051c.04254-.11211.13409-.11975.13409-.01121Zm2.8585.14572a.05615.05615,0,0,1-.05885.05606c-.03362,0-.04444-.024-.02524-.05606.02019-.03363.04373-.056.05888-.056s.02521.02241.02521.056Zm.47381.72305c.05513.08965-.06475.11942-.13548.03362-.05814-.07051-.05529-.08408.01756-.08408a.14419.14419,0,0,1,.11792.05046Z"/><path d="M17.744,6.472a1.42885,1.42885,0,0,0-.33475.14886,1.574,1.574,0,0,1-.43306.164.785.785,0,0,0-.36666.174.475.475,0,0,1-.20989.13371.9585.9585,0,0,0-.29756.22451,1.092,1.092,0,0,1-.38788.25731.278.278,0,0,0-.20989.15387c-.02738.06559-.07484.12109-.10363.12109-.02837,0-.05313.03531-.05313.07569a.07971.07971,0,0,1-.085.07567c-.05952,0-.07681.03026-.05768.10091a.22317.22317,0,0,1-.21332.25226c-.04982,0-.06775.03027-.04783.08072.02392.06055.0113.07315-.05048.05047-.04783-.0176-.07012-.01125-.05313.01511s-.00418.07821-.05048.12362a.249.249,0,0,0-.07969.12109.519.519,0,0,1-.093.1665.58673.58673,0,0,0-.10094.1917.59769.59769,0,0,1-.04783.15138.35414.35414,0,0,0-.02922.17153.07069.07069,0,0,1-.07706.08829c-.05314,0-.07616.02883-.05844.07316a.14157.14157,0,0,1-.03719.13873.53058.53058,0,0,0-.04883.34309,2.22141,2.22141,0,0,0,.07581.63064.9078.9078,0,0,1,.03943.25227.31937.31937,0,0,0,.09034.24217.1079.1079,0,0,1,.04781.13874c-.018.0555-.00755.09838.02391.09838.03189,0,.05578.03028.05578.07066a.11834.11834,0,0,0,.08239.10089c.04781.01758.069.05037.05046.07821-.0171.02572.01859.07365.07707.10343s.10893.08939.10893.12863c0,.04025.04781.07316.10626.07316s.10628.02272.10628.05046.04781.05045.10626.05045.10629.02045.10629.04539a1.84813,1.84813,0,0,0,.80234.25733.95342.95342,0,0,0,.36665-.09838c.101-.0534.26251-.133.35337-.17407a.43793.43793,0,0,0,.1966-.15387.15039.15039,0,0,1,.13017-.07821c.11161,0,.29838-.16576.24445-.21694-.0194-.01843-.008-.03531.02392-.03531.03548,0,.0611-.0328.0611-.07821a.1175.1175,0,0,1,.0797-.10595.64414.64414,0,0,0,.19128-.27244.651.651,0,0,1,.186-.26993.11833.11833,0,0,0,.07438-.10089.4105.4105,0,0,1,.11955-.19678c.06608-.06692.1909-.20686.279-.3128a1.02327,1.02327,0,0,1,.33212-.25983c.09564-.03773.17269-.09062.17269-.11856,0-.02752.06642-.06537.14613-.08324a.72782.72782,0,0,0,.2152-.08339,2.627,2.627,0,0,1,.7014-.15963.31271.31271,0,0,1,.186.02354.608.608,0,0,0,.21254.06439,1.80033,1.80033,0,0,1,1.11225.78322c.04987.0908.11074.16144.13914.16144.028,0,.05046.15388.05046.3456a.77011.77011,0,0,1-.11953.51713,3.476,3.476,0,0,0-.1979.32291,2.59466,2.59466,0,0,1-.66559.7717c-.14879.116-.30662.24149-.35868.28527a.36326.36326,0,0,1-.13285.08072.98868.98868,0,0,0-.22317.15136.864.864,0,0,1-.22583.14884,1.53743,1.53743,0,0,0-.52073.24217c0,.022-.11955.07018-.263.106a.8791.8791,0,0,0-.32415.13622.20476.20476,0,0,1-.13548.07064c-.08652,0-.235.20686-.24629.34308a.15483.15483,0,0,1-.06723.12865,1.168,1.168,0,0,0-.07175.51965,4.60612,4.60612,0,0,1-.03983.58273.28269.28269,0,0,0,.02656.18164c.028.05045.03552.11258.01594.13117a.95587.95587,0,0,0-.05046.32291c-.00723.15639-.02031.37962-.02865.48937a.67952.67952,0,0,0,.12162.4793c.07175.13623.06759.15484-.02656.11907-.05832-.02214-.06923.0121-.05048.15841a.42106.42106,0,0,1-.03179.25228.96317.96317,0,0,0,.02335.56507c.03423.16145.1585.32216.229.29606.03719-.01378.07041-.00364.07972.0243.00882.02653.07172.05807.14082.07064a.85379.85379,0,0,1,.24971.10091.50391.50391,0,0,0,.20194.07821.21478.21478,0,0,1,.14347.07818c.05394.06355.08235.06544.15144.01009a.59442.59442,0,0,1,.3135-.06053c.17.00564.242-.0163.28162-.08578a.19676.19676,0,0,1,.15674-.09334c.05848,0,.10363-.03077.10363-.07062,0-.03943.05049-.08289.11424-.0984.07439-.01806.10313-.05414.08237-.10341a.12493.12493,0,0,1,.04517-.1337.21876.21876,0,0,0,.077-.15136.73175.73175,0,0,1,.10626-.27245c.05987-.10091.09237-.1791.0744-.1791-.01716,0-.0071-.03027.02184-.06558.07438-.09083.12281-.3885.06317-.3885-.03208,0-.031-.053.00266-.13369.03159-.07568.0431-.14465.02658-.15892-.01517-.01308-.00108-.058.02922-.09333.0403-.047.04194-.11353.0053-.21443-.0293-.08074-.04-.15988-.0239-.17658.01635-.017,0-.0303-.0372-.0303-.05314,0-.05364-.01512-.00266-.07565q.06377-.07569.008-.07569c-.03665,0-.02922-.06053.02171-.17658.09076-.20686.0974-.42884.01284-.42884-.03674,0-.02885-.03281.02125-.08829a.68933.68933,0,0,0,.1169-.2775c.02086-.10594.05356-.19089.07442-.193.34537-.03559.64825-.17523.64825-.29886,0-.09278.12753-.13384.32945-.106.02074.00286.05247-.04281.07172-.10334.02732-.08579.04454-.09369.08237-.03785.03825.05651.04783.0555.04783-.005s.009-.06257.04516-.01008c.03442.05.085.03374.21254-.06812.09032-.07215.16739-.16737.16739-.20684a.12287.12287,0,0,1,.07969-.10092.13655.13655,0,0,0,.07972-.12108.2018.2018,0,0,1,.10893-.14883c.05845-.02979.09415-.07773.077-.10344-.01852-.02784.00265-.04794.05048-.04794s.08236-.02325.08236-.05548c0-.0687.10626-.16986.22317-.2124a.24663.24663,0,0,0,.13019-.12311.81083.81083,0,0,1,.15942-.20938c.078-.07568.11388-.1542.09562-.20937-.019-.05739.008-.09978.07706-.1211a.25274.25274,0,0,0,.14347-.1438.40439.40439,0,0,1,.12221-.17153c.05313-.03782.0611-.06121.02126-.06231-.118-.00331-.07439-.09667.05313-.11374a.14726.14726,0,0,0,.13283-.12917c.00851-.06055.03951-.11353.06642-.11353.02754,0,.05048-.03783.05048-.08324,0-.07356-.01327-.07212-.11423.0126-.11172.09373-.11261.09335-.03986-.01765.03969-.06053.10541-.11352.14082-.11352.03645,0,.06642-.058.06642-.12865,0-.08072-.0208-.11644-.0558-.09586-.03188.01876-.05168.00252-.04614-.03785.02954-.21694-.00987-.34829-.1-.3331-.06737.01139-.09506-.02258-.109-.13358-.01575-.12613-.006-.13921.06377-.08575.07005.05358.09087.04791.139-.03785.0594-.106-.00652-.18933-.10441-.132a.10819.10819,0,0,1-.10628.00025c-.06824-.03966-.01062-.176.07439-.176.07575,0,.092-.15136.02489-.2321a.421.421,0,0,1-.01693-.24217.91124.91124,0,0,0-.03187-.36326,1.85658,1.85658,0,0,1-.07635-.3027c-.01828-.15136-.052-.18591-.20262-.20726-.14347-.02036-.19561-.07014-.10626-.1015a.10551.10551,0,0,0,.06907-.09487c0-.05651-.02128-.058-.10628-.00777-.13816.08171-.21037-.00333-.07971-.09382.05315-.03682.072-.06994.03987-.06994a.13151.13151,0,0,0-.094.05044c-.06629.10169-.13674.04542-.11365-.0908a.32368.32368,0,0,0-.28387-.36326c-.09563,0-.10572-.01284-.05535-.07063.0879-.10092-.1997-.29514-.33254-.22457a.18388.18388,0,0,1-.14347.0175.10823.10823,0,0,1,.01062-.192c.05315-.01905.05437-.0393.00532-.08782-.04839-.04784-.08237-.04844-.14082-.00251-.06366.05-.08028.04034-.09564-.0555-.01213-.07569-.04909-.11166-.10626-.10345a.11292.11292,0,0,1-.1169-.063c-.0156-.04036-.00444-.07567.02389-.07567.11957,0,.02659-.09877-.26035-.27654a1.06922,1.06922,0,0,0-.4623-.18511.5941.5941,0,0,1-.28162-.07316c-.06907-.04278-.14184-.06361-.16738-.04793-.02432.01494-.10893-.03279-.18333-.10343a.28291.28291,0,0,0-.24176-.10594.30491.30491,0,0,1-.21521-.05045c-.085-.05767-.12867-.06187-.18331-.01767-.056.04528-.08865.03533-.14877-.0454-.04137-.0555-.0943-.08708-.11427-.06812-.02125.02019-.0577.00505-.085-.03531-.041-.06055-.07437-.05873-.23379.01261-.17535.0785-.18735.07835-.20989-.0025-.01827-.06563-.02515-.06741-.02922-.00759-.004.05866-.06377.07569-.23912.0681a.9752.9752,0,0,1-.29757-.04793.94608.94608,0,0,0-.28428-.053c-.1225-.00842-.3268-.02525-.45963-.03785A1.63694,1.63694,0,0,0,17.744,6.472Zm2.85876.84256q.12753.06561.06377.10344a.12951.12951,0,0,1-.13816-.0227A.22254.22254,0,0,0,20.353,7.365a.16766.16766,0,0,1-.16738-.04541c-.05749-.06551-.04249-.07534.1116-.07316a.84421.84421,0,0,1,.30553.06811Zm2.39645.98888a.04766.04766,0,0,1-.05048.05045.104.104,0,0,1-.08236-.05045c-.01852-.0293.00265-.05045.05048-.05045s.08236.02115.08236.05045Zm.13285.3027c.01852.02932-.00265.05047-.05048.05047s-.08237-.02115-.08237-.05047a.04769.04769,0,0,1,.05048-.05045.10407.10407,0,0,1,.08237.05045Zm-3.0288.11857c.09349.06307.09034.06812-.04249.06812-.085,0-.14347-.02774-.14347-.06812,0-.03531.02045-.0681.04251-.0681a.42341.42341,0,0,1,.14345.0681Zm-1.8199.26993a.29778.29778,0,0,1-.15944,0c-.05268-.0143-.02389-.02523.06643-.02523s.13066.01093.093.02523Zm5.61918.32542c0,.02286-.03719.04288-.07972.04288s-.0797-.02-.0797-.04288.03721-.04289.0797-.04289.07972.02.07972.04289Zm-4.94169.39605c0,.02882-.03986.05045-.093.05045-.0797,0-.08158-.00711-.01328-.04973.101-.063.10629-.063.10629-.00072Zm5.12767.15134c.01822.02884.008.05047-.02392.05047a.05205.05205,0,0,1-.05578-.05047c0-.03026.00958-.05043.02389-.05043s.03667.02017.05581.05043Zm-2.23174.15136c.017.02691-.0053.05047-.04783.05047a.14847.14847,0,0,1-.11156-.05047c-.017-.02689.0053-.05045.04781-.05045a.14864.14864,0,0,1,.11158.05045Zm2.2583.3431a.07937.07937,0,0,1-.11158.081c-.05687-.0333-.01064-.12134.06375-.12134.02869,0,.04783.01615.04783.04038Zm-.18331.20179c-.01637.017-.05845.00252-.09566-.03277-.05166-.04906-.04516-.0558.02924-.0303.05313.01824.08264.04624.06642.06307Zm-1.29654.52723c-.05166.04906-.05872.04288-.03187-.02775.01916-.05043.0487-.07847.06642-.063s.00266.05548-.03455.0908Zm-6.8626.71642c0,.01364-.02124.03484-.05313.053-.03037.01728-.05313.00757-.05313-.02271a.05178.05178,0,0,1,.05313-.053c.03189,0,.05313.00905.05313.02268Zm6.664,2.3284c.01874.04542.01.06355-.02189.04542a.09634.09634,0,0,1-.05313-.07571c0-.07146.03961-.05548.075.03029Zm-.2074.07062c.01776.02853-.02173.05045-.0908.05045-.10094,0-.10836-.00876-.04251-.05045.09566-.06053.09566-.06053.13331,0Zm-.23957.18162c0,.01077-.03719.02021-.07972.02021s-.0797-.0224-.0797-.048.03721-.035.0797-.02017.07972.03716.07972.04791Z"/><path d="M18.72008,20.46751a.14512.14512,0,0,1-.14714.02931.81994.81994,0,0,0-.621.344,1.24469,1.24469,0,0,1-.15468.222,1.30692,1.30692,0,0,0,.04362.83247c.03082.03529.04618.07606.03331.08827a.72284.72284,0,0,0,.05464.26993c.11068.34813.32794.6303.51127.6639.07972.01462.14879.04839.14879.07269,0,.06221.23911.05047.30818-.01512a.14354.14354,0,0,1,.15409-.01587c.14866.06158.24293.031.38647-.1254a.59051.59051,0,0,1,.214-.16145.2222.2222,0,0,0,.11692-.06558.34344.34344,0,0,1,.2019-.0582c.1966-.00924.35336-.11839.17006-.11839-.14349,0-.16926-.20158-.02659-.20775.05845-.00252.07084-.01354.03189-.02837-.0797-.03026-.09154-.117-.016-.117.17,0,.36974-.38457.21785-.41953-.09053-.02085-.06375-.03676.18068-.10736.04251-.01231.07969-.04894.07969-.07853,0-.03239-.02654-.03985-.06375-.01793-.11158.06576-.22253.06777-.15409.00277.08329-.07909.07439-.13622-.02127-.13622-.11129,0-.101-.10084.01065-.1036.06056-.00149.03718-.02732-.06378-.07045-.09032-.03862-.13869-.07031-.1116-.07316.02734-.00288.01142-.04287-.03719-.09334s-.08082-.10775-.07522-.13369c.0116-.05381-.42426-.28374-.50928-.26864a.042.042,0,0,1-.05021-.05427c.01761-.0852-.09326-.07769-.19952.01352s-.4251.047-.4251-.05891c0-.08072-.13759-.08813-.18761-.01011Z"/><path d="M15.55328,42.36684a2.65285,2.65285,0,0,1-.73536.105c-.84765,0-1.22558-.46216-1.793-1.17651a3.25344,3.25344,0,0,1-.73536.084,2.784,2.784,0,1,1,0-5.568,2.80578,2.80578,0,0,1,1.38672,5.23877c.67969.77746.86133.98755,1.877.95251Zm-1.1836-3.72607a2.18577,2.18577,0,0,0-2.08691-2.45826,2.11459,2.11459,0,0,0-2.07324,2.36023A2.39835,2.39835,0,0,0,11.44976,40.833a.76893.76893,0,0,1,.84668-.63733,1.47641,1.47641,0,0,1,1.0791.52527A2.33552,2.33552,0,0,0,14.36968,38.64077Zm-2.07324,2.36731a2.413,2.413,0,0,0,.44141-.042.95348.95348,0,0,0-.60938-.35022.27649.27649,0,0,0-.30762.25916.2124.2124,0,0,0,.02051.08411A1.90814,1.90814,0,0,0,12.29644,41.00808Z"/><path d="M20.18609,38.37465V38.0945h1.5625v.28015h-.24512c-.27344,0-.34375.16114-.4209.34327a5.80656,5.80656,0,0,1-.707,1.34472l.39942.44824a1.31759,1.31759,0,0,0,.99414.39209v.36426H20.565l-.61718-.69336a2.67333,2.67333,0,0,1-1.84864.80542A1.42833,1.42833,0,0,1,16.6148,39.9225c0-.62329.32227-1.16259,1.23926-1.71594a1.70319,1.70319,0,0,1-.57422-1.19763,1.186,1.186,0,0,1,1.24707-1.19067A1.05008,1.05008,0,0,1,19.6607,36.8478c0,.65845-.55957,1.00854-1.00781,1.28869l1.4707,1.64588a3.7,3.7,0,0,0,.60937-1.25366c0-.126-.11914-.15406-.28711-.15406Zm-2.08692.11206c-.68652.42029-.88964.73536-.88964,1.1626A1.27913,1.27913,0,0,0,18.4,40.94509a1.87243,1.87243,0,0,0,1.29589-.65833ZM18.4,37.84938c.42089-.26611.73632-.5393.73632-1.0155a.63241.63241,0,0,0-.67968-.65137.6058.6058,0,0,0-.64453.63038,1.418,1.418,0,0,0,.49023.93139Z"/><path d="M24.273,39.3622l-.49023,1.28174a.62579.62579,0,0,0-.02735.14c0,.20312.22364.20312.47559.19616v.28711H22.78863v-.28711c.25195,0,.47656,0,.60254-.32226l1.84863-4.8606h.29394l1.84278,4.81165c.13281.35717.33594.37121.65137.37121v.28711H26.18511v-.28711c.35742.007.53223.007.53223-.19616a.44772.44772,0,0,0-.042-.161l-.47559-1.26074Zm1.78614-.37121-.8125-2.16419-.833,2.16419Z"/></svg>