<svg xmlns="http://www.w3.org/2000/svg" viewBox="0 0 43 44"><title>icn_foot_01</title><path d="M24.69926.8567c0,.03256-.128.05375-.2786.04617-.35387-.01788-.43173.01829-.32173.14961a.22449.22449,0,0,1,.05068.20329c-.02591.06729-.03955.06022-.04376-.02259-.0084-.16781-.36717-.09791-.425.08281a.13547.13547,0,0,1-.18259.09788c-.10046-.02715-.1666.02639-.23719.192-.05457.128-.12454.213-.15812.192-.03287-.02053-.06022,0-.06022.04517s-.03425.06232-.07531.03765c-.04151-.02491-.07531.00376-.07531.064,0,.05794-.08657.13039-.18448.15437-.12044.02949-.17139.08175-.14679.15058.02666.07465-.01509.10211-.14307.09412-.10539-.00658-.17759-.05681-.17315-.12047a.2552.2552,0,0,0-.14307-.192c-.0842-.0463-.26358-.15262-.40662-.241a.62547.62547,0,0,0-.35011-.12423.12319.12319,0,0,1-.14307-.04516.08909.08909,0,0,0-.11672-.04141.082.082,0,0,1-.11293-.0339c-.02542-.04024-.15058-.05175-.28611-.02636-.21083.03955-.22871.0306-.14307-.07151.086-.10249.07906-.11214-.05646-.07907-.12047.02942-.14363.01041-.10545-.08657.04264-.10814-.00373-.12282-.35763-.113a5.49181,5.49181,0,0,1-.77554-.04141c-.27106-.03872-.38591-.0257-.43294.04895-.0474.07528-.064.0782-.064.0113,0-.116-.22795-.03769-.3507.12047-.06428.08282-.09429.09219-.09587.03011-.0029-.11292-.23106-.13525-.23106-.0226,0,.04517-.03424.06229-.07531.03766-.04217-.02532-.07531-.00376-.07531.049,0,.05595-.0412.03766-.10162-.04516-.09343-.128-.10532-.12926-.14687-.01509a.21823.21823,0,0,1-.19574.12426c-.23595,0-.18824.11034.08282.19144.13552.04055.25414.12147.271.185.02415.09036.01585.09336-.04141.01509-.04816-.06587-.20329-.0893-.47434-.07156-.369.02412-.41265.04661-.51955.2673-.06562.13553-.14965.2416-.192.24246-.37574.00765-.54321,1.82817-.22837,2.48324.22431.46683.34061.64015.41661.62117.04041-.01006.07531.05274.07531.13552a.84539.84539,0,0,0,.16188.37651l.16185.2221L16.989,6.323c-.2334.216-.31657.23805-.36955.098-.02849-.07528-.03876-.07614-.04455-.00376-.00427.05271-.03572.09412-.07155.09412-.03393,0-.04806-.08657-.03011-.18448.0235-.128.0719-.1718.15813-.143.10962.03652.10917.03163-.00379-.04165-.143-.09281-.53563-.02987-.47111.07552.05264.086.01182.08568-.22158-.00186-.13553-.05085-.19-.04792-.177.0094a.11366.11366,0,0,1-.08657.12047c-.06777.02419-.08661.00672-.05271-.049.02966-.04868,0-.08661-.06777-.08661s-.10073.033-.07527.07531c.02487.04155-.00379.05674-.064.0339a.53747.53747,0,0,0-.32755.06773,2.389,2.389,0,0,1-.50449.16567,3.00446,3.00446,0,0,0-.63622.23343,1.64737,1.64737,0,0,1-.59861.17694c-.13553,0-.22964.0308-.207.06776.022.03614-.0113.08709-.07152.10921s-.113.008-.113-.03014a.06586.06586,0,0,0-.06777-.07152c-.03614,0-.04843.079-.02635.16939.03679.15062.028.15816-.07907.0678-.10221-.08627-.13931-.08286-.24469.02256a.28314.28314,0,0,1-.2673.07855c-.17322-.05536-.18173.02914-.01509.14924.112.08068.0979.09129-.11293.08471-.13553-.00424-.24094-.04541-.24094-.09415,0-.04761-.06777-.06963-.15059-.04892s-.15058.07152-.15058.11293c0,.043-.0452.05753-.10541.03389a.30565.30565,0,0,0-.2447.064c-.07531.057-.11166.10649-.07907.10773.094.00372-.14307.23109-.24094.23109a.07853.07853,0,0,0-.08285.07152c0,.04155-.09784.0526-.2334.02635-.20333-.03934-.23-.0267-.20705.09788.01871.10173-.0226.14958-.14307.16567-.09036.012-.16943.056-.16943.09411,0,.03931-.06776.07152-.15058.07152s-.15061.05082-.15061.113a.11093.11093,0,0,1-.11669.11293.51375.51375,0,0,0-.27481.14883.628.628,0,0,1-.53463.16219c-.03614-.00589-.04216.01877-.01505.0617.0248.03927-.04138.0936-.14683.12047s-.1801.071-.16563.09787c.01422.02646-.03766.10949-.11293.18073s-.141.10583-.14307.07531c-.002-.02991-.03921.00372-.07907.07152a.16381.16381,0,0,1-.19578.08281c-.09033-.03386-.10917-.016-.07527.07152.03442.089.00751.10687-.113.07531Q7.66,9.877,7.71268,9.96367c.03339.05488-.00379.08657-.10166.08657-.08282,0-.15437.03139-.15437.06777,0,.03841-.09787.10693-.22589.15812s-.22585.11972-.22585.15813c0,.03562-.06777.06776-.14308.06776-.08584,0-.17924.09033-.23343.22586-.05119.128-.11968.208-.15813.18448-.03634-.02222-.06776.03011-.06776.113a.26176.26176,0,0,1-.192.22964c-.11293.04427-.17032.10942-.13928.15813q.05271.08283-.10545.03386c-.124-.03837-.16867-.00751-.207.14308-.02691.10541-.07786.17331-.113.15061-.03558-.02305-.08578.079-.113.22965a.39462.39462,0,0,1-.21834.33506.42813.42813,0,0,0-.21835.1882c-.0267.0678-.01815.10542.01881.08285.03872-.0237.08554.00372.10917.064.02681.06821-.00375.09477-.08657.0752-.1544-.03648-.52629.45939-.593.7907a.616.616,0,0,1-.10721.27484.11685.11685,0,0,0-.0226.13553c.02108.05271-.04517.13236-.15058.181a.51466.51466,0,0,0-.24646.58321q.0431.113-.0924.113c-.12942,0-.30867.40655-.30867.7002a.17.17,0,0,1-.05274.13715,3.55819,3.55819,0,0,0-.50563,1.09017.43879.43879,0,0,1-.08919.24419,2.421,2.421,0,0,0-.4115.87772,3.12614,3.12614,0,0,0-.22235,1.73181c.04693.29361.10253.67708.12561.86587a1.0885,1.0885,0,0,0,.10921.41033.53318.53318,0,0,1,.06776.2899A1.914,1.914,0,0,0,3.21,22.27064a1.40164,1.40164,0,0,0,.33885.2786c.12385,0,.06256.1882-.157.48188a2.53085,2.53085,0,0,0-.30609.5459c-.04654.13553-.118.25221-.15437.25221-.03934,0-.06777.04892-.06777.11672a.755.755,0,0,1-.09032.28235,1.27312,1.27312,0,0,0-.09853.45929c-.008.28611-.17342.50587-.36834.489-.04458-.00385-.03762-.02494.01509-.04564.14128-.05557.11292-.15944-.03766-.13791-.17318.02474-.22906.342-.06025.342.06776,0,.10073.03131.07531.07155a.13293.13293,0,0,1-.15437.03011c-.07707-.02922-.10918.01505-.10918.15058a.335.335,0,0,1-.07151.23719.133.133,0,0,0-.03011.15437c.02284.06025.00427.10917-.04145.10917a.09816.09816,0,0,0-.08282.10166.46312.46312,0,0,1-.15433.24091c-.14307.12912-.14445.14345-.01881.19578.11293.0471.11541.05733.01505.0616a.2161.2161,0,0,0-.1893.24336.438.438,0,0,1-.11568.18448,1.13153,1.13153,0,0,0-.17694.45929.81819.81819,0,0,1-.12047.36141.24263.24263,0,0,0-.06777.18824c0,.08282-.0361.14686-.08281.14686-.05009,0-.06646.064-.04141.16185a.81935.81935,0,0,1-.06026.41037c-.077.18823-.08061.25851-.01505.28989.06239.0298.06029.05406-.00751.08658-.05271.02532-.07589.075-.05271.113.0216.03535,0,.06776-.04516.06776-.04617,0-.06728.05271-.04517.11293s.00975.11293-.02639.11293c-.09036,0-.14834.29358-.06776.34319a.65946.65946,0,0,1-.015.60016c-.04651.02838-.06466.14465-.04144.26516s.0084.23512-.03387.26144a1.23046,1.23046,0,0,0,.015.83259q.0753.04666-.00048.13705c-.07906.09429-.05667.48188.06573,1.13695a2.43446,2.43446,0,0,1,.0546.48944,3.54559,3.54559,0,0,0,.31688,1.05286,1.91662,1.91662,0,0,1,.3087.70148.22449.22449,0,0,0,.3012.16336c.03631-.023.08923.055.114.16794.07438.33882.10184.40455.16457.39432q.24846-.04041.24845.15533c0,.08282.03728.15059.08282.15059.11713,0,.28084.18072.36838.40658.04089.10541.12454.19578.18127.19578a.175.175,0,0,1,.15062.11675c.02622.06773.07676.09773.12044.07148.04055-.02432.07531,0,.07531.05271,0,.05219.07909.133.16942.17318a.23956.23956,0,0,1,.15813.21084q-.01133.13554.09412.09787c.06021-.02153.09735-.00376.0866.04141-.01006.04217.03387.10542.09412.13553.06212.03107.18069.09715.26351.14682a1.76772,1.76772,0,0,0,.28614.13556.12222.12222,0,0,1,.09409.15059c-.02364.06025-.0091.08605.0339.06025.04516-.02711.0753-.01509.0753.03011,0,.04137.06777.0956.15059.12047s.15058.0926.15058.15058c0,.06025.04516.08768.10541.064s.14252.02635.192.11671a1.14444,1.14444,0,0,0,.44048.32,4.48266,4.48266,0,0,1,.54966.29741c.10541.073.2149.11816.23719.09791s.09956.06021.16663.17318a1.38934,1.38934,0,0,0,.75573.54965c.06022,0,.11293.03335.11293.07152,0,.039.05647.051.12423.02635a.19945.19945,0,0,1,.2078.06022A1.47147,1.47147,0,0,0,8.3,40.84591a.17473.17473,0,0,1,.15812.09791.87231.87231,0,0,0,.42167.20329,1.14388,1.14388,0,0,1,.384.14683,1.46447,1.46447,0,0,0,.39528.21834c.21834.09774.45426.20732.527.2447a1.232,1.232,0,0,0,.43294.06776c.241,0,.30119.02791.30119.13932,0,.11744.13178.16412.83955.29741a4.84015,4.84015,0,0,0,.90353.12051c.03414-.02009.04382.015.0207.07527-.05484.143.05285.15613.18634.0226.07135-.07135.07927-.06025.03769.05267-.03882.10542-.02794.12823.04141.08661a.33459.33459,0,0,1,.271.03765c.14308.07607.20216.07393.30871-.0113.07531-.06021.10852-.06669.07755-.01505-.06611.11021.33279.24849.7168.24849.15813,0,.28615.03366.28615.07527,0,.04238.2221.07528.50824.07528a3.44765,3.44765,0,0,1,.77179.08009,15.86733,15.86733,0,0,0,2.18355.30137,15.9967,15.9967,0,0,0,2.70172.0854c-.02136-.14307.0207-.1894.082-.09036.05547.08954.28453.11606,1.10523.128a3.7155,3.7155,0,0,0,1.13317-.06776,1.40488,1.40488,0,0,1,.53084-.11672,1.286,1.286,0,0,0,.5572-.143c.07527-.06618.13463-.078.15058-.03011.01723.0516.15437.06208.39528.03011.27109-.036.37795-.08592.40286-.18824.022-.09036.063-.11668.11672-.07486a1.22453,1.22453,0,0,0,.61741.16192,1.57035,1.57035,0,0,1,.22589-.0389c.26351-.02776.56471-.12774.56471-.18744,0-.02825.09787-.05729.21084-.06253.18713-.00871.7981-.05319,1.06919-.07782.09036-.00823.0926-.02381.01127-.078-.06022-.0402-.071-.08619-.02636-.113.04014-.02408.09464.00754.11672.0678a.1898.1898,0,0,0,.16567.11292c.10538,0,.11055-.01712.03386-.11292-.04816-.06026-.0763-.11627-.06025-.12006a2.2098,2.2098,0,0,1,.73792.01464c0,.02849.128-.013.27857-.09036a1.33124,1.33124,0,0,1,.42921-.14432,1.95965,1.95965,0,0,0,1.04253-.39779c.09-.113.1171-.12254.08513-.03015-.05316.15362.03186.163.21259.02353.08282-.06394.10276-.124.05646-.17032-.0465-.04651-.01884-.07155.07907-.07155.08281,0,.15058.03555.15058.0791,0,.04213.03335.02632.07152-.0339a.27963.27963,0,0,1,.16939-.12154c.28614-.02519.58734-.13274.58734-.20977,0-.04909.02759-.04144.06776.01881s.08616.071.113.02639c.02522-.04206.11669-.057.20705-.0339.10542.02694.14483.01381.11293-.03769-.02739-.04423.0339-.133.13931-.20181.21835-.14241.29211-.15189.21625-.0278-.03077.0504-.01671.06222.036.03008a.212.212,0,0,0,.08657-.15434c0-.05543.07527-.09929.16564-.09646a.66806.66806,0,0,0,.54214-.18892.53655.53655,0,0,1,.28611-.1325.12524.12524,0,0,0,.13552-.11293c0-.07386.06777-.113.19578-.113.15813,0,.17914-.02026.10918-.10542-.07318-.08905-.04517-.09956.18072-.06776.2334.03286.2673.0176.2673-.12047,0-.13177.03011-.15058.18069-.11293q.1807.04517.2447-.07152a.20345.20345,0,0,1,.177-.10955c.27856.01767.37392-.02711.416-.1954.03248-.12988.08846-.16812.224-.15289.256.02876.48943-.04193.48943-.14831,0-.04458.09037-.08771.19575-.09339.23343-.01265.33206-.13157.27849-.33579-.0257-.09787.00056-.14307.083-.14307.06776,0,.12044-.03293.12044-.07531a.07543.07543,0,0,1,.0791-.07527c.04426,0,.05915.04141.03386.09415-.02408.05016.01282.015.07906-.07531a.42055.42055,0,0,1,.2673-.16942c.07531,0,.14307-.03745.14307-.07907,0-.04568-.07155-.06-.16942-.0339-.16567.0442-.166.043-.0113-.05267.09036-.056.142-.14631.12047-.21083-.02008-.06022-.00954-.08658.02257-.05647a.124.124,0,0,0,.1544-.0226c.06022-.05061.11031-.05333.13928-.00751.02391.03786-.01509.09453-.08285.12047-.10538.04028-.10938.06088-.02256.11669.06025.03872.12319.04516.14682.01509a1.71242,1.71242,0,0,1,.32-.1952c.27105-.13866.39183-.29489.19574-.25321-.05164.011-.10162-.03727-.11671-.11258-.01657-.08282.017-.13177.09036-.13177a.10851.10851,0,0,1,.12047.09415c.002.05054.05433-.0226.113-.15813.09123-.21083.12768-.23684.2221-.15836.12048.10018.29452.03248.22207-.08634-.02281-.03741.00758-.04922.06783-.02635.07152.02711.13515-.0339.18445-.177.05974-.17318.04961-.237-.04889-.30871-.09036-.06573-.09963-.10118-.0339-.13.13071-.05743.12048-.17866-.01505-.17866-.10545,0-.10545-.01505,0-.12047.14-.14.19392-.11293.21049.10542.01333.1758.20353.128.20973-.05271.00641-.18823.33479-.84882.39294-.7906.02956.02953.05274.0113.05274-.0414,0-.06973.02632-.07266.10163-.0113.07924.06456.13732.03386.26355-.13929.09329-.128.13-.24146.08657-.26774a.13712.13712,0,0,1,.05271-.26141c.07748-.001.192-.11465.2673-.2652.07155-.14307.09732-.26358.05646-.26358-.043,0-.00751-.06776.08285-.15809.11293-.113.13229-.17531.06777-.21834-.06777-.0452-.06966-.07249-.00755-.10917a.09238.09238,0,0,0,.03762-.12427c-.0278-.04633-.08282-.04344-.143.00755s-.11427.05674-.14048.015c-.05213-.08295.15554-.1851.25345-.12467.0382.0236.10221-.02219.14679-.105.06084-.11292.0504-.15809-.04517-.19574-.11117-.04379-.10917-.06046.01881-.15813.13942-.10638.13932-.11206-.00372-.2221-.128-.09849-.13-.113-.01509-.113a.18847.18847,0,0,1,.17319.113c.02208.06022.06952.1129.10162.1129.09037,0,.1367-.376.05275-.42781-.046-.02845-.0226-.08461.06022-.14438a.19466.19466,0,0,0,.08657-.22589.26625.26625,0,0,1,.0339-.22968c.06073-.07451.05805-.13173-.01-.21459-.13-.15812-.139-.5647-.01257-.5647.06094,0,.08936-.06405.07531-.16943-.01206-.09036-.06477-.16095-.11293-.15134-.14438.02887-.12051-.18765.03007-.27274.11121-.06287.1193-.103.0452-.22344s-.0721-.15427.0113-.18824a.66918.66918,0,0,0,.21835-.27105c.065-.128.08671-.21139.04895-.18841-.10173.062-.09036-.07138.01506-.1768.07069-.07069.0527-.09033-.08282-.09033-.10542,0-.16-.03686-.13932-.09415a.327.327,0,0,0-.03011-.21831.11406.11406,0,0,1,.06776-.18072.48355.48355,0,0,1,.17319-.049c.02328.00424.04306-.09787.04519-.2334a1.17276,1.17276,0,0,1,.05643-.36141.21877.21877,0,0,0-.05267-.22589.22445.22445,0,0,1-.046-.256.55194.55194,0,0,0-.10187-.65507c-.09849-.10545-.16263-.22634-.14575-.27485a.26539.26539,0,0,0-.09412-.21083.25886.25886,0,0,1-.08409-.22965c.04671-.12274-.1305-.31766-.42415-.46648-.18073-.09154-.2178-.30906-.05271-.30906a.07713.07713,0,0,0,.06776-.08282c0-.04554-.06776-.06586-.15058-.04516-.17508.04375-.17721.03762-.06887-.19575.06715-.14462.05006-.25227-.0855-.53838a1.044,1.044,0,0,0-.2786-.39911c-.09033-.03424-.09164-.0537-.00751-.11289.07527-.053.07824-.08034.0113-.10545a.10494.10494,0,0,1-.049-.13553c.02312-.05674-.03014-.13987-.12047-.18823s-.14359-.11651-.12047-.15434a.08554.08554,0,0,0-.03765-.11672.165.165,0,0,1-.03387-.18448.13271.13271,0,0,0-.07531-.18069c-.06776-.02542-.102-.07483-.07827-.113.057-.0915-.20783-.17373-.366-.11358-.08433.03207-.12047.00065-.12047-.10477a.357.357,0,0,0-.11672-.2447.36585.36585,0,0,1-.09412-.28989c.01805-.15661.06777-.20092.24849-.22159.2786-.03183.56471-.28962.56471-.50879a.22872.22872,0,0,1,.11293-.207c.06232-.02291.11292-.13932.11292-.25979a1.68511,1.68511,0,0,1,.192-.58731,1.51909,1.51909,0,0,0,.18072-.59481,1.80349,1.80349,0,0,1,.00376-.3012,1.00078,1.00078,0,0,0-.1286-.65507.42656.42656,0,0,1-.06343-.38777c.027-.14307.01854-.27161-.01881-.28614a.3943.3943,0,0,1-.12422-.207q-.05649-.18077.02632-.12833c.08629.0546.03651-.15027-.07121-.29334a.20455.20455,0,0,1-.05144-.113,1.18049,1.18049,0,0,0-.171-.60232c-.04141,0-.07528-.0678-.07528-.15062a2.97271,2.97271,0,0,0-.35611-.92612,1.44893,1.44893,0,0,1-.13332-.41037c-.01281-.11293-.05856-.21259-.10542-.22965-.04585-.01667-.08285-.10917-.08285-.207a.295.295,0,0,0-.07527-.22214.087.087,0,0,1-.02636-.12426c.03015-.04864-.00754-.06166-.09787-.03386-.11493.03538-.16891-.0113-.24849-.21459-.056-.14307-.13546-.23947-.17693-.21456-.04372.02618-.05636-.00379-.03015-.07155a.112.112,0,0,0-.05271-.15434.38706.38706,0,0,1-.14231-.26358c-.04-.20329-.45543-.69268-.588-.69268-.029,0-.03579-.0678-.01508-.15062.02446-.09787-.00455-.16639-.08282-.19575-.06777-.02542-.10235-.07482-.07907-.11292.02274-.03724-.04519-.15438-.15058-.25979a1.17521,1.17521,0,0,1-.192-.2221c0-.08286-.4708-.4895-.52706-.45533a.07471.07471,0,0,1-.1092-.03035.10017.10017,0,0,1,.0452-.12423c.055-.03352-.23716-.3641-.80187-.90728a9.9078,9.9078,0,0,0-.95251-.85464c-.03717,0-.064-.049-.064-.11671a.19491.19491,0,0,0-.13177-.16564,1.03308,1.03308,0,0,1-.28986-.20188,2.06414,2.06414,0,0,0-.64-.45856,2.02682,2.02682,0,0,1-.38022-.23933.554.554,0,0,0-.23719-.128.54017.54017,0,0,1-.21084-.09064,3.92383,3.92383,0,0,0-1.024-.377c-.11292-.01974-.22306-.0701-.23715-.10838a.14.14,0,0,0-.13177-.07155c-.06022,0-.10542-.03548-.10542-.08285,0-.04568-.04895-.06422-.10917-.04141a.42856.42856,0,0,1-.305-.11293.92318.92318,0,0,0-.41412-.17318.70386.70386,0,0,1-.31625-.09867,6.1752,6.1752,0,0,0-1.34025-.40957c-.18693-.04155-.58352-.14111-.88472-.2221a1.89939,1.89939,0,0,0-.62117-.10163c-.04519.02708-.07527.01805-.07527-.02263,0-.03831-.07531-.053-.17321-.03387a.28507.28507,0,0,1-.27481-.09036c-.086-.10514-.06518-.16943.13552-.41788a1.38652,1.38652,0,0,0,.23719-.36521c0-.0402.05271-.09126.12047-.11668.07869-.02952.10873-.10917.08658-.22965a.36975.36975,0,0,1,.14682-.3539c.09788-.09178.16347-.21256.14308-.26351a.11593.11593,0,0,1,.03389-.13932c.04493-.02838.04493-.09411,0-.177a.70361.70361,0,0,1-.03389-.37268c.02825-.18069.0113-.24091-.06777-.24091-.11492,0-.20329-.15061-.20329-.34636,0-.06029.02811-.09574.06022-.076.10332.06346.00751-.42218-.10542-.53449a.3464.3464,0,0,1-.10538-.2065.30909.30909,0,0,0-.113-.192c-.06025-.04819-.0936-.122-.07152-.15812.02405-.03934-.00754-.04882-.07531-.0226q-.11669.04521-.11671-.07906c0-.06777-.0308-.10539-.06777-.08282-.03869.0237-.08385-.01506-.10538-.09033-.03287-.11489-.03865-.113-.0452.015-.00717.14018-.01282.13932-.12423-.01881a.378.378,0,0,0-.23343-.16564c-.08337,0-.10487-.04516-.07527-.15812.03644-.13915.0188-.15224-.14687-.10918s-.18275.02725-.143-.13177c.03968-.15881.015-.188-.20333-.24094a1.67615,1.67615,0,0,0-.36138-.05271.20838.20838,0,0,1-.16943-.08282c-.04182-.06694-.074-.064-.12422.0113-.05581.08371-.08037.07906-.13915-.02635-.08815-.15813-.62134-.2486-.62134-.10542,0,.07531-.02084.077-.09033.00751-.10545-.10538-.21083-.11668-.21083-.02257Zm-.1871.60991a.16911.16911,0,0,1-.1367.07527c-.05419,0-.04516-.02935.0226-.07341.14307-.093.17042-.09346.1141-.00186Zm-.4153.03007c0,.08286-.142.11724-.18672.0452-.02708-.04371.00224-.07527.07-.07527s.11671.01261.11671.03007Zm1.76946.46291a1.74784,1.74784,0,0,1,.62369.60629,3.39343,3.39343,0,0,1,.34009,1.521,2.54057,2.54057,0,0,1-.59626,1.37036c-.59723.66257-.53518.62792-1.03009.57517a1.58408,1.58408,0,0,1-.54969-.13094.41627.41627,0,0,0-.27105-.06776,1.02073,1.02073,0,0,1-.21084.00375c-.02053-.00617-.22589-.02839-.45174-.04895a1.50778,1.50778,0,0,1-.48944-.10166,1.34216,1.34216,0,0,1-.05271-.57973c.01241-.28366.03232-.78688.0442-1.11815.0235-.65507.10353-1.03688.20429-.975.08788.054.20808-.19964.15878-.33517-.02694-.07407.0031-.08974.101-.05271.0753.02849.1185.032.09411.00755-.06676-.06677.45929-.57842.54211-.5273.07889.04868.45178-.11272.45178-.19557,0-.07634.19578-.12595.5346-.13546a.96439.96439,0,0,1,.55719.18424Zm-5.31582.02818a2.24792,2.24792,0,0,1,.56918.47273,1.89349,1.89349,0,0,1,.45013,1.21223.27162.27162,0,0,0,.03858.23343c.06618.08062.05646.12223-.04144.17694-.10666.0596-.11858.13931-.07166.47813.09078.65507.07868.8853-.05412,1.03154-.24825.27333-.07751.5325.27639.41943.143-.04568.14841-.03865.05647.07376-.09037.11041-.07528.12419.13552.12419a1.25468,1.25468,0,0,1,.46684.11672.57522.57522,0,0,0,.33506.0791.49059.49059,0,0,1,.2786.02632,2.047,2.047,0,0,0,.43293.08661.95445.95445,0,0,1,.33506.077,5.2317,5.2317,0,0,0,1.15956.17328.50692.50692,0,0,1,.31622.18269c.07913.09791.14307.14834.14307.113,0-.03658.02908-.01881.06777.04141a.34291.34291,0,0,0,.2861.08688,10.058,10.058,0,0,1,1.73932.03869.98555.98555,0,0,0,.36142.04007.51962.51962,0,0,1,.3652.113.65175.65175,0,0,0,.36893.13553.52645.52645,0,0,1,.2786.064,1.61946,1.61946,0,0,0,.48564.133,6.13506,6.13506,0,0,1,1.71676.51555.97181.97181,0,0,0,.43293.11947c.03707-.02146.07156.00751.07156.06026,0,.05622.15809.14748.35387.20425a4.99042,4.99042,0,0,1,1.87815,1.072,13.66411,13.66411,0,0,0,1.02069.98579,6.14824,6.14824,0,0,1,1.14381,1.16765,3.51459,3.51459,0,0,0,.50518.56471c.07527.04754.143.11888.143.15058a2.39321,2.39321,0,0,0,.47434.64676c.02852.01265.05274.08737.05274.16264a.35621.35621,0,0,0,.15058.24474c.08282.05794.132.12236.10918.143s.0452.11917.15058.21838a.60872.60872,0,0,1,.192.27857.15574.15574,0,0,0,.10542.13556.52594.52594,0,0,1,.19575.25975c.049.12048.11792.22214.15061.22214.033,0,.11648.16188.18445.35762a6.45205,6.45205,0,0,0,.30871.71157,1.48013,1.48013,0,0,1,.16942.41413,1.25057,1.25057,0,0,0,.18824.38022,1.48568,1.48568,0,0,1,.20332.41413,4.11426,4.11426,0,0,0,.19382.6212,3.47933,3.47933,0,0,1,.2838,1.65647,2.425,2.425,0,0,1-.21049,1.1671c-.373.88093-.70819,1.17692-.92943.82071-.05609-.09037-.145-.14039-.20739-.11672-.07455.02828-.10914-.00754-.10914-.11293a.199.199,0,0,0-.15061-.192c-.08282-.02071-.15059-.06814-.15059-.10542,0-.03814-.05271-.06776-.12047-.06776s-.10566-.04117-.08661-.09412a.17331.17331,0,0,0-.06776-.16943.45369.45369,0,0,1-.13584-.24845,1.07093,1.07093,0,0,0-.282-.63247.35678.35678,0,0,1-.113-.2899.14652.14652,0,0,0-.06777-.17694.1607.1607,0,0,1-.10538-.14307c0-.05594-.08661-.15137-.18448-.20329s-.17035-.12264-.15437-.15058a1.03722,1.03722,0,0,0-.15058-.39531c-.09929-.18824-.157-.36635-.128-.39532.03166-.03159.0226-.0463-.02256-.03665-.19578.04161-.26189-.01013-.22238-.17415a.25467.25467,0,0,0-.07507-.27109.31194.31194,0,0,1-.11668-.207c0-.06022-.03379-.08892-.07531-.064s-.07527-.03387-.07527-.13177A.58987.58987,0,0,0,35.617,16.695a.5396.5396,0,0,1-.15058-.27481.19386.19386,0,0,0-.14682-.15813.27681.27681,0,0,1-.1694-.21083c-.01233-.09036-.074-.1708-.13556-.17694-.06025-.006-.16388-.01481-.22213-.01881-.08733-.006-.08282-.02635.02263-.10166.12258-.08754.12123-.10542-.01884-.256-.08406-.09033-.12729-.18486-.09787-.2139.10025-.099-.42922-.88327-.64756-.95923a2.11065,2.11065,0,0,1-.395-.57,1.42288,1.42288,0,0,0-.35791-.28231c-.19574-.12706-.34715-.26668-.33881-.3125.00844-.04651-.0791-.12247-.19954-.17318a.464.464,0,0,1-.256-.24095c-.02277-.08282-.07358-.13025-.113-.10541-.039.02463-.11772-.0113-.17315-.079a2.87987,2.87987,0,0,0-.47813-.369,3.378,3.378,0,0,1-.51958-.40286.45969.45969,0,0,0-.2221-.1581.54907.54907,0,0,1-.23343-.14307,5.00235,5.00235,0,0,0-.719-.44c-.60987-.32067-1.123-.60688-1.24235-.69287a4.23207,4.23207,0,0,0-.82828-.27212,1.17455,1.17455,0,0,1-.54211-.22892.4021.4021,0,0,0-.25224-.10542.68451.68451,0,0,1-.27484-.06728,9.02353,9.02353,0,0,0-1.5812-.32314c-.09787-.00062-.17318-.024-.17318-.05381a2.43932,2.43932,0,0,0-.91107-.30871.22236.22236,0,0,1-.17314-.064.65662.65662,0,0,0-.35015-.0753c-.17277-.00624-.51951-.04324-.77555-.08279-.25324-.03913-.68142-.092-.945-.11672a3.40953,3.40953,0,0,1-.53081-.0753.1929.1929,0,0,0-.15062.0339.38372.38372,0,0,1-.28986-.00755c-.13553-.0515-.20618-.04413-.25224.02636-.04927.07527-.064.07616-.064.00378,0-.06035-.10539-.09415-.29366-.09415-.37647,0-.71132.12623-.63929.24095.03342.05329.01433.06938-.05343.04516a.11628.11628,0,0,1-.08657-.12419c.01054-.04854-.064-.08664-.16939-.08664s-.18824.03644-.18824.08285-.04141.0679-.09415.04895c-.05064-.01826-.13753.05647-.18824.16188s-.07844.13494-.06022.064c.02129-.08285-.00664-.1318-.0753-.1318-.06022,0-.10918.03038-.10918.06779,0,.0964-.399.15686-.49694.07528q-.09038-.07524-.11672.00754c-.01426.045-.14682.10177-.28986.12423a.59172.59172,0,0,0-.30874.11675.14384.14384,0,0,1-.15058.05267,1.00573,1.00573,0,0,0-.39529.10539.69044.69044,0,0,1-.35766.08664c-.037-.0226-.06776-.00379-.06776.04137,0,.04968-.06022.064-.15058.03576-.17318-.05408-.36731.1049-.31477.2579.02611.07613-.00148.09081-.09936.05274a.15829.15829,0,0,0-.19957.04516c-.05295.081-.07568.079-.13173-.01129-.05685-.09161-.08661-.0934-.18448-.0113a.64741.64741,0,0,1-.30492.11671.56768.56768,0,0,0-.30874.143.48768.48768,0,0,1-.30117.12426c-.20332,0-.56474.14938-.56474.2334,0,.02825-.07152.07018-.15434.09036s-.14786.06556-.14038.09788c.035.15061-.10056.31222-.23233.27711a.17461.17461,0,0,0-.18445.04289.14334.14334,0,0,1-.16188.03766c-.06776-.02488-.10393-.00527-.09036.049.0124.04968-.04517.12933-.128.17694a.8398.8398,0,0,0-.19574.14679.10154.10154,0,0,1-.113.03769.47868.47868,0,0,0-.25224.10917c-.09787.0699-.15086.13349-.11293.13553.04021.0021-.0339.05991-.16942.132a7.69022,7.69022,0,0,0-1.15956.91765c-.271.24353-.349.50329-.1656.552.128.034.128.03645,0,.04351a.1842.1842,0,0,1-.17739-.10538c-.05932-.16019-.15581-.143-.21228.03765a.22382.22382,0,0,1-.19767.15059c-.08282,0-.132.03048-.10918.06776.02319.038-.0414.08764-.14679.11293s-.18827.0916-.18827.15058c0,.05788-.08657.16147-.192.22968s-.1716.15647-.14679.19578c.02463.039-.0113.07148-.07907.07148-.10652,0-.11027.01885-.02635.13181.05594.07531.06879.10693.03011.07389a4.89085,4.89085,0,0,0-1.16707,1.18726.64981.64981,0,0,1-.16994.26358,6.6369,6.6369,0,0,0-.919,1.73177c-.07269.18824-.156.3907-.1873.45554a2.23474,2.23474,0,0,0-.11293.37647,1.14564,1.14564,0,0,1-.11672.33506,4.75553,4.75553,0,0,0-.26475.60236,16.27442,16.27442,0,0,1-.71408,1.62047c-.02081.01991-.1471.164-.28235.32217s-.2447.25073-.2447.207c0-.04348-.0678-.07906-.15062-.07906s-.15055.03389-.15055.0753c0,.04372-.04895.07528-.11671.07528a.20356.20356,0,0,0-.16709.13552c-.06711.1807-.21431.3226-.27339.26355-.02715-.02708-.0452-.01506-.0452.03011,0,.04034-.09788.06866-.21084.06108-.32373-.02191-.33978-.03132-.24594-.1439.068-.08161.0615-.11479-.02883-.14683a.17243.17243,0,0,1-.11672-.15437,1.1447,1.1447,0,0,0-.18817-.39152c-.29616-.43866-.262-1.0014.12547-2.07063a4.71472,4.71472,0,0,0,.315-1.21978c.00268-.26351.03024-.35122.10162-.32376.12826.04933.12048,0-.0226-.143a.24028.24028,0,0,1-.06776-.24848c.03721-.09033.0638-.10032.09036-.0339.02825.07062.07531.07341.18824.0113.12767-.07021.14434-.13553.10962-.42915-.04713-.3991-.00644-.49777.23674-.57421a.395.395,0,0,0,.20129-.623c-.07155-.113-.08809-.16888-.03565-.12051.15657.14459.24335.113.18586-.06776-.03835-.12044-.02347-.14769.06259-.11438.16143.06246.20429-.09642.07879-.2922-.13029-.20329-.05767-.40541.132-.36741.111.02218.14307-.01282.14307-.15589,0-.09787.03183-.18448.06776-.18448.03869,0,.08554-.04516.10917-.10538.03015-.07669-.00375-.09619-.12422-.07156-.14308.02929-.14972.02054-.04892-.064a1.10949,1.10949,0,0,0,.20329-.24849c.04764-.08285.08829-.10655.09033-.05271.003.07831.02638.07531.11671-.01505a.38788.38788,0,0,0,.113-.18448.70737.70737,0,0,1,.22589-.26355.55236.55236,0,0,0,.22586-.384c0-.12044.04069-.192.10917-.192.06022,0,.094-.0422.07531-.09415-.01919-.05333.064-.15937.192-.2447a.73089.73089,0,0,0,.26733-.28235c.02364-.07531.07207-.13177.11293-.13177.03814,0,.07155-.05271.07155-.11293s.03507-.113.07528-.113c.13552,0,.39859-.28157.34474-.36893-.02787-.0452-.01344-.08282.03173-.08282s.06228-.03424.03765-.07531.03011-.0753.12048-.0753a1.5933,1.5933,0,0,0,.73464-.46684.14545.14545,0,0,1,.13126-.06025c.06022,0,.10538-.03063.10538-.07152s.0565-.08926.13177-.11293a1.43479,1.43479,0,0,0,.36518-.25224,7.28023,7.28023,0,0,1,.66261-.49695,1.85223,1.85223,0,0,0,.50862-.45932c.08289-.18069.41523-.30013.461-.1656.02374.06969.33444-.06029.432-.18073a3.20486,3.20486,0,0,1,.413-.25224c.256-.1408.31026-.19261.16943-.16188-.12047.02625-.20705.01368-.20705-.03015,0-.04137.15434-.07527.34257-.07527a.6292.6292,0,0,0,.56471-.22968c.12378-.128.22214-.1963.22214-.15433,0,.125.44981.0979.49887-.03011.02308-.06026.08189-.10811.12609-.1026.14307.01788.57976-.09766.57976-.1534a.285.285,0,0,0-.09033-.14307c-.06776-.06777-.06873-.09037-.00379-.09037a.17974.17974,0,0,1,.13177.07531.1492.1492,0,0,0,.12047.07531c.0452,0,.05723-.02863.03011-.07152-.02463-.039.03011-.11089.12048-.15813.14307-.07482.15933-.07017.11933.03387-.057.1481.00865.14751.45292-.00393a18.94977,18.94977,0,0,1,2.44706-.64039,1.04976,1.04976,0,0,1,.73038.04692c.40134.20277.6099.15148,1.08425-.26671.29365-.2589.30433-.44331.0226-.38991-.13553.0257-.19389-.00717-.23344-.13139-.04289-.13477-.09412-.15723-.27481-.12051-.12047.02453-.20315.01419-.18072-.02257.02211-.03617-.01127-.08709-.07152-.10917a.1745.1745,0,0,1-.11293-.15812c0-.06777-.02215-.11341-.05274-.10883-.143.02129-.20233-.01754-.11293-.074.13067-.08247-.03011-.461-.19575-.461-.06542,0-.0897-.04141-.064-.10918a.13706.13706,0,0,0-.0339-.15812.138.138,0,0,1-.03762-.15058.13816.13816,0,0,0-.03766-.15062c-.04675-.03035-.041-.09036.01506-.15813.04985-.06022.05994-.10348.0226-.09656-.14307.02663-.256-.00551-.256-.07286,0-.04014.05271-.05567.113-.03332.14117.05244.14117.03332,0-.30546-.10039-.241-.10039-.27609,0-.31626a.24745.24745,0,0,0,.11292-.22213.295.295,0,0,1,.07531-.2221.25335.25335,0,0,0,.07531-.19575.84334.84334,0,0,1,.271-.4072,2.66694,2.66694,0,0,1,2.43205-.41943Zm-3.38077.45767a.07544.07544,0,0,1-.07906.07528c-.04517,0-.0597-.03228-.0339-.07528.02711-.0452.05874-.07531.07906-.07531s.0339.03011.0339.07531Zm6.40008.00186c.08871.05771.06776.07342-.09787.07342-.12048,0-.191-.03228-.1645-.07528.05636-.09157.11933-.09112.26237.00186Zm-5.9483.6118c0,.03411-.05271.064-.11293.064s-.113-.02987-.113-.064.05271-.064.113-.064.11293.02987.11293.064Zm-.26354.51576a.14654.14654,0,0,1-.11672.0753.06944.06944,0,0,1-.07152-.0753c0-.04372.04892-.07528.11668-.07528s.09777.03156.07156.07528Zm-.07531.82825a.14916.14916,0,0,1-.12044.07527c-.0452,0-.05726-.03011-.03014-.07527a.14926.14926,0,0,1,.12047-.07531c.0452,0,.05722.03014.03011.07531Zm5.986,4.593c0,.04014-.07907.07355-.16943.07152-.15813-.00351-.15937-.0083-.01881-.07152.08282-.03727.159-.06945.16939-.07155.0113-.00224.01885.02639.01885.07155Zm.16563.09036c-.05271.05271-.09036.059-.09036.015,0-.09783.09277-.18961.14307-.14145.02191.02105,0,.07369-.05271.12643Zm10.5639.21084c.02584.043.0113.07531-.03387.07531a.07545.07545,0,0,1-.07909-.07531c0-.0452.01357-.07531.03389-.07531s.052.03011.07907.07531Zm-11.52767.11251a1.82828,1.82828,0,0,1,.42163.07569,3.04284,3.04284,0,0,0,.57225.0834,10.61162,10.61162,0,0,1,1.9125.41957c.14762.043.42918.10528.64.14156a12.33838,12.33838,0,0,1,2.37179.81278c.66981.36538,1.50591.88589,2.60518,1.622a12.57849,12.57849,0,0,1,2.27847,2.31191,6.0864,6.0864,0,0,1,.39456.64,7.614,7.614,0,0,0,.40658.67013c.09091.124.35928.59106.59481,1.03533s.52771.97077.64756,1.16706c.12044.19733.34495.60236.50073.90353s.32793.5459.384.5459q.10164,0,.05977.13552c-.04613.14927.37337.768.90359,1.33271a5.19617,5.19617,0,0,1,.46494.57979.83394.83394,0,0,0,.4729.40128c.02153.00733.09411.03383.16942.0618s.17856.06342.24091.08282a1.19569,1.19569,0,0,1,.33134.384c.14325.22589.23547.31408.25972.24849.02177-.05874.04086-.03011.0452.06776a.37487.37487,0,0,0,.15062.25979c.07527.04754.127.12957.10917.17315-.01885.04606.04475.17318.14307.28614a2.25986,2.25986,0,0,1,.31622.61742,1.23512,1.23512,0,0,0,.1882.41412c.027,0,.05233.11672.0565.25975a.65308.65308,0,0,0,.128.38027.39376.39376,0,0,1,.12051.192c0,.04023.05271.07151.12047.07151.0885,0,.10848.049.07527.18448-.02394.09788-.00982.20571.03011.22965a.19548.19548,0,0,1,.07531.16188,1.86575,1.86575,0,0,0,.18448.48568,1.01154,1.01154,0,0,1,.143.48189c-.02209.06022-.01151.11293.0226.11293.035,0,.06276.18072.06125.39907-.00338.48943.035.66857.13077.61042.04885-.02966.05144.00324.00755.0936a.73924.73924,0,0,0-.05275.32752.45609.45609,0,0,1-.04516.26354,2.17416,2.17416,0,0,0-.06776.63626,3.56617,3.56617,0,0,1-.12048.88843,2.29455,2.29455,0,0,0-.11671.45554,4.76979,4.76979,0,0,1-.18448.68142,5.08407,5.08407,0,0,0-.17319.6024.99264.99264,0,0,1-.07906.25975,1.27632,1.27632,0,0,0-.08657.27481.10064.10064,0,0,1-.05647.0904,1.57872,1.57872,0,0,0-.19953.44044,3.32086,3.32086,0,0,1-.27109.60236,1.63108,1.63108,0,0,0-.18069.35766c-.02811.09037-.08609.16943-.12423.16943a.07849.07849,0,0,0-.07152.08282A8.46113,8.46113,0,0,1,38.359,36.32822a5.93326,5.93326,0,0,1-1.68024,1.62237,1.40113,1.40113,0,0,0-.384.25248,4.3804,4.3804,0,0,1-.82825.45553,6.00626,6.00626,0,0,0-.8659.45929,3.934,3.934,0,0,1-.65883.36521c-.27859.12795-.50824.281-.50824.33882a.17945.17945,0,0,1-.113.14682c-.06022.02212-.11293.00276-.11293-.04141,0-.14055-.52705-.00582-1.12941.2887a14.69715,14.69715,0,0,1-1.99535.82921,5.10763,5.10763,0,0,0-.52706.17914,10.67124,10.67124,0,0,1-1.6565.41833c-.20815.0299-.94869.22062-1.65646.42667a11.24111,11.24111,0,0,1-3.35066.6644,11.67321,11.67321,0,0,1-2.08565.01337c-.44864-.04362-1.49837-.08244-2.34167-.08658a12.50957,12.50957,0,0,1-2.033-.11671c-.27553-.05964-.92987-.16388-1.44191-.22965a9.86554,9.86554,0,0,1-.99764-.15792,3.1186,3.1186,0,0,0-.97132-.21459c-.03876.02357-.06776.00731-.06776-.03786,0-.04409-.10167-.0791-.22965-.0791-.16567,0-.24646-.04509-.2899-.16188-.05364-.14414-.113-.16188-.54214-.16188-.26351,0-.42215-.01361-.35008-.03011.07527-.01719.13174-.05915.13174-.09787,0-.03727-.20329-.04919-.45175-.02646-.68518.06267-1.10685-.08857-3.37322-1.21016a3.55242,3.55242,0,0,1-.81319-.56254c-.049-.041-.27481-.18775-.49319-.32042a2.26758,2.26758,0,0,1-.42918-.30495.13583.13583,0,0,0-.113-.06022,1.01851,1.01851,0,0,1-.34637-.2447,4.04523,4.04523,0,0,0-.576-.43383,5.96818,5.96818,0,0,1-1.246-1.10595,6.53485,6.53485,0,0,0-.54607-.53074,3.89793,3.89793,0,0,1-.79811-1.13327c0-.05271-.02825-.09037-.06776-.09037-.066,0-.25455-.39907-.28452-.60236a.17721.17721,0,0,0-.092-.13552c-.04372-.01313-.05636-.07156-.03014-.13932a.1538.1538,0,0,0-.06022-.18448c-.06026-.03872-.06666-.06828-.01506-.069.105-.00144-.09036-.682-.21834-.76086a.09649.09649,0,0,1-.02436-.14142,11.33717,11.33717,0,0,0,.028-1.76943c-.002-.04182.01637-.22589.04148-.41412.02518-.18879.07517-.57225.11293-.86591a8.08551,8.08551,0,0,1,.19578-.97883c.07038-.24845.13911-.51951.15275-.60236a4.23788,4.23788,0,0,1,.1111-.4894.211.211,0,0,0,.00724-.09412c-.00455-.03389.02256-.05646.06776-.05646a.08008.08008,0,0,0,.07527-.08285,1.25107,1.25107,0,0,1,.10838-.32376,4.18712,4.18712,0,0,0,.37351-1.12191c-.02463-.02463.00958-.10166.07531-.16942s.10335-.15158.08282-.18445c-.02005-.03214.015-.10242.07531-.15058a.30671.30671,0,0,0,.11292-.18827.904.904,0,0,1,.19575-.335c.10566-.128.17669-.25627.15437-.2786-.02339-.02342.0339-.1112.13177-.20188A10.16311,10.16311,0,0,0,4.874,23.257a3.93393,3.93393,0,0,1,.97883-.93366c.0565,0,.12464-.09791.14683-.21084a.64667.64667,0,0,1,.256-.35387c.12044-.08034.2128-.15961.21059-.18069q-.02614-.24851.13949-.22365a.53877.53877,0,0,0,.3012-.08509c.15813-.10063.16-.11176.04141-.2447-.1007-.113-.10359-.135-.01506-.11672.06022.01247.10074-.0196.09037-.07152-.01006-.05023.0339-.09415.09411-.09415s.11293-.03335.11293-.07152-.05271-.05157-.11293-.02873c-.1429.05409-.06021-.20222.10542-.3268.09681-.07279.09949-.11506.01881-.29575-.084-.18827-.07675-.22413.06776-.3351a.48954.48954,0,0,0,.17319-.32376c.00644-.11293.03579-.1995.06776-.1995s.05646-.07531.05646-.17321a1.22484,1.22484,0,0,1,.13181-.43294,1.09761,1.09761,0,0,0,.12419-.42163c-.00489-.10546.028-.14876.09415-.12427.061.0226.10167-.00754.10167-.07527a.19477.19477,0,0,1,.09408-.15816c.06776-.03249.07093-.05636.0113-.0852-.09849-.04767-.04516-.41171.06022-.41171.03617,0,.088.05271.11117.11293.06366.16567.19264.05271.13759-.12047-.02394-.07528-.00978-.143.02984-.143.03906,0,.05718-.049.03765-.10166a.26223.26223,0,0,1,.08285-.22589.28915.28915,0,0,0,.07528-.27485c-.03163-.10538-.01017-.15058.07151-.15058a.11093.11093,0,0,0,.11672-.11293.31109.31109,0,0,1,.14307-.20329c.11328-.07155.129-.128.07531-.271-.06466-.17239-.0565-.17831.17694-.128.20329.04382.22888.03617.15147-.04516-.13666-.14349-.11761-.21835.05557-.21835.10842,0,.15058-.05271.15058-.18824,0-.10541.02984-.1882.06777-.1882.128,0,.47724-.36307.42735-.44427-.02773-.04519-.01323-.08285.032-.08285.21831,0,1.16366-.86576,1.08518-.99388-.0267-.04358.01413-.06367.09694-.04768.15059.02907.49643-.21862.43811-.31374-.053-.0863.33744-.37919.6612-.496a.19481.19481,0,0,0,.128-.15161.11212.11212,0,0,1,.11293-.10538c.06026,0,.11293-.03163.11293-.06777,0-.03841.09791-.1069.22589-.15812a.96241.96241,0,0,0,.384-.34636c.10232-.16564.21659-.256.32377-.256a.57375.57375,0,0,0,.31625-.13239,3.00052,3.00052,0,0,1,.91107-.47,1.73187,1.73187,0,0,0,.70027-.39153c0-.032.08657-.06022.18444-.06022a2.034,2.034,0,0,0,.58355-.18045,14.80214,14.80214,0,0,1,3.67439-.91582,2.86286,2.86286,0,0,0,.51954-.07834,14.271,14.271,0,0,1,1.84474.0824ZM7.95359,10.74672c-.0391.21838-.076.25424-.2748.26726-.143.00941-.21263-.01333-.18448-.06021.02711-.04517.06628-.06288.09787-.0442.10514.062.26516-.09133.2838-.272.02491-.241.02491-.241.07761-.18827a.569.569,0,0,1,0,.29744ZM4.89663,15.095c0,.08282-.01523.15062-.03387.15062s-.07114-.0678-.11672-.15062c-.06628-.12044-.05949-.15054.0339-.15054a.13734.13734,0,0,1,.11669.15054Zm-.45178.3351c0,.02032-.03011.05192-.07528.07906-.04306.02577-.0753.0113-.0753-.03386a.07543.07543,0,0,1,.0753-.0791c.04517,0,.07528.01357.07528.0339Zm-.8132,3.14357c-.06776.06773-.11293.06773-.18069,0-.07152-.07155-.05271-.09039.09036-.09039s.16188.01884.09033.09039Zm3.41088,1.49083a.14925.14925,0,0,1-.12048.07528c-.04519,0-.05722-.03011-.03011-.07528a.14926.14926,0,0,1,.12051-.0753c.04517,0,.05719.03014.03008.0753ZM4.219,22.32335c0,.04516-.01351.0753-.03387.0753s-.05195-.03014-.07906-.0753c-.02584-.043-.0113-.07531.0339-.07531a.07542.07542,0,0,1,.079.07531Zm-.18858,1.0541c.02453.04055.00034.07531-.05233.07531-.06777,0-.07355.01736-.01885.05646a.47517.47517,0,0,1,.128.18073c.03669.09315.01127.11434-.1017.08461-.15054-.03962-.30426-.30943-.239-.41967.04858-.08213.22917-.0678.28384.02256Zm-.18789.67767a.07542.07542,0,0,1-.07907.07527c-.04516,0-.0597-.03224-.03386-.07527.02711-.04516.05874-.07531.079-.07531s.0339.03015.0339.07531ZM3.29283,25.5309a.15486.15486,0,0,1-.14307.00754c-.0618-.02381-.04516-.04044.0452-.04516.07531-.004.12165.01384.09787.03762Zm38.241,1.98026a.18019.18019,0,0,1-.13043.08282c-.0474,0-.04154-.04517.01471-.11293.10142-.12223.19509-.09791.11572.03011Zm-40.10079.37271c0,.03532-.049.064-.10921.064s-.09229-.02869-.07155-.064a.13123.13123,0,0,1,.10921-.064.06433.06433,0,0,1,.07155.064Zm39.944.23719a.1465.1465,0,0,1-.11672.07531.06941.06941,0,0,1-.07148-.07531c0-.04371.04892-.07527.11668-.07527s.09777.03156.07152.07527ZM1.019,29.1752c.02581.043.01127.07528-.0339.07528A.07541.07541,0,0,1,.906,29.1752c0-.04519.01357-.0753.03387-.0753s.05195.03011.07909.0753Zm39.75581,4.36711c.02584.043.01127.07531-.0339.07531a.07542.07542,0,0,1-.07906-.07531c0-.04516.01357-.07531.03386-.07531s.052.03015.0791.07531Zm.4894.44424c0,.03872-.05646.08712-.13177.113s-.17532.06452-.2334.09036q-.1017.04511-.07155-.05274a.3488.3488,0,0,1,.21459-.15058c.0979-.028.19333-.05623.20332-.06026.0113-.00451.01881.0196.01881.06026Zm-5.49652,5.57937a.07545.07545,0,0,1-.0791.07527c-.04516,0-.05966-.03228-.03386-.07527.02714-.04517.05874-.07528.07906-.07528s.0339.03011.0339.07528ZM12.061,41.72312c.09243.113.0866.11623-.064.03607-.17321-.09219-.218-.1603-.10545-.1603a.33229.33229,0,0,1,.16943.12423Zm-.50825.26354a.13117.13117,0,0,1-.10917.064.06428.06428,0,0,1-.07152-.064c0-.03531.049-.064.10918-.064s.09229.0287.07151.064Zm17.62659.28986c.02539.04238-.00754.07531-.07531.07531s-.10069-.03293-.07527-.07531c.02715-.04516.05722-.07527.07527-.07527s.0482.03011.07531.07527Z"/><path d="M2.3366,24.729a.18589.18589,0,0,0,.08658.12426c.0527.03207.06741.02177.03765-.02635a.07838.07838,0,0,1,.04516-.11672c.05915-.02367.04517-.04044-.03765-.04516-.07527-.00431-.13174.02311-.13174.064Z"/><path d="M6.139,21.94684c-.02584.043-.0113.07531.03387.07531a.07545.07545,0,0,0,.07906-.07531c0-.04516-.0135-.07531-.0339-.07531s-.05192.03015-.079.07531Z"/><path d="M18.9384,21.12944a.07864.07864,0,1,0,.08117-.076.07427.07427,0,0,0-.08117.076Z"/><path d="M25.75568,16.93415c-.23587.01188-.328.07186-.54668.35577-.1418.1842-.234.34428-.2002.34751.03585.00341.00269.03774-.07737.08008a.25894.25894,0,0,0-.14384.188.10715.10715,0,0,1-.102.11077.3179.3179,0,0,0-.20161.15074c-.0879.13088-.08574.15453.01448.15782.13729.0045.13833.01238.03473.26867-.05337.132-.1219.1842-.198.15086-.07662-.03362-.18837.05675-.32733.26462a1.6473,1.6473,0,0,0-.21329.38639.30235.30235,0,0,1-.11936.16132.731.731,0,0,0-.17691.35612c-.03521.15619-.10675.264-.17381.26184a.19932.19932,0,0,0-.16956.13213.43965.43965,0,0,1-.11986.177.4095.4095,0,0,0-.09013.22912.264.264,0,0,0,.1673.2966c.19313.10864.19313.10864.01238.10271a.2383.2383,0,0,1-.22-.12921c-.03489-.10949-.05542-.10977-.18483-.0021a.80653.80653,0,0,0-.20544.38665.92527.92527,0,0,1-.1575.36461,1.91208,1.91208,0,0,0-.21884.31544,2.53045,2.53045,0,0,1-.361.4524l-.23981.236.17622.14351.17626.14347-.25331.04677c-.1583.02923-.24086.08257-.22021.14225.03308.0955-.22092.35453-.33864.34542a.91659.91659,0,0,1-.24232-.16781c-.153-.13342-.166-.17651-.071-.23441.07227-.044.08066-.07209.02212-.074-.04893-.0016-.07376-.05353-.05156-.10792a.22787.22787,0,0,0-.06365-.21843,1.39367,1.39367,0,0,1-.19481-.29746c-.04994-.104-.11624-.16786-.15253-.14691-.10427.06-.15207-.16967-.05439-.26118.05682-.05322.06072-.08455.01069-.08619a.29805.29805,0,0,0-.176.08865c-.07578.07092-.09585.044-.09044-.121.00438-.13366.05062-.2108.12483-.20837.10181.00334.10526-.02013.02509-.17226q-.2405-.45632-.31228-.28562c-.03076.07322-.05525.069-.11416-.01943-.05321-.07994-.03845-.14684.05083-.23049.08118-.076.09415-.13.03648-.15219a.07313.07313,0,0,1-.03569-.11132c.0298-.04273-.038-.16036-.15261-.26466-.14517-.13212-.17563-.19835-.10283-.22368.06728-.02335-.00336-.13719-.20178-.32523-.16786-.15914-.26627-.28926-.21867-.28921.18894.00029.15382-.28334-.06419-.51864-.12782-.138-.236-.23567-.24974-.22547-.07.05192-.25757-.098-.26055-.20826-.00232-.08665-.019-.09828-.04708-.033-.09074.21046-.23632-.06282-.20056-.37634a.486.486,0,0,0-.07594-.40376c-.09381-.083-.1119-.06659-.11757.1063-.0036.11007-.043.20317-.08528.20178-.04718-.00155-.07376-.02758-.06646-.06514.03635-.18762-.01389-.33088-.11714-.33426-.0629-.00207-.11665-.04242-.11521-.0864.00146-.04444-.04465-.07763-.09991-.072-.28421.02931-.53361-.027-.47961-.10834.04479-.06743-.00589-.08187-.18778-.05335-.14235.02233-.248.00533-.24655-.03954.00331-.10109-.36495-.10643-.43127-.00629a.26738.26738,0,0,1-.20031.07212c-.18077-.00593-.50963.27045-.40453.33991.12977.08576.08779.20235-.05192.14417-.10434-.04338-.12407-.01923-.09428.11548.02105.09512.00706.15027-.03163.12481-.037-.02428-.07112.00952-.07319.07241a1.04975,1.04975,0,0,0,.27823.63368.22278.22278,0,0,1,.05445.25838.57325.57325,0,0,0,.01177.33081,6.33731,6.33731,0,0,1,.4446,1.10823,6.12875,6.12875,0,0,0,.52959,1.15817,5.24109,5.24109,0,0,0,.33611.51459,5.03514,5.03514,0,0,1,.39922.66217,1.72787,1.72787,0,0,0,.32666.4749.83152.83152,0,0,1,.17643.18282,1.53432,1.53432,0,0,0,.33874.66263c.15719.16189.16437.19967.0705.36963-.08534.15459-.11268.166-.14873.062-.06341-.18286-.71957-.07867-.8626.13691-.03106.04686-.138.061-.23934.0315s-.20723-.01532-.23708.03161a.10136.10136,0,0,1-.13866.03084c-.05219-.03321-.06175-.01386-.025.05034a.12664.12664,0,0,1-.21868.12656c-.03211-.05336-.03892.01838-.01526.16077.03285.19777.01551.2562-.07518.25323-.2583-.00847-.26428,1.25022-.00788,1.6677.16766.273.77517.5917.9518.49929.064-.03351.118-.08494.11571-.11018-.00622-.0682.016-.06949.16358-.00958a.58832.58832,0,0,0,.36793-.0635.98827.98827,0,0,1,.30632-.10407.2814.2814,0,0,0,.1023-.00057c.02188-.00576.39764-.00935.83818-.00791.6923.00225.79225.01806.75139.11906-.03424.08469-.01128.10474.08416.07356.07158-.02339.13011-.009.12877.03176-.00142.04337-.05354.07294-.12427.07063s-.10465.0263-.08091.06819c.02288.04038-.00283.0863-.05852.10427-.071.023-.07572.0644-.01654.145a1.84846,1.84846,0,0,1,.05174.70192,1.42476,1.42476,0,0,0,.04948.6507q.08059.06166-.03756.06569c-.06563.00221-.18137.01238-.26039.02289a.16834.16834,0,0,1-.181-.09247c-.05742-.16513-.18237-.14759-.13622.01915.03517.127.03043.12818-.04264.01041-.06809-.1098-.12975-.12128-.35973-.06691a.69953.69953,0,0,1-.35456.016c-.04533-.02924-.05779.006-.03034.08555.03689.10683.01568.12118-.10058.06816-.22482-.10241-.54827-.15794-.45379-.07788q.07659.06489-.06941.19777c-.08111.0738-.14483.09795-.1434.0543.00147-.04488-.04458-.08012-.10746-.08218A.15173.15173,0,0,1,17.62546,29.5c-.01752-.0536-.18057-.01168-.42054.10814-.36794.18366-.39623.1868-.462.05174-.03888-.08-.07767-.15468-.08722-.16809-.03733-.05249-.403.12189-.57319.2734-.16311.14516-.1876.23666-.196.73207a1.851,1.851,0,0,0,.54736,1.51067.97875.97875,0,0,0,.62978.34931c.22713.0316.34645.013.37564-.0585a.15078.15078,0,0,1,.19084-.06135c.187.05495.29537-.15817.16485-.32433-.08074-.1028-.07575-.11336.03295-.06973a.1878.1878,0,0,1,.12505.14572c-.00508.155.35145.31962.58128.26844.111-.02476.18714-.07741.165-.11414-.02186-.03642.01541-.11044.08-.15864.09813-.07339.13127-.06259.17516.05682.03807.10355.14059.15137.34486.1608.165.00768.27133-.01947.24594-.06274-.02572-.04383.07663-.05721.241-.03141.227.03552.29554.016.33358-.0953.02658-.07782.07929-.139.11859-.13772.10569.00346.09072.11312-.031.22717-.07937.07432-.07817.10421.00651.16148.077.05206.07815.07758.00464.0985-.07278.02069-.06885.06.01482.14739a.35374.35374,0,0,1-.02389.48958c-.10553.09885-.12584.31489-.02417.25681s.15791.36915.06284.47619a.38361.38361,0,0,0-.05589.27355c.10563.75089.13633.86205.23908.86542.088.00288.09248.03449.02236.15808s-.0569.17517.06629.25786c.17705.11891.20185.26275.033.19177-.06984-.02936-.11791-.00333-.12015.065-.00206.06289-.039.1128-.08232.11138a.07429.07429,0,0,0-.08118.076c-.00142.04326.06815.08093.15462.08376.11489.00377.15539.06021.15049.20951-.00631.19267.00911.20193.27005.16228.2135-.03242.27594-.01691.27315.06795-.00638.19469.34722.20808.71506.02712.19194-.09443.32689-.17392.29685-.17491-.03055-.001.107-.14509.30963-.32423.3322-.29376.35823-.3415.293-.5372-.05574-.16706-.04676-.22786.04043-.27352.15211-.07972.22424-.70473.0879-.76146a.198.198,0,0,1-.09627-.18347c.00361-.11.0184-.1183.06648-.03717.09731.16414.17217-.254.13732-.76654a.9047.9047,0,0,0-.15212-.53214c-.10977-.08805-.10693-.09832.02679-.09743.07865.00046.12964-.02019.10766-.0437a.58036.58036,0,0,1,.02981-.30979c.04-.14819.04251-.27651.00561-.29093-.03444-.01348-.03832-.06814-.00806-.11434A2.84446,2.84446,0,0,1,23.89477,31.7c.68572-.03717.8815-.07525.97-.18851.10787-.13808.11075-.13809.10624-.00044-.0035.10687.03891.13231.17359.104.097-.02037.40367-.07309.67256-.11565a1.2487,1.2487,0,0,0,.49623-.13715c.00109-.0333.08054-.05636.1827-.053.2515.00825.61315-.2236.61883-.39671.004-.12071-.03881-.136-.29163-.104-.17382.022-.26771.00915-.22716-.03106a.24768.24768,0,0,1,.15558-.06571c.13043.00428.21527-.465.11169-.61788a.28744.28744,0,0,0-.1776-.13171c-.04971-.00162-.08806-.07365-.08523-.16014.0036-.10967-.04593-.15885-.16382-.16271a.40272.40272,0,0,1-.2745-.14669c-.09594-.12835-.10172-.1253-.06372.03329.04752.1984-.00023.23744-.34794.28446-.22127.0299-.258.0094-.29361-.16387-.03257-.15842-.08026-.1922-.23834-.16909-.174.02544-.19266.006-.156-.16246.02721-.125.00488-.1926-.06441-.19488-.06063-.002-.11143.05535-.11847.13381s-.02708.09631-.04665.04174c-.05057-.14093-.16221-.1312-.19648.01714a.23992.23992,0,0,1-.22765.142,2.76859,2.76859,0,0,0-.427.06469c-.222.05349-.22782.048-.16787-.15893.04516-.1559.03585-.19911-.03415-.1585q-.09622.05592-.0409-.07211c.0454-.10507.02737-.1148-.10049-.05445q-.15587.07362-.20423-.01062c-.03484-.06064-.07666-.062-.14934-.00489a.15363.15363,0,0,1-.21563-.02187c-.16058-.14166-.21956-.3676-.10487-.40171.07238-.0215.077-.13121.0189-.45573a3.47886,3.47886,0,0,1-.05567-.702c.01959-.25854.04059-.27848.35728-.33844.18208-.03446.33782-.1052.33942-.15407a.10436.10436,0,0,1,.11694-.08666c.06287.00206.09571.03136.07327.06532-.0586.08883.067.096.16424.00938a.82339.82339,0,0,1,.45243-.00093c.20328.03895.3722.04629.37319.01616.00425-.12971.27234-.14767.44156-.02959.1.06977.18579.09277.18718.0502.00271-.08246.24367-.00775.31217.09681.02049.03123.22882-.03887.46875-.15779s.38821-.21543.33363-.21722c-.07275-.00238-.07494-.03-.00832-.1065.04664-.05351.06615-.12865.04052-.156-.02767-.02952-.01512-.09488.0285-.14853a.64127.64127,0,0,0,.09609-.29188c.01753-.18824.01348-.1901-.10074-.04658-.11226.14107-.11861.13773-.11217-.05875.00438-.13359.05947-.22207.15364-.24677.12422-.0325.14-.08587.10232-.34672a1.06079,1.06079,0,0,0-.65918-.78678c-.10132-.02888-.17833-.08015-.17709-.11791.0012-.03675-.06733-.10624-.15229-.15449-.12358-.07014-.14582-.06378-.11119.03178.02309.06368.00111.118-.04709.11646a.17.17,0,0,1-.12987-.11834.75318.75318,0,0,0-.23945-.25569c-.19227-.13489-.20529-.13395-.33912.0243-.08413.09955-.18823.1443-.26335.11329-.06986-.02882-.12516-.022-.12639.01555s-.08881.06919-.19906.07213-.19624-.01363-.19545-.03783a7.05764,7.05764,0,0,1,.42274-.65491c.32855-.47708.39842-.628.31752-.6859-.08434-.06033-.0802-.07373.022-.07156.13094.00274.55952-.50734.56493-.67236.0018-.055.026-.0936.05811-.09255.112.00367.53-.54909.55725-.737.03076-.21146.13151-.35319.12573-.17688-.00205.06239.05592.00972.1338-.12146a.98316.98316,0,0,0,.136-.42828c-.0008-.11021.01613-.1512.03845-.09316.03132.08141.0641.085.15288.01682.06456-.04957.09547-.11771.07207-.15894-.02132-.0376.00232-.0707.04948-.06915.05164.00169.07339-.04479.05079-.10853-.02439-.06858.0198-.12466.11489-.14573.08719-.01932.15584-.07362.15751-.12461.00155-.04718-.03153-.07087-.06919-.0495-.03933.02229-.11843-.01961-.174-.09224-.08963-.11719-.07847-.12579.09283-.07172.17911.05652.18395.05228.06076-.05309a.34039.34039,0,0,1-.13072-.21275c.00246-.07512.03385-.07229.13335.01222.10717.091.11965.0914.07073.00232-.04808-.08754-.02851-.08992.10268-.01236s.16284.07333.166-.0221a.26136.26136,0,0,1,.144-.192c.12382-.06548.12048-.0752-.02872-.08359-.12566-.007-.15756-.04732-.12469-.15747.032-.10709-.00659-.15839-.13945-.18554-.17193-.03508-.17371-.04165-.02808-.10319q.15555-.06574.18391.02961a.16062.16062,0,0,0,.13445.09883c.0643.00211.0892-.04823.06319-.12774q-.04289-.13121.04569-.07326c.04622.03027.08988.01849.09129-.02451a.07878.07878,0,0,0-.07591-.08511c-.04189-.00137-.07678-.05759-.07472-.12048a.11229.11229,0,0,0-.09436-.1211c-.07077-.00232-.07131-.01911-.002-.06.17135-.10108.0391-.47238-.20174-.56638-.12428-.04849-.22423-.11959-.223-.15861.0036-.11-.61029-.51782-.70071-.46545a.16388.16388,0,0,1-.17233-.02343.76064.76064,0,0,0-.37583-.05559Zm1.42616,1.13612c.10865.04593.11355.06661.02762.11725-.16847.09937-.30919.072-.30489-.05917.00421-.12841.07551-.14335.27727-.05808Zm-.36919.76318c-.001.13374-.14932.12887-.19682-.00645-.03072-.08755-.00688-.11873.07634-.09981.07028.01606.12081.06059.12048.10626Zm.25879.20518c.02546.04583-.02616.07783-.12048.07474s-.14374-.03841-.11532-.08247a.12781.12781,0,0,1,.2358.00773Zm-8.2652.12247c.02548.04576.00922.079-.038.07741a.07877.07877,0,0,1-.07994-.08127c.00155-.04718.01669-.07815.03795-.07745s.05319.0332.08.08131Zm7.808.98369c-.07892.07391-.08909.064-.04574-.04477.03094-.07767.07607-.11986.10146-.095.0256.02507.00108.08661-.05572.13979Zm-7.10518.37685a.07863.07863,0,1,1-.076-.08118.07426.07426,0,0,1,.076.08118Zm.51668,1.03975c-.00154.04714-.01674.07814-.038.07744s-.05317-.03324-.08-.08131c-.02548-.04576-.0092-.07895.038-.07741a.07879.07879,0,0,1,.08.08128ZM16.991,25.33287c-.00412.12571-.02848.14856-.0893.08361a.15232.15232,0,0,1-.028-.174q.12651-.19255.11727.09039Zm9.40247.46557c-.02693.0637-.04373.04576-.04562-.04869-.00155-.07874.01868-.12653.04266-.10087a.16167.16167,0,0,1,.003.14956Zm-2.06379.074c.02548.0458.0092.079-.03794.07745a.07879.07879,0,0,1-.08-.08131c.00154-.04715.01671-.07815.03794-.07745s.05318.03324.08.08131Zm1.90028.83337c-.00428.13057-.20471.245-.41692.23807-.2515-.00825-.27453-.068-.07977-.20669.15306-.109.5-.13095.49669-.03138Zm-2.10951,3.17235c-.02884.04405-.01513.0782.032.07974a.07875.07875,0,0,1,.08.08128c-.00137.04193-.05759.0768-.12047.07474-.11789-.00387-.15266-.177-.05413-.26928.07775-.07283.11817-.0512.06262.03352Zm2.04614.20084c-.08018.07509-.14213-.044-.07492-.14407.0517-.077.0737-.07717.09542-.00083a.15906.15906,0,0,1-.0205.1449ZM23.841,29.97911c-.00258.07857-.23447.11071-.27566.03816-.02444-.043.02913-.0777.11559-.07487s.16062.01985.16007.03671Zm.38242.33512c-.00207.06289-.01854.11743-.03532.11688s-.04979-.05671-.07078-.12036-.00453-.11819.03529-.11688.07287.0575.07081.12036Zm-5.16462.34211c.02675.04807.01313.07913-.034.07758a.15591.15591,0,0,1-.12319-.08273c-.02677-.04811-.01312-.07912.034-.07758a.15587.15587,0,0,1,.12318.08273Zm-.42131.85162c.13359.00438.13911.01615.03677.07824-.14449.0877-.6322.08518-.6293-.00324.004-.12126.12378-.17622.27957-.12817a1.44106,1.44106,0,0,0,.313.05317Zm1.32.31077c-.04289.10875-.07235.114-.16675.03-.10192-.09075-.09875-.10753.02854-.15091.183-.06236.2035-.04448.13821.12095ZM17.56878,31.709c-.00138.04218-.07724.07616-.16371.07333s-.13806-.041-.11138-.08235a.20415.20415,0,0,1,.16369-.07329c.06288.00206.11282.03894.1114.08231Zm-.63649.21521c-.00138.04186-.08509.07587-.17941.07277-.14146-.00463-.15276-.02023-.05645-.07787.1525-.09137.239-.08951.23586.0051Zm1.54159.25508a.16183.16183,0,0,1-.14957.003c-.06374-.027-.04576-.04373.0487-.04564.07873-.00156.12648.01869.10087.04266ZM20.61126,33.398c-.07565.11556-.18837.04891-.18322-.10827.00438-.13363.02114-.14136.11184-.05145.06094.0605.09153.12892.07138.15972Zm.882.99665c-.00206.06286-.04054.11671-.08246.11533s-.0768-.05763-.07474-.12048.04058-.11667.08247-.1153.07679.05759.07473.12045Z"/></svg>