<svg xmlns="http://www.w3.org/2000/svg" viewBox="0 0 42 44"><defs><style>.a{fill:#8186ff;}</style></defs><title>icn_foot_10</title><path d="M21.38739,14.27845a1.28363,1.28363,0,0,1-.31195.07052c-.06511.00144-.12208.028-.12208.057,0,.02986-.09765.05424-.217.05424-.2038,0-.22924.019-.41775.312a4.00621,4.00621,0,0,1-.2692.38249.35742.35742,0,0,0-.07526.30381.17717.17717,0,0,1-.04888.11123c-.03952.047-.03952.14919,0,.33364.0314.14648.06722.32918.07983.4069.09761.60222.8264,1.073,1.25752.8124.11392-.06886.1857-.08415.22244-.04741a.376.376,0,0,0,.41074-.09766.18.18,0,0,1,.16436-.076.43983.43983,0,0,0,.274-.14921c.07546-.0814.17534-.18863.21973-.236a.2868.2868,0,0,0,.08137-.14919.06238.06238,0,0,1,.057-.0624c.03255,0,.04188-.02443.0217-.057a.13282.13282,0,0,1,.02984-.13566c.03591-.04339.04932-.07864.02983-.07864-.01921,0,.00249-.05423.04779-.11934a1.07981,1.07981,0,0,0-.02944-.88975c-.10426-.32012-.27065-.56427-.38456-.56427-.093,0-.13019-.01515-.26041-.106a.39582.39582,0,0,0-.236-.07841.52454.52454,0,0,1-.217-.0244.576.576,0,0,0-.30654.02713Z"/><path d="M21.69663,18.40114a1.37571,1.37571,0,0,1-.35807.04853c-.548.03056-1.37808.32349-1.34765.47558.007.03505-.01954.05873-.05752.05128-.07672-.015-.24562.13859-.29554.26881-.0624.16276.35676.39935.45173.255.04-.06077.06461-.057.12322.019a.23794.23794,0,0,0,.16274.095c.04885,0,.08953.02467.08953.05426,0,.02984-.04882.05424-.10852.05424-.15115,0-.141.1053.01087.113.11394.00578.11535.00871.01628.03346a.399.399,0,0,0-.16276.0841c-.03833.04023-.02713.04756.038.025.124-.043.12293-.006-.00382.12965s-.14551.47332-.02872.51733c.07055.02653.07124.03867.00544.0911a1.40537,1.40537,0,0,0-.11185.75876.76235.76235,0,0,1-.00055.52083c-.03934.04882-.04185.08276-.007.095a.7315.7315,0,0,1,.04882.37162c-.00315.20618.01713.35266.04883.35266.03257,0,.0423.0868.02442.217-.01638.11935-.00908.217.01629.217.02445,0,.013.06241-.02443.1329a.86685.86685,0,0,0-.04882.39334c.01184.14207.02661.42321.03254.61851a1.10593,1.10593,0,0,0,.07869.43944c.05585.067.04865.1058-.04071.21973a.53658.53658,0,0,1-.24413.17091c-.07594.01822-.13564.05642-.13564.0868s-.05967.05427-.13563.05427c-.0868,0-.13563.02929-.13563.08137,0,.04339.024.08139.05156.08139s.0376.038.02167.08137-.00829.08519.01628.08951c.02535.00449.09495.01718.15462.02822a2.44879,2.44879,0,0,0,.82466.02056.258.258,0,0,1,.22244.00819.10374.10374,0,0,0,.12208.01355.64025.64025,0,0,1,.20886-.05426,2.33172,2.33172,0,0,0,.29839-.05424c.09225-.02385.145-.02048.12749.00814-.01635.02679.04612.05074.13834.053.38523.00966.47484.02525.44316.07718-.04391.07208.21874.069.48459-.00566.16277-.04573.221-.04379.2523.00839a.10749.10749,0,0,0,.12206.038.14145.14145,0,0,1,.13292.02169c.03324.03327.07561.0217.11935-.03257.04811-.05967.05046-.08409.00814-.08409-.03257,0-.05967-.01971-.05967-.04339,0-.06281.29181-.04883.33977.01628.02559.03473.04.02984.04-.01355,0-.04883.038-.05337.13563-.01629s.13184.03331.12208-.01355a.19543.19543,0,0,0-.06784-.1058c-.02956-.02219.01358-.04068.095-.04068s.14921-.0247.14921-.05426c0-.09808-.19531-.14954-.70529-.1858-.28214-.02006-.55715-.04863-.60764-.0631-.09768-.028-.13908-.18513-.04885-.18513a1.82192,1.82192,0,0,0,.1289-.70531.41475.41475,0,0,1,.02244-.16274A1.97289,1.97289,0,0,0,22.977,23.591c0-.09765.01973-.179.04339-.179.05523,0,.01256-.21164-.06022-.29842-.0457-.05451-.032-.06375.06022-.04071.0868.02172.10745.01062.07566-.04066-.06387-.10309-.06365-.43544.00027-.43763.03041-.001-.00539-.03646-.08137-.08052l-.13561-.07864.13293.01355c.13134.01341.133.00815.141-.44758a1.31072,1.31072,0,0,0-.04612-.49643c-.02934-.01906-.0343-.08137-.01087-.13563a.3354.3354,0,0,0,.03244-.14918,1.05119,1.05119,0,0,1,.00013-.49681A4.26275,4.26275,0,0,0,23.1021,19.636c-.05009-.32012-.20454-.61938-.33667-.65242-.08137-.02033-.11441-.05761-.095-.10714s-.01082-.07595-.08678-.07595c-.06511,0-.10343-.0216-.08675-.04883.04649-.076-.11153-.11369-.1818-.04342-.04883.04883-.057.04342-.03257-.02169.02475-.066-.03254-.11471-.2387-.20308-.29839-.12786-.29839-.12786-.34722-.08231Zm-1.42145.88762c.01862.031.00814.05426-.0244.05426a.05438.05438,0,0,1-.057-.05426c0-.03257.00975-.05427.02443-.05427s.0374.0217.05694.05427Zm.27129.03023c.05426.04121.07479.07824.04339.07824a.51331.51331,0,0,0-.14648.03257c-.062.02326-.08683,0-.08683-.0814,0-.13391.04341-.14062.18992-.02941Zm1.275.99785c0,.0275-.038.03763-.0814.02172s-.08137-.04-.08137-.05156.038-.02172.08137-.02172.0814.02408.0814.05156Zm-.11938.19531c-.01807.01658-.04823-.01356-.06779-.06782-.02743-.076-.02018-.08254.03254-.02984.038.038.05347.08095.03525.09766Zm-1.39973.34992c0,.03257-.00973.05427-.02443.05427s-.0374-.0217-.05694-.05427c-.01862-.031-.00814-.05423.0244-.05423a.05435.05435,0,0,1,.057.05423Zm1.62761,1.79037c0,.029-.038.05426-.0814.05426s-.08137-.02529-.08137-.05426.038-.05426.08137-.05426.0814.02534.0814.05426Zm1.11218,2.984c.01892.0315-.0027.05426-.05153.05426s-.0841-.02276-.0841-.05426a.05.05,0,0,1,.05156-.05426.10549.10549,0,0,1,.08407.05426Z"/><path class="a" d="M31.94,30.30755c0,.07593.01194.10577.02713.06781a.20746.20746,0,0,0,0-.13565c-.01519-.038-.02713-.00814-.02713.06784Z"/><path d="M21.68817,1.39258c-.02454.06548-.03777.06831-.07051.01511-.031-.05036-.06293-.04511-.13848.02265q-.09816.08817-.13326.03274c-.04691-.07407-.09584-.06241-.21671.05161-.10071.095-.11077.09647-.11077.01638,0-.07684-.009-.07555-.07051.01007-.03976.05539-.06062.11465-.04783.136s-.0277.03776-.09316.03776a.23041.23041,0,0,0-.17877.1007.20769.20769,0,0,1-.141.10073c-.04532,0-.06433.02323-.04532.05539.02026.03428-.00755.04882-.073.03811-.10985-.0179-.17921.0626-.31415.36474a.64767.64767,0,0,1-.197.22408c-.07553.05083-.12818.11949-.11582.15107.01216.03108-.02518.07074-.08057.0856a.26548.26548,0,0,0-.15106.15358.37554.37554,0,0,1-.11834.16754c-.09567.05654-.19809.26021-.16139.32092.01828.03021.01234.05037-.01486.05037-.061,0-.19758.20645-.21979.33234a.47183.47183,0,0,1-.105.19386.76621.76621,0,0,0-.11833.33739c-.01845.146-.06062.25095-.10827.2694-.06573.02546-.063.04136.01763.10073s.08255.07089.01258.073a.1356.1356,0,0,0-.11078.10827c-.01583.06043-.0482.0928-.07553.07552-.02959-.01868-.03342.02265-.01007.10826a.30032.30032,0,0,1-.04281.26187c-.07563.1158-.07518.12138.00756.09064.05035-.01871.08812-.01226.08812.01512s-.0302.0478-.07051.0478c-.08427,0-.15488.34749-.14329.705a.58154.58154,0,0,1-.048.29208c-.08509.1007-.08793.26516-.00513.296.06.02235.05888.04387-.00754.14458a.52634.52634,0,0,0-.07806.23919c0,.19137-.18435.39205-.32732.35626-.06546-.01635-.13-.006-.14854.02392q-.03274.05287-.16114.005a.27076.27076,0,0,0-.17373-.019,5.02142,5.02142,0,0,1-1.47543.07414,3.52178,3.52178,0,0,0-1.14813.06069c-.03222.05036-.05034.04783-.09064-.01261-.04363-.06543-.05706-.06543-.1007,0-.02685.0403-.05037.04852-.05037.01763a5.79856,5.79856,0,0,0-1.43513-.05537,12.86006,12.86006,0,0,0-1.43514.04279.37472.37472,0,0,1-.10827.14351c-.094.0896-.10029.12087-.04784.23669.04333.09568.04474.14342.005.16869a.10185.10185,0,0,0-.02265.11834.08051.08051,0,0,1-.05287.11579c-.0705.027-.07361.04122-.01762.0806.05538.039.05632.05253.005.073a.13517.13517,0,0,0-.06294.12337c0,.05541-.01976.08615-.04532.07053s-.05855.00753-.07554.05285c-.04343.11584-.04049.12087.0705.12087.08858,0,.08635.01006-.03021.136-.06994.07553-.11471.16506-.10072.20144.01356.03525.00426.06545-.02014.06545-.02539,0-.03535.05539-.02267.12589s.00051.12589-.02769.12589a1.10885,1.10885,0,0,0,.03233.564c.01606.02589.0022.07552-.03233.11582a1.08709,1.08709,0,0,0-.0428.501,1.34064,1.34064,0,0,1-.01762.43052c-.06,0-.04532.17628.02014.24173.047.047.04282.08057-.01879.15107-.1012.11582-.15908.55169-.07689.5791.04747.01581.048.03523.00252.09064a2.51687,2.51687,0,0,0-.09411.64958,7.66422,7.66422,0,0,1-.10048,1.09272c-.02929.141-.02041.16658.05864.1687.08055.00217.08226.00866.01258.04783-.059.03322-.07923.11331-.07554.29963a.56273.56273,0,0,1-.0302.266,8.45974,8.45974,0,0,0-.1108,1.56439,2.26717,2.26717,0,0,1-.05034.47335c-.05666.05665-.03022.30638.03523.333.04532.01841.04532.03537,0,.06783a4.95157,4.95157,0,0,0-.05035,1.52278c.03022.03023.03479.05543.01008.05546a2.74722,2.74722,0,0,0-.03526,1.24695c.08058.02689.08058.11259,0,.11259-.07155,0-.08245.559-.01415.72513.029.07052.02409.0864-.01858.06043-.04282-.02608-.05724.06041-.05539.33235.00138.20143-.00658.46434-.01762.58161-.01091.11582.00064.214.02518.214.02471,0,.02908.05036.00959.11077a.97325.97325,0,0,0-.012.55394c.0265.05034.02981.09064.00743.09064a21.27264,21.27264,0,0,0,0,2.402c.01676.0168.00837.07048-.01888.12085a10.14118,10.14118,0,0,0-.0138,1.93367,23.52559,23.52559,0,0,1-.02058,2.59334c-.04833.80067-.03276,1.02568.06831.98626.04028-.01574.06261-.00834.04784.01582-.01511.02475.01006.07622.05539.11331a4.39377,4.39377,0,0,0,1.32435.0705,12.2886,12.2886,0,0,1,1.30172.04028c.03525.022.06043.01364.06043-.02014,0-.04009.02014-.04212.06545-.00663.08561.06706.23668.06.23668-.011,0-.03526.01344-.03708.037-.00505a3.2538,3.2538,0,0,0,1.12119.01511c0-.031.02517-.02979.06547.00309a.68832.68832,0,0,0,.38772.05742.62912.62912,0,0,1,.43811.02509c.08026.08027.381.06547.40956-.02012a.07792.07792,0,0,1,.06127-.05541c.02484,0,.03013.03274.01259.078-.02393.06181-.005.0723.09065.05036.06662-.01525.50606-.03559.97941-.04529a7.52022,7.52022,0,0,0,.91647-.05037.06921.06921,0,0,1,.08914.01763c.04943.07974.12488.05536.12488-.0403,0-.0705.008-.07315.04532-.01509a.14072.14072,0,0,0,.15107.04278c.06042-.0158.10574-.00935.10574.01512,0,.02377.06044.03223.136.01905a4.99851,4.99851,0,0,1,1.44522-.04716c.06044.02571.08425.02214.06466-.00968-.03687-.05988.6655-.05771.76118.00235a.11213.11213,0,0,0,.1133.00523,2.43467,2.43467,0,0,1,.491-.05036c.24171-.0097.49452-.021.564-.02518l.12587-.00756-.12587-.04027-.12589-.04028.13343-.005a.17.17,0,0,1,.16365.073c.01756.04532.04712.0679.07051.05387.035-.021,1.1582-.08928,1.43515-.08723.04532.00032.08561-.02306.08561-.04972,0-.03021.01409-.042.03524-.02954a3.47439,3.47439,0,0,0,.87116.05956,4.6721,4.6721,0,0,1,.94669-.0764c.15611.00076.21149-.01873.21149-.07449a.07747.07747,0,0,1,.07554-.07554c.04029,0,.07553.02117.07553.04531,0,.07053.39718.15158.41943.08562.01313-.039.059-.03382.15465.01746a.55253.55253,0,0,0,.48844.02484.53968.53968,0,0,1,.48615.0282c.05018.06043.07179.06195.108.00756a.12784.12784,0,0,1,.15107-.03525c.08056.025.10576.01237.10576-.05286,0-.07828.00754-.07893.08811-.00755.06486.05741.17122.074.40285.06294.17121-.00825.31473.00553.31473.03021,0,.0861.14452.04027.17469-.05539.01747-.05541.059-.103.09218-.10578s.10575-.01216.16115-.02089a2.75384,2.75384,0,0,1,.64455-.04638c-.12009.05552-.07049.12239.05541.07469a.38145.38145,0,0,1,.30213.02525.85714.85714,0,0,0,.63952-.00882.52825.52825,0,0,1,.27191-.04145.713.713,0,0,0,.29711-.03778c.05539-.02915.10839-.03127.12588-.005a.3263.3263,0,0,0,.20648.03526c.09869-.00563.25933-.01229.36507-.01512.136-.00362.18882-.02689.18882-.08308,0-.05465.03022-.06976.10073-.05036l.20142.05538c.06043.01664.10071.00353.10071-.03271a.20956.20956,0,0,1,.08812-.1284c.0705-.0544.07454-.07707.02015-.11331a.12777.12777,0,0,1-.03525-.15107c.02026-.06548.01066-.10575-.02518-.10575-.04246,0-.0418-.02014.00252-.07553q.06042-.07554.005-.07555c-.02972,0-.05539-.04783-.05539-.10321s-.021-.0905-.04532-.07578c-.05819.03527-.12848-.06774-.13555-.19867-.003-.05592-.02334-.20144-.04572-.32733a4.04431,4.04431,0,0,1-.03526-.60174,1.61484,1.61484,0,0,0-.03022-.428,2.70551,2.70551,0,0,1-.04213-.55641,10.002,10.002,0,0,0-.05941-1.40494,5.28519,5.28519,0,0,1-.03694-.73268,8.57027,8.57027,0,0,0-.04027-.85859c-.018-.09691-.0452-.35751-.06042-.57908s-.03621-.47084-.04659-.55392c-.02995-.23952-.09442-1.279-.0984-1.58621a.86146.86146,0,0,0-.0363-.30212,1.23028,1.23028,0,0,1-.063-.3525c-.01673-.18128-.04032-.41721-.05288-.52874-.01263-.11223-.03163-.35753-.04292-.55392-.05553-.96686-.09875-1.62093-.11185-1.692-.00769-.04168-.02742-.40287-.044-.8057-.03529-.85606-.08294-1.77274-.10316-1.984-.04719-.49346-.08422-.95863-.10422-1.30925-.02322-.40734-.08-1.04741-.17409-1.9639-.02836-.27611-.06423-.85606-.07941-1.28409s-.04248-.86009-.06042-.95674c-.01778-.09566-.03964-.22227-.04783-.277-.00835-.05551-.02409-.564-.03509-1.133-.02087-1.07763-.04851-1.30927-.15628-1.30927a.09758.09758,0,0,1-.08559-.06041c-.01175-.03521-.10323-.05834-.21906-.05541-.11078.00281-.23237.00615-.27445.00755-.04167.00139-.23918-.00424-.44061-.01258a.96518.96518,0,0,0-.36508.02014c0,.05387-.31724.0265-.43306-.03737a.3409.3409,0,0,0-.26437-.013c-.09568.02732-.16961.02732-.18632,0-.04847-.07933-.40483-.06043-.47514.02516a.13738.13738,0,0,1-.14676.04785,3.222,3.222,0,0,0-.53377-.0529c-.25176-.01117-.5125-.03244-.58665-.0478-.07553-.01569-.14654-.00588-.16366.02264-.01947.03247-.11076.02014-.25681-.03463-.24611-.09229-.25568-.11644-.23-.57972a.55307.55307,0,0,0-.05454-.32479c-.04121-.05036-.04417-.06822-.00756-.04532.04584.02866.05436-.03274.03525-.25431a2.36122,2.36122,0,0,0-.05288-.36757,4.3385,4.3385,0,0,1-.04715-.5791,1.58422,1.58422,0,0,0-.2044-.89132.60935.60935,0,0,1-.0682-.20143.36077.36077,0,0,0-.10072-.17874A.45353.45353,0,0,1,25.7519,3.855a2.31446,2.31446,0,0,0-.32381-.62442,4.832,4.832,0,0,0-.71352-.76038c-.0705,0-.31947-.21685-.29484-.2568.01623-.02631-.00478-.04532-.0501-.04532s-.07805-.01587-.07805-.03778a1.04622,1.04622,0,0,0-.26438-.214,3.367,3.367,0,0,1-.28917-.20645,1.67,1.67,0,0,0-.63485-.16262c-.0403.01523-.07052.0083-.07052-.01615,0-.02378-.06042-.0473-.136-.05287a3.96268,3.96268,0,0,1-.6949-.09166c-.08562-.02907-.08938-.02516-.02518.0262s.06042.05474-.02519.02265a.8117.8117,0,0,0-.209-.04281c-.06043-.00281-.09825-.0217-.08561-.04278.01275-.02127-.01258-.03779-.05791-.03779a.12728.12728,0,0,0-.11078.08057Zm1.66426.82332a2.3408,2.3408,0,0,1,.53126.29963c.07706.07419.20142.18655.287.25934a3.91778,3.91778,0,0,1,.45069.57907c.164.24676.3395.49515.38774.5489a.65007.65007,0,0,1,.11835.20141,3.22677,3.22677,0,0,0,.12045.30466,9.20791,9.20791,0,0,1,.25514,2.89548.3014.3014,0,0,1-.17669.12084c-.07052.01657-.12841.05292-.12841.08057,0,.02686-.03526.05034-.07554.05034s-.06966-.02935-.063-.06294-.02264-.05352-.06293-.04279a.74636.74636,0,0,1-.19388.01258.3709.3709,0,0,0-.17623.0277.67629.67629,0,0,1-.23164.04283c-.09568.00414-.18278.03354-.19386.06543q-.02016.05791-.09408-.0176c-.08378-.08562-.19629-.09976-.24-.03023a1.95373,1.95373,0,0,1-.5824.02014c-.35249-.016-.55393-.00685-.55393.0252a2.97311,2.97311,0,0,1-1.01214-.018c-.03884-.02405-.05145-.01228-.03525.03306.02094.05864-.06043.06838-.48342.05792a6.58344,6.58344,0,0,1-.76037-.05792c-.17626-.03172-.27369-.02794-.32481.01261-.05539.04391-.06329.04207-.03273-.00759.03223-.05234.02016-.05285-.06043-.00251-.08559.0535-.11318.05009-.18379-.02264a.28406.28406,0,0,0-.14352-.08562q-.06042,0,.00756.04281c.05522.03476.05286.04845-.01259.073-.05037.01889-.08057.00283-.08057-.04281,0-.04027-.02257-.073-.05036-.073-.03021,0-.05035.01509-.05035.03776,0,.02048-.068.04009-.14856.04281s-.13586-.01571-.12085-.04027c.01624-.02661-.05036-.03078-.16114-.01009l-.18883.03525.03525-.277c.01919-.15073.05544-.45824.07958-.67476A7.51826,7.51826,0,0,1,19.67154,4.132a3.56165,3.56165,0,0,1,2.0116-2.0621,4.9116,4.9116,0,0,1,.74526-.03271,1.84257,1.84257,0,0,1,.924.17876Zm5.79928,5.34024a.11309.11309,0,0,1-.09142.05037c-.03626,0-.03022-.01963.0151-.0491.09568-.06218.114-.06248.07632-.00127Zm-13.899.20144c.01728.02877-.0151.05036-.07553.05036s-.09279-.02159-.07552-.05036a.08181.08181,0,0,1,.151,0Zm12.72295.428c.01971.02769.06748.01693.12289-.0277.05034-.04055.075-.04727.05538-.01509-.02114.03472.005.068.06546.08306.05539.01385.112.006.12589-.01762.01374-.02332.08813-.02452.16367-.00249a.47376.47376,0,0,0,.23918.005c.0554-.0194.11318-.016.12841.00756s.12337.00977.23919-.03021c.1259-.0435.21149-.05264.21149-.02267,0,.03021.02016.03827.05037.02014.02711-.01629.05266,0,.05538.03527.00349.0453.012.04686.0277.005.01546-.04117.05791-.04679.13344-.01762a2.074,2.074,0,0,0,.39278.07068c.46832.04629.59133.14759.62039.51093a.22314.22314,0,0,0,.07957.1108c.0642.05135.06042.0608-.02519.06294-.0705.00177-.08107.01537-.03525.04532a.10845.10845,0,0,1,.03022.13091.1031.1031,0,0,0,.02517.12591c.04477.028.033.09064-.04532.24171a.772.772,0,0,0-.07806.51867,1.53108,1.53108,0,0,0,.05289.3399c.01468.01468.02517,0,.02517-.03525s.021-.04753.05037-.02944a.17537.17537,0,0,1-.02015.25926c-.06474.03608-.06548.06225-.005.1831.03777.07552.046.12462.01762.10575q-.05286-.03525-.0151.08559a.84032.84032,0,0,1,.03777.17879c0,.03193.03273.04548.073.0302.06125-.02324.06009-.00251-.00719.1284-.09829.19137-.10624.33426-.01547.27871.04394-.02693.04189-.01433-.00755.04608a.13872.13872,0,0,0-.03273.1385,7.33884,7.33884,0,0,1,.09841,1.33443,3.08368,3.08368,0,0,0,.02748.35248,1.90627,1.90627,0,0,1,.02264.27445c.00693.15107.03751.28233.068.29207q.05538.0176.01.13847a.16006.16006,0,0,0,.03526.20141.1484.1484,0,0,1,.032.19137,1.02726,1.02726,0,0,0-.00344.57406.06486.06486,0,0,1-.016.09314c-.03311.02051-.04158.1108-.02265.24171.01678.1161.03915.41041.05035.66219.01106.24875.03265.75533.04784,1.12295a5.751,5.751,0,0,0,.0554.71757c.01582.02734.005.04785-.02518.04785-.03423,0-.028.06041.01762.17118a.36772.36772,0,0,1,.04576.19642.75561.75561,0,0,0-.01554.41125.59907.59907,0,0,1,.04279.25849.72668.72668,0,0,0,.053.292.64016.64016,0,0,1,.06083.33234,4.43075,4.43075,0,0,0,.01236.89634.18773.18773,0,0,1-.01793.16114.19178.19178,0,0,0-.03082.141,13.47878,13.47878,0,0,1,.15641,1.36968,2.13345,2.13345,0,0,0,.02044.25178c.00561.014.01913.18127.03052.37766a3.89426,3.89426,0,0,0,.12558,1.1028.07712.07712,0,0,1,.00757.10324,1.352,1.352,0,0,0-.00505.4557c.02086.22254.06709.75789.10323,1.196a4.59635,4.59635,0,0,0,.10073.79312c.019,0,.019.06043,0,.13091a2.09409,2.09409,0,0,0,.00753.51616c.0235.21148.04168.49424.0403.62693a6.6147,6.6147,0,0,0,.05126.67478,7.86541,7.86541,0,0,1,.06456,1.46032c-.01956.07822-.07806.12041-.19891.14352a.40458.40458,0,0,0-.19639.07554c-.01373.02334-.08812.02449-.16367.00249a4.04585,4.04585,0,0,0-.71755-.02011c-.31726.011-.71117.02011-.87117.02011a1.44051,1.44051,0,0,0-.52371.10025c-.26185.11331-.28692.11805-.24248.0458.04536-.07373-.00929-.06248-.15029.0309-.12214.08086-.24171.07775-.62442-.01629-.09064-.02228-.11077-.01334-.08057.03575.03081.05,0,.05714-.13092.03021-.09219-.019-.26186-.04571-.3676-.05792a.67413.67413,0,0,1-.25681-.073.16746.16746,0,0,0-.15107-.01622.69186.69186,0,0,1-.40788.00382,1.29458,1.29458,0,0,0-.34746-.0153,1.17938,1.17938,0,0,1-.39026-.03271c-.06043-.03111-.08813-.02634-.08813.01509,0,.03525-.01363.04679-.03272.02769-.01764-.01763-.063-.00832-.0982.02016-.04714.03806-.10072.02958-.19135-.03023a.28876.28876,0,0,0-.23164-.04783,1.81518,1.81518,0,0,1-.34242.05037,1.58358,1.58358,0,0,0-.37768.06932c-.18127.0697-.18631.06882-.18631-.0341,0-.07554-.00592-.0767-.05036-.01006-.03021.04531-.06551.05538-.08824.02515-.0417-.05536-.31461-.07285-.31461-.02011,0,.01647-.06293.021-.13847.01007a2.006,2.006,0,0,0-.44061.02769.70089.70089,0,0,1-.35.00251.07525.07525,0,0,0-.10575.00505,1.93569,1.93569,0,0,1-.52874.08057,3.87834,3.87834,0,0,0-.51111.05288c-.02339.01315-.053-.01007-.0705-.05539s-.05029-.07806-.078-.07806c-.02871,0-.03576.02014-.01762.05036s.01007.05035-.02015.05035a.3586.3586,0,0,0-.15358.11079c-.061.06546-.10323.084-.10323.0453,0-.04486-.0554-.05912-.17624-.0453-.141.01609-.17121.004-.15108-.06043.01778-.05688-.01259-.08354-.10324-.09064-.07049-.00555-.11817.007-.10574.0277.01221.02034-.068.03891-.17373.04027s-.19637-.01608-.19637-.03776c0-.02415-.02015-.04028-.05036-.04028-.02686,0-.05036.03523-.05036.07553,0,.04755-.05036.07555-.136.07555-.13093,0-.13233-.00291-.03777-.07806.09105-.07237.078-.07615-.17877-.05168a3.94154,3.94154,0,0,0-.76541.12151c-.16114.05527-.3193.04133-.307-.027.00568-.03163-.04293-.05216-.11343-.04783-.07554.00463-.11459.032-.10071.0705.01267.03525.00383.063-.02015.063a.08557.08557,0,0,1-.06294-.05792.1438.1438,0,0,0-.10575-.07048c-.04532-.00666-.07257.00873-.0579.03274.01583.02587-.01763.04532-.07806.04532s-.0951-.01728-.08088-.0403c.03168-.05138-.12054-.04885-.20615.00341a.06355.06355,0,0,1-.09141-.01348c-.04132-.06716-.331-.02518-.3823.05539-.02569.04029-.045.05216-.045.02767s-.03021-.01795-.07051.01511c-.05035.04138-.08055.04138-.10574,0a.16767.16767,0,0,0-.1561-.03523c-.06547.01228-.12086.00765-.12086-.01009,0-.01831-.11078-.0349-.25178-.03776s-.23958.01493-.22408.0403c.01491.0244-.00252.04882-.03777.05287s-.0887.011-.11582.01512a.37794.37794,0,0,0-.1133.04532c-.03525.02112-.06294.01559-.06294-.01261,0-.02725-.11079-.04815-.24171-.0455-.29206.00583-.51363-.02232-.51363-.06527,0-.01691-.08309-.01581-.18884.00251a.54585.54585,0,0,1-.32731-.03525c-.07554-.03707-.13849-.05311-.13849-.03525,0,.01871-.03021.0079-.07049-.02518-.05539-.04551-.07535-.04387-.09316.00758-.019.0549-.03525.0549-.10071,0-.065-.05458-.08729-.05037-.13345.02516-.0523.08559-.05917.08575-.12336.00251a.24166.24166,0,0,0-.17373-.08811c-.08058,0-.098.021-.073.08811.02805.07554.02012.07806-.05541.01765-.07795-.0624-.10322-.05657-.219.05034-.10576.09762-.12464.10342-.0982.0302q.03271-.09065-.0277-.05285a.5506.5506,0,0,1-.18884.05032c-.07049.00693-.13522.03306-.14351.05794-.008.024-.073.03468-.13847.02265-.07051-.013-.10936-.04532-.09064-.07552.02131-.03442-.005-.04323-.07554-.02519-.06042.01546-.11939.00989-.13344-.01257a.94637.94637,0,0,0-.36509-.02772.89442.89442,0,0,1-.44817-.05792c-.07553-.04917-.11893-.05371-.14352-.01509a.10184.10184,0,0,1-.11833.02267,1.75711,1.75711,0,0,0-.33487-.05541,4.1993,4.1993,0,0,1-.423-.05986c-.19006-.04131-.17221.04225-.22778-1.06558-.07981-1.59126-.09933-2.229-.0825-2.69407.01-.27579.0205-.87367.02327-1.32183a6.75175,6.75175,0,0,1,.0302-.81828,8.82243,8.82243,0,0,0,.02265-.93663c-.00137-.51362.02462-1.24817.05755-1.6265.09365-1.07556.12232-1.692.14782-3.17745.013-.76037.06009-1.98652.10433-2.71925.0444-.73517.08962-1.504.1007-1.71207.011-.20648.0407-.51466.06547-.67983a6.97379,6.97379,0,0,0,.055-.705c.01344-.559.02084-.649.05578-.67815a16.17567,16.17567,0,0,0,.11984-1.96555,6.17939,6.17939,0,0,1,.05136-.7478c.01345-.01207-.00419-.0579-.03776-.09817-.04616-.05541-.0475-.08092-.005-.09569a.56477.56477,0,0,0,.12337-.2694c.03572-.136.09409-.24927.12842-.24927a.16113.16113,0,0,0,.11078-.08308c.04212-.07317.19136-.08522,1.24883-.10073.65966-.00965,1.70034-.03045,2.30882-.04614,2.24085-.05772,2.21584-.05823,2.19975.04363a.22779.22779,0,0,0,.0411.15863q.05536.068,0,.10223c-.07226.04467-.06547.29306.01006.36861.04532.04532.04532.06041,0,.06041a.06448.06448,0,0,0-.06042.0705A.56314.56314,0,0,1,17.846,9.52a.66534.66534,0,0,0-.15106.20648c0,.02493-.04532.07361-.10072.10826a.20359.20359,0,0,0-.10072.12587c0,.03525-.021.06294-.04784.06294-.0263,0-.03877.04532-.0277.10073s-.00139.10071-.02768.10071-.04636.141-.04457.31219a1.3539,1.3539,0,0,0,.57077,1.10514.89174.89174,0,0,0,.9316.23768c.22156-.07553.65967-.42218.65967-.522a.12226.12226,0,0,1,.08307-.09568c.04533-.01648.06936-.04394.05289-.06044s.01694-.08057.07354-.141a.82034.82034,0,0,0,.11924-.93661.32725.32725,0,0,1-.077-.12086.43458.43458,0,0,0-.23163-.23164.298.298,0,0,1-.146-.10071A1.19863,1.19863,0,0,0,18.7927,9.369c-.10222,0-.10475-.01509-.07553-.45319a2.80544,2.80544,0,0,1,.06043-.501,1.49469,1.49469,0,0,1,.53125-.02267c.32229.01622.501.00631.501-.0277a.0516.0516,0,0,1,.05288-.05285c.02883,0,.03685.02516.01761.05536-.024.03777,0,.04417.07555.02016a.2115.2115,0,0,1,.17121.0139,4.67808,4.67808,0,0,0,1.36767.04149c.01976-.04027.03461-.04027.05441,0,.03536.07193.41591.03115.54179-.05808a.14565.14565,0,0,1,.19388-.0074c.08057.04958.10678.04686.146-.01511.04144-.06543.05387-.06613.09316-.005.02884.04483.12589.06771.26688.06282a3.49746,3.49746,0,0,0,1.01216-.1031c.03222-.03221.09567-.03221.17623,0a.54014.54014,0,0,0,.25681.0235,3.03631,3.03631,0,0,1,.78557-.0917c.3827.0027.38732.00341.35594.05309a2.85923,2.85923,0,0,0-.03367.52118l-.005.47588-.20144.11561c-.2626.15078-.34241.35269-.34241.86632a1.23232,1.23232,0,0,0,.32228,1.01717c.22273.23669.48341.38331.48341.272q0-.06048.036-.01009c.04316.06041.31653.09085.31653.03525,0-.01967.11582-.04193.26183-.05036a.52462.52462,0,0,0,.35-.10827c.04762-.05034.07538-.10471.06042-.11833-.01583-.0144.01761-.03946.07805-.05852.136-.04285.22408-.32861.12588-.40819-.09441-.07654-.09063-.12246.01007-.12246a.21332.21332,0,0,0,.19447-.26184c-.0238-.07553-.01533-.09426.02963-.06548.04028.0258.05026.01945.02769-.01763a.15965.15965,0,0,0-.12085-.05789c-.06921,0-.063-.01735.03272-.09064.10948-.08384.11425-.10575.06363-.29208s-.33283-.51705-.391-.45821c-.03909.03956-.219-.12591-.219-.20143,0-.0579-.10574-.09136-.22156-.07009-.07375.01355-.18123-.1666-.14746-.24715a1.4515,1.4515,0,0,0,.03952-.33739c.0082-.27193.13656-.49987.2439-.43307A1.03266,1.03266,0,0,0,26.89,8.17333a3.6145,3.6145,0,0,1,1.08566.01228Zm2.45939.02016c0,.08559-.07239.09851-.14075.02516-.05448-.05845-.04807-.0705.03753-.0705.05539,0,.10322.021.10322.04534ZM11.18391,9.98332c-.01591.04133-.027.03023-.03021-.0302-.00265-.05037.00928-.08138.02518-.06548a.10363.10363,0,0,1,.005.09568Zm-.40285,8.02675a.10365.10365,0,0,1-.09568.005c-.04134-.01588-.03022-.027.03022-.03021.05035-.00267.08136.00929.06546.02518Zm20.646,1.89338c-.01589.04135-.027.0302-.0302-.03023-.00265-.05032.00927-.08133.02518-.06543a.10349.10349,0,0,1,.005.09566ZM11.63712,30.39763a.10338.10338,0,0,1-.09568.00505c-.04136-.0159-.03022-.027.03021-.03021.05036-.00267.08137.00929.06547.02516Zm.73268.17374c-.01757.06548-.04613.08481-.078.05288a.09781.09781,0,0,1,.06546-.15609c.02162,0,.02745.0478.01259.10321Zm15.39634.07048c0,.01362-.02014.03477-.05035.0529-.02878.01728-.05036.00753-.05036-.02267a.05041.05041,0,0,1,.05036-.05285c.03021,0,.05035.009.05035.02262Zm.4532.02769a.05035.05035,0,1,1-.05035-.05031.04757.04757,0,0,1,.05035.05031Z"/><path d="M2.68609,35.93152a.84164.84164,0,0,1,.36328-.09107c.33007,0,.72851.23816.72851.46228,0,.04908-.05664.21009-.084.32923a3.63177,3.63177,0,0,0-.07031.61633,3.07263,3.07263,0,0,0,.40625-.14709c.30859-.14014.34375-.16114.4414-.16114.13281,0,.37891.08411.37891.28723,0,.15406,0,.259-1.25391.54627-.01367.37817-.01367.81946-.01367,1.1626a3.78359,3.78359,0,0,1,1.793-.56726,1.39537,1.39537,0,0,1,1.51953,1.42871,1.54633,1.54633,0,0,1-1.55469,1.57592,1.34667,1.34667,0,0,1-1.248-.79846l.0996-.09106a1.3113,1.3113,0,0,0,.92383.36413,1.08294,1.08294,0,0,0,1.16211-1.13452.87588.87588,0,0,0-.96679-.93847,3.32633,3.32633,0,0,0-1.72852.59521c0,.23816.02734,1.27478.02734,1.48486,0,.4762-.23047.77735-.41992.77735-.14062,0-.17578-.105-.24609-.32215-.0625-.182-.11914-.3081-.78321-.84741-.35742.32923-.39257.36414-.5332.36414a.2331.2331,0,0,1-.2168-.259c0-.14709.14063-.58142.47657-.65136a.73265.73265,0,0,0,.39843-.16809c.57422-.3783.63868-.42029.793-.51831.00586-.21009.01368-1.15564.01368-1.34473a6.51652,6.51652,0,0,1-.89063.13306.63.63,0,0,1-.64453-.56031l.09961-.0841a.78293.78293,0,0,0,.47461.13318,5.83354,5.83354,0,0,0,.96679-.13318c.02149-1.10657.02149-1.14856-.43359-1.3097Zm-.3086,4.3424c.50391.3501.56055.38514.60938.38514.05664,0,.07031-.04895.07617-.098.00781-.14.01562-.6864.01562-.84045C2.74077,39.97278,2.46929,40.20386,2.37749,40.27392ZM5.29741,36.688a1.32,1.32,0,0,1,.41407-.056c.77734,0,1.40039.55322,1.40039,1.0365a.25222.25222,0,0,1-.23828.28015c-.041,0-.209-.056-.252-.063a.6041.6041,0,0,0-.15429-.014,4.01983,4.01983,0,0,0-.60157.11206l-.07031-.11206c.49023-.33618.49023-.35718.49023-.42725,0-.161-.30859-.50427-.99414-.63037Z"/><path d="M10.95952,41.06531c.0625.042.13282.0841.13282.14709,0,.04907-.041.1051-.13282.1051a1.07663,1.07663,0,0,1-.20312-.04211,7.55114,7.55114,0,0,1-2.40821.75647l-.04882-.13306a7.73718,7.73718,0,0,0,2.06445-1.09961H9.90874c0,.11206-.00586.23816-.43359.23816-.14063,0-.19531-.04211-.19531-.18921,0-.154.02734-.96643.02734-.97351v-1.5758c0-.2522,0-.50428-.02149-.78443a.83941.83941,0,0,1-.27929.042c-.18946,0-.2168-.07007-.2168-.15406,0-.09106.01953-.47632.01953-.55334v-.46216c0-.46228-.00586-.53235-.01953-.76343l.69336.30115h4.041l.17382-.24512a.15513.15513,0,0,1,.11329-.07007.20653.20653,0,0,1,.11132.056l.40625.33619a.19235.19235,0,0,1,.0918.14709c0,.077-.0293.09107-.23828.24512V36.751c0,.09106.02734.46923.02734.54626,0,.20313-.23828.23816-.41992.23816-.19531,0-.19531-.042-.19531-.18213H9.40484c-.00586.09106-.02735.11206-.07032.14014l.64453.27319h3.04688l.18164-.2522a.12412.12412,0,0,1,.09766-.063.20178.20178,0,0,1,.10546.04895l.41993.35021c.07031.063.11328.10511.11328.16114,0,.049-.01367.09106-.252.26611v1.65283c0,.1261.01954.67945.01954.79151,0,.217-.209.26611-.4336.26611-.18945,0-.18945-.084-.18945-.18909h-2.541ZM9.40484,36.2887v.70043H10.399V36.2887Zm3.68359,1.842H9.90874V38.642h3.17969Zm0,.87548H9.90874v.51124h3.17969Zm0,.87549H9.90874v.55323h3.17969Zm-2.11524-3.593v.70043h1.0293V36.2887Zm1.01563,4.60852c.30273.021,2.459.15405,2.459.86853a.26964.26964,0,0,1-.27343.26611c-.13282,0-.17578-.02808-.54688-.26611a8.17259,8.17259,0,0,0-1.6582-.73548Zm1.60547-3.90809V36.2887H12.57866v.70043Z"/><path d="M21.358,36.56189c.041-.063.06836-.077.10352-.077a.221.221,0,0,1,.12695.063l.43359.38525c.043.042.07813.07007.07813.13306,0,.084-.06446.13306-.25977.27319a17.83979,17.83979,0,0,1-.34961,3.92908c-.19726.58826-.67968.64441-1.11328.65833-.00781-.26612-.043-.42725-.72851-.68628l.02734-.14014c.73437.077.791.084.9375.084.19727,0,.373-.049.44922-.5813a22.24763,22.24763,0,0,0,.22461-3.41077h-.23828a6.21726,6.21726,0,0,1-2.60547,4.62952l-.0918-.10511a8.14373,8.14373,0,0,0,2.19922-4.52441h-.47656a6.21126,6.21126,0,0,1-2.16992,3.53686l-.0918-.098a8.48349,8.48349,0,0,0,1.73633-3.43884h-.39844a4.42623,4.42623,0,0,1-.959,1.36572l-.11328-.077a9.39883,9.39883,0,0,0,.45508-.93848.20421.20421,0,0,1-.06836.007h-.86914v1.46374c.46875-.161.60938-.217,1.02149-.37817l.05664.1261a6.63032,6.63032,0,0,1-1.07813.65832v1.2677c0,.16809.02149.91748.02149,1.05054,0,.098,0,.27319-.40039.27319-.17383,0-.18946-.0841-.18946-.19616,0-.16809.02149-.94544.02149-1.06458V39.69958c-.53907.25916-.59571.28711-.80469.37818-.01367.14013-.02149.23816-.12695.23816-.0625,0-.09766-.042-.13868-.15406l-.24609-.6444c.6582-.14,1.0293-.25208,1.31641-.32911V37.54944h-.63672a5.79609,5.79609,0,0,1-.53906,1.38672l-.13282-.04895a12.08257,12.08257,0,0,0,.39063-2.82959l.56054.119c.05665.014.16211.035.16211.11207,0,.0841-.084.11914-.21093.16809-.0625.35022-.08985.47631-.14649.72839h.55274v-.84741a5.86686,5.86686,0,0,0-.03516-.81946l.67383.09106c.05469.007.17383.021.17383.119,0,.09107-.08985.13318-.26563.20313v1.25366h.14649l.20312-.33618c.0293-.04895.05664-.077.09766-.077a.146.146,0,0,1,.10547.06311l.40039.42017a.27306.27306,0,0,1,.06836.098,7.22116,7.22116,0,0,0,.50586-1.835l.67187.18213c.10547.02795.18164.056.18164.14,0,.10511-.11133.13318-.2793.16114-.18945.44824-.252.58825-.36523.82641h1.8418Z"/><path d="M25.47124,36.08569a.89281.89281,0,0,1,.40039-.1051c.3418,0,.75586.22412.75586.40625a2.96141,2.96141,0,0,1-.127.39221c-.02735.119-.09766.5603-.11133.65833.19531-.021,1.08594-.098,1.24023-.119.084-.014.4336-.1471.50977-.1471.18359,0,.56055.34314.56055.49024,0,.049,0,.056-.13867.22412-.05665.07007-.06446.154-.168.91748a6.55909,6.55909,0,0,1-.61719,2.26221c-.2793.47631-.52539.5603-.6582.5603-.19532,0-.2168-.15405-.23047-.30811a.55419.55419,0,0,0-.21094-.3573c-.084-.077-.45508-.39209-.52539-.4552l.07812-.11206a4.90953,4.90953,0,0,0,.91016.35718c.42578,0,.75586-2.13611.75586-2.85046,0-.04908-.00781-.09107-.11133-.09107-.45508,0-1.09375.077-1.48633.119a4.36845,4.36845,0,0,1-2.69531,3.642l-.07031-.11206a5.22345,5.22345,0,0,0,2.16406-3.45288c-.11133.014-.60156.077-.84766.11914-.09179.01391-.51171.105-.5957.105a.76545.76545,0,0,1-.58008-.67932.75345.75345,0,0,1,.05469-.2522l.13281-.021a.52421.52421,0,0,0,.56055.33619c.252,0,.36523-.014,1.36719-.11206.01953-.21009.07617-.65137.07617-.88941,0-.2522-.11914-.32226-.39844-.38525Zm2.375-.07715c.90235.18921,1.3086.63038,1.3086.91053a.234.234,0,0,1-.20313.25915c-.09766,0-.11719-.035-.34961-.32922a2.7536,2.7536,0,0,0-.82617-.72132Zm.53906-.46215c.91016.11206,1.37891.5393,1.37891.82641a.22373.22373,0,0,1-.1875.24512c-.0918,0-.11914-.02808-.36523-.30115a2.71654,2.71654,0,0,0-.88282-.64441Z"/><path d="M30.5103,39.53149a15.51229,15.51229,0,0,0,3.20118-2.24121c.27929-.25915.93164-.87549.93164-1.04358,0-.14709-.16211-.23108-.30078-.29419l.03515-.126a.98979.98979,0,0,1,.23828-.04212c.36328,0,.9375.38526.9375.63745,0,.098-.05664.15406-.21679.25208a6.07565,6.07565,0,0,0-.8125.67932c-.41407.36426-.63086.53235-.8125.67944.19531.11206.27929.21009.27929.32911,0,.04211-.041.22412-.04883.26623-.01953.23108-.01953.76331-.01953.86145,0,.41321.00586.85449.01953,1.26062,0,.07007.02149.5813.02149.60242,0,.077,0,.44824-.252.44824-.2793,0-.41407-.51135-.41407-.69348,0-.09094.05664-.51123.06446-.59534.01953-.34314.01953-.86841.01953-1.07153a4.92255,4.92255,0,0,0-.07617-1.10657,8.0105,8.0105,0,0,1-2.73829,1.31665Z"/><path d="M37.54546,36.00854a.80695.80695,0,0,1,.37891-.11206c.34375,0,.82031.22412.82031.47632,0,.07007-.084.37818-.0918.44116a8.66125,8.66125,0,0,0-.04883,1.12769,5.82245,5.82245,0,0,1,2.03711.79138.69745.69745,0,0,1,.27344.53931c0,.21008-.125.30115-.23047.30115-.14062,0-.18945-.042-.63086-.42725a5.87192,5.87192,0,0,0-1.44922-.87549c0,.46936.03516,2.52844.03516,2.94861,0,.2312,0,.51135-.24609.51135-.30664,0-.41993-.53235-.41993-.67236,0-.07007.043-.37122.04883-.42725a5.06958,5.06958,0,0,0,.02149-.56738c0-.93848,0-3.12366-.00782-3.29871-.01367-.40625-.06835-.49731-.49609-.62341Zm2.26367.49732c.89649.18213,1.373.62329,1.373.95947a.24408.24408,0,0,1-.21094.25916c-.11133,0-.14648-.042-.30859-.25916a3.20346,3.20346,0,0,0-.92383-.84045Zm.55274-.59534c.85351.119,1.42187.5603,1.42187.90344a.22683.22683,0,0,1-.20312.2522c-.10547,0-.13282-.035-.3086-.2522a3.26526,3.26526,0,0,0-.97265-.77734Z"/></svg>