<svg xmlns="http://www.w3.org/2000/svg" viewBox="0 0 26 38"><defs><style>.a{fill:#6c70ff;}</style></defs><title>icn_head_01</title><path d="M13.1066,15.22751a1.43488,1.43488,0,0,1-.34852.07879c-.07275.0016-.13639.03131-.13639.06364,0,.03337-.10911.0606-.24248.0606-.22769,0-.25611.02125-.46672.34855a4.47856,4.47856,0,0,1-.30077.42735.39933.39933,0,0,0-.08409.33943.19792.19792,0,0,1-.0546.12427c-.04416.05255-.04416.16668,0,.37276.03508.16366.0751.36778.08919.45461.109.67284.9233,1.19886,1.405.90766.12727-.07693.20747-.094.24852-.053a.42008.42008,0,0,0,.4589-.10911.20106.20106,0,0,1,.18362-.08486.49132.49132,0,0,0,.3061-.16671c.08431-.09093.19591-.21074.24549-.26366a.32027.32027,0,0,0,.09091-.16667.06971.06971,0,0,1,.06365-.06973c.03636,0,.04679-.02729.02424-.06364a.14841.14841,0,0,1,.03334-.15157c.04013-.04847.0551-.08786.03333-.08786-.02146,0,.00277-.06059.05339-.13334a1.20639,1.20639,0,0,0-.03289-.99407c-.11648-.35765-.30238-.63044-.42965-.63044-.10389,0-.14546-.01692-.291-.11848a.44231.44231,0,0,0-.26366-.08761.58588.58588,0,0,1-.24245-.02726.6435.6435,0,0,0-.34248.03032Z"/><path d="M13.45211,19.8336a1.53714,1.53714,0,0,1-.40006.05422c-.61221.03414-1.53967.36142-1.50567.53135.00779.03916-.02183.06561-.06426.05729-.08572-.01675-.27442.15484-.33019.30033-.06972.18185.39858.44617.50469.28487.04465-.06789.07219-.06364.13767.02122a.2658.2658,0,0,0,.18182.10608c.05458,0,.1.02757.1.06063,0,.03333-.05455.06059-.12125.06059-.16887,0-.15758.11765.01215.12627.1273.00647.12888.00974.01819.03739a.4458.4458,0,0,0-.18184.094c-.04283.045-.03032.05314.0424.0279.13856-.04806.13734-.00669-.00427.14485s-.16257.52882-.03209.578c.07882.02965.0796.04321.00607.10178a1.57032,1.57032,0,0,0-.125.84773.85177.85177,0,0,1-.00061.5819c-.044.05455-.04676.09246-.0078.10608a.81722.81722,0,0,1,.05456.4152c-.00353.23035.01913.394.05455.394.03638,0,.04726.097.02729.24247-.01831.13334-.01015.24244.01819.24244.02732,0,.01453.06973-.02729.14849a.96838.96838,0,0,0-.05455.43946c.01323.15872.02973.47283.03636.691a1.2356,1.2356,0,0,0,.08791.491c.0624.07491.05436.1182-.04548.24549a.59944.59944,0,0,1-.27276.191c-.08483.02035-.15153.063-.15153.097s-.06667.06063-.15154.06063c-.097,0-.15153.03272-.15153.09091,0,.04847.02687.09093.0576.09093s.042.04241.02421.09091-.00926.09519.01819.1c.02832.005.10608.01919.17275.03153a2.73587,2.73587,0,0,0,.92136.023.28822.28822,0,0,1,.24852.00915.1159.1159,0,0,0,.13639.01514.7153.7153,0,0,1,.23335-.06062,2.60706,2.60706,0,0,0,.33339-.0606c.103-.02665.162-.02288.14243.0091-.01827.02992.05153.05668.15456.05923.4304.01079.53051.02821.49513.08623-.04906.08053.24438.07707.54141-.00633.18185-.05108.24688-.04892.28188.00938a.12006.12006,0,0,0,.13636.04243.15806.15806,0,0,1,.14852.02424c.03713.03716.08447.02424.13334-.03639.05375-.06667.05638-.094.0091-.094-.03639,0-.06668-.022-.06668-.04848,0-.07016.326-.05455.37962.0182.02859.0388.04468.03333.04468-.01515,0-.05455.0424-.05962.15153-.01819s.14729.03722.1364-.01514a.21842.21842,0,0,0-.0758-.1182c-.033-.02479.01517-.04546.10608-.04546s.16671-.02759.16671-.06062c0-.10958-.21821-.16707-.788-.20759-.31522-.0224-.62248-.05433-.67889-.07049-.10913-.03129-.15539-.20684-.05458-.20684a2.03552,2.03552,0,0,0,.144-.788.46326.46326,0,0,1,.02507-.18182,2.20408,2.20408,0,0,0,.09765-.64857c0-.1091.02205-.2.04848-.2.06171,0,.014-.23646-.06728-.33341-.05106-.0609-.03575-.07122.06728-.04548.097.02426.12006.01187.08453-.04543-.07136-.11518-.07111-.4865.00031-.48894.034-.00117-.006-.04074-.09091-.09l-.15151-.08786.14851.01514c.14674.015.14857.0091.15758-.50006a1.46429,1.46429,0,0,0-.05153-.55464c-.03278-.02129-.03832-.09091-.01214-.15153a.37478.37478,0,0,0,.03624-.16668,1.17456,1.17456,0,0,1,.00014-.55505,4.76161,4.76161,0,0,0-.02995-1.21489c-.056-.35765-.22852-.692-.37615-.72892-.09091-.02271-.12782-.06437-.10611-.1197s-.01209-.08486-.09695-.08486c-.07275,0-.11557-.02413-.09693-.05455.05195-.08487-.12461-.127-.20312-.04851-.05455.05455-.06365.04851-.03638-.02424.02765-.07371-.03636-.12815-.26669-.22688-.33338-.14286-.33338-.14286-.38793-.092Zm-1.58813.99169c.0208.03461.0091.06063-.02726.06063a.06076.06076,0,0,1-.06365-.06063c0-.03638.0109-.06062.02729-.06062s.0418.02424.06362.06062Zm.3031.03378c.06063.046.08356.08742.04848.08742a.57382.57382,0,0,0-.16366.03638c-.06927.026-.097,0-.097-.09093,0-.14963.04851-.15711.21219-.03287Zm1.42444,1.11486c0,.03072-.04246.042-.09094.02426s-.09091-.04465-.09091-.0576.04244-.02427.09091-.02427.09094.02691.09094.05761Zm-.13337.2182c-.02019.01853-.05388-.01514-.07574-.07576-.03064-.08487-.02254-.09222.03636-.03334.04241.04243.05974.09044.03938.1091Zm-1.56385.391c0,.03639-.01088.06063-.02729.06063s-.0418-.02424-.06362-.06063c-.0208-.03461-.0091-.0606.02726-.0606a.06073.06073,0,0,1,.06365.0606Zm1.81844,2.0003c0,.03236-.04243.06062-.09093.06062s-.09091-.02826-.09091-.06062.04243-.06063.09091-.06063.09093.02832.09093.06063Zm1.2426,3.33383c.02113.03519-.003.06062-.05758.06062s-.094-.02543-.094-.06062a.0559.0559,0,0,1,.05761-.06063.11789.11789,0,0,1,.09393.06063Z"/><path class="a" d="M24.89654,33.13609c0,.08484.01334.11817.03031.07577a.232.232,0,0,0,0-.15156c-.017-.04244-.03031-.0091-.03031.07579Z"/><path d="M13.44266.83071c-.02743.07316-.0422.07632-.07878.01689-.03462-.05627-.07031-.0504-.15472.0253q-.10968.09851-.14889.03658c-.05241-.08276-.10708-.06973-.24212.05766-.11251.10613-.12376.10778-.12376.0183,0-.08585-.0101-.08441-.07877.01125-.04443.06188-.06774.12809-.05344.1519s-.03095.04219-.10408.04219a.25747.25747,0,0,0-.19974.11251.232.232,0,0,1-.15752.11254c-.05064,0-.07187.026-.05064.06188.02264.03831-.00843.05455-.08158.04258-.12274-.02-.20023.06994-.351.40751a.72374.72374,0,0,1-.22.25036c-.08439.05678-.14321.13349-.1294.16878.01358.03472-.02814.079-.09.09563a.2966.2966,0,0,0-.16877.17159.41966.41966,0,0,1-.13222.18719c-.10689.06317-.22132.29072-.18032.35855.02043.03374.01379.05627-.0166.05627-.06819,0-.22074.23066-.24556.37131a.527.527,0,0,1-.11732.21659.8561.8561,0,0,0-.13221.377c-.02061.16315-.06773.28037-.121.301-.07344.02845-.07034.04621.01969.11254s.09223.07921.01406.08158a.15145.15145,0,0,0-.12376.121c-.01769.06752-.05386.10369-.0844.08438-.033-.02087-.03733.02531-.01125.121a.33552.33552,0,0,1-.04782.29257c-.0845.12938-.084.13561.00844.10127.05626-.0209.09846-.01369.09846.01689s-.03375.05341-.07878.05341c-.09415,0-.173.38823-.1601.78765a.64957.64957,0,0,1-.05358.32632c-.09506.11252-.09824.29626-.00573.33075.06705.025.06579.049-.00843.16153a.58814.58814,0,0,0-.08721.26724c0,.21381-.206.438-.3657.398-.07313-.01828-.14528-.00667-.166.02671q-.03659.05909-.18.00564a.30248.30248,0,0,0-.1941-.02123A5.61,5.61,0,0,1,6.98958,7.832a3.93532,3.93532,0,0,0-1.28275.0678c-.036.05627-.05624.05344-.10126-.01408-.04876-.0731-.06377-.0731-.11252,0-.03.045-.05627.05421-.05627.01969A6.47942,6.47942,0,0,0,3.83337,7.8436,14.36993,14.36993,0,0,0,2.23,7.8914a.41871.41871,0,0,1-.121.16034c-.105.10011-.112.135-.05345.26444.04841.1069.05.16024.00561.18848a.11377.11377,0,0,0-.02531.1322.09.09,0,0,1-.05907.12938c-.07876.03014-.08224.04605-.01969.09.06188.04355.06293.05869.00563.08155a.151.151,0,0,0-.07033.13784c0,.06191-.02207.09625-.05063.0788s-.06541.00841-.08439.05905c-.04853.12942-.04524.135.07876.135.099,0,.09648.01125-.03376.1519-.07813.08438-.12815.18441-.11252.22506.01515.03938.00476.07313-.0225.07313-.02837,0-.0395.06188-.02533.14065s.00057.14065-.03094.14065a1.2388,1.2388,0,0,0,.03613.63011.12644.12644,0,0,1-.03613.1294,1.21477,1.21477,0,0,0-.04781.5598,1.49749,1.49749,0,0,1-.0197.481c-.067,0-.05063.19694.02251.27007.05252.05251.04784.09-.021.16879-.11307.1294-.17774.61637-.08591.647.053.01766.05366.03936.00282.10126a2.81158,2.81158,0,0,0-.10515.72575A8.56176,8.56176,0,0,1,1.24458,15.014c-.03273.15754-.02281.18611.06551.18848.09.00242.09191.00968.01406.05344-.06595.03711-.08852.12659-.0844.33476a.6285.6285,0,0,1-.03374.29723,9.4531,9.4531,0,0,0-.12379,1.74782,2.5325,2.5325,0,0,1-.05625.52886c-.06329.06329-.03376.3423.03937.372.05064.02057.05064.03952,0,.07578a5.53193,5.53193,0,0,0-.05625,1.70134c.03376.03377.03887.06193.01126.062A3.06935,3.06935,0,0,0,.981,21.76883c.09.03.09.1258,0,.1258-.07994,0-.09211.6245-.0158.81015.03239.07879.02691.09653-.02076.06752-.04784-.02914-.064.06749-.06188.37131.00153.22506-.00737.51879-.0197.64981-.01219.1294.00072.23911.02814.23911.02761,0,.03248.05627.01071.12376a1.08759,1.08759,0,0,0-.01339.6189c.02962.05624.03331.10126.0083.10126a23.76642,23.76642,0,0,0,.00007,2.68362c.01872.01876.00934.07874-.0211.135a11.33122,11.33122,0,0,0-.01542,2.1604,26.28077,26.28077,0,0,1-.023,2.89742c-.054.89456-.03659,1.146.07633,1.10191.045-.01759.07-.00932.05345.01768-.01689.02765.01123.08515.06188.12659a4.90842,4.90842,0,0,0,1.47964.07877,13.72974,13.72974,0,0,1,1.45435.045c.03938.02461.06752.01524.06752-.0225,0-.04479.02249-.047.07313-.00741.09564.07493.26442.06708.26442-.01228,0-.03939.015-.04142.04134-.00564a3.63529,3.63529,0,0,0,1.25266.01689c0-.03465.02812-.03329.07314.00345a.7689.7689,0,0,0,.43318.06414.703.703,0,0,1,.48948.028c.08967.08968.4257.07315.45759-.02248a.08706.08706,0,0,1,.06845-.0619c.02776,0,.03367.03657.01406.08718-.02673.06906-.00562.08078.10128.05627.07443-.017.56541-.03977,1.09426-.05061a8.3996,8.3996,0,0,0,1.02393-.05627.07732.07732,0,0,1,.09959.0197c.05523.08909.13952.06185.13952-.045,0-.07876.00894-.08172.05063-.01686a.15724.15724,0,0,0,.16879.04781c.0675-.01766.11813-.01046.11813.01688,0,.02657.06754.036.15192.02129a5.5847,5.5847,0,0,1,1.61467-.05269c.06752.02872.09413.02473.07225-.01081-.0412-.06691.74353-.06449.85042.00262a.12531.12531,0,0,0,.12659.00585,2.71907,2.71907,0,0,1,.54855-.05628c.27005-.01083.5525-.02347.63011-.02813l.14064-.00844-.14064-.045-.14065-.045.14908-.00564a.19.19,0,0,1,.18284.08157c.01962.05063.05264.07586.07878.06018.03914-.02347,1.294-.09974,1.60343-.09745.05063.00036.09564-.02577.09564-.05555,0-.03375.01574-.047.03937-.033a3.88188,3.88188,0,0,0,.97331.06654,5.2204,5.2204,0,0,1,1.05769-.08536c.17443.00085.2363-.02092.2363-.08322a.08655.08655,0,0,1,.08439-.0844c.045,0,.08439.02365.08439.05063,0,.07879.44375.16935.4686.09565.01468-.04355.06589-.03778.17279.01952a.61732.61732,0,0,0,.54571.02774.603.603,0,0,1,.54315.03151c.05607.06752.08021.06922.12073.00844a.14282.14282,0,0,1,.16878-.03938c.09.02788.11816.01382.11816-.059,0-.08747.00843-.08819.09844-.00844.07246.06414.1913.08273.45009.07032.19128-.00921.35163.00618.35163.03375,0,.09619.16147.045.19517-.06188.01953-.06191.06587-.115.103-.11818s.11816-.01359.18005-.02335a3.07645,3.07645,0,0,1,.72012-.05181c-.13416.062-.07875.13673.06191.08345a.42609.42609,0,0,1,.33755.02821.95761.95761,0,0,0,.71451-.00986.59026.59026,0,0,1,.3038-.04631.79639.79639,0,0,0,.332-.04221c.06188-.03256.12109-.03493.14063-.00561a.3647.3647,0,0,0,.23069.03938c.11027-.00628.28975-.01372.40789-.01689.15189-.004.211-.03.211-.09282,0-.06106.03376-.07794.11254-.05627l.225.06188c.06752.01859.11252.00394.11252-.03655a.23415.23415,0,0,1,.09845-.14345c.07877-.06078.08329-.08611.02251-.1266a.14276.14276,0,0,1-.03938-.16878c.02264-.07316.01192-.11816-.02813-.11816-.04744,0-.0467-.02249.00281-.08438q.06751-.08441.00563-.0844c-.03321,0-.06189-.05344-.06189-.11532s-.02346-.10111-.05063-.08466c-.065.03941-.14354-.07568-.15145-.222-.00338-.06247-.02607-.225-.05108-.3657a4.51924,4.51924,0,0,1-.0394-.67231,1.8038,1.8038,0,0,0-.03376-.47822,3.02285,3.02285,0,0,1-.04706-.62165,11.17591,11.17591,0,0,0-.06638-1.56967,5.90425,5.90425,0,0,1-.04127-.81859,9.57584,9.57584,0,0,0-.045-.95927c-.02012-.10827-.05049-.39942-.06751-.647s-.04045-.526-.052-.61886c-.03347-.26761-.10549-1.429-.10994-1.7722a.9623.9623,0,0,0-.04056-.33755,1.37422,1.37422,0,0,1-.07032-.39384c-.01871-.20253-.045-.46612-.05909-.59073-.01411-.12539-.03533-.39945-.048-.61887-.062-1.08023-.11034-1.811-.125-1.89035-.00858-.04657-.03063-.45011-.04916-.90017-.03944-.95643-.09267-1.9806-.11526-2.21667-.05273-.55132-.0941-1.071-.11644-1.46276-.026-.45511-.08935-1.17022-.1945-2.19418-.03169-.30848-.07177-.95644-.08873-1.43465s-.04745-.961-.06751-1.06893c-.01986-.10688-.04428-.24833-.05344-.30944-.00931-.062-.02691-.63009-.0392-1.26584-.02331-1.204-.0542-1.46279-.1746-1.46279a.109.109,0,0,1-.09563-.0675c-.01313-.03933-.11533-.06517-.24475-.0619-.12376.00314-.25961.00687-.30662.00844-.04656.00154-.26722-.00474-.49228-.01405a1.07868,1.07868,0,0,0-.40788.02249c0,.06019-.35444.02961-.48384-.04175a.38093.38093,0,0,0-.29537-.01449c-.1069.03053-.18949.03053-.20817,0-.05414-.08863-.45229-.06752-.53084.02811a.15351.15351,0,0,1-.164.05346,3.6,3.6,0,0,0-.59636-.0591c-.28129-.01248-.5726-.03624-.65544-.05341-.08439-.01753-.16372-.00657-.18285.0253-.02175.03627-.12375.0225-.28692-.03869-.275-.10312-.28566-.13009-.25692-.6477a.61776.61776,0,0,0-.061-.36287c-.046-.05627-.04934-.07622-.00844-.05063.05121.032.06074-.03658.03939-.28413a2.64,2.64,0,0,0-.05908-.41068,4.84459,4.84459,0,0,1-.05268-.647,1.76986,1.76986,0,0,0-.22838-.99582.681.681,0,0,1-.07619-.22506.40315.40315,0,0,0-.11253-.1997.50648.50648,0,0,1-.11251-.15473,2.58587,2.58587,0,0,0-.36178-.69763,5.39842,5.39842,0,0,0-.79719-.84954c-.07877,0-.35693-.24227-.32941-.28691.01814-.02939-.00534-.05063-.056-.05063s-.0872-.01773-.0872-.04221a1.16876,1.16876,0,0,0-.29538-.23909,3.76179,3.76179,0,0,1-.32308-.23066,1.866,1.866,0,0,0-.70929-.18169c-.045.017-.07879.00927-.07879-.018,0-.02656-.0675-.05285-.15189-.05908A4.42735,4.42735,0,0,1,14.01652.824c-.09566-.03249-.09986-.02811-.02814.02926s.06751.06116-.02813.02531a.90643.90643,0,0,0-.23347-.04783c-.06752-.00314-.10978-.02425-.09566-.0478.01425-.02376-.014-.04222-.0647-.04222a.14219.14219,0,0,0-.12376.09Zm1.8594.91986a2.61557,2.61557,0,0,1,.59355.33476c.08609.08289.225.20843.32068.28975a4.37743,4.37743,0,0,1,.50354.647c.18327.27569.3793.55321.43321.61326a.7264.7264,0,0,1,.13222.225,3.603,3.603,0,0,0,.13457.34037,10.28777,10.28777,0,0,1,.28506,3.235.33673.33673,0,0,1-.19741.135c-.07878.0185-.14347.05912-.14347.09,0,.03-.03938.05625-.08439.05625s-.07783-.0328-.07034-.07033-.0253-.05979-.07031-.0478a.83406.83406,0,0,1-.21661.01406.41437.41437,0,0,0-.1969.03094.75546.75546,0,0,1-.2588.04785c-.1069.00463-.20422.03748-.2166.0731q-.0225.06473-.1051-.01966c-.09361-.09566-.21931-.11146-.26816-.03377a2.18287,2.18287,0,0,1-.65068.02249c-.39383-.01789-.61888-.00764-.61888.02816A3.32149,3.32149,0,0,1,13.47642,7.742c-.0434-.02688-.05748-.01372-.03939.03693.0234.06552-.06752.0764-.5401.06472a7.35667,7.35667,0,0,1-.84953-.06472c-.19692-.03544-.30578-.03122-.36289.01409-.06189.04906-.07071.047-.03657-.00847.036-.05849.02252-.05905-.06751-.00281-.09563.05977-.12645.056-.20535-.0253a.31728.31728,0,0,0-.16034-.09566q-.06752,0,.00844.04783c.0617.03884.05906.05413-.01407.08157-.05627.02111-.09.00317-.09-.04782,0-.045-.02522-.08158-.05626-.08158-.03376,0-.05626.01686-.05626.04219,0,.02289-.076.04479-.166.04783s-.15179-.01756-.135-.045c.01815-.02973-.05626-.03439-.18-.01127l-.211.03938.03938-.30943c.02145-.1684.062-.512.08891-.75388a8.40023,8.40023,0,0,1,.7467-2.77927A3.97926,3.97926,0,0,1,13.437,1.5874a5.48854,5.48854,0,0,1,.83265-.03656,2.05864,2.05864,0,0,1,1.03238.19973ZM21.78133,7.717a.12638.12638,0,0,1-.10214.05627c-.04052,0-.03376-.02193.01687-.05486.10689-.06947.12737-.06981.08527-.00141ZM6.25256,7.942c.0193.03215-.01688.05627-.0844.05627s-.10367-.02412-.08438-.05627a.09142.09142,0,0,1,.16878,0Zm14.21476.47822c.022.03094.0754.01892.13731-.03094.05624-.0453.08374-.05282.06187-.01686-.02362.03879.00563.07594.07314.0928.06188.01547.12518.00664.14065-.0197.01534-.02605.09846-.02738.18285-.00278a.52923.52923,0,0,0,.26723.00562c.0619-.02168.12645-.01787.14347.00844s.13783.01091.26723-.03375c.14066-.0486.23629-.05882.23629-.02533,0,.03375.02253.04276.05627.0225.0303-.0182.05885,0,.06188.03941.0039.05061.01343.05236.03094.00559.01728-.046.06471-.05228.1491-.0197a2.31565,2.31565,0,0,0,.43883.079c.52323.05171.66066.1649.69313.57083a.24931.24931,0,0,0,.0889.12379c.07173.05738.06751.06793-.02813.07033-.07877.002-.09059.01717-.03939.05063a.12118.12118,0,0,1,.03376.14626.1152.1152,0,0,0,.02812.14068c.05.03125.03688.10126-.05063.27a.86251.86251,0,0,0-.08721.57948,1.71082,1.71082,0,0,0,.05909.37976c.0164.0164.02812,0,.02812-.03938s.02344-.05311.05627-.0329a.19593.19593,0,0,1-.02251.28966c-.07233.04031-.07316.06956-.00562.20457.04219.08438.05134.13923.01967.11815q-.05906-.03939-.01687.09563a.9388.9388,0,0,1,.0422.19975c0,.03568.03657.05081.08158.03375.06843-.026.06713-.00281-.008.14345-.10983.21381-.11871.37345-.01729.31139.04909-.03009.0468-.016-.00844.05148a.155.155,0,0,0-.03657.15473,8.19866,8.19866,0,0,1,.11,1.49091,3.4443,3.4443,0,0,0,.03069.39381,2.12964,2.12964,0,0,1,.02531.30663c.00773.16878.0419.31543.076.32632q.06188.01965.01124.1547a.17882.17882,0,0,0,.03939.225.1658.1658,0,0,1,.03578.21381,1.14766,1.14766,0,0,0-.00384.64136.07247.07247,0,0,1-.01788.10407c-.037.02291-.04646.12379-.02532.27005.01875.12971.04375.45853.05626.73983.01235.27793.03647.8439.05345,1.25462a6.42466,6.42466,0,0,0,.0619.80171c.01767.03055.00561.05346-.02814.05346-.03824,0-.03128.0675.01969.19126a.41065.41065,0,0,1,.05112.21944.84434.84434,0,0,0-.01736.45948.66933.66933,0,0,1,.04782.28879.81191.81191,0,0,0,.05921.3263.71513.71513,0,0,1,.068.37131,4.95049,4.95049,0,0,0,.01381,1.00144.2097.2097,0,0,1-.02.18.21431.21431,0,0,0-.03443.15754,15.05937,15.05937,0,0,1,.17475,1.53028,2.38085,2.38085,0,0,0,.02284.2813c.00627.01568.02137.20253.0341.42195a4.351,4.351,0,0,0,.1403,1.2321.08614.08614,0,0,1,.00846.11534,1.51053,1.51053,0,0,0-.00564.50914c.02331.24863.075.84675.11533,1.33619a5.13487,5.13487,0,0,0,.11254.88612c.0212,0,.0212.06752,0,.14626a2.34051,2.34051,0,0,0,.00842.57668c.02625.23627.04656.55219.045.70044a7.39287,7.39287,0,0,0,.05727.7539,8.78728,8.78728,0,0,1,.07213,1.63155c-.02185.0874-.08721.13453-.22224.16035a.452.452,0,0,0-.21941.0844c-.01534.02608-.09845.02736-.18285.00278a4.52061,4.52061,0,0,0-.8017-.02247c-.35445.0123-.79455.02247-.97331.02247a1.60952,1.60952,0,0,0-.58512.112c-.29255.1266-.32057.1319-.27091.05117.05068-.08237-.01038-.06981-.16791.03452-.13647.09035-.27005.08688-.69764-.0182-.10127-.02489-.12376-.0149-.09.04.03442.05591,0,.06384-.14627.03375-.103-.02118-.29256-.05107-.4107-.06471a.75291.75291,0,0,1-.28692-.08158.18714.18714,0,0,0-.16879-.01812.77305.77305,0,0,1-.45571.00428,1.44573,1.44573,0,0,0-.3882-.0171,1.31739,1.31739,0,0,1-.436-.03655c-.06752-.03475-.09846-.02942-.09846.01686,0,.03938-.01524.05228-.03657.03094-.0197-.01969-.07034-.00929-.10971.02253-.05266.04252-.11253.03305-.21379-.03378a.32263.32263,0,0,0-.2588-.05344,2.02666,2.02666,0,0,1-.38257.05627,1.76932,1.76932,0,0,0-.422.07746c-.20253.07787-.20815.07689-.20815-.0381,0-.0844-.00662-.08569-.05627-.01125-.03375.05064-.0732.06189-.09859.02811-.04659-.06185-.3515-.08139-.3515-.02247,0,.01841-.07031.0235-.1547.01125a2.2411,2.2411,0,0,0-.49228.03094.78325.78325,0,0,1-.391.00281.08406.08406,0,0,0-.11815.00563,2.1619,2.1619,0,0,1-.59073.09,4.33412,4.33412,0,0,0-.571.05908c-.02613.01469-.05916-.01125-.07877-.06189s-.05618-.08721-.0872-.08721c-.03207,0-.03995.0225-.01969.05627s.01125.05625-.02251.05625a.40064.40064,0,0,0-.17159.12379c-.06816.07313-.11534.09382-.11534.0506,0-.05011-.06189-.06605-.1969-.0506-.15752.018-.19128.00448-.16879-.06752.01986-.06356-.01406-.09334-.11534-.10127-.07876-.0062-.132.00778-.11814.03094.01364.02273-.07595.04348-.1941.045s-.21941-.018-.21941-.04219c0-.027-.02251-.045-.05625-.045-.03,0-.05627.03936-.05627.08438,0,.05313-.05626.08441-.1519.08441-.14629,0-.14785-.00324-.04221-.08721.10173-.08086.0872-.08508-.19972-.05774a4.4033,4.4033,0,0,0-.85516.13576c-.18.06175-.35675.04618-.343-.03022.00635-.03534-.048-.05828-.12674-.05344-.08439.00517-.128.0357-.11251.07877.01416.03938.00427.07032-.02251.07032a.09558.09558,0,0,1-.07033-.06471.16062.16062,0,0,0-.11815-.07874c-.05063-.00744-.08107.00975-.06468.03658.01768.0289-.0197.05063-.08722.05063s-.10624-.01931-.09036-.045c.03539-.05741-.13468-.05457-.23032.00381a.071.071,0,0,1-.10213-.01506c-.04616-.075-.36975-.02814-.42713.06188-.0287.045-.05022.05828-.05022.03092s-.03375-.02006-.07877.01688c-.05626.04623-.09.04623-.11814,0a.18735.18735,0,0,0-.17441-.03936c-.07314.01372-.135.00855-.135-.01127,0-.02047-.12378-.039-.28132-.04219s-.26766.01668-.25034.045c.01665.02726-.00282.05455-.0422.05908s-.09911.01233-.1294.01688a.42261.42261,0,0,0-.12659.05064c-.03938.0236-.07032.01742-.07032-.01409,0-.03045-.12378-.05379-.27005-.05083-.32631.00651-.57386-.025-.57386-.07293,0-.01889-.09282-.01766-.211.00281a.60978.60978,0,0,1-.36569-.03939c-.08439-.04141-.15473-.05933-.15473-.03938,0,.0209-.03374.00883-.07875-.02814-.06188-.05083-.08419-.049-.10409.00847-.02122.06134-.03938.06134-.11251,0-.07267-.061-.09753-.05627-.14911.02811-.05843.09563-.0661.09581-.13781.00281a.27.27,0,0,0-.19411-.09844c-.09,0-.10945.02343-.08157.09844.03134.0844.02249.08721-.06191.01972-.08708-.06971-.11532-.0632-.2447.05624-.11817.10907-.13926.11555-.10973.03375q.03657-.10128-.03094-.059a.61525.61525,0,0,1-.211.05622c-.07876.00774-.15108.03693-.16033.06473-.009.02685-.08159.03874-.15472.02531-.07877-.01447-.12218-.05064-.10127-.08438.02382-.03846-.00563-.04829-.08439-.02814-.0675.01728-.13339.011-.14909-.014a1.05768,1.05768,0,0,0-.40789-.031.99908.99908,0,0,1-.50072-.06471c-.08439-.05493-.13288-.06-.16035-.01686a.11376.11376,0,0,1-.13221.02533,1.96318,1.96318,0,0,0-.37414-.06191,4.68887,4.68887,0,0,1-.47258-.06688c-.21235-.04615-.1924.04721-.25449-1.19052-.08916-1.77784-.111-2.49035-.09218-3.01.01116-.30813.02291-.97611.026-1.47682a7.5437,7.5437,0,0,1,.03375-.91423,9.8545,9.8545,0,0,0,.0253-1.04645c-.00153-.57385.02751-1.39453.0643-1.81722.10463-1.20168.13666-1.89035.16516-3.55.01457-.84954.06713-2.21945.11656-3.0381.0496-.82137.10013-1.68038.11251-1.91282.0123-.2307.04547-.575.07314-.75955a7.79043,7.79043,0,0,0,.06146-.78762c.015-.62451.02328-.72513.06232-.75767a18.073,18.073,0,0,0,.13389-2.196,6.90415,6.90415,0,0,1,.05739-.83548c.015-.01348-.00468-.06468-.04219-.10968-.05157-.06191-.05308-.0904-.00564-.1069a.631.631,0,0,0,.13785-.301c.0399-.1519.10511-.2785.14347-.2785a.18.18,0,0,0,.12377-.09282c.04706-.08175.2138-.09521,1.39526-.11254.737-.01078,1.89971-.034,2.57955-.05156C9.375,8.68958,9.34709,8.689,9.32911,8.80282A.25449.25449,0,0,0,9.375,8.98q.06186.076,0,.11422c-.08074.04991-.07314.32742.01124.41183.05063.05063.05063.06749,0,.06749a.072.072,0,0,0-.06751.07877.62914.62914,0,0,1-.16878.2588.74343.74343,0,0,0-.16877.23069c0,.02786-.05064.08225-.11253.121a.22744.22744,0,0,0-.11253.14062c0,.03939-.02351.07033-.05345.07033-.02938,0-.04331.05063-.03094.11254s-.00156.11251-.03093.11251-.0518.15754-.0498.3488a1.51266,1.51266,0,0,0,.6377,1.23472.99627.99627,0,0,0,1.04083.26555c.24754-.08438.737-.47168.737-.58319a.13662.13662,0,0,1,.09281-.10691c.05065-.0184.0775-.04909.05909-.06752s.01893-.09.08217-.15753a.91654.91654,0,0,0,.13322-1.04643.36552.36552,0,0,1-.086-.135.48554.48554,0,0,0-.25879-.2588.33289.33289,0,0,1-.16316-.11251,1.33921,1.33921,0,0,0-.65824-.33757c-.11421,0-.117-.01686-.08439-.50633a3.13331,3.13331,0,0,1,.06752-.55979,1.66969,1.66969,0,0,1,.59354-.02533c.36008.01812.55979.00705.55979-.03094a.05765.05765,0,0,1,.05907-.059c.03222,0,.04118.02811.01968.06185-.02683.04219,0,.04935.08441.02253a.23624.23624,0,0,1,.19128.01552,5.22664,5.22664,0,0,0,1.52805.04636c.02207-.045.03866-.045.06078,0,.0395.08036.46468.0348.60532-.0649a.16274.16274,0,0,1,.21661-.00826c.09.0554.1193.05236.16316-.01689.04631-.0731.0602-.07387.10409-.00561.03222.0501.14064.07566.29817.0702a3.90825,3.90825,0,0,0,1.13084-.11519c.036-.036.10689-.036.1969,0a.60352.60352,0,0,0,.28692.02625,3.39246,3.39246,0,0,1,.87768-.10245c.42758.003.43274.00381.39768.05931a3.19365,3.19365,0,0,0-.03762.58229l-.00561.53168-.22506.12917c-.2934.16845-.38256.39405-.38256.9679a1.37686,1.37686,0,0,0,.36006,1.13644c.24886.26444.5401.42826.5401.30385q0-.06757.04019-.01127c.04822.06749.35364.10149.35364.03938,0-.022.1294-.04685.29254-.05627a.58611.58611,0,0,0,.391-.121c.05321-.05624.08422-.117.06751-.13221-.01769-.01608.01967-.04409.08719-.06538.1519-.04788.25036-.36714.14065-.456-.10548-.08552-.10126-.13682.01125-.13682a.23834.23834,0,0,0,.21727-.29255c-.02659-.08437-.01713-.1053.0331-.07315.045.02883.05616.02172.03094-.01969a.17833.17833,0,0,0-.135-.06469c-.07733,0-.07033-.01938.03656-.10127.12231-.09367.12764-.11815.07109-.32632s-.37186-.57768-.43684-.51194c-.04368.0442-.24467-.14067-.24467-.22505,0-.06469-.11814-.10206-.24754-.07831-.0824.01514-.20248-.18613-.16476-.27612a1.6214,1.6214,0,0,0,.04416-.377c.00917-.30383.15257-.55848.2725-.48386a1.15363,1.15363,0,0,0,.57948-.025,4.03854,4.03854,0,0,1,1.213.01372Zm2.74777.02252c0,.09563-.08088.11007-.15726.02811-.06086-.0653-.05371-.07876.04194-.07876.06188,0,.11532.02347.11532.05065Zm-21.50837,1.986c-.01777.04618-.0302.03378-.03376-.03374-.003-.05627.01038-.09092.02814-.07316a.11577.11577,0,0,1,.00562.1069Zm-.45008,8.96793a.11579.11579,0,0,1-.1069.00561c-.0462-.01773-.03376-.03019.03376-.03374.05625-.003.0909.01037.07314.02813Zm23.06678,2.11538c-.01776.04621-.03019.03375-.03374-.03377-.003-.05622.01036-.09087.02813-.07311a.11566.11566,0,0,1,.00561.10688ZM2.21308,33.23674a.11554.11554,0,0,1-.10691.00563c-.0462-.01776-.03376-.03019.03375-.03374.05627-.003.09092.01037.07316.02811Zm.81858.19411c-.01963.07316-.05154.09475-.0872.05907a.10928.10928,0,0,1,.07313-.17439c.02416,0,.03067.05341.01407.11532Zm17.20164.07874c0,.01521-.02251.03884-.05626.0591-.03215.01931-.05627.00842-.05627-.02533a.05634.05634,0,0,1,.05627-.059c.03375,0,.05626.01012.05626.02528Zm.50634.03094a.05626.05626,0,1,1-.05626-.05622.05316.05316,0,0,1,.05626.05622Z"/></svg>